<svg width="36" height="39" viewBox="0 0 36 39" fill="none" xmlns="http://www.w3.org/2000/svg">
<path fill-rule="evenodd" clip-rule="evenodd" d="M4.4577 30.1128C3.35522 29.4763 2.55075 28.4279 2.22126 27.1982C1.89177 25.9686 2.06426 24.6584 2.70078 23.5559L13.9008 4.15692C14.5373 3.05444 15.5857 2.24996 16.8154 1.92048C18.045 1.59099 19.3552 1.76348 20.4577 2.4L31.5428 8.8C32.6453 9.43652 33.4498 10.4849 33.7793 11.7146C34.1088 12.9443 33.9363 14.2544 33.2997 15.3569L22.0997 34.7559C21.4632 35.8584 20.4148 36.6628 19.1852 36.9923C17.9555 37.3218 16.6453 37.1493 15.5428 36.5128L4.4577 30.1128ZM11.8146 26.9703C11.4471 26.7581 11.0104 26.7006 10.6005 26.8104C10.1906 26.9202 9.84116 27.1884 9.62898 27.5559C9.41681 27.9234 9.35931 28.3601 9.46914 28.77C9.57897 29.1799 9.84713 29.5294 10.2146 29.7415L12.9859 31.3415C13.3534 31.5537 13.7901 31.6112 14.2 31.5014C14.6099 31.3915 14.9594 31.1234 15.1715 30.7559C15.3837 30.3884 15.4412 29.9517 15.3314 29.5418C15.2216 29.1319 14.9534 28.7824 14.5859 28.5703L11.8146 26.9703Z" fill="#B7BCC1"/>
</svg>
