<svg width="33" height="37" viewBox="0 0 33 37" fill="none" xmlns="http://www.w3.org/2000/svg">
<path fill-rule="evenodd" clip-rule="evenodd" d="M3.15692 29.1128C2.05444 28.4763 1.24996 27.4279 0.920477 26.1982C0.590991 24.9686 0.76348 23.6584 1.4 22.5559L12.6 3.15692C13.2365 2.05444 14.2849 1.24996 15.5146 0.920478C16.7443 0.590991 18.0544 0.76348 19.1569 1.4L30.242 7.8C31.3445 8.43652 32.149 9.48493 32.4785 10.7146C32.808 11.9443 32.6355 13.2544 31.999 14.3569L20.799 33.7559C20.1624 34.8584 19.114 35.6628 17.8844 35.9923C16.6547 36.3218 15.3445 36.1493 14.242 35.5128L3.15692 29.1128ZM10.5138 25.9703C10.1463 25.7581 9.70962 25.7006 9.29973 25.8104C8.88985 25.9202 8.54038 26.1884 8.3282 26.5559C8.11603 26.9234 8.05853 27.3601 8.16836 27.77C8.27819 28.1799 8.54635 28.5294 8.91384 28.7415L11.6851 30.3415C12.0526 30.5537 12.4893 30.6112 12.8992 30.5014C13.3091 30.3915 13.6586 30.1234 13.8708 29.7559C14.0829 29.3884 14.1404 28.9517 14.0306 28.5418C13.9208 28.1319 13.6526 27.7824 13.2851 27.5703L10.5138 25.9703Z" fill="white"/>
</svg>
