<svg width="55" height="78" viewBox="0 0 55 78" fill="none" xmlns="http://www.w3.org/2000/svg">
<g filter="url(#filter0_d)">
<path fill-rule="evenodd" clip-rule="evenodd" d="M8.16529 30.2707C8.50587 29.9098 9.07272 29.9098 9.42521 30.2707C9.7658 30.6195 9.7658 31.1999 9.42521 31.5478L3.03668 38.0895H24.118C24.6094 38.0903 25 38.4903 25 38.9935C25 39.4967 24.6094 39.9097 24.118 39.9097H3.03668L9.42521 46.4392C9.7658 46.8001 9.7658 47.3814 9.42521 47.7293C9.07272 48.0902 8.50508 48.0902 8.16529 47.7293L0.26437 39.639C-0.0881233 39.2902 -0.0881233 38.7098 0.26437 38.3618L8.16529 30.2707Z" fill="#D6D6D6"/>
</g>
<defs>
<filter id="filter0_d" x="-30" y="0" width="85" height="78" filterUnits="userSpaceOnUse" color-interpolation-filters="sRGB">
<feFlood flood-opacity="0" result="BackgroundImageFix"/>
<feColorMatrix in="SourceAlpha" type="matrix" values="0 0 0 0 0 0 0 0 0 0 0 0 0 0 0 0 0 0 127 0"/>
<feOffset/>
<feGaussianBlur stdDeviation="15"/>
<feColorMatrix type="matrix" values="0 0 0 0 0.142207 0 0 0 0 0.850833 0 0 0 0 1 0 0 0 0.414909 0"/>
<feBlend mode="normal" in2="BackgroundImageFix" result="effect1_dropShadow"/>
<feBlend mode="normal" in="SourceGraphic" in2="effect1_dropShadow" result="shape"/>
</filter>
</defs>
</svg>
