<svg width="22" height="20" viewBox="0 0 22 20" fill="none" xmlns="http://www.w3.org/2000/svg">
<path d="M21.8475 14.2859L20.7999 13.2468C20.6316 13.0798 20.3598 13.081 20.1929 13.2493C20.0259 13.4176 20.027 13.6894 20.1954 13.8564L21.2429 14.8954C21.3266 14.9785 21.4359 15.02 21.5452 15.02C21.6556 15.02 21.766 14.9776 21.8499 14.893C22.017 14.7246 22.0159 14.4528 21.8475 14.2859Z" fill="white"/>
<path d="M19.7314 12.1837C19.5638 12.0161 19.292 12.0161 19.1243 12.1837L19.1236 12.1844C18.9559 12.3521 18.9563 12.6235 19.124 12.7912C19.2077 12.8749 19.3175 12.9168 19.4273 12.9168C19.5373 12.9168 19.6474 12.8747 19.7314 12.7908C19.899 12.6232 19.899 12.3514 19.7314 12.1837Z" fill="white"/>
<path fill-rule="evenodd" clip-rule="evenodd" d="M20.237 9.99879L16.0727 14.163C14.9136 15.3222 13.386 16.0096 11.7544 16.1103L11.4786 16.3872C12.0207 16.691 12.6417 16.8286 13.2698 16.7771L13.4059 16.7659C13.5316 16.7556 13.6554 16.8011 13.7446 16.8902L16.0991 19.245C16.2667 19.4127 16.2667 19.6845 16.0991 19.8521C16.0153 19.936 15.9054 19.9779 15.7956 19.9779C15.6857 19.9779 15.5759 19.9359 15.492 19.8521L13.2775 17.6376C12.4181 17.6944 11.5729 17.4752 10.8541 17.0141L8.02466 19.854C7.94084 19.9382 7.83067 19.9803 7.72058 19.9803C7.61097 19.9803 7.50135 19.9386 7.41762 19.8551C7.24963 19.6878 7.24916 19.416 7.4165 19.2481L11.2634 15.3869C11.3401 15.3099 11.4433 15.2648 11.5519 15.2609C13.0297 15.2072 14.4195 14.6019 15.4651 13.5562L19.6294 9.39192C19.9254 9.09591 19.9254 8.61432 19.6294 8.31836C19.3336 8.02252 18.8523 8.02248 18.5563 8.31797L18.0284 8.84587C17.9446 8.92969 17.8347 8.97162 17.7249 8.97162C17.615 8.97162 17.5052 8.92965 17.4214 8.84587C17.2537 8.67819 17.2537 8.40639 17.4214 8.23875L17.9489 7.71123L18.5256 7.13454C18.669 6.99119 18.7479 6.80055 18.7479 6.5978C18.7479 6.39501 18.669 6.20445 18.5256 6.06106C18.3822 5.91763 18.1916 5.8387 17.9888 5.8387C17.7861 5.8387 17.5955 5.91763 17.4521 6.06106L16.3479 7.16527C16.2641 7.24909 16.1542 7.29102 16.0444 7.29102C15.9345 7.29102 15.8247 7.24905 15.7408 7.16527C15.5732 6.99759 15.5732 6.72578 15.7408 6.55814L16.845 5.45394L17.2652 5.03377C17.5612 4.73776 17.5612 4.25621 17.2652 3.9602C16.9692 3.66424 16.4876 3.66428 16.1917 3.96025L14.6673 5.48463C14.5835 5.56845 14.4736 5.61038 14.3638 5.61038C14.254 5.61038 14.1441 5.5684 14.0603 5.48463C13.8926 5.31694 13.8926 5.04514 14.0603 4.8775L15.5847 3.35312L16.0048 2.93299C16.1482 2.78965 16.2271 2.599 16.2271 2.39626C16.2271 2.19347 16.1482 2.00291 16.0048 1.85952C15.8614 1.71608 15.6708 1.63716 15.468 1.63716C15.2653 1.63716 15.0747 1.71608 14.9313 1.85952L12.0818 4.70905C12.6028 5.34385 12.5671 6.28561 11.9745 6.87823C11.6592 7.19355 11.2449 7.35123 10.8307 7.35123C10.8091 7.35123 10.7876 7.35055 10.7661 7.34969C10.767 7.37141 10.7677 7.39312 10.7677 7.41497C10.7677 7.84703 10.5994 8.25325 10.2939 8.55879C9.97861 8.87411 9.56431 9.03179 9.15011 9.03179C9.12856 9.03179 9.10706 9.03111 9.08556 9.03025C9.08642 9.05196 9.08715 9.07368 9.08715 9.09553C9.08715 9.52759 8.91886 9.93381 8.61337 10.2393C8.29809 10.5546 7.88371 10.7123 7.46955 10.7124C7.44779 10.7124 7.42603 10.7117 7.40427 10.7108C7.42174 11.1465 7.26474 11.588 6.93281 11.9199C6.62727 12.2254 6.22105 12.3937 5.78899 12.3937C5.50397 12.3937 5.23049 12.3202 4.98951 12.1827L0.732768 16.4394C0.648948 16.5232 0.539077 16.5651 0.429249 16.5651C0.319421 16.5651 0.209549 16.5232 0.12573 16.4394C-0.0419099 16.2717 -0.0419099 15.9999 0.12573 15.8323L4.34178 11.6163L3.48539 10.7599C2.8547 10.1292 2.8547 9.10295 3.48539 8.47226C3.70333 8.25437 3.9726 8.10673 4.26577 8.03973C3.98891 7.44149 4.09676 6.70759 4.58933 6.21501C4.82873 5.97557 5.13011 5.82089 5.45715 5.76497C5.40406 5.60355 5.37603 5.43299 5.37603 5.25806C5.37603 4.826 5.54431 4.41978 5.84981 4.11424C6.09513 3.86896 6.40041 3.71952 6.71882 3.66505C6.53406 3.10325 6.66423 2.45956 7.11024 2.01355C7.41577 1.70806 7.822 1.53978 8.2541 1.53978C8.47066 1.53978 8.68075 1.58214 8.87491 1.66278C8.80204 1.45656 8.76393 1.23724 8.76393 1.01196V0.449046C8.76393 0.212007 8.95616 0.0197754 9.1932 0.0197754H12.564C13.3541 0.0197754 14.116 0.351492 14.6543 0.929947L14.6957 0.974454C14.9301 0.846642 15.1939 0.778574 15.4683 0.778574C15.9004 0.778574 16.3066 0.946857 16.6121 1.25235C16.9176 1.55784 17.0859 1.96407 17.0859 2.39617C17.0859 2.57145 17.0578 2.74226 17.0045 2.90402C17.3226 2.95862 17.6275 3.10797 17.8726 3.35304C18.3184 3.79879 18.4487 4.44201 18.2644 5.00364C18.5918 5.05939 18.8935 5.21415 19.1331 5.45381C19.4386 5.7593 19.6068 6.16553 19.6068 6.59763C19.6068 6.83716 19.5549 7.06862 19.4568 7.27952C19.7429 7.34505 20.0145 7.48866 20.2369 7.71106C20.8677 8.34179 20.8677 9.36806 20.237 9.99879ZM5.78903 11.5352C5.99174 11.5352 6.18238 11.4563 6.32577 11.3129C6.62174 11.0169 6.62174 10.5353 6.32582 10.2393L5.1659 9.07943C5.02255 8.936 4.83191 8.85707 4.62916 8.85707C4.42642 8.85707 4.23577 8.936 4.09238 9.07943C3.79642 9.37544 3.79642 9.85703 4.09238 10.153L5.2523 11.3129C5.39564 11.4563 5.58624 11.5352 5.78903 11.5352ZM8.00642 9.63222C7.71041 9.92819 7.22873 9.92819 6.93285 9.63222L5.77294 8.47231L5.1962 7.89557C4.90024 7.5996 4.90024 7.11802 5.1962 6.82205C5.33959 6.67862 5.53024 6.59969 5.73294 6.59969C5.93573 6.59969 6.12633 6.67862 6.26968 6.82205L8.00629 8.55866H8.00633C8.14976 8.70209 8.22869 8.89269 8.22869 9.09544C8.22869 9.29819 8.14976 9.48883 8.00642 9.63222ZM8.61341 7.95162C8.90934 8.24759 9.39097 8.24754 9.68697 7.95162C9.83037 7.80827 9.90929 7.61763 9.90921 7.41484C9.90921 7.21205 9.83028 7.02149 9.68693 6.8781H9.68689L8.51281 5.70402L7.52981 4.72102C7.38187 4.57329 7.18766 4.49939 6.99341 4.49939C6.79908 4.49939 6.60466 4.57338 6.45667 4.72136C6.31324 4.86471 6.23431 5.05536 6.23431 5.2581C6.23431 5.46089 6.31324 5.65145 6.45663 5.79484L8.61341 7.95162ZM11.3676 6.27102C11.0716 6.56699 10.59 6.56699 10.2941 6.27102L8.13727 4.11424L8.13655 4.11355L7.7171 3.69411C7.42114 3.3981 7.42114 2.91656 7.7171 2.62055C7.86509 2.47252 8.05951 2.39853 8.25388 2.39853C8.44826 2.39853 8.64268 2.47252 8.79062 2.62055L11.3675 5.19741C11.5109 5.34081 11.5898 5.53141 11.5898 5.73415C11.5899 5.93699 11.511 6.12767 11.3676 6.27102ZM10.3014 2.9172L11.4805 4.09626L14.0432 1.53355L14.0258 1.5148C13.6493 1.11025 13.1165 0.878273 12.5639 0.878273H9.62234V1.01192C9.62234 1.3042 9.73637 1.57862 9.9435 1.7848C10.1493 1.98965 10.4223 2.10231 10.7126 2.10231H10.7179L11.8959 2.09677H11.898C12.1341 2.09677 12.3261 2.28763 12.3272 2.52402C12.3283 2.76111 12.137 2.9542 11.9 2.95531L10.722 2.96085H10.7125C10.5726 2.96089 10.4351 2.94574 10.3014 2.9172Z" fill="white"/>
</svg>
