<svg width="32" height="28" viewBox="0 0 32 28" fill="none" xmlns="http://www.w3.org/2000/svg">
<path d="M12.8364 20.2548C12.7231 20.2548 12.609 20.2158 12.5158 20.1365L9.31084 17.4075C9.20029 17.3132 9.13672 17.1756 9.13672 17.0302C9.13672 16.8851 9.20056 16.7474 9.31084 16.6532L12.5158 13.9242C12.7239 13.7467 13.0365 13.7719 13.214 13.98C13.3911 14.1884 13.3662 14.501 13.1579 14.6781L10.3959 17.0302L13.1579 19.3822C13.3662 19.5597 13.3911 19.8723 13.214 20.0804C13.1158 20.1956 12.9765 20.2548 12.8364 20.2548Z" fill="url(#paint0_linear)" stroke="url(#paint1_linear)" stroke-width="0.4"/>
<path d="M19.1635 20.2548C19.0234 20.2548 18.8841 20.1956 18.7862 20.0804C18.6088 19.8723 18.6339 19.5597 18.8421 19.3822L21.604 17.0302L18.8421 14.6781C18.6339 14.501 18.6088 14.1884 18.7862 13.98C18.9634 13.7719 19.2763 13.7467 19.4841 13.9242L22.6891 16.6532C22.7996 16.7474 22.8632 16.8851 22.8632 17.0302C22.8632 17.1756 22.7996 17.3132 22.6891 17.4075L19.4841 20.1365C19.391 20.2158 19.2768 20.2548 19.1635 20.2548Z" fill="url(#paint2_linear)" stroke="url(#paint3_linear)" stroke-width="0.4"/>
<path d="M14.8652 22.3016C14.8312 22.3016 14.7969 22.298 14.7624 22.2908C14.4949 22.2344 14.3235 21.9716 14.3799 21.704L16.3773 12.2204C16.4337 11.9529 16.6963 11.7815 16.9641 11.8379C17.2316 11.8943 17.403 12.1568 17.3466 12.4246L15.3492 21.9083C15.3 22.1415 15.0943 22.3016 14.8652 22.3016Z" fill="url(#paint4_linear)" stroke="url(#paint5_linear)" stroke-width="0.4"/>
<path fill-rule="evenodd" clip-rule="evenodd" d="M4.32547 27.4683H27.6745C29.5081 27.4683 31 25.9767 31 24.1429V4.32547C31 2.49193 29.5081 1 27.6745 1H4.32547C2.49193 1 1 2.49193 1 4.32547V24.1429C1 25.9767 2.49193 27.4683 4.32547 27.4683ZM1.99057 4.32547C1.99057 3.03807 3.03807 1.99057 4.32547 1.99057H27.6745C28.9619 1.99057 30.0094 3.03807 30.0094 4.32547V24.1429C30.0094 25.4303 28.9619 26.4778 27.6745 26.4778H4.32547C3.03807 26.4778 1.99057 25.4303 1.99057 24.1429V4.32547Z" fill="url(#paint6_linear)"/>
<path d="M27.6745 27.2683H4.32547V27.6683H27.6745V27.2683ZM30.8 24.1429C30.8 25.8662 29.3976 27.2683 27.6745 27.2683V27.6683C29.6185 27.6683 31.2 26.0872 31.2 24.1429H30.8ZM30.8 4.32547V24.1429H31.2V4.32547H30.8ZM27.6745 1.2C29.3976 1.2 30.8 2.60239 30.8 4.32547H31.2C31.2 2.38147 29.6185 0.8 27.6745 0.8V1.2ZM4.32547 1.2H27.6745V0.8H4.32547V1.2ZM1.2 4.32547C1.2 2.60239 2.60239 1.2 4.32547 1.2V0.8C2.38147 0.8 0.8 2.38147 0.8 4.32547H1.2ZM1.2 24.1429V4.32547H0.8V24.1429H1.2ZM4.32547 27.2683C2.60238 27.2683 1.2 25.8662 1.2 24.1429H0.8C0.8 26.0872 2.38148 27.6683 4.32547 27.6683V27.2683ZM4.32547 1.79057C2.92761 1.79057 1.79057 2.92761 1.79057 4.32547H2.19057C2.19057 3.14852 3.14852 2.19057 4.32547 2.19057V1.79057ZM27.6745 1.79057H4.32547V2.19057H27.6745V1.79057ZM30.2094 4.32547C30.2094 2.92761 29.0724 1.79057 27.6745 1.79057V2.19057C28.8515 2.19057 29.8094 3.14852 29.8094 4.32547H30.2094ZM30.2094 24.1429V4.32547H29.8094V24.1429H30.2094ZM27.6745 26.6778C29.0724 26.6778 30.2094 25.5407 30.2094 24.1429H29.8094C29.8094 25.3198 28.8515 26.2778 27.6745 26.2778V26.6778ZM4.32547 26.6778H27.6745V26.2778H4.32547V26.6778ZM1.79057 24.1429C1.79057 25.5407 2.92761 26.6778 4.32547 26.6778V26.2778C3.14852 26.2778 2.19057 25.3198 2.19057 24.1429H1.79057ZM1.79057 4.32547V24.1429H2.19057V4.32547H1.79057Z" fill="url(#paint7_linear)"/>
<path d="M30.5047 8.931H1.49528C1.22166 8.931 1 8.70933 1 8.43571C1 8.16237 1.22166 7.94043 1.49528 7.94043H30.5047C30.7783 7.94043 31 8.16237 31 8.43571C31 8.70933 30.7783 8.931 30.5047 8.931Z" fill="url(#paint8_linear)" stroke="url(#paint9_linear)" stroke-width="0.4"/>
<path fill-rule="evenodd" clip-rule="evenodd" d="M7.89453 4.99341C7.89453 5.85739 8.59793 6.56079 9.46191 6.56079C10.3262 6.56079 11.0293 5.85739 11.0293 4.99341C11.0293 4.12915 10.3262 3.42603 9.46191 3.42603C8.59793 3.42603 7.89453 4.12915 7.89453 4.99341ZM8.8851 4.99341C8.8851 4.67529 9.14407 4.41659 9.46191 4.41659C9.78003 4.41659 10.0387 4.67529 10.0387 4.99341C10.0387 5.31153 9.78003 5.57023 9.46191 5.57023C9.14407 5.57023 8.8851 5.31153 8.8851 4.99341Z" fill="url(#paint10_linear)"/>
<path d="M9.46191 6.36079C8.70839 6.36079 8.09453 5.74693 8.09453 4.99341H7.69453C7.69453 5.96785 8.48748 6.76079 9.46191 6.76079V6.36079ZM10.8293 4.99341C10.8293 5.74696 10.2157 6.36079 9.46191 6.36079V6.76079C10.4367 6.76079 11.2293 5.96782 11.2293 4.99341H10.8293ZM9.46191 3.62603C10.2157 3.62603 10.8293 4.23961 10.8293 4.99341H11.2293C11.2293 4.01869 10.4366 3.22603 9.46191 3.22603V3.62603ZM8.09453 4.99341C8.09453 4.23963 8.70837 3.62603 9.46191 3.62603V3.22603C8.4875 3.22603 7.69453 4.01867 7.69453 4.99341H8.09453ZM9.46191 4.21659C9.03368 4.21659 8.6851 4.56477 8.6851 4.99341H9.0851C9.0851 4.78581 9.25447 4.61659 9.46191 4.61659V4.21659ZM10.2387 4.99341C10.2387 4.56483 9.89049 4.21659 9.46191 4.21659V4.61659C9.66958 4.61659 9.83873 4.78575 9.83873 4.99341H10.2387ZM9.46191 5.77023C9.89049 5.77023 10.2387 5.42198 10.2387 4.99341H9.83873C9.83873 5.20107 9.66958 5.37022 9.46191 5.37022V5.77023ZM8.6851 4.99341C8.6851 5.42205 9.03368 5.77023 9.46191 5.77023V5.37022C9.25447 5.37022 9.0851 5.20101 9.0851 4.99341H8.6851Z" fill="url(#paint11_linear)"/>
<path fill-rule="evenodd" clip-rule="evenodd" d="M3.08008 4.97827C3.08008 5.84253 3.7832 6.54565 4.64746 6.54565C5.51172 6.54565 6.21484 5.84253 6.21484 4.97827C6.21484 4.11401 5.51172 3.41089 4.64746 3.41089C3.7832 3.41089 3.08008 4.11401 3.08008 4.97827ZM4.07064 4.97827C4.07064 4.66043 4.32962 4.40145 4.64746 4.40145C4.96558 4.40145 5.22428 4.66043 5.22428 4.97827C5.22428 5.29639 4.96558 5.55509 4.64746 5.55509C4.32962 5.55509 4.07064 5.29639 4.07064 4.97827Z" fill="url(#paint12_linear)"/>
<path d="M4.64746 6.34565C3.89366 6.34565 3.28008 5.73207 3.28008 4.97827H2.88008C2.88008 5.95299 3.67275 6.74565 4.64746 6.74565V6.34565ZM6.01484 4.97827C6.01484 5.73207 5.40126 6.34565 4.64746 6.34565V6.74565C5.62218 6.74565 6.41484 5.95299 6.41484 4.97827H6.01484ZM4.64746 3.61089C5.40126 3.61089 6.01484 4.22447 6.01484 4.97827H6.41484C6.41484 4.00356 5.62218 3.21089 4.64746 3.21089V3.61089ZM3.28008 4.97827C3.28008 4.22447 3.89366 3.61089 4.64746 3.61089V3.21089C3.67275 3.21089 2.88008 4.00356 2.88008 4.97827H3.28008ZM4.64746 4.20145C4.21916 4.20145 3.87064 4.54997 3.87064 4.97827H4.27064C4.27064 4.77088 4.44007 4.60145 4.64746 4.60145V4.20145ZM5.42428 4.97827C5.42428 4.55003 5.0761 4.20145 4.64746 4.20145V4.60145C4.85506 4.60145 5.02428 4.77082 5.02428 4.97827H5.42428ZM4.64746 5.75509C5.07604 5.75509 5.42428 5.40685 5.42428 4.97827H5.02428C5.02428 5.18593 4.85512 5.35509 4.64746 5.35509V5.75509ZM3.87064 4.97827C3.87064 5.40691 4.21922 5.75509 4.64746 5.75509V5.35509C4.44001 5.35509 4.27064 5.18587 4.27064 4.97827H3.87064Z" fill="url(#paint13_linear)"/>
<path fill-rule="evenodd" clip-rule="evenodd" d="M12.7109 5.00851C12.7109 5.87277 13.4141 6.5759 14.278 6.5759C15.1423 6.5759 15.8454 5.87277 15.8454 5.00851C15.8454 4.14453 15.1423 3.44141 14.278 3.44141C13.4141 3.44141 12.7109 4.14453 12.7109 5.00851ZM13.7015 5.00851C13.7015 4.69039 13.9602 4.4317 14.278 4.4317C14.5962 4.4317 14.8549 4.69039 14.8549 5.00851C14.8549 5.32663 14.5962 5.58533 14.278 5.58533C13.9602 5.58533 13.7015 5.32663 13.7015 5.00851Z" fill="url(#paint14_linear)"/>
<path d="M14.278 6.3759C13.5245 6.3759 12.9109 5.76234 12.9109 5.00851H12.5109C12.5109 5.9832 13.3036 6.7759 14.278 6.7759V6.3759ZM15.6454 5.00851C15.6454 5.76231 15.0318 6.3759 14.278 6.3759V6.7759C15.2528 6.7759 16.0454 5.98323 16.0454 5.00851H15.6454ZM14.278 3.64141C15.0319 3.64141 15.6454 4.25501 15.6454 5.00851H16.0454C16.0454 4.03405 15.2527 3.24141 14.278 3.24141V3.64141ZM12.9109 5.00851C12.9109 4.25499 13.5245 3.64141 14.278 3.64141V3.24141C13.3036 3.24141 12.5109 4.03407 12.5109 5.00851H12.9109ZM14.278 4.2317C13.8497 4.2317 13.5015 4.58 13.5015 5.00851H13.9015C13.9015 4.80079 14.0707 4.6317 14.278 4.6317V4.2317ZM15.0549 5.00851C15.0549 4.57994 14.7066 4.2317 14.278 4.2317V4.6317C14.4857 4.6317 14.6549 4.80085 14.6549 5.00851H15.0549ZM14.278 5.78533C14.7066 5.78533 15.0549 5.43709 15.0549 5.00851H14.6549C14.6549 5.21618 14.4857 5.38533 14.278 5.38533V5.78533ZM13.5015 5.00851C13.5015 5.43703 13.8497 5.78533 14.278 5.78533V5.38533C14.0707 5.38533 13.9015 5.21624 13.9015 5.00851H13.5015Z" fill="url(#paint15_linear)"/>
<defs>
<linearGradient id="paint0_linear" x1="9.51953" y1="13.9958" x2="9.51953" y2="19.2678" gradientUnits="userSpaceOnUse">
<stop stop-color="#FFDF11"/>
<stop offset="1" stop-color="#FFBA0C"/>
</linearGradient>
<linearGradient id="paint1_linear" x1="9.51953" y1="13.9958" x2="9.51953" y2="19.2678" gradientUnits="userSpaceOnUse">
<stop stop-color="#FFDF11"/>
<stop offset="1" stop-color="#FFBA0C"/>
</linearGradient>
<linearGradient id="paint2_linear" x1="19.0508" y1="13.9958" x2="19.0508" y2="19.2678" gradientUnits="userSpaceOnUse">
<stop stop-color="#FFDF11"/>
<stop offset="1" stop-color="#FFBA0C"/>
</linearGradient>
<linearGradient id="paint3_linear" x1="19.0508" y1="13.9958" x2="19.0508" y2="19.2678" gradientUnits="userSpaceOnUse">
<stop stop-color="#FFDF11"/>
<stop offset="1" stop-color="#FFBA0C"/>
</linearGradient>
<linearGradient id="paint4_linear" x1="14.6418" y1="12.1356" x2="14.6418" y2="20.6985" gradientUnits="userSpaceOnUse">
<stop stop-color="#FFDF11"/>
<stop offset="1" stop-color="#FFBA0C"/>
</linearGradient>
<linearGradient id="paint5_linear" x1="14.6418" y1="12.1356" x2="14.6418" y2="20.6985" gradientUnits="userSpaceOnUse">
<stop stop-color="#FFDF11"/>
<stop offset="1" stop-color="#FFBA0C"/>
</linearGradient>
<linearGradient id="paint6_linear" x1="3.73739" y1="1.77951" x2="3.73739" y2="23.4176" gradientUnits="userSpaceOnUse">
<stop stop-color="#FFDF11"/>
<stop offset="1" stop-color="#FFBA0C"/>
</linearGradient>
<linearGradient id="paint7_linear" x1="3.73739" y1="1.77951" x2="3.73739" y2="23.4176" gradientUnits="userSpaceOnUse">
<stop stop-color="#FFDF11"/>
<stop offset="1" stop-color="#FFBA0C"/>
</linearGradient>
<linearGradient id="paint8_linear" x1="3.73739" y1="7.9696" x2="3.73739" y2="8.7794" gradientUnits="userSpaceOnUse">
<stop stop-color="#FFDF11"/>
<stop offset="1" stop-color="#FFBA0C"/>
</linearGradient>
<linearGradient id="paint9_linear" x1="3.73739" y1="7.9696" x2="3.73739" y2="8.7794" gradientUnits="userSpaceOnUse">
<stop stop-color="#FFDF11"/>
<stop offset="1" stop-color="#FFBA0C"/>
</linearGradient>
<linearGradient id="paint10_linear" x1="8.18057" y1="3.51835" x2="8.18057" y2="6.08104" gradientUnits="userSpaceOnUse">
<stop stop-color="#FFDF11"/>
<stop offset="1" stop-color="#FFBA0C"/>
</linearGradient>
<linearGradient id="paint11_linear" x1="8.18057" y1="3.51835" x2="8.18057" y2="6.08104" gradientUnits="userSpaceOnUse">
<stop stop-color="#FFDF11"/>
<stop offset="1" stop-color="#FFBA0C"/>
</linearGradient>
<linearGradient id="paint12_linear" x1="3.36611" y1="3.50321" x2="3.36611" y2="6.0659" gradientUnits="userSpaceOnUse">
<stop stop-color="#FFDF11"/>
<stop offset="1" stop-color="#FFBA0C"/>
</linearGradient>
<linearGradient id="paint13_linear" x1="3.36611" y1="3.50321" x2="3.36611" y2="6.0659" gradientUnits="userSpaceOnUse">
<stop stop-color="#FFDF11"/>
<stop offset="1" stop-color="#FFBA0C"/>
</linearGradient>
<linearGradient id="paint14_linear" x1="12.9969" y1="3.53372" x2="12.9969" y2="6.09619" gradientUnits="userSpaceOnUse">
<stop stop-color="#FFDF11"/>
<stop offset="1" stop-color="#FFBA0C"/>
</linearGradient>
<linearGradient id="paint15_linear" x1="12.9969" y1="3.53372" x2="12.9969" y2="6.09619" gradientUnits="userSpaceOnUse">
<stop stop-color="#FFDF11"/>
<stop offset="1" stop-color="#FFBA0C"/>
</linearGradient>
</defs>
</svg>
