<svg width="28" height="27" viewBox="0 0 28 27" fill="none" xmlns="http://www.w3.org/2000/svg">
<path fill-rule="evenodd" clip-rule="evenodd" d="M27.3352 9.57476C27.6283 9.62073 27.8696 9.82187 27.9616 10.1035C28.0535 10.3851 27.9788 10.6954 27.7547 10.9023L21.4561 17.0802L22.9676 25.7292C22.9848 25.7867 22.9905 25.8441 22.9905 25.9073C22.9905 26.3326 22.64 26.6832 22.2147 26.6832C22.094 26.6832 21.9734 26.6544 21.8584 26.597L14.0369 22.5109L6.23844 26.6429C6.12351 26.7062 6.00282 26.7349 5.87639 26.7349C5.71548 26.7349 5.55457 26.6832 5.42239 26.5855C5.18102 26.4131 5.06034 26.12 5.11206 25.8269L6.57751 17.1261L0.238721 10.9827C0.026087 10.7816 -0.054369 10.4713 0.0375807 10.1897C0.129531 9.90808 0.370899 9.70694 0.663989 9.66096L9.39922 8.36217L13.2783 0.43725C13.4105 0.167147 13.6806 0.000488281 13.9737 0.000488281C14.2668 0.000488281 14.5369 0.167147 14.6691 0.431503L18.5999 8.33344L27.3352 9.57476ZM19.87 16.948C19.824 16.6951 19.9045 16.4365 20.0884 16.2584L25.5651 10.8965L17.9793 9.81613C17.7264 9.7759 17.508 9.62074 17.3931 9.39086L13.9795 2.52911L10.6118 9.4081C10.5026 9.63798 10.2842 9.79314 10.0314 9.83337L2.45126 10.9598L7.94526 16.2928C8.12916 16.471 8.20962 16.7239 8.16939 16.9767L6.89933 24.5338L13.6691 20.9478C13.899 20.8329 14.1691 20.8271 14.3932 20.9478L21.186 24.4936L19.87 16.948Z" fill="url(#paint0_linear)"/>
<defs>
<linearGradient id="paint0_linear" x1="2.5549" y1="0.787837" x2="2.5549" y2="22.6434" gradientUnits="userSpaceOnUse">
<stop stop-color="#FFDF11"/>
<stop offset="1" stop-color="#FFBA0C"/>
</linearGradient>
</defs>
</svg>
