<svg width="28" height="20" viewBox="0 0 28 20" fill="none" xmlns="http://www.w3.org/2000/svg">
<path fill-rule="evenodd" clip-rule="evenodd" d="M27.2539 1.67974H27.2485H25.4222V1.05482C25.4321 0.80748 25.2721 0.585191 25.0343 0.5161C23.7665 0.183844 22.4609 0.0172444 21.1502 0.0204767C18.9953 0.0204767 16.0593 0.505325 13.8882 2.71408C11.7333 0.483776 8.77576 0.0204767 6.62626 0.0204767C5.31556 0.0172444 4.00997 0.183844 2.74209 0.5161C2.50438 0.585191 2.34438 0.80748 2.35421 1.05482V1.67435H0.538721C0.241212 1.67435 0 1.91556 0 2.21307V19.4198C0 19.7173 0.241212 19.9585 0.538721 19.9585C0.631246 19.9583 0.722155 19.9341 0.802694 19.8885L0.809418 19.885C1.0304 19.768 6.36473 16.9453 13.7643 18.8111H13.8451H13.8936C13.9366 18.8162 13.9799 18.8162 14.0229 18.8111C21.565 16.8986 26.9522 19.84 26.9845 19.8885C27.1512 19.9847 27.3566 19.9847 27.5232 19.8885C27.6889 19.7929 27.7914 19.6165 27.7926 19.4252V2.21846C27.7926 1.92095 27.5514 1.67974 27.2539 1.67974ZM1.07744 18.5632V2.75718H2.36498V16.2683C2.36162 16.5658 2.60007 16.8097 2.89758 16.8131C2.92667 16.8134 2.95576 16.8114 2.98451 16.807C4.09899 16.6368 5.22417 16.5468 6.35152 16.5376C7.91313 16.5106 9.46821 16.7455 10.9522 17.2326C7.60101 16.8273 4.20182 17.2854 1.07744 18.5632ZM3.42088 15.6541C4.39293 15.5308 5.37165 15.4678 6.35151 15.4656C10.0471 15.4656 12.2343 16.4515 13.3549 17.1841L13.3387 3.76458C11.4101 1.58815 8.6303 1.12485 6.61549 1.12485C5.54088 1.12748 4.46976 1.24674 3.42088 1.48041V15.6541ZM14.4323 3.76458C16.3609 1.6097 19.1407 1.12485 21.1556 1.12485C22.2301 1.12802 23.3012 1.24721 24.3502 1.48041V15.6541C23.3836 15.5296 22.4102 15.4649 21.4357 15.4602C17.7616 15.4602 15.569 16.4461 14.4323 17.1787V3.76458ZM16.8135 17.2326C20.1717 16.8238 23.5787 17.2819 26.7098 18.5632L26.7313 2.75718H25.4438V16.2629C25.4441 16.292 25.4421 16.3211 25.4377 16.3498C25.3931 16.644 25.1184 16.8463 24.8242 16.8016C23.7026 16.6322 22.5701 16.544 21.4357 16.5376C19.8669 16.5088 18.3044 16.7437 16.8135 17.2326Z" fill="white"/>
</svg>
