<svg width="20" height="23" viewBox="0 0 20 23" fill="none" xmlns="http://www.w3.org/2000/svg">
<path d="M12.174 3.60889C11.934 3.60889 11.7393 3.80367 11.7393 4.04367C11.7393 4.28367 11.934 4.47845 12.174 4.47845C12.414 4.47845 12.6088 4.28367 12.6088 4.04367C12.6088 3.80367 12.414 3.60889 12.174 3.60889Z" fill="white"/>
<path d="M7.82638 3.60889C7.58638 3.60889 7.3916 3.80367 7.3916 4.04367C7.3916 4.28367 7.58638 4.47845 7.82638 4.47845C8.06638 4.47845 8.26117 4.28367 8.26117 4.04367C8.26117 3.80367 8.06638 3.60889 7.82638 3.60889Z" fill="white"/>
<path fill-rule="evenodd" clip-rule="evenodd" d="M19.4401 12.9949C19.8133 12.4348 20 11.736 20 11.1304C20 10.2176 19.5945 9.36943 18.8986 8.7943C19.0526 8.4263 19.1304 8.04357 19.1304 7.65217C19.1304 6.44109 18.4237 5.31291 17.3728 4.78609C17.5323 3.46374 16.6706 2.25165 15.3937 1.94248C14.8939 0.78713 13.7815 0 12.6087 0C11.517 0 10.5378 0.636783 10 1.56591C9.46217 0.636783 8.483 0 7.3913 0C6.21839 0 5.106 0.78713 4.6063 1.94252C3.32174 2.25365 2.46817 3.47178 2.62717 4.78609C1.57639 5.31287 0.869565 6.44109 0.869565 7.65217C0.869565 8.04357 0.947391 8.4263 1.10139 8.7943C0.405522 9.36948 0 10.2176 0 11.1304C0 11.7391 0.188261 12.437 0.55987 12.9948C0.196739 13.5074 0 14.115 0 14.7391C0 15.5485 0.328174 16.3196 0.908652 16.8921C0.610217 18.6961 2.04891 20.5217 3.91304 20.5217C3.92652 20.5217 3.93978 20.5215 3.95278 20.5211C4.57083 21.5873 5.71804 22.2609 6.95652 22.2609C8.2473 22.2609 9.4007 21.4861 10 20.3698C10.5993 21.4861 11.7527 22.2609 13.0435 22.2609C14.282 22.2609 15.4292 21.5873 16.0472 20.5211C16.0603 20.5215 16.0735 20.5217 16.087 20.5217C17.7367 20.5217 19.1304 19.0683 19.1304 17.3478C19.1304 17.2013 19.1176 17.0507 19.0913 16.8921C19.6718 16.3196 20 15.5486 20 14.7391C20 14.115 19.8033 13.5074 19.4401 12.9949ZM9.56522 6.58178C9.30922 6.4333 9.0123 6.34783 8.69565 6.34783C8.45552 6.34783 8.26087 6.54248 8.26087 6.78261C8.26087 7.02274 8.45552 7.21739 8.69565 7.21739C9.17513 7.21739 9.56522 7.60748 9.56522 8.08696V16.3552C8.92735 15.6317 7.99465 15.1739 6.95652 15.1739C6.71639 15.1739 6.52174 15.3686 6.52174 15.6087C6.52174 15.8488 6.71639 16.0435 6.95652 16.0435C8.39496 16.0435 9.56522 17.2137 9.56522 18.6522C9.56522 20.1369 8.37057 21.3913 6.95652 21.3913C5.94991 21.3913 5.02326 20.796 4.5957 19.8748C4.51687 19.705 4.33835 19.6049 4.15222 19.6258C4.12148 19.6293 4.09091 19.6334 4.06035 19.6376C2.82296 19.8068 1.42948 18.4057 1.8067 16.8382C1.84543 16.6772 1.78935 16.5082 1.66209 16.4023C1.15843 15.9832 0.869565 15.377 0.869565 14.7391C0.869565 14.3447 0.981087 13.9588 1.18861 13.6203C1.71009 14.0477 2.35874 14.3043 3.04348 14.3043C3.28361 14.3043 3.47826 14.1097 3.47826 13.8696C3.47826 13.6294 3.28361 13.4348 3.04348 13.4348C1.86352 13.4348 0.869565 12.3578 0.869565 11.1304C0.869565 10.3859 1.24909 9.70091 1.88487 9.29817C2.08074 9.17409 2.14478 8.91813 2.03039 8.71643C1.83713 8.37561 1.73913 8.01752 1.73913 7.65217C1.73913 6.4787 2.69574 5.34783 3.91304 5.34783C5.07113 5.34783 6.08696 6.42465 6.08696 7.65217C6.08696 7.8923 6.28161 8.08696 6.52174 8.08696C6.76187 8.08696 6.95652 7.8923 6.95652 7.65217C6.95652 5.93174 5.56278 4.47826 3.91304 4.47826C3.76748 4.47826 3.6227 4.49004 3.47935 4.51235L3.47883 4.49775C3.47854 4.4913 3.47826 4.48484 3.47826 4.47826C3.47826 3.50796 4.26596 2.73913 5.21739 2.73913C5.68183 2.73913 6.1187 2.92004 6.44748 3.24848C6.61735 3.41817 6.89261 3.418 7.06235 3.24817C7.23204 3.07826 7.23191 2.803 7.06204 2.6333C6.66539 2.23709 6.1637 1.98439 5.62 1.90065C6.00343 1.33148 6.64104 0.869565 7.3913 0.869565C8.54939 0.869565 9.56522 1.94635 9.56522 3.17391V6.58178ZM18.8114 13.6205C18.29 14.0477 17.6413 14.3043 16.9565 14.3043C16.7164 14.3043 16.5217 14.1097 16.5217 13.8696C16.5217 13.6294 16.7164 13.4348 16.9565 13.4348C18.133 13.4348 19.1304 12.3622 19.1304 11.1304C19.1304 10.3859 18.7509 9.70091 18.1152 9.29817C17.9193 9.17409 17.8553 8.91813 17.9696 8.71643C18.1629 8.37561 18.2609 8.01752 18.2609 7.65217C18.2609 6.47813 17.3036 5.34783 16.087 5.34783C14.9289 5.34783 13.913 6.42465 13.913 7.65217C13.913 7.8923 13.7183 8.08696 13.4783 8.08696C13.2382 8.08696 13.0435 7.8923 13.0435 7.65217C13.0435 5.93174 14.4372 4.47826 16.087 4.47826C16.2325 4.47826 16.3773 4.49004 16.5207 4.51235C16.5207 4.50744 16.521 4.50258 16.5212 4.49773C16.5215 4.49127 16.5217 4.48481 16.5217 4.47826C16.5217 3.51248 15.7388 2.73913 14.7826 2.73913C14.3182 2.73913 13.8813 2.92004 13.5524 3.24848C13.3826 3.41817 13.1073 3.41804 12.9376 3.24813C12.7679 3.07822 12.768 2.80296 12.938 2.63326C13.3347 2.23704 13.8363 1.98435 14.38 1.90061C13.9965 1.33148 13.359 0.869565 12.6087 0.869565C11.4506 0.869565 10.4348 1.94635 10.4348 3.17391V6.58178C10.6908 6.4333 10.9877 6.34783 11.3043 6.34783C11.5444 6.34783 11.7391 6.54248 11.7391 6.78261C11.7391 7.02274 11.5444 7.21739 11.3043 7.21739C10.8249 7.21739 10.4348 7.60748 10.4348 8.08696V16.3552C11.0727 15.6317 12.0053 15.1739 13.0435 15.1739C13.2836 15.1739 13.4783 15.3686 13.4783 15.6087C13.4783 15.8488 13.2836 16.0435 13.0435 16.0435C11.605 16.0435 10.4348 17.2137 10.4348 18.6522C10.4348 20.1369 11.6294 21.3913 13.0435 21.3913C14.05 21.3913 14.9768 20.796 15.4043 19.8748C15.4831 19.705 15.6614 19.6047 15.8478 19.6258C15.8785 19.6293 15.9091 19.6334 15.9397 19.6376C17.0402 19.788 18.2609 18.6973 18.2609 17.3478C18.2609 17.1916 18.2394 17.0296 18.1933 16.8382C18.1546 16.6772 18.2107 16.5082 18.338 16.4023C18.8416 15.9832 19.1304 15.377 19.1304 14.7391C19.1304 14.3448 19.0189 13.9589 18.8114 13.6205Z" fill="white"/>
<path d="M8.58517 9.30655C8.42508 9.12759 8.15025 9.11229 7.97125 9.27237C6.57699 10.5195 4.34808 9.52281 4.34808 7.65207C4.34808 7.41194 4.15343 7.21729 3.9133 7.21729C3.67317 7.21729 3.47852 7.41194 3.47852 7.65207C3.47852 9.16142 4.58317 10.4171 6.02634 10.6545C5.85895 11.1819 5.36486 11.5651 4.78286 11.5651C4.54273 11.5651 4.34808 11.7598 4.34808 11.9999C4.34808 12.24 4.54273 12.4347 4.78286 12.4347C5.84186 12.4347 6.72591 11.6734 6.91773 10.6694C7.52239 10.5903 8.09147 10.3315 8.55099 9.92046C8.72995 9.76037 8.74525 9.4855 8.58517 9.30655Z" fill="white"/>
<path d="M3.9133 16.9131C3.67317 16.9131 3.47852 17.1077 3.47852 17.3479C3.47852 17.588 3.67317 17.7827 3.9133 17.7827C5.07139 17.7827 6.08721 18.8595 6.08721 20.087C6.08721 20.3271 6.28186 20.5218 6.52199 20.5218C6.76212 20.5218 6.95678 20.3271 6.95678 20.087C6.95678 18.3666 5.56304 16.9131 3.9133 16.9131Z" fill="white"/>
<path d="M7.39162 13.4346C5.91831 13.4346 4.65336 14.2426 3.98727 15.4175C3.86888 15.6264 3.94223 15.8918 4.15109 16.0102C4.36001 16.1286 4.62531 16.0553 4.74375 15.8464C5.26266 14.9309 6.24727 14.3041 7.39162 14.3041C7.63175 14.3041 7.8264 14.1095 7.8264 13.8694C7.8264 13.6292 7.63175 13.4346 7.39162 13.4346Z" fill="white"/>
<path d="M15.2177 11.5651C14.6357 11.5651 14.1417 11.1819 13.9743 10.6545C15.4174 10.4171 16.5221 9.16142 16.5221 7.65207C16.5221 7.41194 16.3274 7.21729 16.0873 7.21729C15.8472 7.21729 15.6525 7.41194 15.6525 7.65207C15.6525 8.85076 14.6773 9.82598 13.4786 9.82598C12.9431 9.82598 12.4285 9.62937 12.0293 9.27237C11.8504 9.11229 11.5755 9.12755 11.4154 9.30655C11.2553 9.4855 11.2707 9.76037 11.4496 9.92046C11.9091 10.3315 12.4783 10.5903 13.0829 10.6694C13.2747 11.6734 14.1587 12.4347 15.2177 12.4347C15.4578 12.4347 15.6525 12.24 15.6525 11.9999C15.6525 11.7598 15.4578 11.5651 15.2177 11.5651Z" fill="white"/>
<path d="M16.0874 16.9131C14.4377 16.9131 13.0439 18.3666 13.0439 20.087C13.0439 20.3271 13.2386 20.5218 13.4787 20.5218C13.7188 20.5218 13.9135 20.3271 13.9135 20.087C13.9135 18.8595 14.9293 17.7827 16.0874 17.7827C16.3275 17.7827 16.5222 17.588 16.5222 17.3479C16.5222 17.1077 16.3275 16.9131 16.0874 16.9131Z" fill="white"/>
<path d="M16.013 15.4176C15.3485 14.2454 14.0853 13.4346 12.6086 13.4346C12.3685 13.4346 12.1738 13.6292 12.1738 13.8694C12.1738 14.1095 12.3685 14.3041 12.6086 14.3041C13.7521 14.3041 14.7375 14.9307 15.2564 15.8464C15.375 16.0555 15.6405 16.1285 15.849 16.0102C16.058 15.8918 16.1313 15.6265 16.013 15.4176Z" fill="white"/>
</svg>
