<svg width="12" height="7" viewBox="0 0 12 7" fill="none" xmlns="http://www.w3.org/2000/svg">
<path fill-rule="evenodd" clip-rule="evenodd" d="M8.08066 6.89472C7.91718 7.03509 7.64509 7.03509 7.4759 6.89472C7.31242 6.7591 7.31242 6.53337 7.4759 6.39807L10.5424 3.85408L0.423372 3.85408C0.187488 3.85376 -3.60813e-07 3.69822 -3.82198e-07 3.50253C-4.03583e-07 3.30684 0.187488 3.14624 0.423372 3.14624L10.5424 3.14624L7.4759 0.606991C7.31242 0.466624 7.31242 0.240583 7.4759 0.105275C7.64509 -0.0350919 7.91756 -0.035092 8.08066 0.105275L11.8731 3.25151C12.0423 3.38714 12.0423 3.61286 11.8731 3.74817L8.08066 6.89472Z" fill="url(#paint0_linear)"/>
<defs>
<linearGradient id="paint0_linear" x1="0" y1="7" x2="-4.89568e-07" y2="0" gradientUnits="userSpaceOnUse">
<stop stop-color="#A74EF4"/>
<stop offset="1" stop-color="#823DF7"/>
</linearGradient>
</defs>
</svg>
