<svg width="20" height="20" viewBox="0 0 20 20" fill="none" xmlns="http://www.w3.org/2000/svg">
<path fill-rule="evenodd" clip-rule="evenodd" d="M17.6667 19.3333H19.6667C19.8507 19.3333 20 19.4826 20 19.6667C20 19.8507 19.8507 20 19.6667 20H0.333333C0.14925 20 0 19.8507 0 19.6667C0 19.4826 0.14925 19.3333 0.333333 19.3333H3.33333V0.333333C3.33333 0.14925 3.48258 0 3.66667 0H12.3333C12.5174 0 12.6667 0.14925 12.6667 0.333333V8H17.3333C17.5174 8 17.6667 8.14925 17.6667 8.33333V19.3333ZM5.66667 19.3333H7V16.3333C7 16.1493 6.85075 16 6.66667 16H6C5.81592 16 5.66667 16.1493 5.66667 16.3333V19.3333ZM8.33333 8.33333V19.3333H7.66667V16.3333C7.66667 15.781 7.21896 15.3333 6.66667 15.3333H6C5.44771 15.3333 5 15.781 5 16.3333V19.3333H4V0.666667H12V8H8.66667C8.48258 8 8.33333 8.14925 8.33333 8.33333ZM9 19.3333H17V8.66667H9V19.3333Z" fill="white"/>
<path fill-rule="evenodd" clip-rule="evenodd" d="M8.66732 4.66663H10.6673C10.8514 4.66663 11.0007 4.81588 11.0007 4.99996V6.99996C11.0007 7.18404 10.8514 7.33329 10.6673 7.33329H8.66732C8.48323 7.33329 8.33398 7.18404 8.33398 6.99996V4.99996C8.33398 4.81588 8.48323 4.66663 8.66732 4.66663ZM9.00065 6.66663H10.334V5.33329H9.00065V6.66663Z" fill="white"/>
<path fill-rule="evenodd" clip-rule="evenodd" d="M8.66732 1.33337H10.6673C10.8514 1.33337 11.0007 1.48262 11.0007 1.66671V3.66671C11.0007 3.85079 10.8514 4.00004 10.6673 4.00004H8.66732C8.48323 4.00004 8.33398 3.85079 8.33398 3.66671V1.66671C8.33398 1.48262 8.48323 1.33337 8.66732 1.33337ZM9.00065 3.33337H10.334V2.00004H9.00065V3.33337Z" fill="white"/>
<path fill-rule="evenodd" clip-rule="evenodd" d="M5.33333 4.66663H7.33333C7.51742 4.66663 7.66667 4.81588 7.66667 4.99996V6.99996C7.66667 7.18404 7.51742 7.33329 7.33333 7.33329H5.33333C5.14925 7.33329 5 7.18404 5 6.99996V4.99996C5 4.81588 5.14925 4.66663 5.33333 4.66663ZM5.66667 6.66663H7V5.33329H5.66667V6.66663Z" fill="white"/>
<path fill-rule="evenodd" clip-rule="evenodd" d="M5.33333 1.33337H7.33333C7.51742 1.33337 7.66667 1.48262 7.66667 1.66671V3.66671C7.66667 3.85079 7.51742 4.00004 7.33333 4.00004H5.33333C5.14925 4.00004 5 3.85079 5 3.66671V1.66671C5 1.48262 5.14925 1.33337 5.33333 1.33337ZM5.66667 3.33337H7V2.00004H5.66667V3.33337Z" fill="white"/>
<path fill-rule="evenodd" clip-rule="evenodd" d="M5.33333 8H7.33333C7.51742 8 7.66667 8.14925 7.66667 8.33333V10.3333C7.66667 10.5174 7.51742 10.6667 7.33333 10.6667H5.33333C5.14925 10.6667 5 10.5174 5 10.3333V8.33333C5 8.14925 5.14925 8 5.33333 8ZM5.66667 10H7V8.66667H5.66667V10Z" fill="white"/>
<path fill-rule="evenodd" clip-rule="evenodd" d="M5.33333 11.3334H7.33333C7.51742 11.3334 7.66667 11.4826 7.66667 11.6667V13.6667C7.66667 13.8508 7.51742 14 7.33333 14H5.33333C5.14925 14 5 13.8508 5 13.6667V11.6667C5 11.4826 5.14925 11.3334 5.33333 11.3334ZM5.66667 13.3334H7V12H5.66667V13.3334Z" fill="white"/>
<path fill-rule="evenodd" clip-rule="evenodd" d="M15.6673 15.3333H13.6673C13.4832 15.3333 13.334 15.184 13.334 15V13C13.334 12.8159 13.4832 12.6666 13.6673 12.6666H15.6673C15.8514 12.6666 16.0007 12.8159 16.0007 13V15C16.0007 15.184 15.8514 15.3333 15.6673 15.3333ZM15.334 13.3333H14.0007V14.6666H15.334V13.3333Z" fill="white"/>
<path fill-rule="evenodd" clip-rule="evenodd" d="M15.6673 12H13.6673C13.4832 12 13.334 11.8508 13.334 11.6667V9.66671C13.334 9.48262 13.4832 9.33337 13.6673 9.33337H15.6673C15.8514 9.33337 16.0007 9.48262 16.0007 9.66671V11.6667C16.0007 11.8508 15.8514 12 15.6673 12ZM15.334 10H14.0007V11.3334H15.334V10Z" fill="white"/>
<path fill-rule="evenodd" clip-rule="evenodd" d="M15.6673 18.6667H13.6673C13.4832 18.6667 13.334 18.5174 13.334 18.3333V16.3333C13.334 16.1493 13.4832 16 13.6673 16H15.6673C15.8514 16 16.0007 16.1493 16.0007 16.3333V18.3333C16.0007 18.5174 15.8514 18.6667 15.6673 18.6667ZM15.334 16.6667H14.0007V18H15.334V16.6667Z" fill="white"/>
<path fill-rule="evenodd" clip-rule="evenodd" d="M12.3333 15.3333H10.3333C10.1493 15.3333 10 15.184 10 15V13C10 12.8159 10.1493 12.6666 10.3333 12.6666H12.3333C12.5174 12.6666 12.6667 12.8159 12.6667 13V15C12.6667 15.184 12.5174 15.3333 12.3333 15.3333ZM12 13.3333H10.6667V14.6666H12V13.3333Z" fill="white"/>
<path fill-rule="evenodd" clip-rule="evenodd" d="M12.3333 12H10.3333C10.1493 12 10 11.8508 10 11.6667V9.66671C10 9.48262 10.1493 9.33337 10.3333 9.33337H12.3333C12.5174 9.33337 12.6667 9.48262 12.6667 9.66671V11.6667C12.6667 11.8508 12.5174 12 12.3333 12ZM12 10H10.6667V11.3334H12V10Z" fill="white"/>
<path fill-rule="evenodd" clip-rule="evenodd" d="M12.3333 18.6667H10.3333C10.1493 18.6667 10 18.5174 10 18.3333V16.3333C10 16.1493 10.1493 16 10.3333 16H12.3333C12.5174 16 12.6667 16.1493 12.6667 16.3333V18.3333C12.6667 18.5174 12.5174 18.6667 12.3333 18.6667ZM12 16.6667H10.6667V18H12V16.6667Z" fill="white"/>
</svg>
