<svg width="47" height="34" viewBox="0 0 47 34" fill="none" xmlns="http://www.w3.org/2000/svg">
<path d="M23.5 0.875C19.6232 0.887157 15.8786 2.2854 12.9426 4.81713C10.6925 6.75588 9.06219 9.28212 8.64213 11.8172C3.71887 12.9041 0 17.1928 0 22.3716C0 28.3876 5.01725 33.1875 11.1067 33.1875H37.2681C42.5996 33.1875 47 28.9869 47 23.7082C47 18.9024 43.3516 14.9867 38.6751 14.3258C37.9613 6.74706 31.4019 0.875 23.5 0.875ZM30.4149 15.1336L21.6024 23.9461C21.4659 24.0829 21.3039 24.1914 21.1254 24.2655C20.947 24.3395 20.7557 24.3776 20.5625 24.3776C20.3693 24.3776 20.178 24.3395 19.9996 24.2655C19.8211 24.1914 19.6591 24.0829 19.5226 23.9461L15.1164 19.5399C14.9798 19.4033 14.8715 19.2412 14.7976 19.0628C14.7237 18.8844 14.6856 18.6931 14.6856 18.5C14.6856 18.3069 14.7237 18.1156 14.7976 17.9372C14.8715 17.7588 14.9798 17.5967 15.1164 17.4601C15.2529 17.3236 15.4151 17.2152 15.5935 17.1413C15.7719 17.0674 15.9631 17.0294 16.1562 17.0294C16.3494 17.0294 16.5406 17.0674 16.719 17.1413C16.8974 17.2152 17.0596 17.3236 17.1961 17.4601L20.5625 20.8294L28.3351 13.0539C28.6109 12.7781 28.985 12.6231 29.375 12.6231C29.765 12.6231 30.1391 12.7781 30.4149 13.0539C30.6907 13.3297 30.8456 13.7037 30.8456 14.0938C30.8456 14.4838 30.6907 14.8578 30.4149 15.1336Z" fill="white"/>
</svg>
