<svg width="47" height="33" viewBox="0 0 47 33" fill="none" xmlns="http://www.w3.org/2000/svg">
<path d="M23.5 0.875C19.6232 0.887039 15.8786 2.27176 12.9426 4.779C10.6925 6.699 9.06219 9.20082 8.64213 11.7114C3.71887 12.7877 0 17.035 0 22.1637C0 28.1215 5.01725 32.875 11.1067 32.875H37.2681C42.5996 32.875 47 28.715 47 23.4874C47 18.7281 43.3516 14.8503 38.6751 14.1957C37.9613 6.69027 31.4019 0.875 23.5 0.875ZM30.4149 14.9957L21.6024 23.723C21.4659 23.8585 21.3039 23.9659 21.1254 24.0393C20.947 24.1126 20.7557 24.1503 20.5625 24.1503C20.3693 24.1503 20.178 24.1126 19.9996 24.0393C19.8211 23.9659 19.6591 23.8585 19.5226 23.723L15.1164 19.3594C14.9798 19.2241 14.8715 19.0636 14.7976 18.8869C14.7237 18.7102 14.6856 18.5208 14.6856 18.3295C14.6856 18.1383 14.7237 17.9489 14.7976 17.7722C14.8715 17.5955 14.9798 17.435 15.1164 17.2997C15.2529 17.1645 15.4151 17.0572 15.5935 16.984C15.7719 16.9108 15.9631 16.8732 16.1562 16.8732C16.3494 16.8732 16.5406 16.9108 16.719 16.984C16.8974 17.0572 17.0596 17.1645 17.1961 17.2997L20.5625 20.6365L28.3351 12.9361C28.6109 12.663 28.985 12.5095 29.375 12.5095C29.765 12.5095 30.1391 12.663 30.4149 12.9361C30.6907 13.2092 30.8456 13.5797 30.8456 13.9659C30.8456 14.3522 30.6907 14.7226 30.4149 14.9957Z" fill="#B7BCC1"/>
</svg>
