<svg width="628" height="179" viewBox="0 0 628 179" fill="none" xmlns="http://www.w3.org/2000/svg">
<g clip-path="url(#clip0)">
<path d="M163.477 0H192.053V179H163.477V0ZM292.071 121.899C292.071 149.293 269.088 151.477 262.251 151.477C245.17 151.477 242.062 135.453 242.062 125.787V57.28H213.485V125.644C213.485 142.613 218.801 156.618 228.117 165.954C236.347 174.21 248.677 178.721 262.037 178.721C271.51 178.721 284.927 175.764 292.071 169.227V179H320.647V57.28H292.071V121.899ZM377.8 14.32H349.224V57.28H327.792V85.92H349.224V179H377.8V85.92H399.233V57.28H377.8V14.32ZM489.227 142.606C483.005 148.212 474.789 151.319 465.773 151.319C445.898 151.319 431.303 136.692 431.303 116.608C431.303 96.5239 445.434 82.5118 465.773 82.5118C474.632 82.5118 483.005 85.4689 489.385 91.0752L493.721 94.8127L512.989 75.5094L508.166 71.1489C496.829 60.8886 481.776 55.132 465.766 55.132C430.045 55.132 404.105 80.9653 404.105 116.457C404.105 151.799 430.667 178.556 465.766 178.556C482.076 178.556 497.286 172.799 508.481 162.374L513.139 158.014L493.571 138.725L489.227 142.606ZM614.985 67.8911C606.755 59.6428 597.111 55.132 583.751 55.132C574.278 55.132 563.548 58.0891 556.404 64.619V0H527.827V179H556.404V111.947C556.404 84.5524 575.821 82.3758 582.658 82.3758C599.74 82.3758 599.268 98.407 599.268 108.059V179H627.845V108.209C627.845 91.2399 624.309 77.2349 614.985 67.8911Z" fill="#17313B"/>
<path d="M464.829 96.2163C470.308 96.2163 475.564 98.3979 479.438 102.281C483.313 106.164 485.49 111.431 485.49 116.923C485.49 122.415 483.313 127.682 479.438 131.565C475.564 135.448 470.308 137.63 464.829 137.63C459.349 137.63 454.094 135.448 450.219 131.565C446.345 127.682 444.168 122.415 444.168 116.923C444.168 111.431 446.345 106.164 450.219 102.281C454.094 98.3979 459.349 96.2163 464.829 96.2163Z" fill="#FF3D2E"/>
<path d="M123.471 134.042C112.605 145.247 97.8451 151.319 82.3137 151.319C50.4795 151.319 27.3325 126.259 27.3325 91.8625C27.3325 57.3084 50.4795 32.2484 82.3137 32.2484C97.695 32.2484 112.29 38.3129 123.321 49.3679L127.665 53.7284L146.768 34.5825L142.574 30.2221C126.736 13.8758 105.304 5.01172 82.3137 5.01172C35.4125 5.01172 0.15625 42.3654 0.15625 92.0129C0.15625 141.51 35.5697 178.713 82.3137 178.713C105.461 178.713 126.893 169.692 142.732 153.345L146.925 148.985L127.979 129.531L123.471 134.042Z" fill="#17313B"/>
</g>
<defs>
<clipPath id="clip0">
<rect width="628" height="179" fill="white"/>
</clipPath>
</defs>
</svg>
