<?xml version="1.0" encoding="utf-8"?>
<!-- Generator: Adobe Illustrator 23.1.0, SVG Export Plug-In . SVG Version: 6.00 Build 0)  -->
<svg width="32" height="32" version="1.1" id="Слой_1" xmlns="http://www.w3.org/2000/svg" xmlns:xlink="http://www.w3.org/1999/xlink" x="0px" y="0px"
	 viewBox="0 0 32 32" style="enable-background:new 0 0 32 32;" xml:space="preserve">
<style type="text/css">
	.st0{fill-rule:evenodd;clip-rule:evenodd;fill:url(#SVGID_1_);}
	.st1{fill-rule:evenodd;clip-rule:evenodd;fill:url(#SVGID_2_);}
</style>
<g>
	<linearGradient id="SVGID_1_" gradientUnits="userSpaceOnUse" x1="16" y1="31.2739" x2="16" y2="0.2739">
		<stop  offset="0" style="stop-color:#DD3386"/>
		<stop  offset="1" style="stop-color:#FF3E87"/>
	</linearGradient>
	<path class="st0" d="M29.2,0.3H2.8C1.3,0.3,0,1.6,0,3.2v19.4c0,1.6,1.3,2.9,2.8,2.9h8.1l-1.3,3.9H6.6c-0.5,0-0.9,0.4-0.9,1
		s0.4,1,0.9,1h18.8c0.5,0,0.9-0.4,0.9-1s-0.4-1-0.9-1h-3.1l-1.3-3.9h8.1c1.6,0,2.8-1.3,2.8-2.9V3.2C32,1.6,30.7,0.3,29.2,0.3z
		 M11.7,29.3l1.3-3.9h6.1l1.3,3.9H11.7z M30.1,22.6c0,0.5-0.4,1-0.9,1H2.8c-0.5,0-0.9-0.4-0.9-1v-1h28.3V22.6z M10.2,14.1l-0.9-0.9
		l1.3-1.4l0.9,0.9c0.3,0.3,0.8,0.4,1.1,0.1c0.5-0.3,1.1-0.6,1.7-0.7c0.4-0.1,0.7-0.5,0.7-0.9V10h1.9v1.2c0,0.4,0.3,0.8,0.7,0.9
		c0.6,0.2,1.1,0.4,1.7,0.7c0.4,0.2,0.8,0.2,1.1-0.1l0.9-0.9l1.3,1.4l-0.9,0.9c-0.3,0.3-0.4,0.8-0.1,1.2c0.3,0.5,0.5,1.1,0.7,1.7
		c0.1,0.4,0.5,0.7,0.9,0.7h1.2v1.9h-3.8c0.1-0.3,0.1-0.6,0.1-1c0-2.7-2.1-4.8-4.7-4.8s-4.7,2.2-4.7,4.8c0,0.3,0,0.7,0.1,1H7.6v-1.9
		h1.2c0.4,0,0.8-0.3,0.9-0.7c0.2-0.6,0.4-1.2,0.7-1.7C10.6,14.9,10.5,14.4,10.2,14.1z M18.8,18.7c0,0.3-0.1,0.7-0.2,1h-5.3
		c-0.1-0.3-0.2-0.6-0.2-1c0-1.6,1.3-2.9,2.8-2.9S18.8,17.1,18.8,18.7z M30.1,19.6h-3.8v-2.9c0-0.5-0.4-1-0.9-1h-1.4
		c-0.1-0.3-0.2-0.6-0.3-0.8l1-1.1c0.4-0.4,0.4-1,0-1.4L22,9.8c-0.2-0.2-0.4-0.3-0.7-0.3c-0.2,0-0.5,0.1-0.7,0.3l-1,1.1
		c-0.3-0.1-0.5-0.2-0.8-0.3V9c0-0.5-0.4-1-0.9-1h-3.8c-0.5,0-0.9,0.4-0.9,1v1.5c-0.3,0.1-0.5,0.2-0.8,0.3l-1-1.1
		c-0.2-0.2-0.4-0.3-0.7-0.3c-0.2,0-0.5,0.1-0.7,0.3l-2.7,2.7c-0.4,0.4-0.4,1,0,1.4l1,1.1c-0.1,0.3-0.2,0.5-0.3,0.8H6.6
		c-0.5,0-0.9,0.4-0.9,1v2.9H1.9V3.2c0-0.5,0.4-1,0.9-1h26.4c0.5,0,0.9,0.4,0.9,1V19.6z"/>
	<linearGradient id="SVGID_2_" gradientUnits="userSpaceOnUse" x1="25" y1="10.2739" x2="25" y2="4.2739">
		<stop  offset="0" style="stop-color:#DD3386"/>
		<stop  offset="1" style="stop-color:#FF3E87"/>
	</linearGradient>
	<path class="st1" d="M25,4.3c-1.7,0-3,1.3-3,3s1.3,3,3,3s3-1.3,3-3S26.7,4.3,25,4.3z M25,8.3c-0.6,0-1-0.4-1-1s0.4-1,1-1
		c0.6,0,1,0.4,1,1S25.6,8.3,25,8.3z"/>
</g>
</svg>
