<svg width="36" height="34" viewBox="0 0 32 32" fill="none" xmlns="http://www.w3.org/2000/svg">
<g opacity="0.202079">
<path fill-rule="evenodd" clip-rule="evenodd" d="M2.8125 0.273926H29.1875C30.7383 0.273926 32 1.5777 32 3.18018V22.5552C32 24.1576 30.7383 25.4614 29.1875 25.4614H21.0508L22.3008 29.3364H25.375C25.8928 29.3364 26.3125 29.7701 26.3125 30.3052C26.3125 30.8403 25.8928 31.2739 25.375 31.2739H6.625C6.10718 31.2739 5.6875 30.8403 5.6875 30.3052C5.6875 29.7701 6.10718 29.3364 6.625 29.3364H9.69922L10.9492 25.4614H2.8125C1.26172 25.4614 0 24.1576 0 22.5552V3.18018C0 1.5777 1.26172 0.273926 2.8125 0.273926ZM12.9258 25.4614L11.6758 29.3364H20.3242L19.0742 25.4614H12.9258ZM30.125 22.5552C30.125 23.0893 29.7043 23.5239 29.1875 23.5239H2.8125C2.29565 23.5239 1.875 23.0893 1.875 22.5552V21.5864H30.125V22.5552ZM9.37085 13.2002L10.2236 14.0811C10.5259 14.3937 10.5852 14.8778 10.3682 15.2583C10.0576 15.8029 9.82349 16.3842 9.67285 16.9856C9.56567 17.413 9.19238 17.7114 8.76514 17.7114H7.5625V19.6489H11.4072C11.3447 19.3316 11.3125 19.0069 11.3125 18.6802C11.3125 16.0093 13.4153 13.8364 16 13.8364C18.5847 13.8364 20.6875 16.0093 20.6875 18.6802C20.6875 19.0069 20.6553 19.3316 20.5928 19.6489H24.4375V17.7114H23.2349C22.8076 17.7114 22.4343 17.413 22.3274 16.9856C22.1765 16.3842 21.9426 15.8029 21.6318 15.2583C21.4146 14.8778 21.4741 14.3937 21.7764 14.0814L22.6292 13.2002L21.3032 11.8301L20.4504 12.7113C20.1482 13.0236 19.6797 13.0851 19.3113 12.8609C18.7844 12.5397 18.2219 12.2978 17.6399 12.1419C17.2263 12.0314 16.9375 11.6456 16.9375 11.2042V9.96143H15.0625V11.2042C15.0625 11.6456 14.7737 12.0314 14.3601 12.1419C13.7778 12.2978 13.2153 12.5397 12.6885 12.8606C12.3201 13.0851 11.8516 13.0236 11.5493 12.7113L10.6965 11.8301L9.37085 13.2002ZM18.8125 18.6802C18.8125 19.0119 18.7568 19.3396 18.6514 19.6489H13.3486C13.2432 19.3396 13.1875 19.0119 13.1875 18.6802C13.1875 17.0777 14.4492 15.7739 16 15.7739C17.5508 15.7739 18.8125 17.0777 18.8125 18.6802ZM26.3125 19.6489H30.125V3.18018C30.125 2.6461 29.7043 2.21143 29.1875 2.21143H2.8125C2.29565 2.21143 1.875 2.6461 1.875 3.18018V19.6489H5.6875V16.7427C5.6875 16.2078 6.10718 15.7739 6.625 15.7739H8.07349C8.17065 15.4924 8.28198 15.2156 8.40747 14.9447L7.38232 13.8851C7.01611 13.5067 7.01611 12.8934 7.38232 12.515L10.0337 9.77499C10.2097 9.59335 10.448 9.49143 10.6968 9.49143C10.9453 9.49143 11.1838 9.59335 11.3596 9.77499L12.3848 10.8346C12.6472 10.7049 12.915 10.5896 13.1875 10.4894V8.99268C13.1875 8.45759 13.6072 8.02393 14.125 8.02393H17.875C18.3928 8.02393 18.8125 8.45759 18.8125 8.99268V10.4894C19.085 10.5896 19.3528 10.7049 19.6152 10.8346L20.6404 9.77499C20.8162 9.59335 21.0547 9.49143 21.3032 9.49143C21.5518 9.49143 21.7903 9.59335 21.9661 9.77499L24.6177 12.515C24.9839 12.8934 24.9839 13.5067 24.6179 13.8851L23.5925 14.9444C23.718 15.2156 23.8296 15.4924 23.9268 15.7739H25.375C25.8928 15.7739 26.3125 16.2076 26.3125 16.7427V19.6489Z" fill="black"/>
<path fill-rule="evenodd" clip-rule="evenodd" d="M22 7.27393C22 5.61976 23.3458 4.27393 25 4.27393C26.6542 4.27393 28 5.61976 28 7.27393C28 8.92809 26.6542 10.2739 25 10.2739C23.3458 10.2739 22 8.92809 22 7.27393ZM24 7.27393C24 7.82523 24.4487 8.27393 25 8.27393C25.5513 8.27393 26 7.82523 26 7.27393C26 6.72262 25.5513 6.27393 25 6.27393C24.4487 6.27393 24 6.72262 24 7.27393Z" fill="black"/>
</g>
</svg>
