<svg width="36" height="34" viewBox="0 0 36 34" fill="none" xmlns="http://www.w3.org/2000/svg">
<path fill-rule="evenodd" clip-rule="evenodd" d="M3.16406 0H32.8359C34.5806 0 36 1.41943 36 3.16406V24.2578C36 26.0024 34.5806 27.4219 32.8359 27.4219H23.6821L25.0884 31.6406H28.5469C29.1294 31.6406 29.6016 32.1128 29.6016 32.6953C29.6016 33.2779 29.1294 33.75 28.5469 33.75H7.45312C6.87057 33.75 6.39844 33.2779 6.39844 32.6953C6.39844 32.1128 6.87057 31.6406 7.45312 31.6406H10.9116L12.3179 27.4219H3.16406C1.41943 27.4219 0 26.0024 0 24.2578V3.16406C0 1.41943 1.41943 0 3.16406 0ZM14.5415 27.4219L13.1353 31.6406H22.8647L21.4585 27.4219H14.5415ZM33.8906 24.2578C33.8906 24.8393 33.4174 25.3125 32.8359 25.3125H3.16406C2.58261 25.3125 2.10938 24.8393 2.10938 24.2578V23.2031H33.8906V24.2578ZM10.5422 14.0729L11.5016 15.032C11.8416 15.3723 11.9084 15.8994 11.6642 16.3136C11.3148 16.9066 11.0514 17.5394 10.882 18.1942C10.7614 18.6595 10.3414 18.9844 9.86078 18.9844H8.50781V21.0938H12.8331C12.7628 20.7482 12.7266 20.3947 12.7266 20.0391C12.7266 17.1313 15.0922 14.7656 18 14.7656C20.9078 14.7656 23.2734 17.1313 23.2734 20.0391C23.2734 20.3947 23.2372 20.7482 23.1669 21.0938H27.4922V18.9844H26.1392C25.6586 18.9844 25.2386 18.6595 25.1183 18.1942C24.9486 17.5394 24.6855 16.9066 24.3358 16.3136C24.0914 15.8994 24.1584 15.3723 24.4984 15.0323L25.4578 14.0729L23.9661 12.5813L23.0067 13.5406C22.6667 13.8807 22.1396 13.9477 21.7252 13.7035C21.1325 13.3539 20.4997 13.0905 19.8449 12.9207C19.3796 12.8004 19.0547 12.3805 19.0547 11.8998V10.5469H16.9453V11.8998C16.9453 12.3805 16.6204 12.8004 16.1551 12.9207C15.5001 13.0905 14.8672 13.3539 14.2745 13.7032C13.8601 13.9477 13.333 13.8807 12.993 13.5406L12.0336 12.5813L10.5422 14.0729ZM21.1641 20.0391C21.1641 20.4002 21.1014 20.757 20.9828 21.0938H15.0172C14.8986 20.757 14.8359 20.4002 14.8359 20.0391C14.8359 18.2944 16.2554 16.875 18 16.875C19.7446 16.875 21.1641 18.2944 21.1641 20.0391ZM29.6016 21.0938H33.8906V3.16406C33.8906 2.58261 33.4174 2.10938 32.8359 2.10938H3.16406C2.58261 2.10938 2.10938 2.58261 2.10938 3.16406V21.0938H6.39844V17.9297C6.39844 17.3474 6.87057 16.875 7.45312 16.875H9.08267C9.19199 16.5685 9.31723 16.2672 9.4584 15.9722L8.30511 14.8186C7.89313 14.4066 7.89313 13.739 8.30511 13.327L11.2879 10.3439C11.4859 10.1461 11.754 10.0352 12.0339 10.0352C12.3135 10.0352 12.5818 10.1461 12.7796 10.3439L13.9329 11.4975C14.2281 11.3563 14.5294 11.2308 14.8359 11.1217V9.49219C14.8359 8.90964 15.3081 8.4375 15.8906 8.4375H20.1094C20.6919 8.4375 21.1641 8.90964 21.1641 9.49219V11.1217C21.4706 11.2308 21.7719 11.3563 22.0671 11.4975L23.2204 10.3439C23.4182 10.1461 23.6865 10.0352 23.9661 10.0352C24.2457 10.0352 24.5141 10.1461 24.7118 10.3439L27.6949 13.327C28.1069 13.739 28.1069 14.4066 27.6952 14.8186L26.5416 15.9719C26.6828 16.2672 26.8083 16.5685 26.9176 16.875H28.5469C29.1294 16.875 29.6016 17.3471 29.6016 17.9297V21.0938Z" fill="#3B6CD1"/>
</svg>
