<svg width="32" height="32" viewBox="0 0 32 32" fill="none" xmlns="http://www.w3.org/2000/svg">
<path d="M16 15.0625C16.5178 15.0625 16.9375 14.6428 16.9375 14.125C16.9375 13.6072 16.5178 13.1875 16 13.1875C15.4822 13.1875 15.0625 13.6072 15.0625 14.125C15.0625 14.6428 15.4822 15.0625 16 15.0625Z" fill="white"/>
<path d="M28.7709 20.1263C28.5841 20.0187 28.3871 19.9403 28.1859 19.8782V12.1164C28.3865 12.0548 28.5848 11.9812 28.7709 11.8737C30.1131 11.0983 30.5754 9.37519 29.8008 8.03125C29.0244 6.68906 27.3014 6.22494 25.9592 7.00131H25.9574C25.8059 7.089 25.6692 7.19206 25.5407 7.30194L18.7592 3.32356C18.7901 3.15731 18.8109 2.9875 18.8109 2.8125C18.8109 1.26163 17.5492 0 15.9984 0C14.4475 0 13.1859 1.26163 13.1859 2.8125C13.1859 2.9875 13.2067 3.15731 13.2375 3.32356L6.45593 7.30188C6.32743 7.192 6.19074 7.08887 6.03924 7.00125H6.03743C4.69343 6.22581 2.9713 6.68906 2.19586 8.03213C1.4213 9.37519 1.88368 11.0983 3.2258 11.8737C3.41199 11.9811 3.61024 12.0547 3.8108 12.1165V19.8781C3.60974 19.9401 3.41268 20.0184 3.2258 20.1262C1.88368 20.9017 1.42136 22.6248 2.19586 23.9688C2.97786 25.3211 4.7033 25.7676 6.03924 24.9987C6.19074 24.911 6.32743 24.8079 6.45593 24.6981L13.2375 28.6764C13.2067 28.8427 13.1859 29.0125 13.1859 29.1875C13.1859 30.7384 14.4475 32 15.9984 32C17.5492 32 18.8109 30.7384 18.8109 29.1875C18.8109 29.0371 18.7894 28.8924 18.7665 28.7482L25.7794 24.869C27.2009 25.8468 29.0158 25.3268 29.8009 23.9678C30.5754 22.6248 30.1131 20.9018 28.7709 20.1263ZM16.9359 24.3461C17.5822 24.2636 18.2134 24.1322 18.8109 23.9192V21.625C18.8109 20.0741 17.5492 18.8125 15.9984 18.8125C14.4475 18.8125 13.1859 20.0741 13.1859 21.625V23.9192C13.7834 24.1322 14.4145 24.2636 15.0609 24.3461V26.5477C14.7355 26.6637 14.4412 26.8371 14.1833 27.0571L7.38449 23.0688C7.44593 22.7356 7.44868 22.394 7.38655 22.0546L9.2158 20.9988C9.79499 21.7816 10.5009 22.4656 11.3109 23.0091V21.625C11.3109 19.0404 13.4138 16.9375 15.9984 16.9375C14.4475 16.9375 13.1859 15.6759 13.1859 14.125C13.1859 12.5741 14.4475 11.3125 15.9984 11.3125C17.5492 11.3125 18.8109 12.5741 18.8109 14.125C18.8109 15.6759 17.5492 16.9375 15.9984 16.9375C18.5829 16.9375 20.6859 19.0404 20.6859 21.625V23.0092C21.4959 22.4657 22.2017 21.7817 22.7809 20.9988L24.6101 22.0546C24.531 22.4867 24.5488 22.9253 24.6681 23.3394L17.8686 27.1025C17.5987 26.8603 17.2841 26.6719 16.9359 26.5477V24.3461ZM5.68586 20.0064V11.9937C5.95849 11.8814 6.21674 11.7521 6.4383 11.5632L8.27636 12.6243C7.8218 13.6598 7.56086 14.7985 7.56086 16C7.56086 17.2016 7.82499 18.3385 8.27999 19.3736L6.43818 20.4368C6.21661 20.2479 5.95849 20.1187 5.68586 20.0064ZM26.3109 11.9936V20.0063C26.0382 20.1186 25.78 20.2479 25.5584 20.4368L23.7167 19.3736C24.1717 18.3385 24.4359 17.2016 24.4359 16C24.4359 14.7985 24.1749 13.6598 23.7204 12.6243L25.5585 11.5632C25.7801 11.7521 26.0382 11.8812 26.3109 11.9936ZM24.6102 9.94538L22.7655 11.0101C21.405 9.17063 19.3238 7.92581 16.9359 7.65725V5.45231C17.2612 5.33625 17.5555 5.16287 17.8134 4.94294L24.6122 8.93125C24.5507 9.26437 24.548 9.60594 24.6102 9.94538ZM15.0609 7.65725C12.6729 7.92581 10.5917 9.17063 9.23124 11.0101L7.38668 9.94538C7.44893 9.60594 7.44605 9.26444 7.38449 8.93131L14.1833 4.94294C14.4411 5.16287 14.7355 5.33625 15.0609 5.45231V7.65725Z" fill="white"/>
</svg>
