<svg width="21" height="29" viewBox="0 0 21 29" fill="none" xmlns="http://www.w3.org/2000/svg">
<rect x="1.43506" y="0.983276" width="16.5684" height="23.5855" rx="1.5" stroke="white"/>
<rect x="5.94507" y="3.90918" width="7.53636" height="0.879301" rx="0.43965" fill="white"/>
<rect x="3.58447" y="7.2738" width="12.2396" height="0.879301" rx="0.43965" fill="white"/>
<rect x="3.59937" y="10.6387" width="12.2396" height="0.879301" rx="0.43965" fill="white"/>
<rect x="3.59937" y="14.0035" width="12.2396" height="0.879301" rx="0.43965" fill="white"/>
<rect x="3.58447" y="17.3683" width="12.2396" height="0.879301" rx="0.43965" fill="white"/>
<rect x="8.55933" y="20.7332" width="7.26501" height="0.879301" rx="0.43965" fill="white"/>
<path d="M18.806 28.1171C18.8325 28.1259 18.8599 28.1293 18.8872 28.1276C18.9165 28.1258 18.9454 28.1179 18.972 28.1044L19.8404 27.6601C19.9458 27.6061 19.9882 27.4776 19.9354 27.3715L19.042 25.5766L20.3194 25.4962C20.4764 25.4864 20.5962 25.3498 20.5863 25.1922C20.5822 25.1261 20.5555 25.064 20.4922 24.9956L16.4915 21.4185C16.434 21.3776 16.3682 21.3584 16.3018 21.3626C16.1448 21.3724 16.0249 21.5087 16.0348 21.6666L16.362 26.8697C16.372 27.0275 16.508 27.1477 16.665 27.1379C16.7397 27.1332 16.81 27.099 16.8477 27.0551L17.7532 26.1472L18.6802 28.0081C18.706 28.0599 18.7512 28.0992 18.806 28.1171Z" fill="white"/>
</svg>
