<svg width="125" height="119" viewBox="0 0 125 119" fill="none" xmlns="http://www.w3.org/2000/svg">
<path d="M87.1365 69.2183C86.5915 69.2183 86.0464 68.8917 85.7194 68.3474L70.5669 37.1041C70.5669 36.9952 70.4579 36.9952 70.4579 36.8864C63.1542 13.4811 63.6992 12.6102 64.1353 11.8482C64.4623 11.4127 65.0073 10.433 79.8328 4.22788C80.0508 4.11902 80.2688 4.11902 80.3779 4.11902C80.7049 4.11902 81.0319 4.22788 81.2499 4.4456C81.686 4.77219 81.904 5.3165 81.904 5.8608C81.904 5.96967 80.4869 18.271 86.3734 25.0204C88.7717 27.8508 92.26 29.266 96.6205 29.3749C97.1655 29.3749 97.6016 29.5926 97.8196 30.0281C98.1466 30.4635 98.1466 31.0078 97.9286 31.4433C97.7106 31.9876 93.1321 44.5067 116.133 54.7397C116.678 54.9574 117.005 55.5017 117.005 56.1549C117.005 56.808 116.569 57.3523 116.024 57.5701L87.4636 69.1094C87.4636 69.2183 87.3545 69.2183 87.1365 69.2183Z" fill="#9C662B"/>
<path d="M80.4857 5.75198C80.4857 5.75198 77.5424 30.5724 96.7283 30.899C96.7283 30.899 90.9507 45.1599 115.696 56.1549L87.1354 67.6942L71.9829 36.4509C71.9829 36.4509 64.8972 13.6989 65.4422 12.7191C66.0963 11.8482 80.4857 5.75198 80.4857 5.75198ZM80.4857 2.70386C80.0497 2.70386 79.7226 2.81272 79.2866 2.92158C64.0251 9.34441 63.48 10.3242 62.935 11.1951C62.0629 12.6103 61.5179 13.3723 69.0396 37.4307C69.0396 37.5396 69.1486 37.7573 69.2576 37.8662L84.4101 69.1094C84.9552 70.198 86.0453 70.8512 87.1354 70.8512C87.5714 70.8512 87.8985 70.7424 88.3345 70.6335L116.895 59.0942C117.985 58.6587 118.748 57.5701 118.748 56.3726C118.748 55.1751 118.094 54.0865 116.895 53.5422C95.0932 43.8535 99.4536 32.3142 99.4536 32.2053C99.7806 31.2256 99.6716 30.2458 99.1266 29.3749C98.5815 28.5041 97.6004 28.0686 96.6193 27.9597C92.6949 27.8509 89.7516 26.6534 87.5714 24.1496C82.1209 17.9445 83.429 6.29629 83.429 6.18743C83.538 5.09881 83.102 4.0102 82.2299 3.35703C81.6848 2.81272 81.1398 2.70386 80.4857 2.70386Z" fill="#432918"/>
<path d="M60.101 117.226C57.1577 117.226 54.2144 116.9 51.3801 116.464C47.7828 115.92 44.0764 115.049 40.5881 113.743C36.0096 112.001 31.6492 109.824 27.5068 107.102C23.1463 104.272 19.331 101.006 15.9516 97.3047C13.6624 94.8008 11.5912 91.9704 9.84703 89.14C8.10286 86.2008 6.57671 83.0438 5.37759 79.7779C-0.617997 63.7753 1.12618 45.922 10.2831 30.7902C19.331 15.7673 33.9384 5.96978 50.508 3.79255C54.8685 3.13938 59.3379 2.48621 63.8073 2.48621C67.5137 2.48621 70.784 2.92165 73.8363 3.79255C75.7985 4.33685 77.9787 4.99002 80.0499 5.86092C80.377 5.96978 80.595 6.29636 80.704 6.62295C80.813 6.94953 80.704 7.38498 80.486 7.6027L79.7229 8.47359C78.1968 10.6508 77.3247 13.1546 76.9976 15.7673V16.2028L77.2157 20.4484C77.7607 23.1699 78.8508 25.5649 80.595 27.6332C83.2112 30.6814 86.9176 32.6409 90.842 32.9675H91.169C91.4961 32.9675 91.8231 33.1852 92.0411 33.5118C92.2591 33.8383 92.2591 34.1649 92.1501 34.4915C91.6051 35.7979 91.278 37.2131 91.169 38.6283C90.733 42.6561 92.0411 46.7929 94.6574 49.9499L97.7097 52.6714C99.8899 54.1955 102.397 55.0664 105.013 55.3929H105.449L109.701 55.1752C111.227 54.8486 112.753 54.4132 114.061 53.6512C114.17 53.5423 114.388 53.5423 114.606 53.5423C114.824 53.5423 114.933 53.5423 115.151 53.6512C115.478 53.8689 115.696 54.1955 115.696 54.522C115.914 56.3727 116.023 58.0056 116.023 59.6385C116.569 73.6817 110.682 88.0514 99.8899 99.1553C88.9888 110.695 74.3814 117.226 60.101 117.226Z" fill="#FBCB6D"/>
<path d="M63.9154 3.6837C67.1857 3.6837 70.456 4.01029 73.6173 4.99004C75.6885 5.53435 77.6507 6.18752 79.7219 7.05841C79.5039 7.385 79.1769 7.60272 78.9589 7.9293C77.3237 10.3243 76.3426 12.9369 76.0156 15.7673V16.3116C76.1246 17.7268 76.1246 19.2509 76.2336 20.6661C76.7786 23.6054 77.9778 26.2181 79.94 28.3953C82.6652 31.6611 86.6986 33.7295 90.95 34.165C91.0591 34.165 91.1681 34.165 91.2771 34.165C90.732 35.5802 90.405 36.9954 90.187 38.5194C89.7509 42.8739 91.1681 47.3372 94.0023 50.7119C95.0924 51.6917 96.0735 52.5626 97.1637 53.5423C99.5619 55.1752 102.178 56.155 105.012 56.4816H105.557C106.975 56.3727 108.501 56.3727 109.918 56.2639C111.662 55.9373 113.188 55.393 114.714 54.6309C114.932 56.2639 115.041 58.0056 115.041 59.6386C116.132 89.0312 89.0969 116.029 60.1 116.029C57.2657 116.029 54.4315 115.811 51.5972 115.267C48.1088 114.831 44.5115 113.961 41.0231 112.654C36.6627 111.021 32.3023 108.844 28.1599 106.122C24.0175 103.401 20.2021 100.244 16.8228 96.5426C14.6425 94.0388 12.6804 91.4262 10.9362 88.4869C9.19201 85.6565 7.77487 82.4995 6.57576 79.3425C-5.85147 46.2486 17.0408 9.23564 50.8341 4.88118C55.1945 4.22801 59.555 3.6837 63.9154 3.6837ZM63.9154 1.50647C59.3369 1.50647 54.8675 2.15964 50.5071 2.81281C33.7194 4.99004 18.6759 15.0053 9.51904 30.2459C0.253135 45.7043 -1.60005 63.8842 4.50455 80.2134C5.70367 83.4793 7.22982 86.7451 9.083 89.7932C10.8272 92.7325 12.8984 95.5629 15.2966 98.1756C18.6759 101.877 22.6003 105.252 27.0698 108.082C31.2122 110.804 35.6816 113.09 40.3691 114.831C43.8574 116.138 47.5638 117.117 51.3792 117.553C54.3224 118.097 57.2657 118.424 60.209 118.424C74.9255 118.424 89.7509 111.783 100.979 100.135C111.989 88.8135 117.876 74.1172 117.44 59.7474C117.44 58.1145 117.331 56.4816 117.113 54.5221C117.004 53.76 116.568 53.2157 116.022 52.7803C115.695 52.5626 115.368 52.5626 114.932 52.5626C114.605 52.5626 114.278 52.6714 113.951 52.7803C112.752 53.4335 111.335 53.8689 109.918 54.1955L105.666 54.4132H105.23C102.832 54.1955 100.652 53.3246 98.5808 52.0183L96.6186 50.2765L95.6375 49.4056C93.2393 46.4663 92.0401 42.6562 92.3672 38.9549C92.4762 37.6485 92.8032 36.451 93.2393 35.1447C93.4573 34.4915 93.4573 33.7295 93.0212 33.1852C92.6942 32.6409 92.0401 32.2054 91.3861 32.2054C91.2771 32.2054 91.1681 32.2054 91.0591 32.2054H90.95C87.3527 31.8789 83.8643 30.0282 81.4661 27.1978C79.8309 25.2383 78.7408 23.0611 78.3048 20.5572L78.1958 18.4889L78.0868 16.3116V15.8762C78.3048 13.4812 79.1769 11.1952 80.485 9.23564L80.703 8.90906L81.1391 8.36475C81.5751 7.82044 81.7931 7.05841 81.6841 6.40524C81.5751 5.75207 81.0301 5.0989 80.376 4.88118C78.1958 4.01029 76.1246 3.24826 74.0534 2.70395C71.1101 1.94192 67.7308 1.50647 63.9154 1.50647Z" fill="#432918"/>
<path d="M114.715 54.7397C113.189 55.5018 111.663 56.0461 109.919 56.3727C109.155 56.3727 108.392 56.4815 107.629 56.4815C106.212 87.1805 74.8171 114.069 44.1851 108.191C40.6967 107.755 37.0994 106.884 33.611 105.578C29.2506 103.945 24.8902 101.768 20.7478 99.0464C18.8946 97.8489 17.1504 96.5426 15.4062 95.1274C15.8423 95.6717 16.2783 96.216 16.7144 96.6515C20.0937 100.353 23.9091 103.51 28.0515 106.231C32.1939 108.953 36.5543 111.13 40.9148 112.763C44.4031 114.069 47.8914 114.94 51.4888 115.376C83.4289 121.472 116.132 92.0793 114.933 59.8562C114.933 58.1145 114.824 56.3727 114.715 54.7397Z" fill="#FBCB6D"/>
<path d="M21.0732 38.1928C16.9308 38.1928 13.7695 34.8181 13.7695 30.2459C13.7695 28.1775 14.5326 26.218 16.0588 24.694C17.6939 23.0611 19.9831 22.0813 22.2724 22.0813C24.7796 22.0813 26.9598 23.2788 28.377 25.456C30.5572 28.9396 29.3581 34.2738 25.7607 36.7776C24.2346 37.6485 22.7084 38.1928 21.0732 38.1928Z" fill="#7D4E24"/>
<path d="M22.273 23.061C24.2352 23.061 26.0884 23.9319 27.3965 26.0003C29.3587 29.1573 28.0506 33.7295 25.1073 35.7978C23.7992 36.6687 22.382 37.1042 21.0739 37.1042C17.6946 37.1042 14.8603 34.3826 14.8603 30.2459C14.7513 26.1091 18.5667 23.061 22.273 23.061ZM22.273 20.8838C19.7658 20.8838 17.1495 21.9724 15.2963 23.8231C13.5522 25.5648 12.5711 27.8509 12.6801 30.2459C12.7891 35.3624 16.3865 39.2814 21.0739 39.2814C22.9271 39.2814 24.6713 38.7371 26.3064 37.5396C30.3398 34.7092 31.757 28.7218 29.2497 24.8028C27.6146 22.1901 25.1073 20.8838 22.273 20.8838Z" fill="#432918"/>
<path d="M27.3967 25.8915C27.1787 25.456 26.8516 25.1294 26.5246 24.8029C27.5057 27.7421 26.1976 31.4434 23.5813 33.1852C20.529 35.2536 17.2587 34.7093 15.1875 32.6409C16.6046 36.5599 21.0741 38.4105 24.9985 35.5801C28.0508 33.6206 29.3589 29.0485 27.3967 25.8915Z" fill="#CA9E67"/>
<path d="M76.1243 19.904C75.9063 19.904 75.7973 19.904 75.5793 19.7952C74.8162 19.3597 74.2711 18.9243 73.7261 18.4888C70.6738 15.5496 70.3468 10.1065 72.963 6.51404C74.2711 4.77226 75.9063 3.90137 77.8685 3.90137C78.8496 3.90137 80.0487 4.11909 81.3568 4.55453C81.6839 4.6634 82.0109 4.98998 82.0109 5.31657C82.1199 5.64315 82.0109 6.0786 81.7929 6.29632L79.7217 8.58241C78.1955 10.7596 77.3234 13.2635 76.9964 15.8761V16.3116L77.1054 18.8154C77.1054 19.2509 76.8874 19.5774 76.5604 19.7952C76.4514 19.7952 76.3423 19.904 76.1243 19.904Z" fill="#7D4E24"/>
<path d="M77.8687 4.88109C78.8498 4.88109 79.9399 5.09881 81.03 5.53426C80.3759 6.29629 79.6128 7.05832 78.9588 7.82035C77.3236 10.2153 76.3425 12.828 76.0155 15.6584V16.2027C76.0155 17.0736 76.1245 17.8356 76.1245 18.7065C75.4704 18.3799 74.9254 17.9445 74.4893 17.509C71.6551 14.8964 71.6551 9.99758 73.8353 6.94946C75.0344 5.53426 76.3425 4.88109 77.8687 4.88109ZM77.8687 2.70386C75.4704 2.70386 73.5083 3.79247 72.0911 5.75198C69.1478 9.77986 69.5839 15.8761 72.9632 19.142C73.5082 19.6863 74.1623 20.1217 75.0344 20.666C75.3614 20.8837 75.6885 20.9926 76.1245 20.9926C76.5605 20.9926 76.8876 20.8837 77.2146 20.666C77.8687 20.2306 78.3047 19.4685 78.3047 18.7065L78.1957 16.2027V15.7672C78.4137 13.3723 79.2858 11.0862 80.5939 9.12669L82.5561 6.94946C83.1012 6.40515 83.2102 5.64312 83.1012 4.98995C82.8832 4.22792 82.4471 3.68361 81.684 3.46589C80.2669 2.92158 79.0678 2.70386 77.8687 2.70386Z" fill="#432918"/>
<path d="M76.0152 16.9647C74.8161 16.5293 73.835 16.0938 72.9629 15.4407C73.2899 16.2027 73.835 16.9647 74.489 17.6179C74.9251 18.0534 75.4701 18.3799 76.1242 18.8154C76.0152 18.1622 76.0152 17.6179 76.0152 16.9647Z" fill="#CA9E67"/>
<path d="M73.2912 99.1554C70.457 99.1554 68.3858 98.3934 67.1866 96.8693C65.9875 95.4541 65.5515 93.4946 65.9875 90.9908C66.8596 86.2009 71.22 82.173 75.6895 82.173C78.3057 82.173 80.595 83.5882 82.1211 86.3097C83.4292 88.8135 83.4292 91.6439 82.1211 94.2566C80.704 96.9781 78.0877 98.7199 75.1444 99.0465C74.3813 99.1554 73.8363 99.1554 73.2912 99.1554Z" fill="#7D4E24"/>
<path d="M75.6886 83.3703C77.7598 83.3703 79.722 84.459 81.1392 86.9628C83.7554 91.6438 80.2671 97.6312 75.0346 98.0667C74.4895 98.1755 73.9445 98.1755 73.3994 98.1755C69.148 98.1755 66.3137 96.216 67.1858 91.3172C67.8399 86.9628 71.8733 83.3703 75.6886 83.3703ZM75.6886 81.1931C70.7832 81.1931 65.8777 85.6564 65.0056 90.8818C64.5696 93.7122 65.0056 95.9983 66.4227 97.6312C67.9489 99.373 70.2381 100.244 73.3994 100.244C73.9445 100.244 74.5985 100.244 75.2526 100.135C78.5229 99.8085 81.4662 97.8489 83.1014 94.8008C84.6275 91.8616 84.6275 88.5957 83.1014 85.7653C81.3572 82.826 78.7409 81.1931 75.6886 81.1931Z" fill="#432918"/>
<path d="M81.031 86.8539C80.2679 85.4387 79.2868 84.459 78.1967 83.9147C78.4148 84.2413 78.6328 84.5678 78.8508 84.8944C81.4671 89.5755 77.9787 95.5629 72.7462 95.9983C70.675 96.216 68.9308 95.9983 67.5137 95.454C68.7128 97.6312 71.4381 98.2844 74.9264 97.9578C80.1589 97.5224 83.6473 91.535 81.031 86.8539Z" fill="#CA9E67"/>
<path d="M90.4056 44.1802C90.0786 44.1802 89.7516 43.9625 89.5336 43.6359C88.1164 41.4587 88.1164 38.4106 89.5336 36.3422C89.7516 36.0156 90.0786 35.9067 90.4056 35.9067C90.5147 35.9067 90.7327 35.9067 90.8417 36.0156C91.2777 36.2333 91.6048 36.6688 91.4958 37.2131C91.3867 37.6485 91.2777 38.1928 91.2777 38.7371C91.1687 40.0435 91.1687 41.4587 91.4958 42.8739C91.6048 43.4182 91.2777 43.8536 90.8417 44.0714C90.6237 44.1802 90.5147 44.1802 90.4056 44.1802Z" fill="#7D4E24"/>
<path d="M90.4058 36.9953C90.2968 37.5397 90.1878 38.084 90.1878 38.5194C90.0788 40.0435 90.0788 41.5675 90.4058 42.9827C89.0977 41.2409 89.2067 38.7371 90.4058 36.9953ZM90.4058 34.8181C90.2968 34.8181 90.2968 34.8181 90.1878 34.8181C89.8608 34.8181 89.4247 34.927 89.2067 35.1447C88.9887 35.2536 88.8797 35.3624 88.7707 35.5801L88.6616 35.689C86.9175 38.084 86.9175 41.5675 88.6616 44.1802C89.0977 44.8334 89.7518 45.16 90.5148 45.16C90.7329 45.16 91.0599 45.16 91.2779 45.0511C92.259 44.6157 92.804 43.6359 92.586 42.6561C92.368 41.3498 92.259 40.0435 92.368 38.7371C92.368 38.3017 92.477 37.8662 92.586 37.4308C92.586 37.2131 92.695 37.1042 92.695 36.8865C92.586 35.7979 91.6049 34.927 90.4058 34.8181Z" fill="#432918"/>
<path d="M53.8855 38.9548C51.1603 38.9548 49.0891 37.2131 48.435 34.2738C47.999 32.0966 48.435 29.9193 49.7431 28.2864C51.0513 26.7623 52.9044 25.7826 54.8666 25.7826C57.5919 25.7826 59.7721 27.5244 60.5352 30.4636C61.0802 32.4231 60.6442 34.4915 59.4451 36.1244C58.137 37.8662 56.0657 38.9548 53.8855 38.9548Z" fill="#7D4E24"/>
<path d="M54.9759 26.8712C56.9381 26.8712 58.9003 28.0687 59.5544 30.7902C60.6445 34.8181 57.0471 37.8662 53.8858 37.8662C51.9236 37.8662 50.0704 36.7776 49.5254 34.0561C48.6533 29.7016 51.8146 26.8712 54.9759 26.8712ZM54.9759 24.694C52.6867 24.694 50.5065 25.7826 48.9803 27.5244C47.4542 29.375 46.9091 31.8788 47.4542 34.3827C48.2173 37.7574 50.6155 39.9346 53.8858 39.9346C56.284 39.9346 58.7913 38.7371 60.3174 36.6687C61.7346 34.8181 62.2796 32.4231 61.6256 30.137C60.7535 26.8712 58.1372 24.694 54.9759 24.694Z" fill="#432918"/>
<path d="M59.5547 30.7902C59.3367 30.0282 59.1187 29.4839 58.6827 28.9396C58.6827 29.0484 58.7917 29.2662 58.7917 29.375C60.3178 35.1447 52.5781 38.846 49.6348 34.7092C51.706 40.9144 61.1899 37.1042 59.5547 30.7902Z" fill="#CA9E67"/>
<path d="M11.2647 85.7653C9.08448 85.7653 6.68625 84.6767 4.94208 82.826C2.97988 80.7577 1.99879 78.2539 2.1078 75.75C2.32582 70.8513 7.34031 67.4766 11.5917 67.4766C14.208 67.4766 16.3882 68.674 17.6963 70.7424C19.4405 73.5728 19.2225 78.2539 17.2603 81.7374C15.8431 84.3501 13.7719 85.7653 11.4827 85.8742L11.2647 85.7653Z" fill="#7D4E24"/>
<path d="M11.5913 68.3474C13.6625 68.3474 15.6246 69.2183 16.7148 71.1778C19.331 75.5323 16.7148 84.5678 11.4822 84.6767C11.3732 84.6767 11.3732 84.6767 11.2642 84.6767C7.12181 84.6767 2.87039 80.3222 3.08841 75.6412C3.30643 71.3956 7.66686 68.3474 11.5913 68.3474ZM11.5913 66.2791C5.59566 66.2791 1.23523 71.069 1.01721 75.5323C0.908198 78.3627 1.9983 81.1931 4.17852 83.3703C6.14071 85.4387 8.75697 86.6362 11.2642 86.6362C11.3732 86.6362 11.4822 86.6362 11.4822 86.6362C14.0985 86.5273 16.4967 84.8944 18.1319 81.9551C20.2031 78.145 20.4211 73.0285 18.4589 69.8715C17.0418 67.6943 14.5345 66.2791 11.5913 66.2791Z" fill="#432918"/>
<path d="M16.7136 71.1779C15.9505 69.8716 14.7514 69.0007 13.4432 68.6741C13.5523 68.8918 13.6613 69.0007 13.7703 69.2184C16.3865 73.5728 13.7703 82.6084 8.53777 82.7172C7.55667 82.7172 6.68459 82.4995 5.8125 82.1729C7.44766 83.8058 9.51886 84.7856 11.4811 84.7856C16.7136 84.5679 19.3298 75.5324 16.7136 71.1779Z" fill="#CA9E67"/>
<path d="M57.8115 116.9C55.3043 116.9 53.1241 116.138 51.925 114.723C51.0529 113.743 50.6168 112.328 50.8349 110.912C51.3799 106.993 54.4322 104.054 58.0296 104.054C60.2098 104.054 62.172 105.143 63.5891 107.211C64.8972 109.171 65.2243 111.457 64.4612 113.416C63.5891 115.267 61.8449 116.573 59.5557 116.9C58.9016 116.9 58.3566 116.9 57.8115 116.9Z" fill="#7D4E24"/>
<path d="M58.0288 105.143C59.6639 105.143 61.4081 105.905 62.7162 107.755C65.1145 111.13 63.4793 115.158 59.3369 115.702C58.7918 115.811 58.3558 115.811 57.8108 115.811C54.7585 115.811 51.4881 114.505 51.9242 111.021C52.3602 107.538 55.0855 105.143 58.0288 105.143ZM58.0288 102.965C53.8864 102.965 50.289 106.34 49.744 110.804C49.5259 112.654 49.962 114.287 51.0521 115.485C53.0143 117.662 56.0666 117.988 57.8108 117.988C58.4648 117.988 59.0099 117.988 59.6639 117.88C62.3892 117.553 64.4604 116.029 65.4415 113.743C66.4226 111.457 66.0956 108.735 64.4604 106.558C62.8252 104.272 60.536 102.965 58.0288 102.965Z" fill="#432918"/>
<path d="M62.7161 107.755C61.953 106.667 60.972 105.905 59.9909 105.469C60.2089 105.687 60.4269 106.014 60.6449 106.231C63.0432 109.606 61.408 113.634 57.2656 114.178C55.7394 114.396 53.9953 114.287 52.5781 113.743C53.8863 115.485 56.9385 115.92 59.3368 115.593C63.4792 115.158 65.0053 111.13 62.7161 107.755Z" fill="#CA9E67"/>
<path d="M36.5531 97.6312C33.5008 97.6312 30.9935 96.3249 29.9034 94.1476C28.8133 92.0793 28.9223 89.7932 30.2304 87.7248C31.6476 85.3298 34.4819 83.8058 37.0981 83.8058C38.0792 83.8058 39.0603 84.0235 39.9324 84.459C42.6577 85.8742 44.4018 88.1603 44.5108 90.6641C44.6198 93.059 43.2027 95.2363 40.6955 96.6515C39.4963 97.3046 38.0792 97.6312 36.5531 97.6312Z" fill="#7D4E24"/>
<path d="M37.0979 84.8944C37.8609 84.8944 38.733 85.1121 39.4961 85.4387C44.2926 87.7248 44.9466 92.9502 40.1502 95.6717C39.1691 96.216 37.9699 96.5426 36.6618 96.5426C34.3726 96.5426 31.9744 95.6717 30.9933 93.7122C28.704 89.3577 32.9554 84.8944 37.0979 84.8944ZM37.0979 82.7172C34.0456 82.7172 30.9933 84.4589 29.2491 87.1805C27.8319 89.5754 27.7229 92.1881 28.922 94.5831C30.2302 97.0869 33.1735 98.611 36.5528 98.611C38.297 98.611 39.8231 98.1755 41.1312 97.5223C43.9655 95.8894 45.6007 93.3856 45.6007 90.5552C45.4917 87.6159 43.6385 85.0033 40.4772 83.3703C39.3871 83.0437 38.297 82.7172 37.0979 82.7172Z" fill="#432918"/>
<path d="M41.1326 86.5273C42.0047 88.8134 41.1326 91.4261 38.1893 93.059C36.2272 94.1477 32.7388 94.2565 30.5586 92.7325C30.6676 93.059 30.7766 93.2768 30.8856 93.6033C32.5208 96.7603 37.4263 97.0869 40.0425 95.6717C44.2939 93.2768 44.2939 89.14 41.1326 86.5273Z" fill="#CA9E67"/>
<path d="M101.088 95.0186C98.0359 95.0186 95.5287 93.7122 94.4386 91.535C93.3485 89.4666 93.4575 87.1805 94.7656 85.1121C96.1827 82.7172 99.017 81.1931 101.633 81.1931C102.614 81.1931 103.595 81.4108 104.468 81.8463C107.193 83.2615 108.937 85.5476 109.046 88.0514C109.155 90.4464 107.738 92.6236 105.231 94.0388C104.031 94.5831 102.505 95.0186 101.088 95.0186Z" fill="#7D4E24"/>
<path d="M101.524 82.2817C102.287 82.2817 103.159 82.4994 103.922 82.826C108.718 85.1121 109.372 90.3375 104.576 93.059C103.595 93.6033 102.396 93.9299 101.088 93.9299C98.7984 93.9299 96.4001 93.059 95.419 91.0995C93.1298 86.7451 97.3812 82.2817 101.524 82.2817ZM101.524 80.1045C98.4713 80.1045 95.419 81.8463 93.6749 84.5678C92.2577 86.9628 92.1487 89.5755 93.3478 91.9704C94.656 94.4742 97.5993 95.9983 100.979 95.9983C102.723 95.9983 104.249 95.5629 105.557 94.9097C108.391 93.2768 110.026 90.7729 110.026 87.9425C109.917 85.0033 108.064 82.3906 104.903 80.7577C103.922 80.3222 102.723 80.1045 101.524 80.1045Z" fill="#432918"/>
<path d="M106.102 84.3501C107.192 86.745 106.429 89.4666 103.268 91.2084C101.088 92.4058 97.2724 92.4059 95.2012 90.5552C95.3102 90.6641 95.3102 90.8818 95.4192 90.9906C97.0544 94.1476 101.96 94.4742 104.576 93.059C108.5 90.8818 108.719 86.9628 106.102 84.3501Z" fill="#CA9E67"/>
<path d="M45.8202 18.7066C41.4597 18.7066 37.7534 16.5293 36.2272 13.1546C34.374 9.01787 38.5164 4.44568 41.6777 2.37731C42.7678 1.61528 44.185 1.2887 45.7111 1.2887C48.7634 1.2887 52.0338 2.59504 53.996 4.66341C55.3041 5.96975 55.8491 7.82039 55.6311 9.99763C55.3041 12.7192 53.7779 15.5496 51.7067 17.0736C50.0716 18.1622 48.0004 18.7066 45.8202 18.7066Z" fill="#7D4E24"/>
<path d="M45.8195 2.3773C48.5447 2.3773 51.597 3.57478 53.2322 5.42543C56.0665 8.47355 53.9953 14.0255 51.052 16.0939C49.6348 17.0736 47.7817 17.6179 45.8195 17.6179C42.3311 17.6179 38.6248 15.985 37.2076 12.7192C35.6815 9.23558 39.3878 5.09884 42.3311 3.2482C43.3122 2.70389 44.5113 2.3773 45.8195 2.3773ZM45.8195 0.200073C44.0753 0.200073 42.4401 0.635519 41.132 1.50641C36.8806 4.22795 33.2832 9.23559 35.2454 13.6989C36.8806 17.4002 41.023 19.904 45.8195 19.904C48.3267 19.904 50.6159 19.2508 52.3601 17.9445C54.7583 16.3116 56.5025 13.1546 56.7205 10.1065C56.9386 7.71152 56.2845 5.53429 54.8674 4.01023C52.7961 1.72413 49.0898 0.200073 45.8195 0.200073Z" fill="#432918"/>
<path d="M53.232 5.42541C52.9049 4.98996 52.3599 4.66338 51.9239 4.33679C53.123 7.49378 51.2698 11.6305 48.7625 13.3723C45.7102 15.5495 40.5867 15.3318 37.3164 12.9369C39.6056 17.8356 47.1274 18.9242 51.0518 16.0938C53.9951 14.0255 56.0663 8.47353 53.232 5.42541Z" fill="#CA9E67"/>
<path d="M109.482 70.0892C105.448 70.0892 101.96 67.9119 100.652 64.5372C99.1257 60.8359 102.178 57.1347 103.486 55.7195C103.704 55.5017 103.922 55.3929 104.249 55.3929H104.358H104.467C104.685 55.3929 104.794 55.3929 105.012 55.5017H105.448L109.7 55.284C111.008 55.0663 112.316 54.6308 113.515 54.0865C113.624 53.9777 113.842 53.9777 113.951 53.9777C114.169 53.9777 114.278 53.9777 114.496 54.0865C115.477 54.6308 116.349 55.284 117.003 56.046C118.203 57.4612 118.639 59.203 118.421 61.3802C118.094 63.9929 116.676 66.8233 114.823 68.2385C113.515 69.436 111.553 70.0892 109.482 70.0892Z" fill="#7D4E24"/>
<path d="M114.059 55.0663C114.932 55.5017 115.695 56.1549 116.24 56.8081C118.856 59.8562 117.003 65.4081 114.277 67.4765C112.969 68.4563 111.225 69.0006 109.481 69.0006C106.32 69.0006 102.94 67.3676 101.632 64.1018C100.542 61.4891 102.286 58.441 104.248 56.3726C104.466 56.3726 104.685 56.4815 105.012 56.4815H105.557C106.974 56.3726 108.5 56.3726 109.917 56.2638C111.443 56.046 112.751 55.6106 114.059 55.0663ZM114.059 52.9979C113.732 52.9979 113.405 53.1068 113.187 53.2156C112.097 53.76 110.898 54.0865 109.699 54.3043L105.448 54.522H105.012C104.903 54.522 104.685 54.522 104.576 54.4131H104.466C104.357 54.4131 104.248 54.4131 104.139 54.4131C103.594 54.4131 103.049 54.6308 102.613 55.0663C99.452 58.3321 98.3619 61.9246 99.561 64.9727C101.087 68.674 104.903 71.1778 109.372 71.1778C111.661 71.1778 113.841 70.5246 115.477 69.2183C117.548 67.5854 119.183 64.6461 119.51 61.598C119.728 59.203 119.183 57.1347 117.875 55.5017C117.112 54.6308 116.24 53.8688 115.15 53.3245C114.823 53.1068 114.386 52.9979 114.059 52.9979Z" fill="#432918"/>
<path d="M116.24 56.8081C116.022 56.5904 115.804 56.3726 115.586 56.1549C116.676 59.203 114.932 63.4486 112.643 65.1904C109.7 67.4765 104.467 67.1499 101.633 64.3195C103.704 69.2183 110.572 70.4158 114.169 67.5854C117.003 65.4081 118.856 59.8562 116.24 56.8081Z" fill="#CA9E67"/>
<path d="M21.7293 60.9449C17.0418 60.9449 13.9895 56.5904 13.8805 52.6714C13.7715 48.8613 16.1697 46.1397 19.9851 45.922C20.2031 45.922 20.3121 45.922 20.5302 45.922C24.8906 45.922 27.7249 50.0587 28.0519 53.9778C28.2699 57.7879 26.1987 60.5095 22.8194 60.9449C22.3834 60.9449 22.0563 60.9449 21.7293 60.9449Z" fill="#7D4E24"/>
<path d="M20.5295 47.0106C27.2882 47.0106 29.7954 58.9854 22.6007 59.8563C22.2737 59.8563 22.0557 59.9651 21.7287 59.9651C14.4249 59.9651 11.6997 47.6638 20.0935 47.0106C20.2025 47.0106 20.3115 47.0106 20.5295 47.0106ZM20.5295 44.8334C20.3115 44.8334 20.0935 44.8334 19.8755 44.8334C15.406 45.16 12.5718 48.3169 12.6808 52.7803C12.8988 57.2436 16.3871 62.1424 21.6196 62.1424C22.0557 62.1424 22.3827 62.1424 22.8188 62.0335C26.8522 61.4892 29.2504 58.2233 29.0324 53.8689C28.8144 49.4056 25.544 44.8334 20.5295 44.8334Z" fill="#432918"/>
<path d="M22.3822 47.3372C25.3255 50.8207 25.3255 57.3524 20.093 58.1145C18.8938 58.2233 17.9127 58.1145 16.9316 57.7879C18.2398 59.3119 20.202 60.2917 22.6002 59.9651C29.0318 58.9853 27.7237 49.1878 22.3822 47.3372Z" fill="#CA9E67"/>
<path d="M50.1802 61.7067C50.1802 65.408 47.2369 68.3473 43.5305 68.3473C39.8241 68.3473 36.8809 65.408 36.8809 61.7067C36.8809 58.0054 39.8241 55.0662 43.5305 55.0662C47.2369 55.0662 50.1802 58.0054 50.1802 61.7067Z" fill="#432918"/>
<path d="M42.6593 58.8763C42.6593 60.0738 41.6782 61.0536 40.479 61.0536C39.2799 61.0536 38.2988 60.0738 38.2988 58.8763C38.2988 57.6789 39.2799 56.6991 40.479 56.6991C41.6782 56.6991 42.6593 57.6789 42.6593 58.8763Z" fill="white"/>
<path d="M42.5496 62.1422C42.5496 62.5777 42.2225 62.9043 41.7865 62.9043C41.3505 62.9043 41.0234 62.5777 41.0234 62.1422C41.0234 61.7068 41.3505 61.3802 41.7865 61.3802C42.2225 61.2713 42.5496 61.7068 42.5496 62.1422Z" fill="white"/>
<path d="M43.9671 59.965C43.9671 60.2916 43.749 60.5093 43.422 60.5093C43.095 60.5093 42.877 60.2916 42.877 59.965C42.877 59.6384 43.095 59.4207 43.422 59.4207C43.749 59.5295 43.9671 59.7472 43.9671 59.965Z" fill="white"/>
<path d="M45.82 68.3473C45.82 69.2182 43.2038 69.8714 39.9335 69.8714C36.6631 69.8714 34.0469 69.2182 34.0469 68.3473C34.0469 67.4764 36.6631 66.8232 39.9335 66.8232C43.2038 66.9321 45.82 67.5853 45.82 68.3473Z" fill="#ED6F81"/>
<path d="M85.5005 61.7067C85.5005 65.408 82.5572 68.3473 78.8508 68.3473C75.1445 68.3473 72.2012 65.408 72.2012 61.7067C72.2012 58.0054 75.1445 55.0662 78.8508 55.0662C82.4482 55.0662 85.5005 58.0054 85.5005 61.7067Z" fill="#432918"/>
<path d="M77.9796 58.8763C77.9796 60.0738 76.9985 61.0536 75.7994 61.0536C74.6002 61.0536 73.6191 60.0738 73.6191 58.8763C73.6191 57.6789 74.6002 56.6991 75.7994 56.6991C76.9985 56.6991 77.9796 57.6789 77.9796 58.8763Z" fill="white"/>
<path d="M77.8699 62.1422C77.8699 62.5777 77.5429 62.9043 77.1068 62.9043C76.6708 62.9043 76.3438 62.5777 76.3438 62.1422C76.3438 61.7068 76.6708 61.3802 77.1068 61.3802C77.4338 61.2713 77.8699 61.7068 77.8699 62.1422Z" fill="white"/>
<path d="M79.2874 59.965C79.2874 60.2916 79.0693 60.5093 78.7423 60.5093C78.4153 60.5093 78.1973 60.2916 78.1973 59.965C78.1973 59.6384 78.4153 59.4207 78.7423 59.4207C79.0693 59.5295 79.2874 59.7472 79.2874 59.965Z" fill="white"/>
<path d="M87.8982 68.3473C87.8982 69.2182 85.2819 69.8714 82.0116 69.8714C78.7413 69.8714 76.125 69.2182 76.125 68.3473C76.125 67.4764 78.7413 66.8232 82.0116 66.8232C85.2819 66.9321 87.8982 67.5853 87.8982 68.3473Z" fill="#ED6F81"/>
<path d="M75.252 54.6308C75.252 54.6308 80.5935 56.5903 84.5178 52.2358" stroke="#432918" stroke-width="1.1" stroke-miterlimit="10" stroke-linecap="round" stroke-linejoin="round"/>
<path d="M45.2737 50.2763C45.2737 50.2763 39.9322 48.3168 36.0078 52.6713" stroke="#432918" stroke-width="1.1" stroke-miterlimit="10" stroke-linecap="round" stroke-linejoin="round"/>
<path d="M61.5171 72.2663C59.882 72.2663 58.4648 70.198 58.4648 67.4764C58.4648 64.7549 59.773 62.6865 61.5171 62.6865C63.2613 62.6865 64.4604 64.7549 64.4604 67.4764C64.4604 70.198 63.1523 72.2663 61.5171 72.2663Z" fill="#E84242"/>
<path d="M61.5173 63.3397C62.8254 63.3397 63.9155 65.1903 63.9155 67.4764C63.9155 69.7625 62.8254 71.6132 61.5173 71.6132C60.2091 71.6132 59.119 69.7625 59.119 67.4764C59.119 65.1903 60.2091 63.3397 61.5173 63.3397ZM61.5173 62.1422C59.4461 62.1422 57.9199 64.4283 57.9199 67.4764C57.9199 70.5246 59.4461 72.8107 61.5173 72.8107C63.5885 72.8107 65.1146 70.5246 65.1146 67.4764C65.1146 64.4283 63.5885 62.1422 61.5173 62.1422Z" fill="#432918"/>
<path d="M63.6975 66.279C63.5884 66.279 63.4794 66.279 63.4794 66.1702C62.8254 65.8436 62.0623 65.6259 61.2992 65.6259C60.7542 65.6259 60.2091 65.7347 59.7731 65.8436C59.6641 65.8436 59.6641 65.8436 59.5551 65.8436C59.446 65.8436 59.228 65.7347 59.119 65.6259C59.01 65.517 58.901 65.1904 59.01 64.9727C59.5551 63.4486 60.5361 62.4689 61.6263 62.4689C62.8254 62.4689 63.9155 63.5575 64.3515 65.2993C64.4605 65.517 64.3515 65.7347 64.1335 65.9524C63.9155 66.279 63.8065 66.279 63.6975 66.279Z" fill="white"/>
<path d="M61.5166 63.3397C62.4977 63.3397 63.2608 64.3194 63.6969 65.7346C62.9338 65.2992 62.0617 65.1903 61.1896 65.1903C60.5355 65.1903 59.9905 65.2992 59.4454 65.5169C59.8815 64.2106 60.6446 63.3397 61.5166 63.3397ZM61.5166 62.1422C60.0995 62.1422 58.9004 63.2308 58.3553 65.0815C58.2463 65.5169 58.3553 65.9524 58.6824 66.279C58.9004 66.4967 59.2274 66.6055 59.5545 66.6055C59.6635 66.6055 59.7725 66.6055 59.9905 66.4967C60.4265 66.3878 60.8626 66.279 61.4076 66.279C62.0617 66.279 62.7158 66.3878 63.3698 66.7144C63.5879 66.8233 63.6969 66.8233 63.9149 66.8233C64.1329 66.8233 64.4599 66.7144 64.678 66.6055C65.005 66.279 65.223 65.8435 65.114 65.4081C64.2419 63.3397 63.0428 62.1422 61.5166 62.1422Z" fill="#432918"/>
<path d="M99.563 16.9648C98.4729 16.9648 94.5486 16.747 93.3494 14.4609C92.9134 13.6989 92.6954 12.3926 93.7855 10.6508C94.2215 9.99762 94.7666 9.45331 95.2026 9.01787C95.7477 8.47356 96.1837 8.03811 96.5108 7.38494C96.6198 7.27608 96.6198 7.05836 96.7288 6.9495C97.0558 6.18747 97.4918 4.98999 99.127 4.98999C99.454 4.98999 99.6721 4.98999 99.9991 5.09885C102.179 5.5343 102.615 7.49381 102.833 8.80014C103.051 9.99762 103.269 10.1065 103.705 10.6508C103.923 10.8685 104.251 11.1951 104.687 11.7394C105.777 13.0457 105.559 14.2432 105.232 14.6787C104.578 16.4205 101.852 16.9648 99.563 16.9648Z" fill="#FBCB6D"/>
<path d="M99.2353 6.0786C99.4533 6.0786 99.6713 6.0786 99.8893 6.18746C101.415 6.51404 101.633 7.92925 101.961 9.23558C102.397 11.1951 102.833 10.9774 104.032 12.5014C105.885 14.7875 102.833 15.985 99.6713 15.985C96.292 15.985 92.6946 14.5698 94.7658 11.304C95.6379 9.99762 96.837 9.45331 97.6001 7.92924C97.9271 6.94949 98.0361 6.0786 99.2353 6.0786ZM99.2353 3.90137C96.837 3.90137 96.074 5.86088 95.7469 6.51405C95.7469 6.62291 95.6379 6.73177 95.6379 6.84063C95.4199 7.27608 95.0929 7.60266 94.5478 8.14697C94.0028 8.69128 93.4577 9.23558 92.9126 9.99761C91.3865 12.2837 91.9315 14.1344 92.3676 15.0052C93.8937 17.9445 98.2542 18.1622 99.5623 18.1622C100.87 18.1622 105.013 17.9445 106.321 15.223C106.648 14.5698 107.193 12.9369 105.667 11.0862C105.231 10.5419 104.904 10.2153 104.577 9.88875C104.141 9.45331 104.141 9.45331 104.032 8.69128V8.58241C103.705 7.27608 103.16 4.6634 100.325 4.01023C99.8893 3.90137 99.5623 3.90137 99.2353 3.90137Z" fill="#432918"/>
<path d="M104.031 12.3925C102.832 10.8685 102.396 11.1951 101.96 9.1267C101.633 7.92922 101.415 6.40516 99.8887 6.07858C98.9076 5.86085 98.4716 6.07858 98.1445 6.51402C99.0166 7.05833 99.2346 8.25581 99.4527 9.23556C99.8887 11.1951 100.325 10.9773 101.524 12.5014C102.941 14.2432 101.415 15.4407 99.0166 15.8761C102.396 16.0938 105.884 14.7875 104.031 12.3925Z" fill="#FBCB6D"/>
<path d="M113.407 37.213C111.227 37.213 107.739 35.9067 106.976 33.7294C106.758 33.0763 106.54 31.6611 108.175 30.4636C108.72 30.0281 109.156 29.8104 109.701 29.5927C110.137 29.375 110.573 29.1572 110.9 28.8307C111.009 28.7218 111.009 28.6129 111.118 28.6129C111.445 28.1775 111.99 27.6332 112.862 27.6332C113.298 27.6332 113.734 27.742 114.17 28.0686C115.697 28.9395 115.588 30.6813 115.479 31.6611C115.37 32.4231 115.479 32.532 115.697 32.9674C115.806 33.1851 116.024 33.5117 116.133 33.9472C116.569 35.0358 116.242 35.7978 116.024 36.2332C115.588 36.6687 114.934 37.213 113.407 37.213Z" fill="#FBCB6D"/>
<path d="M112.862 28.6129C113.08 28.6129 113.298 28.7218 113.625 28.9395C114.606 29.4838 114.497 30.5724 114.388 31.5522C114.279 33.0762 114.606 32.9674 115.042 34.2737C115.587 35.58 114.606 36.1243 113.407 36.1243C110.572 36.1243 105.776 33.6205 108.828 31.2256C109.809 30.4635 110.791 30.3547 111.663 29.4838C111.99 29.1572 112.317 28.6129 112.862 28.6129ZM112.862 26.4357C111.445 26.4357 110.681 27.4154 110.245 27.8509C110.136 27.9597 110.136 27.9597 110.027 28.0686C109.809 28.2863 109.591 28.3952 109.155 28.6129C108.719 28.8306 108.065 29.1572 107.52 29.5927C105.34 31.3344 105.667 33.2939 105.994 34.056C106.975 36.7775 111.009 38.3016 113.516 38.3016C115.478 38.3016 116.459 37.4307 117.004 36.7775C117.331 36.2332 117.876 35.1446 117.331 33.5117C117.113 32.9674 117.004 32.6408 116.895 32.4231C116.895 32.3142 116.786 32.3142 116.786 32.2053C116.786 32.2053 116.786 32.0965 116.786 31.7699C116.895 30.7901 117.113 28.3952 114.933 27.0888C114.061 26.6534 113.516 26.4357 112.862 26.4357Z" fill="#432918"/>
<path d="M115.042 34.2737C114.497 32.9674 114.17 32.9674 114.388 31.5522C114.497 30.6813 114.606 29.4838 113.625 28.9395C112.971 28.5041 112.644 28.6129 112.317 28.8306C112.753 29.4838 112.753 30.3547 112.644 31.0079C112.535 32.5319 112.862 32.4231 113.298 33.7294C113.843 35.3623 112.535 35.7978 110.791 35.4712C113.189 36.451 115.915 36.3421 115.042 34.2737Z" fill="#FBCB6D"/>
<path d="M120.709 16.0939C119.292 16.0939 116.785 15.223 116.239 13.5901C116.13 13.1546 115.912 12.066 117.112 11.0862C117.439 10.7597 117.875 10.6508 118.093 10.5419C118.42 10.4331 118.529 10.3242 118.747 10.1065L118.856 9.99763C119.074 9.7799 119.51 9.2356 120.273 9.2356C120.6 9.2356 120.927 9.34446 121.363 9.56218C122.562 10.2153 122.453 11.5217 122.344 12.1749C122.344 12.6103 122.344 12.6103 122.453 12.828C122.562 13.0458 122.671 13.1546 122.78 13.4812C123.107 14.3521 122.78 15.0053 122.671 15.3318C122.453 15.6584 121.908 16.0939 120.709 16.0939Z" fill="#FBCB6D"/>
<path d="M120.382 10.3242C120.491 10.3242 120.709 10.3242 120.927 10.5419C121.581 10.8685 121.472 11.6305 121.363 12.1748C121.254 13.1546 121.472 13.0457 121.799 13.9166C122.126 14.7875 121.581 15.1141 120.709 15.1141C118.965 15.1141 116.022 13.5901 117.875 12.066C118.42 11.6305 119.074 11.5217 119.619 10.9774C119.946 10.6508 120.055 10.3242 120.382 10.3242ZM120.382 8.14697C119.074 8.14697 118.42 9.01787 118.093 9.34445C118.093 9.34445 118.093 9.45331 117.984 9.45331C117.984 9.45331 117.766 9.56217 117.657 9.67103C117.33 9.7799 116.894 9.99762 116.458 10.4331C115.259 11.4128 114.714 12.828 115.259 14.1344C116.022 16.3116 118.965 17.2913 120.709 17.2913C122.344 17.2913 123.216 16.4204 123.543 15.985C123.871 15.5496 124.307 14.5698 123.761 13.1546C123.652 12.828 123.543 12.6103 123.434 12.3926C123.543 11.6305 123.652 9.7799 121.908 8.69128C121.472 8.25583 120.927 8.14697 120.382 8.14697Z" fill="#432918"/>
<path d="M121.799 13.8078C121.472 12.9369 121.254 13.0457 121.363 12.066C121.472 11.5217 121.472 10.7597 120.927 10.4331C120.491 10.2153 120.273 10.2153 120.055 10.4331C120.382 10.7597 120.273 11.304 120.273 11.8483C120.164 12.828 120.382 12.7192 120.709 13.5901C121.036 14.5698 120.164 14.8964 119.074 14.6787C120.6 15.223 122.345 15.1141 121.799 13.8078Z" fill="#FBCB6D"/>
</svg>
