<svg width="20" height="20" viewBox="0 0 20 20" fill="none" xmlns="http://www.w3.org/2000/svg">
<path fill-rule="evenodd" clip-rule="evenodd" d="M8 2C8 0.895417 8.89542 0 10 0C11.1046 0 12 0.895417 12 2C11.9989 3.10413 11.1041 3.99892 10 4C8.89542 4 8 3.10458 8 2ZM8.66667 2C8.66667 2.73638 9.26363 3.33333 10 3.33333C10.7364 3.33333 11.3333 2.73638 11.3333 2C11.3333 1.26363 10.7364 0.666667 10 0.666667C9.26363 0.666667 8.66667 1.26363 8.66667 2Z" fill="white"/>
<path fill-rule="evenodd" clip-rule="evenodd" d="M11.2547 4.33337H11.3333C12.2533 4.33446 12.9989 5.08004 13 6.00004V8.00004C13 8.55233 12.5523 9.00004 12 9.00004H8C7.44771 9.00004 7 8.55233 7 8.00004V6.00004C7.00108 5.08004 7.74667 4.33446 8.66667 4.33337H8.74533L8.81567 4.36837C9.56154 4.73975 10.4385 4.73975 11.1843 4.36837L11.2547 4.33337ZM12 8.33337C12.1841 8.33337 12.3333 8.18412 12.3333 8.00004V6.00004C12.3333 5.47537 11.9277 5.03996 11.4043 5.00271C10.5138 5.41604 9.48629 5.41604 8.59567 5.00271C8.07229 5.03996 7.66675 5.47537 7.66667 6.00004V8.00004C7.66667 8.18412 7.81592 8.33337 8 8.33337H12Z" fill="white"/>
<path fill-rule="evenodd" clip-rule="evenodd" d="M15 13C15 11.8954 15.8954 11 17 11C18.1041 11.0011 18.9989 11.8959 19 13C19 14.1046 18.1046 15 17 15C15.8954 15 15 14.1046 15 13ZM15.6667 13C15.6667 13.7364 16.2636 14.3333 17 14.3333C17.7364 14.3333 18.3333 13.7364 18.3333 13C18.3333 12.2636 17.7364 11.6667 17 11.6667C16.2636 11.6667 15.6667 12.2636 15.6667 13Z" fill="white"/>
<path fill-rule="evenodd" clip-rule="evenodd" d="M18.2547 15.3334H18.3333C19.2533 15.3345 19.9989 16.08 20 17V19C20 19.5523 19.5523 20 19 20H15C14.4477 20 14 19.5523 14 19V17C14.0011 16.08 14.7467 15.3345 15.6667 15.3334H15.7453L15.8157 15.3667C16.5615 15.738 17.4385 15.738 18.1843 15.3667L18.2547 15.3334ZM19 19.3334C19.1841 19.3334 19.3333 19.1841 19.3333 19V17C19.3333 16.4754 18.9277 16.04 18.4043 16.0027C17.5137 16.416 16.4863 16.416 15.5957 16.0027C15.0723 16.04 14.6668 16.4754 14.6667 17V19C14.6667 19.1841 14.8159 19.3334 15 19.3334H19Z" fill="white"/>
<path fill-rule="evenodd" clip-rule="evenodd" d="M1 13C1 11.8954 1.89542 11 3 11C4.10413 11.0011 4.99892 11.8959 5 13C5 14.1046 4.10458 15 3 15C1.89542 15 1 14.1046 1 13ZM1.66667 13C1.66667 13.7364 2.26363 14.3333 3 14.3333C3.73638 14.3333 4.33333 13.7364 4.33333 13C4.33333 12.2636 3.73638 11.6667 3 11.6667C2.26363 11.6667 1.66667 12.2636 1.66667 13Z" fill="white"/>
<path fill-rule="evenodd" clip-rule="evenodd" d="M4.25467 15.3334H4.33333C5.25333 15.3345 5.99892 16.08 6 17V19C6 19.5523 5.55229 20 5 20H1C0.447708 20 0 19.5523 0 19V17C0.00108333 16.08 0.746667 15.3345 1.66667 15.3334H1.74533L1.81567 15.3667C2.56154 15.738 3.43846 15.738 4.18433 15.3667L4.25467 15.3334ZM5 19.3334C5.18408 19.3334 5.33333 19.1841 5.33333 19V17C5.33325 16.4754 4.92771 16.04 4.40433 16.0027C3.51371 16.416 2.48629 16.416 1.59567 16.0027C1.07229 16.04 0.66675 16.4754 0.666667 17V19C0.666667 19.1841 0.815917 19.3334 1 19.3334H5Z" fill="white"/>
<path d="M13.3066 16.9282C13.3064 16.9278 13.3063 16.9274 13.3061 16.927C13.2339 16.7576 13.0382 16.6788 12.8688 16.751C11.3636 17.3818 9.69195 17.4969 8.11449 17.0783L8.42649 16.9867C8.60324 16.9349 8.70457 16.7497 8.65282 16.573C8.60107 16.3962 8.41591 16.2949 8.23916 16.3467L6.90582 16.7377C6.90082 16.7377 6.89716 16.7433 6.89249 16.745C6.86162 16.7565 6.83262 16.7726 6.80649 16.7927C6.79491 16.7989 6.78378 16.8059 6.77316 16.8137C6.73799 16.845 6.71012 16.8837 6.69149 16.927C6.67341 16.9706 6.66478 17.0175 6.66616 17.0647C6.67428 17.1098 6.68541 17.1543 6.69949 17.198C6.70149 17.2027 6.69949 17.208 6.70316 17.2127L7.36982 18.4883C7.45507 18.6516 7.65653 18.7149 7.81982 18.6297C7.98312 18.5444 8.04641 18.3429 7.96116 18.1797L7.68982 17.661C9.48207 18.1997 11.4063 18.095 13.1295 17.365C13.299 17.2933 13.3783 17.0977 13.3066 16.9282Z" fill="white"/>
<path d="M18.9018 8.76435C18.7716 8.63423 18.5606 8.63423 18.4304 8.76435L17.9588 9.23602C17.6828 6.31643 15.8292 3.78285 13.1301 2.63602C12.9607 2.56385 12.7649 2.64264 12.6928 2.81202C12.6206 2.98139 12.6994 3.17718 12.8688 3.24935C15.29 4.27839 16.9731 6.52723 17.2778 9.14035L16.9018 8.76435C16.7694 8.63643 16.5584 8.6401 16.4304 8.77252C16.3057 8.90168 16.3057 9.10648 16.4304 9.23568L17.4304 10.2357C17.5604 10.366 17.7715 10.3663 17.9019 10.2363C17.9021 10.2361 17.9023 10.2359 17.9024 10.2357L18.9024 9.23568C19.0324 9.10535 19.0321 8.89435 18.9018 8.76435Z" fill="white"/>
<path d="M7.32367 2.88635C7.32259 2.86689 7.31971 2.8476 7.315 2.82868C7.315 2.82568 7.31134 2.82368 7.31 2.82035C7.30867 2.81701 7.31 2.81468 7.31 2.81201C7.30092 2.7958 7.29042 2.78039 7.27867 2.76601C7.26788 2.74647 7.25513 2.72805 7.24067 2.71101C7.22096 2.69355 7.19913 2.67868 7.17567 2.66668C7.16396 2.65672 7.15146 2.64768 7.13833 2.63968L5.805 2.03068C5.63471 1.96076 5.43996 2.04214 5.37004 2.21243C5.30392 2.37347 5.37288 2.5583 5.52833 2.63668L6.21867 2.95235C3.61979 4.34322 1.99813 7.05235 2 10C2 10.1841 2.14925 10.3333 2.33333 10.3333C2.51742 10.3333 2.66667 10.1841 2.66667 10C2.665 7.40447 4.03754 5.00201 6.27433 3.68535L6.03333 4.18901C5.95388 4.35472 6.0235 4.55347 6.189 4.63335C6.23396 4.6553 6.28329 4.66672 6.33333 4.66668C6.46133 4.66651 6.57792 4.59305 6.63334 4.47768L7.3 3.08668C7.3 3.08335 7.3 3.07968 7.30267 3.07635C7.31133 3.05355 7.31738 3.02985 7.32067 3.00568C7.32638 2.98772 7.33063 2.96935 7.33333 2.95068C7.33221 2.92897 7.329 2.90743 7.32367 2.88635Z" fill="white"/>
</svg>
