<svg width="30" height="30" viewBox="0 0 30 30" fill="none" xmlns="http://www.w3.org/2000/svg">
<path d="M11.7649 0H2.05821C1.62915 0 1.21766 0.170444 0.914266 0.473836C0.610874 0.777228 0.44043 1.18872 0.44043 1.61778V11.3244C0.44043 11.7535 0.610874 12.165 0.914266 12.4684C1.21766 12.7718 1.62915 12.9422 2.05821 12.9422H11.7649C12.1939 12.9422 12.6054 12.7718 12.9088 12.4684C13.2122 12.165 13.3827 11.7535 13.3827 11.3244V1.61778C13.3827 1.18872 13.2122 0.777228 12.9088 0.473836C12.6054 0.170444 12.1939 0 11.7649 0ZM27.9427 0H18.236C17.8069 0 17.3954 0.170444 17.092 0.473836C16.7887 0.777228 16.6182 1.18872 16.6182 1.61778V11.3244C16.6182 11.7535 16.7887 12.165 17.092 12.4684C17.3954 12.7718 17.8069 12.9422 18.236 12.9422H27.9427C28.3717 12.9422 28.7832 12.7718 29.0866 12.4684C29.39 12.165 29.5604 11.7535 29.5604 11.3244V1.61778C29.5604 1.18872 29.39 0.777228 29.0866 0.473836C28.7832 0.170444 28.3717 0 27.9427 0ZM11.7649 16.1778H2.05821C1.62915 16.1778 1.21766 16.3482 0.914266 16.6516C0.610874 16.955 0.44043 17.3665 0.44043 17.7956V27.5022C0.44043 27.9313 0.610874 28.3428 0.914266 28.6462C1.21766 28.9496 1.62915 29.12 2.05821 29.12H11.7649C12.1939 29.12 12.6054 28.9496 12.9088 28.6462C13.2122 28.3428 13.3827 27.9313 13.3827 27.5022V17.7956C13.3827 17.3665 13.2122 16.955 12.9088 16.6516C12.6054 16.3482 12.1939 16.1778 11.7649 16.1778ZM24.7071 17.7956H21.4715V21.0311H18.236V24.2667H21.4715V27.5022H24.7071V24.2667H27.9427V21.0311H24.7071V17.7956Z" fill="#515C6A" fill-opacity="0.4"/>
</svg>
