<svg width="32" height="32" viewBox="0 0 32 32" fill="none" xmlns="http://www.w3.org/2000/svg">
<path d="M12.4444 0H1.77778C1.30628 0 0.854097 0.187301 0.520699 0.520699C0.187301 0.854097 0 1.30628 0 1.77778V12.4444C0 12.9159 0.187301 13.3681 0.520699 13.7015C0.854097 14.0349 1.30628 14.2222 1.77778 14.2222H12.4444C12.9159 14.2222 13.3681 14.0349 13.7015 13.7015C14.0349 13.3681 14.2222 12.9159 14.2222 12.4444V1.77778C14.2222 1.30628 14.0349 0.854097 13.7015 0.520699C13.3681 0.187301 12.9159 0 12.4444 0ZM30.2222 0H19.5556C19.0841 0 18.6319 0.187301 18.2985 0.520699C17.9651 0.854097 17.7778 1.30628 17.7778 1.77778V12.4444C17.7778 12.9159 17.9651 13.3681 18.2985 13.7015C18.6319 14.0349 19.0841 14.2222 19.5556 14.2222H30.2222C30.6937 14.2222 31.1459 14.0349 31.4793 13.7015C31.8127 13.3681 32 12.9159 32 12.4444V1.77778C32 1.30628 31.8127 0.854097 31.4793 0.520699C31.1459 0.187301 30.6937 0 30.2222 0ZM12.4444 17.7778H1.77778C1.30628 17.7778 0.854097 17.9651 0.520699 18.2985C0.187301 18.6319 0 19.0841 0 19.5556V30.2222C0 30.6937 0.187301 31.1459 0.520699 31.4793C0.854097 31.8127 1.30628 32 1.77778 32H12.4444C12.9159 32 13.3681 31.8127 13.7015 31.4793C14.0349 31.1459 14.2222 30.6937 14.2222 30.2222V19.5556C14.2222 19.0841 14.0349 18.6319 13.7015 18.2985C13.3681 17.9651 12.9159 17.7778 12.4444 17.7778ZM26.6667 19.5556H23.1111V23.1111H19.5556V26.6667H23.1111V30.2222H26.6667V26.6667H30.2222V23.1111H26.6667V19.5556Z" fill="white"/>
</svg>
