<svg width="28" height="28" viewBox="0 0 28 28" fill="none" xmlns="http://www.w3.org/2000/svg">
<path fill-rule="evenodd" clip-rule="evenodd" d="M2.46094 0H25.5391C26.896 0 28 1.1408 28 2.54297V19.4961C28 20.8983 26.896 22.0391 25.5391 22.0391H18.4194L19.5132 25.4297H22.2031C22.6562 25.4297 23.0234 25.8091 23.0234 26.2773C23.0234 26.7455 22.6562 27.125 22.2031 27.125H5.79688C5.34378 27.125 4.97656 26.7455 4.97656 26.2773C4.97656 25.8091 5.34378 25.4297 5.79688 25.4297H8.48682L9.58057 22.0391H2.46094C1.104 22.0391 0 20.8983 0 19.4961V2.54297C0 1.1408 1.104 0 2.46094 0ZM11.3101 22.0391L10.2163 25.4297H17.7837L16.6899 22.0391H11.3101ZM26.3594 19.4961C26.3594 19.9634 25.9913 20.3438 25.5391 20.3438H2.46094C2.0087 20.3438 1.64062 19.9634 1.64062 19.4961V18.6484H26.3594V19.4961ZM8.19949 11.3105L8.94568 12.0813C9.21014 12.3548 9.26205 12.7784 9.07214 13.1113C8.80042 13.5879 8.59555 14.0965 8.46375 14.6227C8.36996 14.9967 8.04333 15.2578 7.66949 15.2578H6.61719V16.9531H9.98132C9.92664 16.6754 9.89844 16.3913 9.89844 16.1055C9.89844 13.7685 11.7384 11.8672 14 11.8672C16.2616 11.8672 18.1016 13.7685 18.1016 16.1055C18.1016 16.3913 18.0734 16.6754 18.0187 16.9531H21.3828V15.2578H20.3305C19.9567 15.2578 19.63 14.9967 19.5365 14.6227C19.4044 14.0965 19.1998 13.5879 18.9279 13.1113C18.7377 12.7784 18.7899 12.3548 19.0543 12.0815L19.8005 11.3105L18.6403 10.1116L17.8941 10.8827C17.6297 11.156 17.2197 11.2098 16.8974 11.0136C16.4364 10.7326 15.9442 10.5209 15.4349 10.3845C15.073 10.2878 14.8203 9.95025 14.8203 9.56395V8.47656H13.1797V9.56395C13.1797 9.95025 12.927 10.2878 12.5651 10.3845C12.0556 10.5209 11.5634 10.7326 11.1024 11.0134C10.7801 11.2098 10.3701 11.156 10.1057 10.8827L9.35947 10.1116L8.19949 11.3105ZM16.4609 16.1055C16.4609 16.3957 16.4122 16.6825 16.3199 16.9531H11.6801C11.5878 16.6825 11.5391 16.3957 11.5391 16.1055C11.5391 14.7033 12.6431 13.5625 14 13.5625C15.3569 13.5625 16.4609 14.7033 16.4609 16.1055ZM23.0234 16.9531H26.3594V2.54297C26.3594 2.07565 25.9913 1.69531 25.5391 1.69531H2.46094C2.0087 1.69531 1.64062 2.07565 1.64062 2.54297V16.9531H4.97656V14.4102C4.97656 13.9422 5.34378 13.5625 5.79688 13.5625H7.0643C7.14932 13.3161 7.24673 13.074 7.35654 12.8369L6.45953 11.9098C6.1391 11.5787 6.1391 11.042 6.45953 10.7109L8.77948 8.31343C8.9335 8.1545 9.142 8.06532 9.35968 8.06532C9.57715 8.06532 9.78586 8.1545 9.93967 8.31343L10.8367 9.24056C11.0663 9.12709 11.3007 9.02621 11.5391 8.93858V7.62891C11.5391 7.16071 11.9063 6.78125 12.3594 6.78125H15.6406C16.0937 6.78125 16.4609 7.16071 16.4609 7.62891V8.93858C16.6993 9.02621 16.9337 9.12709 17.1633 9.24056L18.0603 8.31343C18.2141 8.1545 18.4229 8.06532 18.6403 8.06532C18.8578 8.06532 19.0665 8.1545 19.2203 8.31343L21.5405 10.7109C21.8609 11.042 21.8609 11.5787 21.5407 11.9098L20.6435 12.8367C20.7533 13.074 20.8509 13.3161 20.9359 13.5625H22.2031C22.6562 13.5625 23.0234 13.942 23.0234 14.4102V16.9531Z" fill="url(#paint0_linear)"/>
<path fill-rule="evenodd" clip-rule="evenodd" d="M19.25 6.125C19.25 4.6776 20.4276 3.5 21.875 3.5C23.3224 3.5 24.5 4.6776 24.5 6.125C24.5 7.5724 23.3224 8.75 21.875 8.75C20.4276 8.75 19.25 7.5724 19.25 6.125ZM21 6.125C21 6.60739 21.3926 7 21.875 7C22.3574 7 22.75 6.60739 22.75 6.125C22.75 5.64261 22.3574 5.25 21.875 5.25C21.3926 5.25 21 5.64261 21 6.125Z" fill="url(#paint1_linear)"/>
<defs>
<linearGradient id="paint0_linear" x1="0" y1="0" x2="0" y2="27.125" gradientUnits="userSpaceOnUse">
<stop stop-color="#33F0C8"/>
<stop offset="1" stop-color="#33F0EC"/>
</linearGradient>
<linearGradient id="paint1_linear" x1="19.25" y1="3.5" x2="19.25" y2="8.75" gradientUnits="userSpaceOnUse">
<stop stop-color="#33F0C8"/>
<stop offset="1" stop-color="#33F0EC"/>
</linearGradient>
</defs>
</svg>
