<svg width="32" height="32" viewBox="0 0 32 32" fill="none" xmlns="http://www.w3.org/2000/svg">
<g clip-path="url(#clip0)">
<path d="M12.4845 5.88759C13.0023 5.88759 13.4222 5.46777 13.4222 4.94994V0.932699C13.3726 -0.311368 11.5959 -0.310431 11.5469 0.932699V4.95001C11.5469 5.46784 11.9667 5.88759 12.4845 5.88759Z" fill="white"/>
<path d="M7.80235 5.61299C8.16841 5.97911 8.76219 5.97924 9.12837 5.61299C9.49455 5.24681 9.49455 4.65316 9.12837 4.28697L8.12409 3.28269C7.75797 2.91651 7.16426 2.91651 6.79807 3.28269C6.43189 3.64887 6.43189 4.24253 6.79807 4.60871L7.80235 5.61299Z" fill="white"/>
<path d="M17.1632 5.61299L18.1674 4.60871C18.5336 4.24253 18.5336 3.64887 18.1674 3.28269C17.8013 2.91651 17.2076 2.91651 16.8414 3.28269L15.8371 4.28697C15.471 4.65316 15.471 5.24681 15.8371 5.61299C16.2032 5.97911 16.797 5.97924 17.1632 5.61299Z" fill="white"/>
<path d="M23.8004 14.3169C24.3358 13.7815 24.3366 12.914 23.8004 12.3779C23.2649 11.8424 22.3975 11.8418 21.8613 12.3779L18.5962 15.643C18.0617 16.1776 18.0617 17.0475 18.5962 17.5821C19.131 18.1164 20.001 18.1164 20.5354 17.5821L23.8002 14.3172C23.8002 14.3171 23.8003 14.317 23.8004 14.3169Z" fill="white"/>
<path d="M23.8008 20.8472L26.2496 18.3983H26.2497C26.7852 17.8629 26.7859 16.9954 26.2497 16.4593C25.7143 15.9238 24.8469 15.923 24.3107 16.4593L21.8617 18.9082C21.3273 19.4427 21.3274 20.3126 21.8619 20.8475C22.3972 21.3827 23.2646 21.3833 23.8008 20.8472Z" fill="white"/>
<path d="M28.6999 20.5408C28.1692 20.0101 27.3014 20 26.7609 20.5403L25.1285 22.1728C24.5922 22.7092 24.593 23.5766 25.1282 24.1117C25.6701 24.6544 26.5394 24.6402 27.0668 24.1121L28.6994 22.4795L28.6999 22.479C29.2281 21.9514 29.2417 21.082 28.6999 20.5408Z" fill="white"/>
<path d="M22.8515 23.1424C22.8515 23.136 22.8519 23.1298 22.8519 23.1235C21.9785 23.13 21.1543 22.7904 20.5369 22.1731C19.8989 21.5348 19.583 20.6949 19.5883 19.8567C18.7491 19.863 17.9105 19.5457 17.272 18.9083C16.0061 17.6423 16.0061 15.5828 17.2718 14.317L26.2509 5.33848C26.7628 4.82591 26.8056 3.9534 26.2545 3.40231C25.7958 2.94362 24.9253 2.78597 24.3119 3.39944L12.7313 14.98L12.8845 15.1331C15.5004 17.7491 15.5004 22.0056 12.8845 24.6215C12.5183 24.9878 11.9245 24.9876 11.5585 24.6215C11.1923 24.2554 11.1923 23.6617 11.5585 23.2955C13.4432 21.4107 13.4432 18.3439 11.5585 16.4591C11.5585 16.4591 10.742 15.6422 10.7419 15.6419C10.6201 15.5199 10.5319 15.3649 10.4917 15.191L9.41876 10.5417C9.08839 9.10988 7.57272 8.27994 6.18263 8.79008C5.81301 8.92573 5.5676 9.27803 5.56798 9.67172L5.58079 22.938L3.16917 25.3485C2.80299 25.7147 2.80299 26.3083 3.16917 26.6745L8.21995 31.7253C8.39579 31.9011 8.63426 31.9999 8.88299 31.9999H18.1334C18.8075 31.9999 19.4416 31.7371 19.9188 31.2599L24.9852 26.1936C24.5453 26.0336 24.1421 25.7781 23.8016 25.4372C23.189 24.8246 22.8515 24.0095 22.8515 23.1424Z" fill="white"/>
</g>
<defs>
<clipPath id="clip0">
<rect width="32" height="32" fill="white"/>
</clipPath>
</defs>
</svg>
