<svg width="32" height="23" viewBox="0 0 32 23" fill="none" xmlns="http://www.w3.org/2000/svg">
<path fill-rule="evenodd" clip-rule="evenodd" d="M31.3584 1.93269H31.3523H29.2509V1.21366C29.2623 0.929072 29.0782 0.673305 28.8046 0.593809C27.3458 0.211513 25.8436 0.0198231 24.3355 0.0235422C21.8561 0.0235422 18.4779 0.581411 15.9799 3.12282C13.5004 0.556617 10.0974 0.0235422 7.62421 0.0235422C6.11611 0.0198231 4.61389 0.211513 3.15506 0.593809C2.88155 0.673305 2.69745 0.929072 2.70877 1.21366V1.9265H0.619855C0.27754 1.9265 0 2.20404 0 2.54635V22.3445C0 22.6868 0.27754 22.9644 0.619855 22.9644C0.726315 22.9641 0.830915 22.9363 0.923584 22.8838L0.931326 22.8797C1.18567 22.7451 7.32334 19.4973 15.8373 21.6441H15.9303H15.9861C16.0355 21.65 16.0854 21.65 16.1348 21.6441C24.8128 19.4436 31.0113 22.828 31.0485 22.8838C31.2403 22.9945 31.4766 22.9945 31.6684 22.8838C31.859 22.7738 31.977 22.5708 31.9783 22.3507V2.55255C31.9783 2.21023 31.7008 1.93269 31.3584 1.93269ZM1.23971 21.3589V3.1724H2.72116V18.7184C2.71729 19.0607 2.99165 19.3413 3.33397 19.3452C3.36744 19.3456 3.40091 19.3433 3.434 19.3382C4.71632 19.1424 6.01096 19.0388 7.30809 19.0283C9.10489 18.9971 10.8942 19.2674 12.6016 19.8279C8.74576 19.3616 4.83463 19.8886 1.23971 21.3589ZM3.93608 18.0117C5.05453 17.8698 6.18065 17.7973 7.30809 17.7948C11.5603 17.7948 14.0769 18.9291 15.3662 19.7721L15.3476 4.33153C13.1285 1.82732 9.93007 1.29424 7.61182 1.29424C6.37536 1.29727 5.14293 1.43449 3.93608 1.70335V18.0117ZM16.6059 4.33153C18.825 1.85211 22.0234 1.29424 24.3417 1.29424C25.5781 1.29789 26.8105 1.43503 28.0174 1.70335V18.0117C26.9053 17.8685 25.7853 17.7939 24.664 17.7886C20.4366 17.7886 17.9138 18.9229 16.6059 19.7659V4.33153ZM19.3457 19.8279C23.2097 19.3575 27.1298 19.8846 30.7324 21.3589L30.7572 3.1724H29.2757V18.7122C29.2761 18.7456 29.2738 18.7791 29.2688 18.8122C29.2174 19.1506 28.9013 19.3834 28.5629 19.332C27.2723 19.1371 25.9693 19.0356 24.664 19.0283C22.859 18.995 21.0612 19.2654 19.3457 19.8279Z" fill="url(#paint0_linear)"/>
<defs>
<linearGradient id="paint0_linear" x1="0" y1="0.0234375" x2="0" y2="22.9668" gradientUnits="userSpaceOnUse">
<stop stop-color="#A74EF4"/>
<stop offset="1" stop-color="#823DF7"/>
</linearGradient>
</defs>
</svg>
