<svg width="32" height="21" viewBox="0 0 32 21" fill="none" xmlns="http://www.w3.org/2000/svg">
<path fill-rule="evenodd" clip-rule="evenodd" d="M31.0234 8.74332C31.5004 10.6514 31.8184 12.6787 31.8979 14.5073C31.9774 16.5744 31.7786 18.0452 31.3414 19.039C30.9041 20.0725 30.2283 20.629 29.4333 20.8675C28.678 21.0663 27.8035 20.947 26.8892 20.5893C25.3389 19.9533 23.5501 18.6017 21.801 16.9719C20.5687 15.7793 18.2631 15.1831 15.9575 15.1831C13.6519 15.1831 11.3463 15.7793 10.114 16.9719C8.36498 18.6017 6.57616 19.9533 5.02585 20.5893C4.11156 20.9868 3.23703 21.0663 2.48175 20.8675C1.64697 20.629 1.01094 20.0328 0.573676 19.0787C0.136409 18.0452 -0.062349 16.5744 0.0171541 14.547C0.0966572 12.7185 0.41467 10.6911 0.891688 8.78307C1.32896 6.9545 1.96498 5.24518 2.68051 3.93338C5.44774 -0.968569 8.45084 -0.209397 12.0417 0.698354L12.1016 0.713503C12.2046 0.73835 12.3081 0.763514 12.4123 0.788825C13.4748 1.04697 14.6003 1.32042 15.7588 1.42903H16.1563C17.3147 1.32042 18.4402 1.04697 19.5027 0.788826C19.6069 0.763515 19.7105 0.73835 19.8134 0.713503C23.4308 -0.240535 26.4519 -0.995814 29.2345 3.89363C29.9501 5.20543 30.5463 6.91475 31.0234 8.74332ZM29.0358 19.4762C29.4333 19.357 29.7513 19.039 29.9898 18.4824C30.3476 17.6477 30.5066 16.4154 30.4271 14.5868C30.3476 12.8377 30.0296 10.9297 29.5923 9.10108C29.155 7.35201 28.5985 5.8017 27.9227 4.60915C25.7555 0.708094 23.2367 1.33808 20.2502 2.08506L20.1712 2.10481C18.9389 2.42282 17.6668 2.74083 16.2358 2.86009H16.1563H15.719H15.6395C14.2482 2.74083 12.9762 2.42282 11.7439 2.10481C8.72274 1.30978 6.17864 0.673751 3.99231 4.60915C3.31653 5.8017 2.76001 7.39176 2.32274 9.10108C1.84573 10.9297 1.56746 12.8775 1.48796 14.5868C1.40846 16.4154 1.56746 17.6477 1.88548 18.4029C2.12399 18.9595 2.442 19.2775 2.83951 19.3967C3.27678 19.5557 3.8333 19.4365 4.46933 19.198C5.82088 18.6812 7.45069 17.4092 9.08051 15.8986C10.6308 14.4675 13.2942 13.7123 15.9575 13.7123C18.6209 13.7123 21.2842 14.4675 22.7948 15.9781C24.3849 17.4887 26.0147 18.721 27.406 19.2775C28.042 19.516 28.5985 19.5955 29.0358 19.4762Z" fill="url(#paint0_linear)"/>
<path fill-rule="evenodd" clip-rule="evenodd" d="M10.8691 6.07998C11.4256 6.11973 11.9026 6.39799 12.3001 6.75575C12.6977 7.15327 12.9759 7.74954 12.9759 8.38557C12.9759 9.02159 12.7374 9.57811 12.3001 10.0154C11.9424 10.4129 11.4256 10.6514 10.8691 10.6912C10.8293 11.2477 10.5511 11.7247 10.1933 12.1222C9.7958 12.5197 9.19953 12.798 8.5635 12.798C7.92748 12.798 7.37096 12.5595 6.93369 12.1222C6.53617 11.7644 6.29766 11.2477 6.25791 10.6912C5.66164 10.6514 5.18462 10.4129 4.7871 10.0154C4.38959 9.61786 4.11133 9.02159 4.11133 8.38557C4.11133 7.74954 4.34984 7.19302 4.7871 6.75575L4.82686 6.716C5.22437 6.35824 5.70139 6.11973 6.25791 6.07998C6.29766 5.52346 6.57592 5.00668 6.93369 4.64892C7.3312 4.25141 7.92748 3.97314 8.5635 3.97314C9.19953 3.97314 9.75605 4.21165 10.1933 4.64892L10.2331 4.68867C10.5908 5.04644 10.8293 5.56321 10.8691 6.07998ZM10.7101 9.22035C10.9486 9.22035 11.1474 9.14085 11.3064 8.98184C11.4654 8.82283 11.5449 8.62408 11.5449 8.38557C11.5449 8.14706 11.4654 7.9483 11.3064 7.78929C11.1474 7.63029 10.9486 7.55078 10.7101 7.55078H10.1536C9.7163 7.55078 9.39828 7.19302 9.39828 6.7955V6.23898C9.39828 6.04023 9.31878 5.84147 9.19953 5.68246L9.15978 5.64271C9.00077 5.4837 8.80201 5.4042 8.5635 5.4042C8.32499 5.4042 8.12624 5.4837 7.96723 5.64271C7.80822 5.80172 7.72872 6.00047 7.72872 6.23898V6.7955C7.72872 7.23277 7.37096 7.55078 6.97344 7.55078H6.41692C6.21816 7.55078 6.0194 7.63029 5.8604 7.74954L5.82064 7.78929C5.66164 7.9483 5.58214 8.14706 5.58214 8.38557C5.58214 8.62408 5.70139 8.82283 5.82064 8.94209C5.97965 9.10109 6.17841 9.1806 6.41692 9.1806H6.97344C7.41071 9.1806 7.72872 9.53836 7.72872 9.93588V10.4924C7.72872 10.7309 7.80822 10.9297 7.96723 11.0887C8.12624 11.2477 8.32499 11.3272 8.5635 11.3272C8.80201 11.3272 9.00077 11.2477 9.15978 11.0887C9.31878 10.9297 9.39828 10.7309 9.39828 10.4924V9.97563C9.39828 9.53836 9.75605 9.22035 10.1536 9.22035H10.7101Z" fill="url(#paint1_linear)"/>
<path d="M22.8737 6.95448C23.6421 6.95448 24.265 6.33158 24.265 5.56318C24.265 4.79478 23.6421 4.17188 22.8737 4.17188C22.1053 4.17188 21.4824 4.79478 21.4824 5.56318C21.4824 6.33158 22.1053 6.95448 22.8737 6.95448Z" fill="url(#paint2_linear)"/>
<path d="M22.8737 12.5995C23.6421 12.5995 24.265 11.9766 24.265 11.2082C24.265 10.4398 23.6421 9.81689 22.8737 9.81689C22.1053 9.81689 21.4824 10.4398 21.4824 11.2082C21.4824 11.9766 22.1053 12.5995 22.8737 12.5995Z" fill="url(#paint3_linear)"/>
<path d="M20.0515 9.77724C20.8199 9.77724 21.4428 9.15433 21.4428 8.38593C21.4428 7.61754 20.8199 6.99463 20.0515 6.99463C19.2831 6.99463 18.6602 7.61754 18.6602 8.38593C18.6602 9.15433 19.2831 9.77724 20.0515 9.77724Z" fill="url(#paint4_linear)"/>
<path d="M25.696 9.77724C26.4644 9.77724 27.0873 9.15433 27.0873 8.38593C27.0873 7.61754 26.4644 6.99463 25.696 6.99463C24.9276 6.99463 24.3047 7.61754 24.3047 8.38593C24.3047 9.15433 24.9276 9.77724 25.696 9.77724Z" fill="url(#paint5_linear)"/>
<defs>
<linearGradient id="paint0_linear" x1="0" y1="0.0107422" x2="0" y2="20.9723" gradientUnits="userSpaceOnUse">
<stop stop-color="#33F0C8"/>
<stop offset="1" stop-color="#33F0EC"/>
</linearGradient>
<linearGradient id="paint1_linear" x1="4.11133" y1="3.97314" x2="4.11133" y2="12.798" gradientUnits="userSpaceOnUse">
<stop stop-color="#33F0C8"/>
<stop offset="1" stop-color="#33F0EC"/>
</linearGradient>
<linearGradient id="paint2_linear" x1="21.4824" y1="4.17188" x2="21.4824" y2="6.95448" gradientUnits="userSpaceOnUse">
<stop stop-color="#33F0C8"/>
<stop offset="1" stop-color="#33F0EC"/>
</linearGradient>
<linearGradient id="paint3_linear" x1="21.4824" y1="9.81689" x2="21.4824" y2="12.5995" gradientUnits="userSpaceOnUse">
<stop stop-color="#33F0C8"/>
<stop offset="1" stop-color="#33F0EC"/>
</linearGradient>
<linearGradient id="paint4_linear" x1="18.6602" y1="6.99463" x2="18.6602" y2="9.77724" gradientUnits="userSpaceOnUse">
<stop stop-color="#33F0C8"/>
<stop offset="1" stop-color="#33F0EC"/>
</linearGradient>
<linearGradient id="paint5_linear" x1="24.3047" y1="6.99463" x2="24.3047" y2="9.77724" gradientUnits="userSpaceOnUse">
<stop stop-color="#33F0C8"/>
<stop offset="1" stop-color="#33F0EC"/>
</linearGradient>
</defs>
</svg>
