<svg width="21" height="16" viewBox="0 0 21 16" fill="none" xmlns="http://www.w3.org/2000/svg">
    <path fill-rule="evenodd" clip-rule="evenodd" d="M2.56797 0H18.4364C19.8529 0 21.0043 1.15715 21 2.57531V13.429C21 14.8472 19.8485 16 18.432 16H2.56797C1.15146 16 0 14.8472 0 13.429V2.57096C0 1.1528 1.15146 0 2.56797 0ZM18.4364 14.8254C19.2055 14.8254 19.8311 14.199 19.8311 13.429H19.8268V2.57531C19.8268 1.80533 19.2011 1.1789 18.432 1.1789H2.56797C1.79888 1.1789 1.17318 1.80533 1.17318 2.57531V13.429C1.17318 14.199 1.79888 14.8254 2.56797 14.8254H18.4364Z" fill="#9B9B9B"/>
    <path d="M13.3831 7.85652L18.7856 3.06823C19.0369 2.84236 19.0598 2.45839 18.8313 2.20543C18.6027 1.95698 18.2142 1.93439 17.9583 2.16026L10.5081 8.76901L9.05467 7.48611C9.0501 7.48159 9.04553 7.47707 9.04553 7.47256C9.01353 7.44093 8.98154 7.41383 8.94497 7.38673L3.03057 2.15574C2.77461 1.92987 2.38611 1.95246 2.15758 2.20543C1.92905 2.45839 1.9519 2.84236 2.20786 3.06823L7.67434 7.89718L2.23071 12.9339C1.98389 13.1643 1.97018 13.5483 2.20328 13.7967C2.32669 13.9232 2.49123 13.991 2.65578 13.991C2.80661 13.991 2.95744 13.9368 3.07628 13.8283L8.60217 8.71932L10.1013 10.0429C10.2202 10.1468 10.3664 10.1965 10.5127 10.1965C10.659 10.1965 10.8098 10.1423 10.9241 10.0384L12.4644 8.67415L17.9583 13.8329C18.0771 13.9458 18.2325 14 18.3833 14C18.5479 14 18.7079 13.9368 18.8313 13.8103C19.0644 13.5663 19.0552 13.1779 18.8084 12.9475L13.3831 7.85652Z" fill="#9B9B9B"/>
</svg>
