<svg width="32" height="32" viewBox="0 0 32 32" fill="none" xmlns="http://www.w3.org/2000/svg">
<path d="M22.6694 16C22.6694 19.6819 19.6846 22.6667 16.0027 22.6667C12.3208 22.6667 9.33594 19.6819 9.33594 16C9.33594 12.3181 12.3208 9.33325 16.0027 9.33325C19.6846 9.33325 22.6694 12.3181 22.6694 16Z" fill="white"/>
<path d="M30.6667 14.6667H29.2654C28.6387 8.37744 23.6226 3.36133 17.3333 2.73462V1.33325C17.3333 0.597412 16.7373 0 16 0C15.2627 0 14.6667 0.597412 14.6667 1.33325V2.73462C8.37744 3.36133 3.36133 8.37744 2.73462 14.6667H1.33325C0.595947 14.6667 0 15.2639 0 16C0 16.7361 0.595947 17.3333 1.33325 17.3333H2.73462C3.36255 23.6226 8.37744 28.6387 14.6667 29.2654V30.6667C14.6667 31.4026 15.2627 32 16 32C16.7373 32 17.3333 31.4026 17.3333 30.6667V29.2654C23.6226 28.6375 28.6387 23.6226 29.2654 17.3333H30.6667C31.4041 17.3333 32 16.7361 32 16C32 15.2639 31.4041 14.6667 30.6667 14.6667ZM17.3147 26.5774C17.2666 25.8853 16.7053 25.3333 16 25.3333C15.2947 25.3333 14.7334 25.8853 14.6853 26.5774C9.85596 25.98 6.02124 22.1453 5.42407 17.3159C6.11597 17.2666 6.66675 16.7041 6.66675 16C6.66675 15.2959 6.11597 14.7334 5.42261 14.6853C6.02002 9.85596 9.85474 6.02124 14.6841 5.42407C14.7334 6.11475 15.2947 6.66675 16 6.66675C16.7053 6.66675 17.2666 6.11475 17.3147 5.42261C22.144 6.02002 25.9788 9.85474 26.5759 14.6841C25.884 14.7334 25.3333 15.2959 25.3333 16C25.3333 16.7041 25.884 17.2666 26.5774 17.3147C25.9788 22.1453 22.1453 25.9788 17.3147 26.5774Z" fill="white"/>
</svg>
