<svg width="30" height="27" viewBox="0 0 30 27" fill="none" xmlns="http://www.w3.org/2000/svg">
<path fill-rule="evenodd" clip-rule="evenodd" d="M3.4058 26.4714H26.5942C28.472 26.4714 30 24.9434 30 23.0656V3.4058C30 1.52797 28.472 0 26.5942 0H3.4058C1.52797 0 0 1.52797 0 3.4058V23.0656C0 24.9434 1.52797 26.4714 3.4058 26.4714ZM1.01449 3.4058C1.01449 2.0873 2.0873 1.01449 3.4058 1.01449H26.5942C27.9127 1.01449 28.9855 2.0873 28.9855 3.4058V23.0656C28.9855 24.3841 27.9127 25.4569 26.5942 25.4569H3.4058C2.0873 25.4569 1.01449 24.3841 1.01449 23.0656V3.4058Z" fill="url(#paint0_linear)"/>
<path d="M25.4213 18.7271H17.4506C17.1704 18.7271 16.9434 18.5001 16.9434 18.2199C16.9434 17.9399 17.1704 17.7126 17.4506 17.7126H25.4213C25.7013 17.7126 25.9286 17.9399 25.9286 18.2199C25.9286 18.5001 25.7016 18.7271 25.4213 18.7271Z" fill="url(#paint1_linear)"/>
<path d="M25.4213 22.3944H17.4506C17.1704 22.3944 16.9434 22.1674 16.9434 21.8871C16.9434 21.6072 17.1704 21.3799 17.4506 21.3799H25.4213C25.7013 21.3799 25.9286 21.6072 25.9286 21.8871C25.9286 22.1674 25.7016 22.3944 25.4213 22.3944Z" fill="url(#paint2_linear)"/>
<path d="M25.4213 11.3924H17.4506C17.1704 11.3924 16.9434 11.1654 16.9434 10.8852C16.9434 10.6052 17.1704 10.3779 17.4506 10.3779H25.4213C25.7013 10.3779 25.9286 10.6052 25.9286 10.8852C25.9286 11.1654 25.7016 11.3924 25.4213 11.3924Z" fill="url(#paint3_linear)"/>
<path d="M25.4213 15.0597H17.4506C17.1704 15.0597 16.9434 14.8326 16.9434 14.5524C16.9434 14.2725 17.1704 14.0452 17.4506 14.0452H25.4213C25.7013 14.0452 25.9286 14.2725 25.9286 14.5524C25.9286 14.8326 25.7016 15.0597 25.4213 15.0597Z" fill="url(#paint4_linear)"/>
<path d="M29.4928 6.79208H0.507246C0.227015 6.79208 0 6.56507 0 6.28483C0 6.0046 0.227015 5.77759 0.507246 5.77759H29.4928C29.773 5.77759 30 6.0046 30 6.28483C30 6.56507 29.773 6.79208 29.4928 6.79208Z" fill="url(#paint5_linear)"/>
<path fill-rule="evenodd" clip-rule="evenodd" d="M5.73438 3.40574C5.73438 4.27616 6.4426 4.9841 7.31301 4.9841C8.18342 4.9841 8.89136 4.27616 8.89136 3.40574C8.89136 2.53533 8.18342 1.82739 7.31301 1.82739C6.4426 1.82739 5.73438 2.53533 5.73438 3.40574ZM6.74887 3.40574C6.74887 3.09494 7.00192 2.84189 7.31301 2.84189C7.62381 2.84189 7.87687 3.09494 7.87687 3.40574C7.87687 3.71655 7.62381 3.9696 7.31301 3.9696C7.00192 3.9696 6.74887 3.71655 6.74887 3.40574Z" fill="url(#paint6_linear)"/>
<path fill-rule="evenodd" clip-rule="evenodd" d="M2.08008 3.40574C2.08008 4.27616 2.7883 4.9841 3.65843 4.9841C4.52884 4.9841 5.23706 4.27616 5.23706 3.40574C5.23706 2.53533 4.52884 1.82739 3.65843 1.82739C2.7883 1.82739 2.08008 2.53533 2.08008 3.40574ZM3.09457 3.40574C3.09457 3.09494 3.34763 2.84189 3.65843 2.84189C3.96951 2.84189 4.22257 3.09494 4.22257 3.40574C4.22257 3.71655 3.96951 3.9696 3.65843 3.9696C3.34763 3.9696 3.09457 3.71655 3.09457 3.40574Z" fill="url(#paint7_linear)"/>
<path fill-rule="evenodd" clip-rule="evenodd" d="M9.38867 3.40574C9.38867 4.27616 10.0966 4.9841 10.967 4.9841C11.8374 4.9841 12.5457 4.27616 12.5457 3.40574C12.5457 2.53533 11.8374 1.82739 10.967 1.82739C10.0966 1.82739 9.38867 2.53533 9.38867 3.40574ZM10.4032 3.40574C10.4032 3.09494 10.6559 2.84189 10.967 2.84189C11.2781 2.84189 11.5312 3.09494 11.5312 3.40574C11.5312 3.71655 11.2781 3.9696 10.967 3.9696C10.6562 3.9696 10.4032 3.71655 10.4032 3.40574Z" fill="url(#paint8_linear)"/>
<path fill-rule="evenodd" clip-rule="evenodd" d="M4.41936 22.3945H13.6223C13.9025 22.3945 14.1295 22.1674 14.1295 21.8872V10.8852C14.1295 10.6052 13.9025 10.3779 13.6223 10.3779H4.41936C4.13912 10.3779 3.91211 10.6052 3.91211 10.8852V21.8872C3.91211 22.1674 4.13912 22.3945 4.41936 22.3945ZM13.115 21.38H4.9266V11.3924H13.115V21.38Z" fill="url(#paint9_linear)"/>
<defs>
<linearGradient id="paint0_linear" x1="2.73739" y1="0.779601" x2="2.73739" y2="22.4201" gradientUnits="userSpaceOnUse">
<stop stop-color="#FFDF11"/>
<stop offset="1" stop-color="#FFBA0C"/>
</linearGradient>
<linearGradient id="paint1_linear" x1="17.7632" y1="17.7425" x2="17.7632" y2="18.5719" gradientUnits="userSpaceOnUse">
<stop stop-color="#FFDF11"/>
<stop offset="1" stop-color="#FFBA0C"/>
</linearGradient>
<linearGradient id="paint2_linear" x1="17.7632" y1="21.4098" x2="17.7632" y2="22.2391" gradientUnits="userSpaceOnUse">
<stop stop-color="#FFDF11"/>
<stop offset="1" stop-color="#FFBA0C"/>
</linearGradient>
<linearGradient id="paint3_linear" x1="17.7632" y1="10.4078" x2="17.7632" y2="11.2372" gradientUnits="userSpaceOnUse">
<stop stop-color="#FFDF11"/>
<stop offset="1" stop-color="#FFBA0C"/>
</linearGradient>
<linearGradient id="paint4_linear" x1="17.7632" y1="14.075" x2="17.7632" y2="14.9044" gradientUnits="userSpaceOnUse">
<stop stop-color="#FFDF11"/>
<stop offset="1" stop-color="#FFBA0C"/>
</linearGradient>
<linearGradient id="paint5_linear" x1="2.73739" y1="5.80747" x2="2.73739" y2="6.63682" gradientUnits="userSpaceOnUse">
<stop stop-color="#FFDF11"/>
<stop offset="1" stop-color="#FFBA0C"/>
</linearGradient>
<linearGradient id="paint6_linear" x1="6.02244" y1="1.92036" x2="6.02244" y2="4.50099" gradientUnits="userSpaceOnUse">
<stop stop-color="#FFDF11"/>
<stop offset="1" stop-color="#FFBA0C"/>
</linearGradient>
<linearGradient id="paint7_linear" x1="2.36814" y1="1.92036" x2="2.36814" y2="4.50099" gradientUnits="userSpaceOnUse">
<stop stop-color="#FFDF11"/>
<stop offset="1" stop-color="#FFBA0C"/>
</linearGradient>
<linearGradient id="paint8_linear" x1="9.67674" y1="1.92036" x2="9.67674" y2="4.50099" gradientUnits="userSpaceOnUse">
<stop stop-color="#FFDF11"/>
<stop offset="1" stop-color="#FFBA0C"/>
</linearGradient>
<linearGradient id="paint9_linear" x1="4.84441" y1="10.7318" x2="4.84441" y2="20.5554" gradientUnits="userSpaceOnUse">
<stop stop-color="#FFDF11"/>
<stop offset="1" stop-color="#FFBA0C"/>
</linearGradient>
</defs>
</svg>
