<svg width="30" height="30" viewBox="0 0 30 30" fill="none" xmlns="http://www.w3.org/2000/svg">
<path fill-rule="evenodd" clip-rule="evenodd" d="M26.8359 4.45301H27.0703C28.6857 4.45301 30 5.76727 30 7.3827V22.1483C30 23.7638 28.6857 25.078 27.0703 25.078H19.5139V26.4856C21.1029 26.5164 22.3864 27.8177 22.3864 29.4141C22.3864 29.7376 22.124 30 21.8004 30H11.3679C11.0443 30 10.782 29.7376 10.782 29.4141C10.782 27.8177 12.0654 26.5164 13.6545 26.4856V25.078H6.09375C4.47832 25.078 3.16406 23.7638 3.16406 22.1483V15.5934H1.99219C0.893672 15.5934 0 14.6997 0 13.6012V1.99219C0 0.893672 0.893672 0 1.99219 0H16.0547C17.1532 0 18.0469 0.893672 18.0469 1.99219V13.6012C18.0469 14.6997 17.1532 15.5934 16.0547 15.5934H4.33594V19.9218H28.8281V7.3827C28.8281 6.41344 28.0396 5.62488 27.0703 5.62488H26.8359V15.0074C26.8359 15.1122 26.8078 15.2151 26.7546 15.3053L25.4013 17.5976H26.7188C27.0423 17.5976 27.3047 17.86 27.3047 18.1836C27.3047 18.5071 27.0423 18.7695 26.7188 18.7695H11.8164C11.4929 18.7695 11.2305 18.5071 11.2305 18.1836C11.2305 17.86 11.4929 17.5976 11.8164 17.5976H23.3487L21.9954 15.3053C21.9421 15.2151 21.9141 15.1122 21.9141 15.0074V11.1328C21.9141 10.8092 22.1764 10.5469 22.5 10.5469C22.8236 10.5469 23.0859 10.8092 23.0859 11.1328V14.4215H25.6641V4.39453H23.0859V6.95309C23.0859 7.2767 22.8236 7.53902 22.5 7.53902C22.1764 7.53902 21.9141 7.2767 21.9141 6.95309V5.62488H19.7852C19.4616 5.62488 19.1992 5.36256 19.1992 5.03895C19.1992 4.71533 19.4616 4.45301 19.7852 4.45301H21.9141V2.46094C21.9141 1.10396 23.018 0 24.375 0C25.732 0 26.8359 1.10396 26.8359 2.46094V4.45301ZM24.375 17.031L25.2237 15.5934H23.5263L24.375 17.031ZM23.0859 3.22266V2.46094C23.0859 1.75014 23.6642 1.17188 24.375 1.17188C25.0858 1.17188 25.6641 1.75014 25.6641 2.46094V3.22266H23.0859ZM1.99219 1.17188C1.53984 1.17188 1.17188 1.53984 1.17188 1.99219V4.21875H16.875V1.99219C16.875 1.53984 16.507 1.17188 16.0547 1.17188H1.99219ZM1.99219 14.4215C1.53984 14.4215 1.17188 14.0535 1.17188 13.6012V5.39062H16.875V13.6012C16.875 14.0535 16.507 14.4215 16.0547 14.4215H1.99219ZM12.0542 28.8281H21.1141C20.8723 28.1459 20.2205 27.656 19.4565 27.656H13.7119C12.9479 27.656 12.2961 28.1459 12.0542 28.8281ZM14.8263 26.4841V25.078H18.342V26.4841H14.8263ZM27.0703 23.9061C28.0396 23.9061 28.8281 23.1176 28.8281 22.1483V21.0936H4.33594V22.1483C4.33594 23.1176 5.12449 23.9061 6.09375 23.9061H27.0703Z" fill="url(#paint0_linear)"/>
<path d="M15.0074 2.10938H9.55078C9.22723 2.10938 8.96484 2.3717 8.96484 2.69531C8.96484 3.01893 9.22723 3.28125 9.55078 3.28125H15.0074C15.331 3.28125 15.5934 3.01893 15.5934 2.69531C15.5934 2.3717 15.331 2.10938 15.0074 2.10938Z" fill="url(#paint1_linear)"/>
<path d="M5.05494 2.28105C4.94596 2.17207 4.79479 2.10938 4.6401 2.10938C4.48594 2.10938 4.33541 2.17207 4.22637 2.28105C4.1168 2.39004 4.05469 2.54121 4.05469 2.69531C4.05469 2.84941 4.1168 3.00059 4.22637 3.10957C4.33541 3.21855 4.48594 3.28125 4.6401 3.28125C4.79479 3.28125 4.94596 3.21855 5.05494 3.10957C5.16387 3.00059 5.22662 2.84941 5.22662 2.69531C5.22662 2.54121 5.16393 2.39004 5.05494 2.28105Z" fill="url(#paint2_linear)"/>
<path d="M3.05482 2.28105C2.9459 2.17207 2.79473 2.10938 2.64062 2.10938C2.48652 2.10938 2.33535 2.17207 2.22637 2.28105C2.11738 2.39004 2.05469 2.54121 2.05469 2.69531C2.05469 2.84941 2.11732 3.00059 2.22637 3.10957C2.33541 3.21855 2.48652 3.28125 2.64062 3.28125C2.79473 3.28125 2.9459 3.21855 3.05482 3.10957C3.16381 3.00059 3.22656 2.84941 3.22656 2.69531C3.22656 2.54121 3.16387 2.39004 3.05482 2.28105Z" fill="url(#paint3_linear)"/>
<path d="M7.05482 2.28105C6.9459 2.17207 6.79525 2.10938 6.64062 2.10938C6.48652 2.10938 6.33594 2.17207 6.22637 2.28105C6.11738 2.39004 6.05469 2.54121 6.05469 2.69531C6.05469 2.84941 6.11732 3.00059 6.22637 3.10957C6.33594 3.21855 6.48652 3.28125 6.64062 3.28125C6.79531 3.28125 6.9459 3.21855 7.05482 3.10957C7.16381 3.00059 7.22656 2.84941 7.22656 2.69531C7.22656 2.54121 7.16387 2.39004 7.05482 2.28105Z" fill="url(#paint4_linear)"/>
<path d="M4.22713 9.55219L5.82059 7.95874C6.04945 7.72987 6.04945 7.35891 5.82064 7.1301C5.59189 6.90129 5.221 6.90129 4.99195 7.1301L2.98412 9.13788C2.87426 9.24774 2.8125 9.3968 2.8125 9.55219C2.8125 9.70758 2.87426 9.85665 2.98412 9.96651L4.99195 11.9743C5.10639 12.0888 5.25633 12.146 5.40627 12.146C5.55621 12.146 5.70615 12.0888 5.82059 11.9743C6.04939 11.7455 6.04939 11.3745 5.82059 11.1456L4.22713 9.55219Z" fill="url(#paint5_linear)"/>
<path d="M15.0628 9.13788L13.055 7.1301C12.8261 6.90129 12.4552 6.90129 12.2263 7.1301C11.9975 7.35891 11.9975 7.72993 12.2263 7.95874L13.8198 9.55219L12.2263 11.1456C11.9975 11.3745 11.9975 11.7455 12.2263 11.9743C12.3407 12.0888 12.4907 12.146 12.6406 12.146C12.7906 12.146 12.9405 12.0888 13.0549 11.9743L15.0628 9.96651C15.1726 9.85665 15.2344 9.70758 15.2344 9.55219C15.2344 9.3968 15.1726 9.24774 15.0628 9.13788Z" fill="url(#paint6_linear)"/>
<path d="M10.7374 6.63507C10.4583 6.47112 10.0993 6.56434 9.93537 6.84337L7.10042 11.6674C6.93642 11.9464 7.0297 12.3055 7.30872 12.4695C7.40201 12.5243 7.50413 12.5503 7.60503 12.5503C7.80595 12.5503 8.00165 12.4469 8.11076 12.2612L10.9457 7.4371C11.1096 7.15813 11.0164 6.79901 10.7374 6.63507Z" fill="url(#paint7_linear)"/>
<defs>
<linearGradient id="paint0_linear" x1="2.73739" y1="0.883523" x2="2.73739" y2="25.4087" gradientUnits="userSpaceOnUse">
<stop stop-color="#FFDF11"/>
<stop offset="1" stop-color="#FFBA0C"/>
</linearGradient>
<linearGradient id="paint1_linear" x1="9.56967" y1="2.14389" x2="9.56967" y2="3.1019" gradientUnits="userSpaceOnUse">
<stop stop-color="#FFDF11"/>
<stop offset="1" stop-color="#FFBA0C"/>
</linearGradient>
<linearGradient id="paint2_linear" x1="4.16162" y1="2.14389" x2="4.16162" y2="3.1019" gradientUnits="userSpaceOnUse">
<stop stop-color="#FFDF11"/>
<stop offset="1" stop-color="#FFBA0C"/>
</linearGradient>
<linearGradient id="paint3_linear" x1="2.16162" y1="2.14389" x2="2.16162" y2="3.1019" gradientUnits="userSpaceOnUse">
<stop stop-color="#FFDF11"/>
<stop offset="1" stop-color="#FFBA0C"/>
</linearGradient>
<linearGradient id="paint4_linear" x1="6.16162" y1="2.14389" x2="6.16162" y2="3.1019" gradientUnits="userSpaceOnUse">
<stop stop-color="#FFDF11"/>
<stop offset="1" stop-color="#FFBA0C"/>
</linearGradient>
<linearGradient id="paint5_linear" x1="3.10264" y1="7.11127" x2="3.10264" y2="11.3521" gradientUnits="userSpaceOnUse">
<stop stop-color="#FFDF11"/>
<stop offset="1" stop-color="#FFBA0C"/>
</linearGradient>
<linearGradient id="paint6_linear" x1="12.3448" y1="7.11127" x2="12.3448" y2="11.3521" gradientUnits="userSpaceOnUse">
<stop stop-color="#FFDF11"/>
<stop offset="1" stop-color="#FFBA0C"/>
</linearGradient>
<linearGradient id="paint7_linear" x1="7.38516" y1="6.73079" x2="7.38516" y2="11.6327" gradientUnits="userSpaceOnUse">
<stop stop-color="#FFDF11"/>
<stop offset="1" stop-color="#FFBA0C"/>
</linearGradient>
</defs>
</svg>
