<svg width="36" height="31" viewBox="0 0 36 31" fill="none" xmlns="http://www.w3.org/2000/svg">
<g opacity="0.195475">
<path fill-rule="evenodd" clip-rule="evenodd" d="M24.2396 5.06423L20.8175 0.311739C20.6857 0.128581 20.4737 0.0200195 20.2481 0.0200195C20.0224 0.0200195 19.8104 0.128581 19.6786 0.311739L16.2565 5.06423C16.1705 5.18367 16.1243 5.32711 16.1243 5.47427V5.58634V28.3592C16.1243 29.8072 17.3023 30.9853 18.7503 30.9853H21.7457C23.1938 30.9853 24.3718 29.8072 24.3718 28.3592V5.58634V5.47427C24.3718 5.32711 24.3256 5.1836 24.2396 5.06423ZM20.2481 1.92276L22.3808 4.88458H18.1154L20.2481 1.92276ZM20.8597 6.28809H17.5278V24.4646H18.2328V11.0604C18.2328 10.6728 18.547 10.3586 18.9345 10.3586C19.3221 10.3586 19.6363 10.6728 19.6362 11.0604V24.4647H20.8597V6.28809ZM22.9683 28.3592C22.9683 29.0333 22.4199 29.5817 21.7457 29.5817H18.7503C18.0763 29.5817 17.5278 29.0333 17.5278 28.3592V25.8681H22.9683V28.3592ZM22.2633 24.4647H22.9683V6.28809H22.2633V24.4647Z" fill="black"/>
<path d="M19.6224 8.10505C19.6133 8.06084 19.5999 8.01663 19.5824 7.97382C19.5648 7.93172 19.5431 7.89102 19.5178 7.85312C19.4926 7.81452 19.4631 7.77873 19.4308 7.74645C19.3985 7.71417 19.3627 7.6847 19.3241 7.65873C19.2862 7.63347 19.2455 7.61242 19.2027 7.59488C19.1606 7.57733 19.1165 7.5633 19.0715 7.55417C18.981 7.53663 18.8876 7.53663 18.7971 7.55417C18.7529 7.5633 18.7087 7.57733 18.666 7.59488C18.6238 7.61242 18.5831 7.63347 18.5452 7.65873C18.5066 7.6847 18.4708 7.71417 18.4385 7.74645C18.4062 7.77873 18.3768 7.81452 18.3508 7.85312C18.3255 7.89102 18.3038 7.93172 18.2862 7.97382C18.2687 8.01663 18.2554 8.06084 18.2462 8.10505C18.2371 8.15066 18.2329 8.19698 18.2329 8.24259C18.2329 8.42716 18.308 8.60821 18.4386 8.73873C18.5691 8.86926 18.7501 8.94435 18.9347 8.94435C18.9803 8.94435 19.0267 8.93944 19.0715 8.93031C19.1165 8.92119 19.1607 8.90786 19.2027 8.89031C19.2455 8.87277 19.2862 8.85102 19.3241 8.82575C19.3627 8.80049 19.3985 8.77102 19.4308 8.73873C19.4631 8.70645 19.4926 8.67066 19.5178 8.63207C19.5431 8.59417 19.5648 8.55347 19.5824 8.51066C19.5999 8.46856 19.6133 8.42435 19.6224 8.37944C19.6315 8.33452 19.6363 8.28821 19.6363 8.24259C19.6363 8.19698 19.6315 8.15066 19.6224 8.10505Z" fill="black"/>
<path fill-rule="evenodd" clip-rule="evenodd" d="M6.8254 13.0559L6.82561 13.1629C9.87446 13.5115 12.2505 16.1072 12.2505 19.2479V24.872C12.2505 28.2495 9.50274 30.9973 6.12526 30.9973C2.74779 30.9973 0 28.2495 0 24.872V19.2479C0 16.1082 2.37467 13.5131 5.42218 13.1633L5.42197 13.0574C5.42197 11.7344 6.49277 10.6582 7.81242 10.6496L9.94975 10.5591C9.95965 10.5587 9.96954 10.5585 9.97944 10.5585C10.4612 10.5585 10.8532 10.1665 10.8532 9.68465C10.8532 9.20283 10.4612 8.8109 9.97944 8.8109H5.20358C3.94793 8.8109 2.92632 7.78928 2.92632 6.53356C2.92632 5.92128 3.16702 5.34725 3.60407 4.91693C4.03607 4.4916 4.60744 4.26163 5.20856 4.26991L9.38232 4.26977C10.1669 4.2697 10.8053 3.63132 10.8053 2.84662C10.8053 2.06191 10.1669 1.42353 9.38225 1.42353H4.6287C4.24119 1.42353 3.92695 1.10935 3.92695 0.721774C3.92695 0.334195 4.24119 0.0200195 4.6287 0.0200195H9.38225C10.9408 0.0200195 12.2088 1.28802 12.2088 2.84662C12.2088 4.40521 10.9409 5.67328 9.38232 5.67328L5.20358 5.67342L5.17902 5.67321C4.95796 5.67321 4.7487 5.75953 4.58863 5.91721C4.42175 6.08149 4.32982 6.30037 4.32982 6.53349C4.32982 7.01532 4.72182 7.40732 5.20358 7.40732H9.97951C11.2352 7.40732 12.2568 8.42886 12.2568 9.68458C12.2568 10.9349 11.2439 11.9531 9.99572 11.9618L7.85818 12.0523C7.84828 12.0527 7.83839 12.0529 7.82849 12.0529C7.27544 12.0529 6.82547 12.5029 6.8254 13.0559ZM5.42351 14.5781C3.15144 14.9181 1.40351 16.8826 1.40351 19.2479V20.3018H5.42351V14.5781ZM10.847 24.872C10.847 27.4756 8.72884 29.5938 6.12526 29.5938C3.52168 29.5938 1.40351 27.4756 1.40351 24.872V21.7054H10.847V24.872ZM6.82702 20.3018H10.847V19.2479C10.847 16.8826 9.09909 14.9181 6.82702 14.5781V20.3018Z" fill="black"/>
<path d="M2.61468 0.584718C2.60555 0.540508 2.59222 0.496297 2.57468 0.45349C2.55713 0.411385 2.53538 0.370683 2.51011 0.332789C2.48492 0.294192 2.45545 0.258403 2.42317 0.226122C2.29264 0.0955955 2.11159 0.0205078 1.92703 0.0205078C1.74246 0.0205078 1.56141 0.0955955 1.43089 0.226122C1.3986 0.258403 1.36913 0.294192 1.34387 0.332789C1.31797 0.370683 1.29685 0.411385 1.27931 0.45349C1.26106 0.496297 1.2478 0.540508 1.2386 0.584718C1.22948 0.630332 1.22534 0.676648 1.22534 0.722262C1.22534 0.767876 1.22955 0.814192 1.2386 0.859104C1.24773 0.904017 1.26106 0.948227 1.27924 0.990332C1.29678 1.03314 1.3179 1.07384 1.3438 1.11174C1.36906 1.15033 1.39853 1.18612 1.43082 1.2184C1.4631 1.25068 1.49889 1.28016 1.53755 1.30542C1.57545 1.33068 1.61615 1.35244 1.65825 1.36998C1.70106 1.38753 1.74527 1.40086 1.79018 1.40998C1.8351 1.4191 1.88141 1.42402 1.92703 1.42402C2.11159 1.42402 2.29264 1.34893 2.42317 1.2184C2.45545 1.18612 2.48492 1.15033 2.51011 1.11174C2.53538 1.07384 2.55713 1.03314 2.57468 0.990332C2.59222 0.948227 2.60555 0.904017 2.61468 0.859104C2.6238 0.814192 2.62871 0.767876 2.62871 0.722262C2.62871 0.676648 2.6238 0.630332 2.61468 0.584718Z" fill="black"/>
<path fill-rule="evenodd" clip-rule="evenodd" d="M34.3424 3.88852C35.0127 4.54705 35.8469 5.36663 35.9245 7.02256C35.9892 8.40663 35.4585 9.70972 34.5068 10.593C34.9193 11.1583 35.1635 11.8537 35.1634 12.6055C35.1634 13.2704 34.9765 13.8923 34.6494 14.4193V27.68C34.6494 29.3491 33.2914 30.707 31.6224 30.707C29.9533 30.707 28.5953 29.3491 28.5953 27.68V13.9661C28.4164 13.5484 28.318 13.0882 28.318 12.6055C28.318 11.8446 28.5679 11.1411 28.9895 10.5721C28.1364 9.77715 27.6138 8.64698 27.556 7.41442C27.4788 5.76614 28.4597 4.07 29.2961 2.9373C30.2071 1.70368 31.3857 0.573506 32.1622 0.189085C32.7615 -0.107546 33.1398 0.042208 33.3518 0.220033C33.5222 0.36298 33.78 0.698068 33.5928 1.33624C33.1795 2.74584 33.6172 3.17595 34.3424 3.8885L34.3424 3.88852ZM31.6224 29.3034C32.5177 29.3034 33.2459 28.5751 33.2459 27.6799V15.6829C33.0207 15.7919 32.7809 15.8774 32.529 15.9362L32.5043 15.9418L32.4914 15.9447L32.4746 15.9484L32.4745 15.9484C32.4512 15.9536 32.4279 15.9588 32.4043 15.9633C32.3585 15.9724 32.3125 15.9807 32.2662 15.9878C32.2308 15.9933 32.1951 15.996 32.1592 15.996H31.3223C31.2865 15.996 31.2507 15.9933 31.2153 15.9878C30.7731 15.9195 30.3633 15.7699 29.9989 15.5565V27.6799C29.9989 28.5751 30.7272 29.3034 31.6224 29.3034ZM32.6893 14.3868L32.6805 14.3914C32.6603 14.4021 32.6399 14.4124 32.6193 14.4225C32.6146 14.4248 32.6099 14.427 32.6052 14.4293C32.6001 14.4317 32.595 14.4341 32.5898 14.4365C32.5741 14.4439 32.5583 14.451 32.5424 14.458C32.5275 14.4645 32.5124 14.4708 32.4973 14.4769L32.4889 14.4804C32.4822 14.4831 32.4756 14.4858 32.4689 14.4884C32.4661 14.4896 32.4633 14.4907 32.4605 14.4918C32.4417 14.499 32.4228 14.5057 32.4038 14.5124L32.394 14.5158L32.3744 14.5227C32.353 14.5298 32.3314 14.5364 32.3098 14.5428L32.3002 14.5457L32.2852 14.5502C32.2616 14.5569 32.2378 14.5628 32.2139 14.5686L32.2003 14.5721L32.1939 14.5736C32.1632 14.5807 32.1324 14.5871 32.1014 14.5927H31.3805L31.3784 14.5923C31.3445 14.5862 31.311 14.5789 31.2777 14.5711C31.265 14.5681 31.2525 14.5648 31.2399 14.5616L31.2379 14.561C31.218 14.5559 31.1982 14.5505 31.1786 14.5447L31.1715 14.5427C31.1573 14.5385 31.143 14.5344 31.129 14.5299C31.1203 14.5271 31.1117 14.5241 31.1031 14.5212L31.1031 14.5212L31.0919 14.5173C30.2912 14.2433 29.7217 13.4748 29.7217 12.6056C29.7217 11.9548 30.0316 11.3753 30.5111 11.0057C30.5295 10.9915 30.5483 10.9776 30.5671 10.9641C30.5994 10.9409 30.6324 10.9187 30.6661 10.8974C30.6808 10.8881 30.6956 10.8788 30.7106 10.8699C30.7571 10.8422 30.8047 10.8162 30.8536 10.7922L30.8679 10.785C30.8962 10.7714 30.9249 10.7584 30.9539 10.7461L30.962 10.7428L30.9683 10.7403C31.0186 10.7193 31.0701 10.7005 31.1224 10.6836C31.1386 10.6784 31.1548 10.6735 31.1712 10.6687C31.2066 10.6583 31.2425 10.6489 31.2788 10.6403C31.3064 10.6339 31.3342 10.6278 31.3622 10.6225C31.3812 10.6188 31.4003 10.6153 31.4194 10.6122C31.4633 10.6053 31.5076 10.5995 31.5523 10.5955C31.5609 10.5947 31.5696 10.594 31.5783 10.5934L31.5887 10.5927C31.6392 10.5889 31.6899 10.5863 31.741 10.5863C31.793 10.5863 31.8443 10.5891 31.8953 10.5929L31.9074 10.5937C31.9155 10.5943 31.9236 10.5949 31.9316 10.5956C31.9763 10.5998 32.0207 10.6056 32.0647 10.6127C32.0845 10.6159 32.1043 10.6195 32.124 10.6233C32.1522 10.6286 32.1802 10.6349 32.208 10.6415C32.2447 10.6502 32.281 10.6598 32.3167 10.6705C32.3316 10.6749 32.3465 10.6795 32.3613 10.6843C32.4116 10.7006 32.4611 10.7188 32.5096 10.7388L32.5179 10.7422L32.5311 10.7475C32.6161 10.7838 32.6981 10.8259 32.7767 10.8731C32.7941 10.8835 32.8112 10.8945 32.8283 10.9055C32.86 10.9259 32.8911 10.947 32.9216 10.969C32.9428 10.9845 32.9639 11.0003 32.9847 11.0167C33.4563 11.3866 33.7601 11.9611 33.7601 12.6056C33.7601 13.3621 33.329 14.0425 32.6893 14.3868ZM33.4356 9.63282C33.444 9.6372 33.4524 9.64158 33.4606 9.64635C34.1702 9.0427 34.5699 8.0994 34.5225 7.08817C34.4707 5.98202 33.9555 5.47584 33.3589 4.88969L33.3588 4.88965C32.7095 4.25168 31.929 3.48473 32.0454 1.98558C31.6344 2.34424 31.1151 2.87203 30.576 3.57112C29.5007 4.96586 28.9109 6.34277 28.9581 7.3488C29.0007 8.25863 29.399 9.08389 30.0443 9.63301C30.0508 9.62933 30.0574 9.62596 30.064 9.62258C30.0698 9.61964 30.0755 9.61671 30.0812 9.61358C30.1227 9.59042 30.1649 9.56831 30.2075 9.54691C30.2135 9.54391 30.2194 9.54081 30.2253 9.5377C30.2328 9.53382 30.2402 9.52994 30.2477 9.52628C30.31 9.49596 30.3734 9.46782 30.4377 9.44123L30.4532 9.43512C30.5148 9.41 30.5774 9.38684 30.6407 9.3653L30.6576 9.35954C30.8574 9.29266 31.0653 9.24375 31.2795 9.21477C31.2901 9.21328 31.3006 9.21198 31.3112 9.21067C31.3136 9.21038 31.316 9.21008 31.3184 9.20979C31.3737 9.20291 31.4294 9.19744 31.4854 9.1933C31.4918 9.19283 31.4981 9.19232 31.5044 9.19181C31.5144 9.19099 31.5244 9.19018 31.5344 9.18958C31.6028 9.18551 31.6715 9.18277 31.7408 9.18277C31.8108 9.18277 31.8803 9.18558 31.9493 9.18972C31.96 9.19038 31.9707 9.19125 31.9815 9.19212C31.9876 9.19262 31.9938 9.19312 32 9.19358C32.0566 9.19779 32.1128 9.2034 32.1687 9.21042C32.1732 9.21099 32.1776 9.21155 32.1821 9.2121C32.1909 9.21318 32.1996 9.21427 32.2083 9.21547C32.353 9.23533 32.4946 9.26403 32.633 9.30144L32.6339 9.30172C32.7021 9.32017 32.7695 9.34101 32.836 9.36354L32.8581 9.37105C32.991 9.41709 33.1203 9.4707 33.2453 9.5321C33.2584 9.53851 33.2713 9.54523 33.2843 9.55195C33.2904 9.55517 33.2966 9.55839 33.3028 9.56158C33.3403 9.58088 33.3775 9.60073 33.4141 9.62137C33.4212 9.62534 33.4284 9.62908 33.4356 9.63282Z" fill="black"/>
</g>
</svg>
