<?xml version="1.0" encoding="utf-8"?>
<!-- Generator: Adobe Illustrator 23.1.0, SVG Export Plug-In . SVG Version: 6.00 Build 0)  -->
<svg version="1.1" id="Слой_1" xmlns="http://www.w3.org/2000/svg" xmlns:xlink="http://www.w3.org/1999/xlink" x="0px" y="0px"
	 viewBox="0 0 36 31" style="enable-background:new 0 0 36 31;" xml:space="preserve">
<style type="text/css">
	.st0{fill-rule:evenodd;clip-rule:evenodd;fill:url(#SVGID_1_);}
	.st1{fill-rule:evenodd;clip-rule:evenodd;fill:url(#SVGID_2_);}
	.st2{fill-rule:evenodd;clip-rule:evenodd;fill:url(#SVGID_3_);}
	.st3{fill-rule:evenodd;clip-rule:evenodd;fill:url(#SVGID_4_);}
	.st4{fill-rule:evenodd;clip-rule:evenodd;fill:url(#SVGID_5_);}
</style>
<g>
	<linearGradient id="SVGID_1_" gradientUnits="userSpaceOnUse" x1="20.2481" y1="30.9853" x2="20.2481" y2="2.001953e-02">
		<stop  offset="0" style="stop-color:#FFBA0C"/>
		<stop  offset="0.9949" style="stop-color:#FFDF11"/>
	</linearGradient>
	<path class="st0" d="M20.8,0.3C20.7,0.1,20.5,0,20.2,0c-0.2,0-0.4,0.1-0.6,0.3l-3.4,4.8c-0.1,0.1-0.1,0.3-0.1,0.4v0.1v22.8
		c0,1.4,1.2,2.6,2.6,2.6h3c1.4,0,2.6-1.2,2.6-2.6V5.6V5.5c0-0.1,0-0.3-0.1-0.4L20.8,0.3z M20.2,1.9l2.1,3h-4.3L20.2,1.9z M17.5,6.3
		h3.3v18.2h-1.2V11.1c0-0.4-0.3-0.7-0.7-0.7c-0.4,0-0.7,0.3-0.7,0.7v13.4h-0.7V6.3z M23,28.4c0,0.7-0.5,1.2-1.2,1.2h-3
		c-0.7,0-1.2-0.5-1.2-1.2v-2.5H23V28.4z M23,24.5h-0.7V6.3H23V24.5z"/>
	<linearGradient id="SVGID_2_" gradientUnits="userSpaceOnUse" x1="18.9346" y1="8.9443" x2="18.9346" y2="7.541">
		<stop  offset="0" style="stop-color:#FFBA0C"/>
		<stop  offset="0.9949" style="stop-color:#FFDF11"/>
	</linearGradient>
	<path class="st1" d="M18.9,8.9c0,0,0.1,0,0.1,0c0,0,0.1,0,0.1,0c0,0,0.1,0,0.1-0.1c0,0,0.1-0.1,0.1-0.1s0.1-0.1,0.1-0.1
		c0,0,0-0.1,0.1-0.1c0,0,0-0.1,0-0.1c0,0,0-0.1,0-0.1c0,0,0-0.1,0-0.1c0,0,0-0.1,0-0.1c0,0,0-0.1-0.1-0.1c0,0-0.1-0.1-0.1-0.1
		s-0.1-0.1-0.1-0.1c0,0-0.1,0-0.1-0.1c0,0-0.1,0-0.1,0c-0.1,0-0.2,0-0.3,0c0,0-0.1,0-0.1,0c0,0-0.1,0-0.1,0.1c0,0-0.1,0.1-0.1,0.1
		c0,0-0.1,0.1-0.1,0.1c0,0,0,0.1-0.1,0.1c0,0,0,0.1,0,0.1c0,0,0,0.1,0,0.1c0,0.2,0.1,0.4,0.2,0.5C18.6,8.9,18.8,8.9,18.9,8.9z"/>
	<linearGradient id="SVGID_3_" gradientUnits="userSpaceOnUse" x1="6.1284" y1="30.9973" x2="6.1284" y2="2.001953e-02">
		<stop  offset="0" style="stop-color:#FFBA0C"/>
		<stop  offset="0.9949" style="stop-color:#FFDF11"/>
	</linearGradient>
	<path class="st2" d="M7.8,12.1C7.8,12.1,7.8,12.1,7.8,12.1L10,12c1.2,0,2.3-1,2.3-2.3c0-1.3-1-2.3-2.3-2.3H5.2
		C4.7,7.4,4.3,7,4.3,6.5c0-0.2,0.1-0.5,0.3-0.6C4.7,5.8,5,5.7,5.2,5.7l0,0l4.2,0c1.6,0,2.8-1.3,2.8-2.8S10.9,0,9.4,0H4.6
		C4.2,0,3.9,0.3,3.9,0.7c0,0.4,0.3,0.7,0.7,0.7h4.8c0.8,0,1.4,0.6,1.4,1.4s-0.6,1.4-1.4,1.4l-4.2,0C4.6,4.3,4,4.5,3.6,4.9
		c-0.4,0.4-0.7,1-0.7,1.6c0,1.3,1,2.3,2.3,2.3H10c0.5,0,0.9,0.4,0.9,0.9c0,0.5-0.4,0.9-0.9,0.9c0,0,0,0,0,0l-2.1,0.1
		c-1.3,0-2.4,1.1-2.4,2.4l0,0.1c-3,0.3-5.4,2.9-5.4,6.1v5.6C0,28.2,2.7,31,6.1,31c3.4,0,6.1-2.7,6.1-6.1v-5.6c0-3.1-2.4-5.7-5.4-6.1
		l0-0.1C6.8,12.5,7.3,12.1,7.8,12.1z M1.4,19.2c0-2.4,1.7-4.3,4-4.7v5.7h-4V19.2z M6.8,14.6c2.3,0.3,4,2.3,4,4.7v1.1h-4V14.6z
		 M10.8,21.7v3.2c0,2.6-2.1,4.7-4.7,4.7s-4.7-2.1-4.7-4.7v-3.2H10.8z"/>
	<linearGradient id="SVGID_4_" gradientUnits="userSpaceOnUse" x1="1.927" y1="1.424" x2="1.927" y2="2.050781e-02">
		<stop  offset="0" style="stop-color:#FFBA0C"/>
		<stop  offset="0.9949" style="stop-color:#FFDF11"/>
	</linearGradient>
	<path class="st3" d="M1.3,1c0,0,0,0.1,0.1,0.1c0,0,0.1,0.1,0.1,0.1c0,0,0.1,0.1,0.1,0.1c0,0,0.1,0,0.1,0.1c0,0,0.1,0,0.1,0
		c0,0,0.1,0,0.1,0c0.2,0,0.4-0.1,0.5-0.2c0,0,0.1-0.1,0.1-0.1c0,0,0-0.1,0.1-0.1c0,0,0-0.1,0-0.1c0,0,0-0.1,0-0.1c0,0,0-0.1,0-0.1
		c0,0,0-0.1,0-0.1c0,0,0-0.1-0.1-0.1c0,0-0.1-0.1-0.1-0.1C2.3,0.1,2.1,0,1.9,0S1.6,0.1,1.4,0.2c0,0-0.1,0.1-0.1,0.1
		c0,0,0,0.1-0.1,0.1c0,0,0,0.1,0,0.1c0,0,0,0.1,0,0.1c0,0,0,0.1,0,0.1C1.2,0.9,1.3,0.9,1.3,1z"/>
	<linearGradient id="SVGID_5_" gradientUnits="userSpaceOnUse" x1="31.7408" y1="30.707" x2="31.7408" y2="2.051758e-02">
		<stop  offset="0" style="stop-color:#FFBA0C"/>
		<stop  offset="0.9949" style="stop-color:#FFDF11"/>
	</linearGradient>
	<path class="st4" d="M35.9,7c-0.1-1.7-0.9-2.5-1.6-3.1v0c-0.7-0.7-1.2-1.1-0.7-2.6c0.2-0.6-0.1-1-0.2-1.1c-0.2-0.2-0.6-0.3-1.2,0
		c-0.8,0.4-2,1.5-2.9,2.7c-0.8,1.1-1.8,2.8-1.7,4.5c0.1,1.2,0.6,2.4,1.4,3.2c-0.4,0.6-0.7,1.3-0.7,2c0,0.5,0.1,0.9,0.3,1.4v13.7
		c0,1.7,1.4,3,3,3c1.7,0,3-1.4,3-3V14.4c0.3-0.5,0.5-1.1,0.5-1.8c0-0.8-0.2-1.4-0.7-2C35.5,9.7,36,8.4,35.9,7z M33.2,27.7
		c0,0.9-0.7,1.6-1.6,1.6c-0.9,0-1.6-0.7-1.6-1.6V15.6c0.4,0.2,0.8,0.4,1.2,0.4c0,0,0.1,0,0.1,0h0.8c0,0,0.1,0,0.1,0c0,0,0.1,0,0.1,0
		c0,0,0,0,0.1,0h0l0,0l0,0l0,0c0.3-0.1,0.5-0.1,0.7-0.3V27.7z M32.7,14.4L32.7,14.4C32.7,14.4,32.6,14.4,32.7,14.4
		C32.6,14.4,32.6,14.4,32.7,14.4C32.6,14.4,32.6,14.4,32.7,14.4c-0.1,0.1-0.1,0.1-0.1,0.1c0,0,0,0,0,0l0,0c0,0,0,0,0,0c0,0,0,0,0,0
		c0,0,0,0-0.1,0l0,0l0,0c0,0,0,0-0.1,0l0,0l0,0c0,0,0,0-0.1,0l0,0l0,0c0,0-0.1,0-0.1,0h-0.7l0,0c0,0-0.1,0-0.1,0c0,0,0,0,0,0l0,0
		c0,0,0,0-0.1,0l0,0c0,0,0,0,0,0c0,0,0,0,0,0l0,0c-0.8-0.3-1.4-1-1.4-1.9c0-0.7,0.3-1.2,0.8-1.6c0,0,0,0,0.1,0c0,0,0.1,0,0.1-0.1
		c0,0,0,0,0,0c0,0,0.1-0.1,0.1-0.1l0,0c0,0,0.1,0,0.1,0l0,0l0,0c0.1,0,0.1,0,0.2-0.1c0,0,0,0,0,0c0,0,0.1,0,0.1,0c0,0,0.1,0,0.1,0
		c0,0,0,0,0.1,0c0,0,0.1,0,0.1,0c0,0,0,0,0,0l0,0c0.1,0,0.1,0,0.2,0c0.1,0,0.1,0,0.2,0l0,0c0,0,0,0,0,0c0,0,0.1,0,0.1,0
		c0,0,0,0,0.1,0c0,0,0.1,0,0.1,0c0,0,0.1,0,0.1,0c0,0,0,0,0,0c0.1,0,0.1,0,0.1,0.1l0,0l0,0c0.1,0,0.2,0.1,0.2,0.1c0,0,0,0,0.1,0
		c0,0,0.1,0,0.1,0.1c0,0,0,0,0.1,0c0.5,0.4,0.8,0.9,0.8,1.6C33.8,13.4,33.3,14,32.7,14.4z M33.5,9.6C33.5,9.6,33.4,9.6,33.5,9.6
		C33.4,9.6,33.4,9.6,33.5,9.6c-0.1,0-0.1-0.1-0.2-0.1c0,0,0,0,0,0c0,0,0,0,0,0c-0.1-0.1-0.3-0.1-0.4-0.2l0,0c-0.1,0-0.1,0-0.2-0.1
		l0,0c-0.1,0-0.3-0.1-0.4-0.1c0,0,0,0,0,0c0,0,0,0,0,0c-0.1,0-0.1,0-0.2,0c0,0,0,0,0,0c0,0,0,0,0,0c-0.1,0-0.1,0-0.2,0
		c-0.1,0-0.1,0-0.2,0c0,0,0,0,0,0c0,0,0,0,0,0c-0.1,0-0.1,0-0.2,0c0,0,0,0,0,0c0,0,0,0,0,0c-0.2,0-0.4,0.1-0.6,0.1l0,0
		c-0.1,0-0.1,0-0.2,0.1l0,0c-0.1,0-0.1,0.1-0.2,0.1c0,0,0,0,0,0c0,0,0,0,0,0c0,0-0.1,0-0.1,0.1c0,0,0,0,0,0c0,0,0,0,0,0
		c-0.6-0.5-1-1.4-1.1-2.3c0-1,0.5-2.4,1.6-3.8C31.1,2.9,31.6,2.3,32,2c-0.1,1.5,0.7,2.3,1.3,2.9l0,0C34,5.5,34.5,6,34.5,7.1
		C34.6,8.1,34.2,9,33.5,9.6z"/>
</g>
</svg>
