<svg width="74" height="69" viewBox="0 0 74 69" fill="none" xmlns="http://www.w3.org/2000/svg">
<g opacity="0.4" filter="url(#filter0_d)">
<path fill-rule="evenodd" clip-rule="evenodd" d="M34.8818 38.3797C35.0482 38.5401 35.3253 38.5401 35.4976 38.3797C35.664 38.2247 35.664 37.9667 35.4976 37.8121L32.3753 34.9047L42.6783 34.9047C42.9185 34.9043 43.1094 34.7265 43.1094 34.5029C43.1094 34.2792 42.9185 34.0957 42.6783 34.0957L32.3753 34.0957L35.4976 31.1937C35.664 31.0333 35.664 30.775 35.4976 30.6203C35.3253 30.4599 35.0479 30.4599 34.8818 30.6203L31.0204 34.216C30.8481 34.371 30.8481 34.629 31.0204 34.7836L34.8818 38.3797Z" fill="#1F1F1F"/>
</g>
<defs>
<filter id="filter0_d" x="0.890625" y="0.5" width="72.2182" height="68" filterUnits="userSpaceOnUse" color-interpolation-filters="sRGB">
<feFlood flood-opacity="0" result="BackgroundImageFix"/>
<feColorMatrix in="SourceAlpha" type="matrix" values="0 0 0 0 0 0 0 0 0 0 0 0 0 0 0 0 0 0 127 0"/>
<feOffset/>
<feGaussianBlur stdDeviation="15"/>
<feColorMatrix type="matrix" values="0 0 0 0 0.142207 0 0 0 0 0.850833 0 0 0 0 1 0 0 0 0.414909 0"/>
<feBlend mode="normal" in2="BackgroundImageFix" result="effect1_dropShadow"/>
<feBlend mode="normal" in="SourceGraphic" in2="effect1_dropShadow" result="shape"/>
</filter>
</defs>
</svg>
