<svg width="22" height="24" viewBox="0 0 22 24" fill="none" xmlns="http://www.w3.org/2000/svg">
<path fill-rule="evenodd" clip-rule="evenodd" d="M19.0024 8.20336V9.12605C20.6781 9.23697 22.0049 10.674 22 12.4185V13.8605C22 15.6151 20.6634 17.0521 18.9779 17.158C18.8108 19.7899 17.5479 21.0958 16.4816 21.7361C15.7248 22.1899 14.9631 22.3664 14.4816 22.437C14.2408 23.3345 13.4398 24 12.4865 24H11.0074C9.86731 24 8.93856 23.042 8.93856 21.8723C8.93856 20.7025 9.86731 19.7496 11.0074 19.7496H12.4816C13.4005 19.7496 14.1818 20.3647 14.4521 21.2168C15.4349 21.0504 17.5528 20.3193 17.7936 17.163H16.968C16.6437 17.163 16.3784 16.8908 16.3784 16.558V9.72101C16.3784 9.38824 16.6437 9.11597 16.968 9.11597H17.8132V8.20336C17.8132 4.21513 15.0467 1.21008 11.371 1.21008H10.629C6.95822 1.21008 4.18673 4.21513 4.18673 8.20336V9.11597H5.03193C5.35626 9.11597 5.62161 9.38824 5.62161 9.72101V16.563C5.62161 16.8958 5.35626 17.1681 5.03193 17.1681H3.21867C1.44472 17.1681 0 15.6857 0 13.8655V12.4235C0 10.674 1.33169 9.24202 3.00737 9.12605V8.20336C3.00737 5.99496 3.76904 3.94286 5.14987 2.42017C6.5651 0.857143 8.51105 0 10.6339 0H11.3759C13.4988 0 15.4447 0.857143 16.8599 2.42017C18.2408 3.94286 19.0024 5.99496 19.0024 8.20336ZM3.2285 15.9529H4.45208V10.3261H3.2285C2.10319 10.3261 1.18919 11.2639 1.18919 12.4185V13.8605C1.18919 15.0151 2.10319 15.9529 3.2285 15.9529ZM12.4865 22.7899H11.0074C10.516 22.7899 10.1179 22.3815 10.1179 21.8773C10.1179 21.3731 10.516 20.9647 11.0074 20.9647H12.4865C12.9779 20.9647 13.3759 21.3731 13.3759 21.8773C13.3759 22.3815 12.9779 22.7899 12.4865 22.7899ZM18.7862 15.9529C19.9115 15.9529 20.8255 15.0151 20.8255 13.8605V12.4185C20.8255 11.2639 19.9115 10.3261 18.7862 10.3261H17.5626V15.9529H18.7862Z" fill="white"/>
</svg>
