<svg width="60" height="60" viewBox="0 0 60 60" fill="none" xmlns="http://www.w3.org/2000/svg">
<g filter="url(#filter0_d)">
<circle cx="31" cy="28" r="20" fill="white"/>
</g>
<g clip-path="url(#clip0)">
<path d="M33.2812 28.0718L38.0011 31.0555V24.962L33.2812 28.0718Z" fill="#188ACA"/>
<path d="M24 24.962V31.0555L28.7197 28.0718L24 24.962Z" fill="#188ACA"/>
<path d="M37.1261 23.1875H24.8761C24.4395 23.1875 24.093 23.513 24.0273 23.9321L31.0011 28.5268L37.9748 23.9321C37.9092 23.513 37.5627 23.1875 37.1261 23.1875Z" fill="#188ACA"/>
<path d="M32.4781 28.6002L31.24 29.4157C31.1665 29.4639 31.0833 29.4875 30.9993 29.4875C30.9153 29.4875 30.8322 29.4639 30.7587 29.4157L29.5206 28.5994L24.0273 32.074C24.0947 32.4896 24.4395 32.8125 24.8743 32.8125H37.1243C37.5592 32.8125 37.904 32.4896 37.9713 32.074L32.4781 28.6002Z" fill="#188ACA"/>
</g>
<defs>
<filter id="filter0_d" x="0" y="0" width="60" height="60" filterUnits="userSpaceOnUse" color-interpolation-filters="sRGB">
<feFlood flood-opacity="0" result="BackgroundImageFix"/>
<feColorMatrix in="SourceAlpha" type="matrix" values="0 0 0 0 0 0 0 0 0 0 0 0 0 0 0 0 0 0 127 0"/>
<feOffset dx="-1" dy="2"/>
<feGaussianBlur stdDeviation="5"/>
<feColorMatrix type="matrix" values="0 0 0 0 0 0 0 0 0 0 0 0 0 0 0 0 0 0 0.1 0"/>
<feBlend mode="normal" in2="BackgroundImageFix" result="effect1_dropShadow"/>
<feBlend mode="normal" in="SourceGraphic" in2="effect1_dropShadow" result="shape"/>
</filter>
<clipPath id="clip0">
<rect width="14" height="14" fill="white" transform="translate(24 21)"/>
</clipPath>
</defs>
</svg>
