<svg width="60" height="60" viewBox="0 0 60 60" fill="none" xmlns="http://www.w3.org/2000/svg">
<g filter="url(#filter0_d)">
<circle cx="31" cy="28" r="20" fill="white"/>
</g>
<path d="M35.0833 21H26.9167C25.3061 21 24 22.3061 24 23.9167V32.0833C24 33.6939 25.3061 35 26.9167 35H35.0833C36.6945 35 38 33.6939 38 32.0833V23.9167C38 22.3061 36.6945 21 35.0833 21ZM28.6667 32.0833H26.9167V25.6667H28.6667V32.0833ZM27.7917 24.927C27.2282 24.927 26.7708 24.4662 26.7708 23.898C26.7708 23.3298 27.2282 22.869 27.7917 22.869C28.3552 22.869 28.8125 23.3298 28.8125 23.898C28.8125 24.4662 28.3557 24.927 27.7917 24.927ZM35.6667 32.0833H33.9167V28.8143C33.9167 26.8497 31.5833 26.9984 31.5833 28.8143V32.0833H29.8333V25.6667H31.5833V26.6963C32.3977 25.1878 35.6667 25.0763 35.6667 28.1406V32.0833Z" fill="#188ACA"/>
<defs>
<filter id="filter0_d" x="0" y="0" width="60" height="60" filterUnits="userSpaceOnUse" color-interpolation-filters="sRGB">
<feFlood flood-opacity="0" result="BackgroundImageFix"/>
<feColorMatrix in="SourceAlpha" type="matrix" values="0 0 0 0 0 0 0 0 0 0 0 0 0 0 0 0 0 0 127 0"/>
<feOffset dx="-1" dy="2"/>
<feGaussianBlur stdDeviation="5"/>
<feColorMatrix type="matrix" values="0 0 0 0 0 0 0 0 0 0 0 0 0 0 0 0 0 0 0.1 0"/>
<feBlend mode="normal" in2="BackgroundImageFix" result="effect1_dropShadow"/>
<feBlend mode="normal" in="SourceGraphic" in2="effect1_dropShadow" result="shape"/>
</filter>
</defs>
</svg>
