<svg width="22" height="22" viewBox="0 0 22 22" fill="none" xmlns="http://www.w3.org/2000/svg">
<path d="M18.0856 2.95135C16.1949 1.28652 13.7168 0.274414 10.9995 0.274414C10.1278 0.274414 9.28195 0.380782 8.4707 0.576597C8.63182 0.789333 10.6466 3.46707 12.4818 6.83862C16.5308 5.31885 18.0599 2.99325 18.0856 2.95135Z" fill="black"/>
<path d="M10.4058 7.48287C8.54883 4.18133 6.56381 1.49142 6.42203 1.29883C3.43 2.71308 1.19766 5.46987 0.5 8.79398C0.782769 8.79881 5.25389 8.852 10.4058 7.48287Z" fill="black"/>
<path d="M12.8268 12.7628C6.4915 14.9708 4.42673 19.4248 4.4082 19.4635C6.22726 20.885 8.51277 21.74 10.9997 21.74C12.4868 21.74 13.9015 21.4354 15.1888 20.8874C15.0301 19.9494 14.405 16.6631 12.8961 12.7402C12.8727 12.7467 12.8494 12.7539 12.8268 12.7628Z" fill="black"/>
<path d="M11.7433 11.0901C11.8835 11.0442 12.0253 11.0015 12.1647 10.962C11.8972 10.3504 11.6032 9.73951 11.2946 9.13672C5.77137 10.7912 0.468858 10.6695 0.280346 10.6663C0.276318 10.7791 0.271484 10.8903 0.271484 11.0047C0.271484 13.7624 1.31152 16.2759 3.01941 18.1777L3.01538 18.1713C3.01619 18.1745 5.95263 12.9622 11.7433 11.0901Z" fill="black"/>
<path d="M14.9062 12.2426C16.3145 16.1107 16.8856 19.2607 16.9944 19.9094C19.4048 18.2808 21.1151 15.7013 21.5936 12.7108C21.3713 12.6375 18.3696 11.6898 14.9062 12.2426Z" fill="black"/>
<path d="M13.3047 8.43643C13.556 8.94814 13.7945 9.46791 14.0193 9.99333C14.0998 10.1787 14.1739 10.364 14.2505 10.5477C17.9369 10.0852 21.5686 10.8669 21.7217 10.8999C21.6991 8.35262 20.7872 6.01728 19.2839 4.19043C19.2654 4.21863 17.5438 6.70709 13.3047 8.43643Z" fill="black"/>
</svg>
