<svg width="55" height="55" viewBox="0 0 55 55" fill="none" xmlns="http://www.w3.org/2000/svg">
<path fill-rule="evenodd" clip-rule="evenodd" d="M22 6.5C22 3.4624 24.4624 1 27.5 1C30.5376 1 33 3.4624 33 6.5C32.997 9.53634 30.5363 11.997 27.5 12C24.4624 12 22 9.5376 22 6.5ZM23.8333 6.5C23.8333 8.52503 25.475 10.1667 27.5 10.1667C29.525 10.1667 31.1667 8.52503 31.1667 6.5C31.1667 4.47497 29.525 2.83333 27.5 2.83333C25.475 2.83333 23.8333 4.47497 23.8333 6.5Z" fill="#24D9FF"/>
<path d="M33 6.5L33.35 6.50034V6.5H33ZM27.5 12V12.35L27.5003 12.35L27.5 12ZM27.5 0.65C24.2691 0.65 21.65 3.2691 21.65 6.5H22.35C22.35 3.6557 24.6557 1.35 27.5 1.35V0.65ZM33.35 6.5C33.35 3.2691 30.7309 0.65 27.5 0.65V1.35C30.3443 1.35 32.65 3.6557 32.65 6.5H33.35ZM27.5003 12.35C30.7297 12.3468 33.3468 9.72972 33.35 6.50034L32.65 6.49966C32.6472 9.34297 30.343 11.6472 27.4997 11.65L27.5003 12.35ZM21.65 6.5C21.65 9.7309 24.2691 12.35 27.5 12.35V11.65C24.6557 11.65 22.35 9.34431 22.35 6.5H21.65ZM27.5 9.81667C25.6683 9.81667 24.1833 8.33173 24.1833 6.5H23.4833C23.4833 8.71833 25.2817 10.5167 27.5 10.5167V9.81667ZM30.8167 6.5C30.8167 8.33173 29.3317 9.81667 27.5 9.81667V10.5167C29.7183 10.5167 31.5167 8.71833 31.5167 6.5H30.8167ZM27.5 3.18333C29.3317 3.18333 30.8167 4.66827 30.8167 6.5H31.5167C31.5167 4.28167 29.7183 2.48333 27.5 2.48333V3.18333ZM24.1833 6.5C24.1833 4.66827 25.6683 3.18333 27.5 3.18333V2.48333C25.2817 2.48333 23.4833 4.28167 23.4833 6.5H24.1833Z" fill="#24D9FF"/>
<path fill-rule="evenodd" clip-rule="evenodd" d="M31.3458 13H31.5556C34.0089 13.0028 35.9971 14.92 36 17.2857V22.4286C36 23.8488 34.8061 25 33.3333 25H22.6667C21.1939 25 20 23.8488 20 22.4286V17.2857C20.0029 14.92 21.9911 13.0028 24.4444 13H24.6542L24.8418 13.09C26.8308 14.045 29.1692 14.045 31.1582 13.09L31.3458 13ZM33.3333 23.2857C33.8242 23.2857 34.2222 22.9019 34.2222 22.4286V17.2857C34.222 15.9366 33.1404 14.8169 31.7449 14.7211C29.37 15.784 26.6301 15.784 24.2551 14.7211C22.8594 14.8169 21.778 15.9366 21.7778 17.2857V22.4286C21.7778 22.9019 22.1758 23.2857 22.6667 23.2857H33.3333Z" fill="#24D9FF"/>
<path d="M31.5556 13L31.556 12.65H31.5556V13ZM31.3458 13V12.65H31.2661L31.1944 12.6844L31.3458 13ZM36 17.2857H36.35V17.2853L36 17.2857ZM20 17.2857L19.65 17.2853V17.2857H20ZM24.4444 13V12.65L24.444 12.65L24.4444 13ZM24.6542 13L24.8056 12.6844L24.7339 12.65H24.6542V13ZM24.8418 13.09L24.9933 12.7745L24.9932 12.7744L24.8418 13.09ZM31.1582 13.09L31.0068 12.7744L31.0067 12.7745L31.1582 13.09ZM34.2222 17.2857H34.5722V17.2857L34.2222 17.2857ZM31.7449 14.7211L31.7689 14.372L31.6817 14.366L31.6019 14.4017L31.7449 14.7211ZM24.2551 14.7211L24.3981 14.4017L24.3183 14.366L24.2311 14.372L24.2551 14.7211ZM21.7778 17.2857L21.4278 17.2857V17.2857H21.7778ZM31.5556 12.65H31.3458V13.35H31.5556V12.65ZM36.35 17.2853C36.3469 14.7147 34.1902 12.653 31.556 12.65L31.5552 13.35C33.8276 13.3526 35.6474 15.1253 35.65 17.2861L36.35 17.2853ZM36.35 22.4286V17.2857H35.65V22.4286H36.35ZM33.3333 25.35C34.9873 25.35 36.35 24.0539 36.35 22.4286H35.65C35.65 23.6436 34.6249 24.65 33.3333 24.65V25.35ZM22.6667 25.35H33.3333V24.65H22.6667V25.35ZM19.65 22.4286C19.65 24.0539 21.0127 25.35 22.6667 25.35V24.65C21.3751 24.65 20.35 23.6436 20.35 22.4286H19.65ZM19.65 17.2857V22.4286H20.35V17.2857H19.65ZM24.444 12.65C21.8098 12.653 19.6531 14.7147 19.65 17.2853L20.35 17.2861C20.3526 15.1253 22.1724 13.3526 24.4448 13.35L24.444 12.65ZM24.6542 12.65H24.4444V13.35H24.6542V12.65ZM24.9932 12.7744L24.8056 12.6844L24.5028 13.3156L24.6904 13.4056L24.9932 12.7744ZM31.0067 12.7745C29.1135 13.6835 26.8865 13.6835 24.9933 12.7745L24.6903 13.4055C26.775 14.4065 29.2249 14.4065 31.3097 13.4055L31.0067 12.7745ZM31.1944 12.6844L31.0068 12.7744L31.3096 13.4056L31.4972 13.3156L31.1944 12.6844ZM33.8722 22.4286C33.8722 22.6967 33.643 22.9357 33.3333 22.9357V23.6357C34.0054 23.6357 34.5722 23.1071 34.5722 22.4286H33.8722ZM33.8722 17.2857V22.4286H34.5722V17.2857H33.8722ZM31.7209 15.0703C32.9438 15.1543 33.872 16.1313 33.8722 17.2858L34.5722 17.2857C34.572 15.7419 33.3371 14.4796 31.7689 14.372L31.7209 15.0703ZM24.1121 15.0406C26.5781 16.1442 29.422 16.1442 31.8879 15.0406L31.6019 14.4017C29.318 15.4238 26.6821 15.4238 24.3981 14.4017L24.1121 15.0406ZM22.1278 17.2858C22.128 16.1313 23.0561 15.1543 24.2791 15.0703L24.2311 14.372C22.6628 14.4796 21.428 15.7419 21.4278 17.2857L22.1278 17.2858ZM22.1278 22.4286V17.2857H21.4278V22.4286H22.1278ZM22.6667 22.9357C22.357 22.9357 22.1278 22.6967 22.1278 22.4286H21.4278C21.4278 23.1071 21.9946 23.6357 22.6667 23.6357V22.9357ZM33.3333 22.9357H22.6667V23.6357H33.3333V22.9357Z" fill="#24D9FF"/>
<path fill-rule="evenodd" clip-rule="evenodd" d="M41 35.5C41 32.4624 43.4624 30 46.5 30C49.5363 30.003 51.997 32.4637 52 35.5C52 38.5376 49.5376 41 46.5 41C43.4624 41 41 38.5376 41 35.5ZM42.8333 35.5C42.8333 37.525 44.475 39.1667 46.5 39.1667C48.525 39.1667 50.1667 37.525 50.1667 35.5C50.1667 33.475 48.525 31.8333 46.5 31.8333C44.475 31.8333 42.8333 33.475 42.8333 35.5Z" fill="#24D9FF"/>
<path d="M46.5 30L46.5003 29.65H46.5V30ZM52 35.5H52.35L52.35 35.4997L52 35.5ZM46.5 29.65C43.2691 29.65 40.65 32.2691 40.65 35.5H41.35C41.35 32.6557 43.6557 30.35 46.5 30.35V29.65ZM52.35 35.4997C52.3468 32.2703 49.7297 29.6532 46.5003 29.65L46.4997 30.35C49.343 30.3528 51.6472 32.657 51.65 35.5003L52.35 35.4997ZM46.5 41.35C49.7309 41.35 52.35 38.7309 52.35 35.5H51.65C51.65 38.3443 49.3443 40.65 46.5 40.65V41.35ZM40.65 35.5C40.65 38.7309 43.2691 41.35 46.5 41.35V40.65C43.6557 40.65 41.35 38.3443 41.35 35.5H40.65ZM46.5 38.8167C44.6683 38.8167 43.1833 37.3317 43.1833 35.5H42.4833C42.4833 37.7183 44.2817 39.5167 46.5 39.5167V38.8167ZM49.8167 35.5C49.8167 37.3317 48.3317 38.8167 46.5 38.8167V39.5167C48.7183 39.5167 50.5167 37.7183 50.5167 35.5H49.8167ZM46.5 32.1833C48.3317 32.1833 49.8167 33.6683 49.8167 35.5H50.5167C50.5167 33.2817 48.7183 31.4833 46.5 31.4833V32.1833ZM43.1833 35.5C43.1833 33.6683 44.6683 32.1833 46.5 32.1833V31.4833C44.2817 31.4833 42.4833 33.2817 42.4833 35.5H43.1833Z" fill="#24D9FF"/>
<path fill-rule="evenodd" clip-rule="evenodd" d="M49.3458 42H49.5556C52.0089 42.0028 53.9971 43.92 54 46.2857V51.4286C54 52.8488 52.8061 54 51.3333 54H40.6667C39.1939 54 38 52.8488 38 51.4286V46.2857C38.0029 43.92 39.9911 42.0028 42.4444 42H42.6542L42.8418 42.0857C44.8308 43.0406 47.1692 43.0406 49.1582 42.0857L49.3458 42ZM51.3333 52.2857C51.8242 52.2857 52.2222 51.9019 52.2222 51.4286V46.2857C52.222 44.9366 51.1406 43.8169 49.7449 43.7211C47.3699 44.784 44.6301 44.784 42.2551 43.7211C40.8594 43.8169 39.778 44.9366 39.7778 46.2857V51.4286C39.7778 51.9019 40.1758 52.2857 40.6667 52.2857H51.3333Z" fill="#24D9FF"/>
<path d="M49.5556 42L49.556 41.65H49.5556V42ZM49.3458 42V41.65H49.2696L49.2003 41.6817L49.3458 42ZM54 46.2857H54.35V46.2853L54 46.2857ZM38 46.2857L37.65 46.2853V46.2857H38ZM42.4444 42V41.65L42.444 41.65L42.4444 42ZM42.6542 42L42.7997 41.6817L42.7304 41.65H42.6542V42ZM42.8418 42.0857L42.9933 41.7701L42.9873 41.7674L42.8418 42.0857ZM49.1582 42.0857L49.0127 41.7673L49.0067 41.7702L49.1582 42.0857ZM52.2222 46.2857H52.5722V46.2857L52.2222 46.2857ZM49.7449 43.7211L49.7689 43.372L49.6817 43.366L49.6019 43.4017L49.7449 43.7211ZM42.2551 43.7211L42.3981 43.4017L42.3183 43.366L42.2311 43.372L42.2551 43.7211ZM39.7778 46.2857L39.4278 46.2857V46.2857H39.7778ZM49.5556 41.65H49.3458V42.35H49.5556V41.65ZM54.35 46.2853C54.3469 43.7147 52.1902 41.653 49.556 41.65L49.5552 42.35C51.8276 42.3526 53.6474 44.1253 53.65 46.2861L54.35 46.2853ZM54.35 51.4286V46.2857H53.65V51.4286H54.35ZM51.3333 54.35C52.9873 54.35 54.35 53.0539 54.35 51.4286H53.65C53.65 52.6436 52.6249 53.65 51.3333 53.65V54.35ZM40.6667 54.35H51.3333V53.65H40.6667V54.35ZM37.65 51.4286C37.65 53.0539 39.0127 54.35 40.6667 54.35V53.65C39.3751 53.65 38.35 52.6436 38.35 51.4286H37.65ZM37.65 46.2857V51.4286H38.35V46.2857H37.65ZM42.444 41.65C39.8098 41.653 37.6531 43.7147 37.65 46.2853L38.35 46.2861C38.3526 44.1253 40.1724 42.3526 42.4448 42.35L42.444 41.65ZM42.6542 41.65H42.4444V42.35H42.6542V41.65ZM42.9873 41.7674L42.7997 41.6817L42.5087 42.3183L42.6963 42.404L42.9873 41.7674ZM49.0067 41.7702C47.1135 42.6791 44.8865 42.6791 42.9933 41.7702L42.6903 42.4012C44.7751 43.4021 47.2249 43.4021 49.3097 42.4012L49.0067 41.7702ZM49.2003 41.6817L49.0127 41.7674L49.3037 42.404L49.4913 42.3183L49.2003 41.6817ZM51.8722 51.4286C51.8722 51.6967 51.643 51.9357 51.3333 51.9357V52.6357C52.0054 52.6357 52.5722 52.1071 52.5722 51.4286H51.8722ZM51.8722 46.2857V51.4286H52.5722V46.2857H51.8722ZM49.7209 44.0703C50.9439 44.1543 51.872 45.1313 51.8722 46.2858L52.5722 46.2857C52.572 44.7419 51.3372 43.4796 49.7689 43.372L49.7209 44.0703ZM42.1121 44.0406C44.5781 45.1442 47.4219 45.1442 49.8879 44.0406L49.6019 43.4017C47.3179 44.4238 44.6821 44.4238 42.3981 43.4017L42.1121 44.0406ZM40.1278 46.2858C40.128 45.1313 41.0561 44.1543 42.2791 44.0703L42.2311 43.372C40.6628 43.4796 39.428 44.7419 39.4278 46.2857L40.1278 46.2858ZM40.1278 51.4286V46.2857H39.4278V51.4286H40.1278ZM40.6667 51.9357C40.357 51.9357 40.1278 51.6967 40.1278 51.4286H39.4278C39.4278 52.1071 39.9946 52.6357 40.6667 52.6357V51.9357ZM51.3333 51.9357H40.6667V52.6357H51.3333V51.9357Z" fill="#24D9FF"/>
<path fill-rule="evenodd" clip-rule="evenodd" d="M3 35.5C3 32.4624 5.4624 30 8.5 30C11.5363 30.003 13.997 32.4637 14 35.5C14 38.5376 11.5376 41 8.5 41C5.4624 41 3 38.5376 3 35.5ZM4.83333 35.5C4.83333 37.525 6.47497 39.1667 8.5 39.1667C10.525 39.1667 12.1667 37.525 12.1667 35.5C12.1667 33.475 10.525 31.8333 8.5 31.8333C6.47497 31.8333 4.83333 33.475 4.83333 35.5Z" fill="#24D9FF"/>
<path d="M8.5 30L8.50034 29.65H8.5V30ZM14 35.5H14.35L14.35 35.4997L14 35.5ZM8.5 29.65C5.2691 29.65 2.65 32.2691 2.65 35.5H3.35C3.35 32.6557 5.6557 30.35 8.5 30.35V29.65ZM14.35 35.4997C14.3468 32.2703 11.7297 29.6532 8.50034 29.65L8.49966 30.35C11.343 30.3528 13.6472 32.657 13.65 35.5003L14.35 35.4997ZM8.5 41.35C11.7309 41.35 14.35 38.7309 14.35 35.5H13.65C13.65 38.3443 11.3443 40.65 8.5 40.65V41.35ZM2.65 35.5C2.65 38.7309 5.2691 41.35 8.5 41.35V40.65C5.6557 40.65 3.35 38.3443 3.35 35.5H2.65ZM8.5 38.8167C6.66827 38.8167 5.18333 37.3317 5.18333 35.5H4.48333C4.48333 37.7183 6.28167 39.5167 8.5 39.5167V38.8167ZM11.8167 35.5C11.8167 37.3317 10.3317 38.8167 8.5 38.8167V39.5167C10.7183 39.5167 12.5167 37.7183 12.5167 35.5H11.8167ZM8.5 32.1833C10.3317 32.1833 11.8167 33.6683 11.8167 35.5H12.5167C12.5167 33.2817 10.7183 31.4833 8.5 31.4833V32.1833ZM5.18333 35.5C5.18333 33.6683 6.66827 32.1833 8.5 32.1833V31.4833C6.28167 31.4833 4.48333 33.2817 4.48333 35.5H5.18333Z" fill="#24D9FF"/>
<path fill-rule="evenodd" clip-rule="evenodd" d="M12.3458 42H12.5556C15.0089 42.0028 16.9971 43.92 17 46.2857V51.4286C17 52.8488 15.8061 54 14.3333 54H3.66667C2.19389 54 1 52.8488 1 51.4286V46.2857C1.00289 43.92 2.99111 42.0028 5.44444 42H5.65422L5.84178 42.0857C7.83078 43.0406 10.1692 43.0406 12.1582 42.0857L12.3458 42ZM14.3333 52.2857C14.8242 52.2857 15.2222 51.9019 15.2222 51.4286V46.2857C15.222 44.9366 14.1406 43.8169 12.7449 43.7211C10.3699 44.784 7.63011 44.784 5.25511 43.7211C3.85944 43.8169 2.778 44.9366 2.77778 46.2857V51.4286C2.77778 51.9019 3.17578 52.2857 3.66667 52.2857H14.3333Z" fill="#24D9FF"/>
<path d="M12.5556 42L12.556 41.65H12.5556V42ZM12.3458 42V41.65H12.2696L12.2003 41.6817L12.3458 42ZM17 46.2857H17.35V46.2853L17 46.2857ZM1 46.2857L0.65 46.2853V46.2857H1ZM5.44444 42V41.65L5.44405 41.65L5.44444 42ZM5.65422 42L5.7997 41.6817L5.73041 41.65H5.65422V42ZM5.84178 42.0857L5.99328 41.7701L5.98726 41.7674L5.84178 42.0857ZM12.1582 42.0857L12.0127 41.7673L12.0067 41.7702L12.1582 42.0857ZM15.2222 46.2857H15.5722V46.2857L15.2222 46.2857ZM12.7449 43.7211L12.7689 43.372L12.6817 43.366L12.6019 43.4017L12.7449 43.7211ZM5.25511 43.7211L5.39808 43.4017L5.31832 43.366L5.23115 43.372L5.25511 43.7211ZM2.77778 46.2857L2.42778 46.2857V46.2857H2.77778ZM12.5556 41.65H12.3458V42.35H12.5556V41.65ZM17.35 46.2853C17.3469 43.7147 15.1902 41.653 12.556 41.65L12.5552 42.35C14.8276 42.3526 16.6474 44.1253 16.65 46.2861L17.35 46.2853ZM17.35 51.4286V46.2857H16.65V51.4286H17.35ZM14.3333 54.35C15.9873 54.35 17.35 53.0539 17.35 51.4286H16.65C16.65 52.6436 15.6249 53.65 14.3333 53.65V54.35ZM3.66667 54.35H14.3333V53.65H3.66667V54.35ZM0.65 51.4286C0.65 53.0539 2.0127 54.35 3.66667 54.35V53.65C2.37508 53.65 1.35 52.6436 1.35 51.4286H0.65ZM0.65 46.2857V51.4286H1.35V46.2857H0.65ZM5.44405 41.65C2.8098 41.653 0.653139 43.7147 0.65 46.2853L1.35 46.2861C1.35264 44.1253 3.17242 42.3526 5.44484 42.35L5.44405 41.65ZM5.65422 41.65H5.44444V42.35H5.65422V41.65ZM5.98726 41.7674L5.7997 41.6817L5.50874 42.3183L5.6963 42.404L5.98726 41.7674ZM12.0067 41.7702C10.1135 42.6791 7.8865 42.6791 5.99325 41.7702L5.6903 42.4012C7.77506 43.4021 10.2249 43.4021 12.3097 42.4012L12.0067 41.7702ZM12.2003 41.6817L12.0127 41.7674L12.3037 42.404L12.4913 42.3183L12.2003 41.6817ZM14.8722 51.4286C14.8722 51.6967 14.643 51.9357 14.3333 51.9357V52.6357C15.0054 52.6357 15.5722 52.1071 15.5722 51.4286H14.8722ZM14.8722 46.2857V51.4286H15.5722V46.2857H14.8722ZM12.7209 44.0703C13.9439 44.1543 14.872 45.1313 14.8722 46.2858L15.5722 46.2857C15.572 44.7419 14.3372 43.4796 12.7689 43.372L12.7209 44.0703ZM5.11214 44.0406C7.57811 45.1442 10.4219 45.1442 12.8879 44.0406L12.6019 43.4017C10.3179 44.4238 7.68211 44.4238 5.39808 43.4017L5.11214 44.0406ZM3.12778 46.2858C3.12797 45.1313 4.05612 44.1543 5.27908 44.0703L5.23115 43.372C3.66277 43.4796 2.42803 44.7419 2.42778 46.2857L3.12778 46.2858ZM3.12778 51.4286V46.2857H2.42778V51.4286H3.12778ZM3.66667 51.9357C3.35697 51.9357 3.12778 51.6967 3.12778 51.4286H2.42778C2.42778 52.1071 2.99459 52.6357 3.66667 52.6357V51.9357ZM14.3333 51.9357H3.66667V52.6357H14.3333V51.9357Z" fill="#24D9FF"/>
<path d="M36.9287 45.5293C36.9282 45.5284 36.9278 45.5274 36.9273 45.5263C36.7325 45.091 36.2039 44.8885 35.7467 45.074C31.6829 46.6953 27.1696 46.9911 22.9107 45.9153L23.753 45.6797C24.2302 45.5467 24.5038 45.0708 24.3641 44.6165C24.2244 44.1622 23.7245 43.9017 23.2473 44.0348L19.6474 45.0397C19.634 45.0397 19.6241 45.0543 19.6115 45.0585C19.5281 45.0881 19.4498 45.1294 19.3793 45.1811C19.348 45.1971 19.318 45.2151 19.2893 45.235C19.1943 45.3157 19.1191 45.4151 19.0688 45.5263C19.02 45.6383 18.9967 45.7589 19.0004 45.8802C19.0223 45.9961 19.0524 46.1106 19.0904 46.2228C19.0958 46.2348 19.0904 46.2485 19.1003 46.2605L20.9002 49.5393C21.1303 49.9589 21.6743 50.1216 22.1151 49.9025C22.556 49.6834 22.7269 49.1656 22.4967 48.7459L21.7641 47.4128C26.603 48.7975 31.7981 48.5284 36.4505 46.6521C36.9081 46.4678 37.1223 45.9651 36.9287 45.5293Z" fill="#24D9FF" stroke="#24D9FF" stroke-width="0.7"/>
<path d="M50.7371 23.9368C50.3877 23.5999 49.8214 23.5999 49.472 23.9368L48.2061 25.1581C47.4653 17.5987 42.49 11.0387 35.2457 8.0693C34.7911 7.88245 34.2655 8.08645 34.0718 8.525C33.8781 8.96355 34.0896 9.47049 34.5442 9.65735C41.043 12.3218 45.5605 18.1445 46.3782 24.9104L45.369 23.9368C45.0136 23.6056 44.4473 23.6151 44.1039 23.958C43.7691 24.2924 43.7691 24.8227 44.1039 25.1572L46.788 27.7464C47.1369 28.0839 47.7035 28.0846 48.0533 27.7479C48.0538 27.7474 48.0544 27.7469 48.0549 27.7464L50.7389 25.1572C51.0877 24.8198 51.0869 24.2734 50.7371 23.9368Z" fill="#24D9FF" stroke="#24D9FF" stroke-width="0.7"/>
<path d="M19.9746 8.32669C19.9718 8.27529 19.9642 8.22432 19.9519 8.17435C19.9519 8.16642 19.9423 8.16114 19.9388 8.15233C19.9353 8.14353 19.9388 8.13736 19.9388 8.13032C19.9149 8.0875 19.8873 8.04677 19.8565 8.0088C19.8282 7.95717 19.7947 7.90852 19.7568 7.8635C19.705 7.81738 19.6477 7.77808 19.5861 7.74638C19.5554 7.72007 19.5226 7.69619 19.4881 7.67505L15.9881 6.06621C15.5411 5.88151 15.0299 6.09648 14.8464 6.54635C14.6728 6.97179 14.8538 7.46008 15.2619 7.66713L17.074 8.50105C10.252 12.1754 5.99508 19.3323 6 27.1194C6 27.6057 6.39179 28 6.875 28C7.35822 28 7.75 27.6057 7.75 27.1194C7.74563 20.2626 11.3485 13.9158 17.2201 10.4375L16.5875 11.768C16.3789 12.2058 16.5617 12.7309 16.9961 12.9419C17.1141 12.9999 17.2436 13.03 17.375 13.0299C17.711 13.0295 18.017 12.8354 18.1625 12.5306L19.9125 8.85593C19.9125 8.84712 19.9125 8.83744 19.9195 8.82863C19.9423 8.76842 19.9581 8.70579 19.9668 8.64194C19.9817 8.5945 19.9929 8.54596 20 8.49665C19.997 8.4393 19.9886 8.38239 19.9746 8.32669Z" fill="#24D9FF" stroke="#24D9FF" stroke-width="0.7"/>
</svg>
