<svg width="26" height="25" viewBox="0 0 26 25" fill="none" xmlns="http://www.w3.org/2000/svg">
<path fill-rule="evenodd" clip-rule="evenodd" d="M25.3827 8.72931C25.6548 8.77123 25.8789 8.95462 25.9643 9.21136C26.0497 9.46811 25.9803 9.75105 25.7722 9.93968L19.9236 15.5723L21.327 23.4581C21.343 23.5105 21.3484 23.5628 21.3484 23.6205C21.3484 24.0082 21.0228 24.3278 20.628 24.3278C20.5159 24.3278 20.4038 24.3016 20.2971 24.2492L13.0343 20.5238L5.79284 24.2912C5.68611 24.3488 5.57405 24.375 5.45665 24.375C5.30723 24.375 5.15781 24.3278 5.03508 24.2388C4.81095 24.0816 4.69888 23.8144 4.74691 23.5471L6.10769 15.6143L0.221669 10.013C0.0242237 9.82964 -0.0504855 9.5467 0.0348964 9.28996C0.120278 9.03321 0.344406 8.84982 0.616561 8.80791L8.72785 7.62374L12.3299 0.398216C12.4526 0.151951 12.7034 0 12.9756 0C13.2478 0 13.4986 0.151951 13.6213 0.392976L17.2714 7.59754L25.3827 8.72931ZM18.4507 15.4518C18.408 15.2213 18.4827 14.9855 18.6535 14.8231L23.7391 9.93444L16.695 8.94938C16.4602 8.9127 16.2575 8.77123 16.1507 8.56164L12.9809 2.30546L9.85382 8.57736C9.75243 8.78695 9.54965 8.92842 9.31485 8.9651L2.27617 9.99207L7.37774 14.8545C7.54851 15.0169 7.62322 15.2475 7.58586 15.478L6.40652 22.3682L12.6928 19.0986C12.9062 18.9938 13.157 18.9886 13.3652 19.0986L19.6727 22.3315L18.4507 15.4518Z" fill="white"/>
</svg>
