<svg width="56" height="46" viewBox="0 0 56 46" fill="none" xmlns="http://www.w3.org/2000/svg">
<path fill-rule="evenodd" clip-rule="evenodd" d="M36 9C36 13.4184 32.4184 17 28 17C23.5838 16.9952 20.0048 13.4162 20 9C20 4.5816 23.5816 1 28 1C32.4184 1 36 4.5816 36 9ZM34.2222 9C34.2222 5.56337 31.4366 2.77778 28 2.77778C24.5651 2.78168 21.7817 5.5651 21.7778 9C21.7778 12.4366 24.5634 15.2222 28 15.2222C31.4366 15.2222 34.2222 12.4366 34.2222 9Z" fill="#E12768"/>
<path d="M28 17L27.9996 17.35H28V17ZM20 9H19.65L19.65 9.00038L20 9ZM28 2.77778V2.42778L27.9996 2.42778L28 2.77778ZM21.7778 9L21.4278 8.9996V9H21.7778ZM28 17.35C32.6117 17.35 36.35 13.6117 36.35 9H35.65C35.65 13.2251 32.2251 16.65 28 16.65V17.35ZM19.65 9.00038C19.655 13.6096 23.3904 17.345 27.9996 17.35L28.0004 16.65C23.7771 16.6454 20.3546 13.2229 20.35 8.99962L19.65 9.00038ZM28 0.65C23.3883 0.65 19.65 4.3883 19.65 9H20.35C20.35 4.7749 23.7749 1.35 28 1.35V0.65ZM36.35 9C36.35 4.3883 32.6117 0.65 28 0.65V1.35C32.2251 1.35 35.65 4.7749 35.65 9H36.35ZM28 3.12778C31.2433 3.12778 33.8722 5.75667 33.8722 9H34.5722C34.5722 5.37007 31.6299 2.42778 28 2.42778V3.12778ZM22.1278 9.0004C22.1315 5.75849 24.7585 3.13146 28.0004 3.12778L27.9996 2.42778C24.3717 2.4319 21.4319 5.37172 21.4278 8.9996L22.1278 9.0004ZM28 14.8722C24.7567 14.8722 22.1278 12.2433 22.1278 9H21.4278C21.4278 12.6299 24.3701 15.5722 28 15.5722V14.8722ZM33.8722 9C33.8722 12.2433 31.2433 14.8722 28 14.8722V15.5722C31.6299 15.5722 34.5722 12.6299 34.5722 9H33.8722Z" fill="#E12768"/>
<path fill-rule="evenodd" clip-rule="evenodd" d="M14 9.5C14 11.9851 11.9851 14 9.5 14C7.01577 13.9969 5.00308 11.9842 5 9.5C5 7.01489 7.01489 5 9.5 5C11.9851 5 14 7.01489 14 9.5ZM12.2 9.5C12.2 8.00894 10.9911 6.8 9.5 6.8C8.00894 6.8 6.8 8.00894 6.8 9.5C6.8 10.9911 8.00894 12.2 9.5 12.2C10.9911 12.2 12.2 10.9911 12.2 9.5Z" fill="#E12768"/>
<path d="M9.5 14L9.49957 14.35H9.5V14ZM5 9.5H4.65L4.65 9.50043L5 9.5ZM9.5 14.35C12.1784 14.35 14.35 12.1784 14.35 9.5H13.65C13.65 11.7918 11.7918 13.65 9.5 13.65V14.35ZM4.65 9.50043C4.65332 12.1776 6.82238 14.3467 9.49957 14.35L9.50043 13.65C7.20917 13.6472 5.35284 11.7908 5.35 9.49957L4.65 9.50043ZM9.5 4.65C6.82159 4.65 4.65 6.82159 4.65 9.5H5.35C5.35 7.20819 7.20819 5.35 9.5 5.35V4.65ZM14.35 9.5C14.35 6.82159 12.1784 4.65 9.5 4.65V5.35C11.7918 5.35 13.65 7.20819 13.65 9.5H14.35ZM9.5 7.15C10.7978 7.15 11.85 8.20223 11.85 9.5H12.55C12.55 7.81564 11.1844 6.45 9.5 6.45V7.15ZM7.15 9.5C7.15 8.20224 8.20224 7.15 9.5 7.15V6.45C7.81564 6.45 6.45 7.81564 6.45 9.5H7.15ZM9.5 11.85C8.20223 11.85 7.15 10.7978 7.15 9.5H6.45C6.45 11.1844 7.81564 12.55 9.5 12.55V11.85ZM11.85 9.5C11.85 10.7978 10.7978 11.85 9.5 11.85V12.55C11.1844 12.55 12.55 11.1844 12.55 9.5H11.85Z" fill="#E12768"/>
<path fill-rule="evenodd" clip-rule="evenodd" d="M51 9.5C51 11.9851 48.9851 14 46.5 14C44.0158 13.9969 42.0031 11.9842 42 9.5C42 7.01489 44.0149 5 46.5 5C48.9851 5 51 7.01489 51 9.5ZM49.2 9.5C49.2 8.00894 47.9911 6.8 46.5 6.8C45.0089 6.8 43.8 8.00894 43.8 9.5C43.8 10.9911 45.0089 12.2 46.5 12.2C47.9911 12.2 49.2 10.9911 49.2 9.5Z" fill="#E12768"/>
<path d="M46.5 14L46.4996 14.35H46.5V14ZM42 9.5H41.65L41.65 9.50043L42 9.5ZM46.5 14.35C49.1784 14.35 51.35 12.1784 51.35 9.5H50.65C50.65 11.7918 48.7918 13.65 46.5 13.65V14.35ZM41.65 9.50043C41.6533 12.1776 43.8224 14.3467 46.4996 14.35L46.5004 13.65C44.2092 13.6472 42.3528 11.7908 42.35 9.49957L41.65 9.50043ZM46.5 4.65C43.8216 4.65 41.65 6.82159 41.65 9.5H42.35C42.35 7.20819 44.2082 5.35 46.5 5.35V4.65ZM51.35 9.5C51.35 6.82159 49.1784 4.65 46.5 4.65V5.35C48.7918 5.35 50.65 7.20819 50.65 9.5H51.35ZM46.5 7.15C47.7978 7.15 48.85 8.20223 48.85 9.5H49.55C49.55 7.81564 48.1844 6.45 46.5 6.45V7.15ZM44.15 9.5C44.15 8.20224 45.2022 7.15 46.5 7.15V6.45C44.8156 6.45 43.45 7.81564 43.45 9.5H44.15ZM46.5 11.85C45.2022 11.85 44.15 10.7978 44.15 9.5H43.45C43.45 11.1844 44.8156 12.55 46.5 12.55V11.85ZM48.85 9.5C48.85 10.7978 47.7978 11.85 46.5 11.85V12.55C48.1844 12.55 49.55 11.1844 49.55 9.5H48.85Z" fill="#E12768"/>
<path fill-rule="evenodd" clip-rule="evenodd" d="M49.9599 14.1792C50.1159 14.063 50.3053 14 50.5 14C52.9842 14.0031 54.9969 16.0053 55 18.4766V26.3195C55.0026 27.339 54.4221 28.271 53.5032 28.7226L48.1032 31.4086C47.3451 31.7845 46.4539 31.7845 45.6959 31.4086L45.1 31.1144V36.1147C45.1 37.177 44.4703 38.1401 43.4933 38.5703L29.8233 44.6138C28.6622 45.1287 27.336 45.1287 26.1749 44.6138L12.5058 38.5712C11.5289 38.1406 10.8996 37.1775 10.9 36.1147V32.0123L10.4021 32.2602C10.029 32.4442 9.61767 32.5395 9.20063 32.5387C8.69834 32.5391 8.20571 32.4023 7.77593 32.143L2.26914 28.7174C1.47988 28.2247 1.00044 27.363 1 26.4362V18.4766C1.00308 16.0053 3.01577 14.0031 5.5 14C5.69468 14 5.88408 14.063 6.04009 14.1792L9.1 16.4622L12.1599 14.1792C12.3159 14.063 12.5053 14 12.7 14C14.1814 13.9983 15.5665 14.7292 16.3962 15.9502C17.7616 15.2621 19.2694 14.901 20.8 14.8953C21.0386 14.8953 21.2676 14.9898 21.4363 15.1576L28 21.6872L34.5637 15.1576C34.7324 14.9898 34.9614 14.8953 35.2 14.8953C36.7306 14.901 38.2384 15.2621 39.6037 15.9502C40.4334 14.7292 41.8186 13.9983 43.3 14C43.4947 14 43.6841 14.063 43.8401 14.1792L46.9 16.4622L49.9599 14.1792ZM8.72207 30.6147C8.98838 30.7747 9.31841 30.7891 9.5979 30.6532L10.9 30.0101V24.7439C10.9009 24.3382 10.9268 23.9325 10.9773 23.5299C10.9871 23.4507 11.0025 23.3727 11.0179 23.2947C11.028 23.2431 11.0382 23.1915 11.0468 23.1395C11.0898 22.8737 11.1351 22.6075 11.1997 22.3482C11.225 22.2462 11.2564 22.1472 11.2878 22.0482L11.2878 22.0482L11.2878 22.0481L11.2878 22.0481L11.2878 22.0481C11.3034 21.9991 11.3189 21.95 11.3337 21.9006L11.3579 21.8204C11.4197 21.6155 11.4808 21.4126 11.5605 21.2138C11.6058 21.0952 11.6576 20.9804 11.7093 20.8658C11.7252 20.8304 11.7412 20.795 11.7569 20.7595C11.8505 20.5449 11.9468 20.3364 12.0549 20.1331C12.1349 19.9836 12.2192 19.8384 12.3093 19.6933C12.4262 19.5001 12.5462 19.3094 12.6767 19.1241C12.7722 18.984 12.8721 18.8557 12.9742 18.7246L12.9852 18.7105C13.1245 18.533 13.2695 18.3608 13.4207 18.1938C13.5389 18.0639 13.6567 17.9376 13.7811 17.8139C13.9419 17.6539 14.1102 17.5017 14.2829 17.3522L14.3692 17.2784C14.4744 17.188 14.5785 17.0986 14.6881 17.013C14.7156 16.9917 14.7415 16.969 14.7675 16.9462L14.7675 16.9462C14.7976 16.9198 14.8276 16.8935 14.8599 16.8696C14.4121 16.2676 13.7301 15.8812 12.9808 15.8051L9.64009 18.2974C9.32016 18.5365 8.87983 18.5365 8.55991 18.2974L5.21919 15.8051C3.84414 15.948 2.8 17.1013 2.8 18.4766V26.4362C2.80571 26.7466 2.96831 27.0329 3.23198 27.1991L8.72207 30.6147ZM43.3 36.1147C43.3 36.4706 43.0877 36.7923 42.7599 36.9349L29.0907 42.9792C28.3959 43.2878 27.6023 43.2878 26.9075 42.9792L13.2401 36.9349C12.9123 36.7923 12.7 36.4706 12.7 36.1147V24.7439C12.6996 24.0554 12.787 23.3694 12.9602 22.7028C13.8681 19.2902 16.8959 16.8582 20.4401 16.6939L27.3698 23.588C27.7214 23.9378 28.2913 23.9378 28.6425 23.588L35.5726 16.6939C39.8938 16.8989 43.2934 20.4404 43.3 24.7439V36.1147ZM52.6977 27.1256C53.0062 26.9744 53.2009 26.6618 53.2 26.3195V18.4766C53.2 17.1013 52.1558 15.948 50.7808 15.8051L47.4401 18.2974C47.1201 18.5365 46.6798 18.5365 46.3599 18.2974L43.0218 15.8051C42.273 15.8812 41.5914 16.2676 41.1436 16.8696C41.1768 16.8942 41.2076 16.9213 41.2384 16.9484C41.2634 16.9704 41.2883 16.9924 41.3145 17.013C41.4552 17.1227 41.591 17.2394 41.725 17.3557C41.8951 17.5035 42.0616 17.653 42.2198 17.8113C42.3459 17.9367 42.4677 18.0666 42.5863 18.1982C42.7357 18.3638 42.8777 18.5278 43.0148 18.7066C43.1229 18.8447 43.2279 18.9842 43.329 19.1276C43.4538 19.3103 43.5738 19.4983 43.6889 19.6898C43.7061 19.719 43.7233 19.7481 43.7405 19.7772C43.8113 19.8969 43.8816 20.0158 43.946 20.1374C44.0541 20.3399 44.1512 20.5466 44.2413 20.7552C44.2576 20.7919 44.2742 20.8285 44.2907 20.8651C44.3427 20.9802 44.3947 21.0953 44.4404 21.2138C44.5256 21.4376 44.5959 21.6667 44.6654 21.8966C44.6797 21.9439 44.6948 21.9911 44.71 22.0385C44.7422 22.1391 44.7746 22.2403 44.8003 22.3443C44.8631 22.6031 44.9093 22.8654 44.9532 23.1343C44.9617 23.1859 44.9718 23.2372 44.9819 23.2885C44.9974 23.367 45.0128 23.4454 45.0226 23.5255C45.0732 23.9295 45.0991 24.3365 45.1 24.7439V29.113L46.5014 29.8116C46.7519 29.9358 47.0472 29.9358 47.2977 29.8116L52.6977 27.1256Z" fill="#E12768"/>
<path d="M50.5 14L50.5004 13.65H50.5V14ZM49.9599 14.1792L49.7507 13.8986L49.7506 13.8987L49.9599 14.1792ZM55 18.4766H55.35V18.4762L55 18.4766ZM55 26.3195H54.65L54.65 26.3204L55 26.3195ZM53.5032 28.7226L53.3488 28.4085L53.3473 28.4092L53.5032 28.7226ZM48.1032 31.4086L48.2587 31.7221L48.2591 31.722L48.1032 31.4086ZM45.6959 31.4086L45.8514 31.095L45.8508 31.0948L45.6959 31.4086ZM45.1 31.1144L45.2549 30.8005L44.75 30.5512V31.1144H45.1ZM43.4933 38.5703L43.3523 38.25L43.3518 38.2502L43.4933 38.5703ZM29.8233 44.6138L29.6818 44.2936L29.6814 44.2938L29.8233 44.6138ZM26.1749 44.6138L26.3169 44.2938L26.3165 44.2936L26.1749 44.6138ZM12.5058 38.5712L12.6473 38.2511L12.6469 38.2509L12.5058 38.5712ZM10.9 36.1147L11.25 36.1149V36.1147H10.9ZM10.9 32.0123H11.25V31.4471L10.744 31.699L10.9 32.0123ZM10.4021 32.2602L10.5569 32.5741L10.5581 32.5735L10.4021 32.2602ZM9.20063 32.5387L9.20137 32.1887H9.20033L9.20063 32.5387ZM7.77593 32.143L7.59103 32.4402L7.59515 32.4427L7.77593 32.143ZM2.26914 28.7174L2.0838 29.0143L2.08426 29.0145L2.26914 28.7174ZM1 26.4362H0.65L0.65 26.4364L1 26.4362ZM1 18.4766L0.65 18.4762V18.4766H1ZM5.5 14V13.65L5.49957 13.65L5.5 14ZM6.04009 14.1792L6.24938 13.8987L6.24926 13.8986L6.04009 14.1792ZM9.1 16.4622L8.8907 16.7427L9.1 16.8988L9.30929 16.7427L9.1 16.4622ZM12.1599 14.1792L11.9507 13.8986L11.9506 13.8987L12.1599 14.1792ZM12.7 14V14.35L12.7004 14.35L12.7 14ZM16.3962 15.9502L16.1067 16.1469L16.2794 16.401L16.5538 16.2628L16.3962 15.9502ZM20.8 14.8953V14.5453L20.7987 14.5453L20.8 14.8953ZM21.4363 15.1576L21.6832 14.9095V14.9095L21.4363 15.1576ZM28 21.6872L27.7531 21.9353L28 22.1809L28.2468 21.9353L28 21.6872ZM34.5637 15.1576L34.3168 14.9095V14.9095L34.5637 15.1576ZM35.2 14.8953L35.2013 14.5453H35.2V14.8953ZM39.6037 15.9502L39.4462 16.2628L39.7206 16.401L39.8932 16.1469L39.6037 15.9502ZM43.3 14L43.2996 14.35H43.3V14ZM43.8401 14.1792L44.0494 13.8987L44.0492 13.8986L43.8401 14.1792ZM46.9 16.4622L46.6907 16.7427L46.9 16.8988L47.1093 16.7427L46.9 16.4622ZM9.5979 30.6532L9.751 30.9679L9.75288 30.967L9.5979 30.6532ZM8.72207 30.6147L8.53716 30.9119L8.54181 30.9147L8.72207 30.6147ZM10.9 30.0101L11.055 30.3239L11.25 30.2276V30.0101H10.9ZM10.9 24.7439L10.55 24.7432V24.7439H10.9ZM10.9773 23.5299L11.3246 23.5735L11.3247 23.5728L10.9773 23.5299ZM11.0179 23.2947L11.3613 23.3624L11.3613 23.3624L11.0179 23.2947ZM11.0468 23.1395L11.3921 23.1964L11.3923 23.1955L11.0468 23.1395ZM11.1997 22.3482L11.5393 22.4328L11.5394 22.4324L11.1997 22.3482ZM11.2878 22.0482L11.6214 22.154L11.6247 22.1436L11.6273 22.133L11.2878 22.0482ZM11.2878 22.0481L10.9557 21.9375L10.9515 21.9502L10.9482 21.9633L11.2878 22.0481ZM11.2878 22.0481L11.6199 22.1588L11.6214 22.1539L11.2878 22.0481ZM11.3337 21.9006L10.9987 21.7994L10.9985 21.8L11.3337 21.9006ZM11.3579 21.8204L11.693 21.9215L11.6931 21.9214L11.3579 21.8204ZM11.5605 21.2138L11.8854 21.344L11.8874 21.3387L11.5605 21.2138ZM11.7093 20.8658L11.3902 20.7219L11.3902 20.7219L11.7093 20.8658ZM11.7569 20.7595L12.0768 20.9016L12.0778 20.8994L11.7569 20.7595ZM12.0549 20.1331L11.7463 19.968L11.7459 19.9687L12.0549 20.1331ZM12.3093 19.6933L12.6067 19.8779L12.6088 19.8744L12.3093 19.6933ZM12.6767 19.1241L12.9629 19.3256L12.966 19.3211L12.6767 19.1241ZM12.9742 18.7246L13.2503 18.9397L13.2503 18.9397L12.9742 18.7246ZM12.9852 18.7105L12.7099 18.4944L12.7091 18.4954L12.9852 18.7105ZM13.4207 18.1938L13.1619 17.9582L13.1612 17.9589L13.4207 18.1938ZM13.7811 17.8139L13.5342 17.5658V17.5658L13.7811 17.8139ZM14.2829 17.3522L14.0552 17.0864L14.0538 17.0876L14.2829 17.3522ZM14.3692 17.2784L14.5968 17.5442L14.5971 17.5439L14.3692 17.2784ZM14.6881 17.013L14.4739 16.7362L14.4726 16.7372L14.6881 17.013ZM14.7675 16.9462L14.537 16.6828L14.5368 16.683L14.7675 16.9462ZM14.7675 16.9462L14.998 17.2096L14.9982 17.2094L14.7675 16.9462ZM14.8599 16.8696L15.0682 17.1509L15.3501 16.9421L15.1407 16.6607L14.8599 16.8696ZM12.9808 15.8051L13.0162 15.4569L12.8807 15.4431L12.7715 15.5246L12.9808 15.8051ZM9.64009 18.2974L9.4308 18.0169L9.43054 18.0171L9.64009 18.2974ZM8.55991 18.2974L8.76946 18.0171L8.7692 18.0169L8.55991 18.2974ZM5.21919 15.8051L5.42848 15.5246L5.31893 15.4428L5.183 15.457L5.21919 15.8051ZM2.8 26.4362H2.44994L2.45006 26.4426L2.8 26.4362ZM3.23198 27.1991L3.04541 27.4952L3.04709 27.4962L3.23198 27.1991ZM42.7599 36.9349L42.6204 36.6139L42.6184 36.6148L42.7599 36.9349ZM29.0907 42.9792L28.9492 42.6591L28.9486 42.6593L29.0907 42.9792ZM26.9075 42.9792L27.0496 42.6593L27.0491 42.6591L26.9075 42.9792ZM13.2401 36.9349L13.3816 36.6148L13.3796 36.6139L13.2401 36.9349ZM12.7 24.7439H13.05V24.7437L12.7 24.7439ZM12.9602 22.7028L12.6219 22.6128L12.6214 22.6148L12.9602 22.7028ZM20.4401 16.6939L20.6869 16.4457L20.5777 16.3371L20.4239 16.3442L20.4401 16.6939ZM27.3698 23.588L27.123 23.8362L27.123 23.8362L27.3698 23.588ZM28.6425 23.588L28.3956 23.3399L28.3955 23.3401L28.6425 23.588ZM35.5726 16.6939L35.5892 16.3442L35.4352 16.3369L35.3258 16.4457L35.5726 16.6939ZM43.3 24.7439H43.65L43.65 24.7434L43.3 24.7439ZM53.2 26.3195H52.85L52.85 26.3204L53.2 26.3195ZM52.6977 27.1256L52.5436 26.8114L52.5418 26.8122L52.6977 27.1256ZM50.7808 15.8051L50.817 15.457L50.681 15.4428L50.5715 15.5246L50.7808 15.8051ZM47.4401 18.2974L47.2308 18.0169L47.2305 18.0171L47.4401 18.2974ZM46.3599 18.2974L46.5694 18.0171L46.5693 18.0169L46.3599 18.2974ZM43.0218 15.8051L43.2312 15.5246L43.122 15.4431L42.9864 15.4569L43.0218 15.8051ZM41.1436 16.8696L40.8628 16.6607L40.6534 16.9421L40.9353 17.1508L41.1436 16.8696ZM41.2384 16.9484L41.4697 16.6857L41.4697 16.6857L41.2384 16.9484ZM41.3145 17.013L41.0984 17.2882L41.0992 17.2889L41.3145 17.013ZM41.725 17.3557L41.9545 17.0915L41.9544 17.0914L41.725 17.3557ZM42.2198 17.8113L41.9723 18.0587L41.973 18.0594L42.2198 17.8113ZM42.5863 18.1982L42.3264 18.4325L42.3264 18.4326L42.5863 18.1982ZM43.0148 18.7066L42.737 18.9196L42.7391 18.9223L43.0148 18.7066ZM43.329 19.1276L43.618 18.9302L43.6151 18.9259L43.329 19.1276ZM43.6889 19.6898L43.9906 19.5124L43.9889 19.5094L43.6889 19.6898ZM43.7405 19.7772L44.0417 19.599V19.599L43.7405 19.7772ZM43.946 20.1374L43.6366 20.301L43.6373 20.3023L43.946 20.1374ZM44.2413 20.7552L43.92 20.894L43.9215 20.8974L44.2413 20.7552ZM44.2907 20.8651L43.9717 21.0091V21.0091L44.2907 20.8651ZM44.4404 21.2138L44.7674 21.0892L44.7669 21.0878L44.4404 21.2138ZM44.6654 21.8966L44.3303 21.9978L44.3304 21.9982L44.6654 21.8966ZM44.71 22.0385L44.3767 22.1452L44.3767 22.1452L44.71 22.0385ZM44.8003 22.3443L45.1404 22.2617L45.1401 22.2604L44.8003 22.3443ZM44.9532 23.1343L44.6078 23.1907L44.6079 23.1911L44.9532 23.1343ZM44.9819 23.2885L44.6385 23.3561L44.6385 23.3561L44.9819 23.2885ZM45.0226 23.5255L44.6752 23.5682L44.6753 23.569L45.0226 23.5255ZM45.1 24.7439H45.45L45.45 24.7432L45.1 24.7439ZM45.1 29.113H44.75V29.3296L44.9438 29.4262L45.1 29.113ZM46.5014 29.8116L46.3453 30.1248L46.346 30.1252L46.5014 29.8116ZM47.2977 29.8116L47.4531 30.1252L47.4536 30.125L47.2977 29.8116ZM50.5 13.65C50.2298 13.65 49.9671 13.7374 49.7507 13.8986L50.1691 14.4599C50.2648 14.3885 50.3808 14.35 50.5 14.35V13.65ZM55.35 18.4762C55.3467 15.8102 53.1759 13.6533 50.5004 13.65L50.4996 14.35C52.7925 14.3528 54.6471 16.2004 54.65 18.4771L55.35 18.4762ZM55.35 26.3195V18.4766H54.65V26.3195H55.35ZM53.6576 29.0367C54.6959 28.5264 55.353 27.4726 55.35 26.3186L54.65 26.3204C54.6523 27.2054 54.1483 28.0156 53.3488 28.4085L53.6576 29.0367ZM48.2591 31.722L53.6591 29.036L53.3473 28.4092L47.9473 31.0952L48.2591 31.722ZM45.5404 31.7221C46.3964 32.1467 47.4027 32.1467 48.2587 31.7221L47.9477 31.095C47.2876 31.4224 46.5115 31.4224 45.8514 31.095L45.5404 31.7221ZM44.945 31.4282L45.5409 31.7224L45.8508 31.0948L45.2549 30.8005L44.945 31.4282ZM45.45 36.1147V31.1144H44.75V36.1147H45.45ZM43.6344 38.8906C44.7376 38.4048 45.45 37.3165 45.45 36.1147H44.75C44.75 37.0376 44.2029 37.8754 43.3523 38.25L43.6344 38.8906ZM29.9648 44.9339L43.6349 38.8904L43.3518 38.2502L29.6818 44.2936L29.9648 44.9339ZM26.033 44.9337C27.2844 45.4888 28.7138 45.4888 29.9652 44.9337L29.6814 44.2938C28.6107 44.7687 27.3875 44.7687 26.3169 44.2938L26.033 44.9337ZM12.3642 38.8913L26.0334 44.9339L26.3165 44.2936L12.6473 38.2511L12.3642 38.8913ZM10.55 36.1146C10.5495 37.3168 11.2614 38.4052 12.3646 38.8915L12.6469 38.2509C11.7963 37.876 11.2496 37.0381 11.25 36.1149L10.55 36.1146ZM10.55 32.0123V36.1147H11.25V32.0123H10.55ZM10.5581 32.5735L11.056 32.3256L10.744 31.699L10.2461 31.9469L10.5581 32.5735ZM9.1999 32.8887C9.67072 32.8897 10.1353 32.7821 10.5569 32.5741L10.2473 31.9463C9.92269 32.1064 9.56463 32.1894 9.20137 32.1887L9.1999 32.8887ZM7.59515 32.4427C8.0796 32.7349 8.63485 32.8892 9.20094 32.8887L9.20033 32.1887C8.76182 32.189 8.33182 32.0696 7.9567 31.8433L7.59515 32.4427ZM2.08426 29.0145L7.59105 32.4402L7.9608 31.8458L2.45402 28.4202L2.08426 29.0145ZM0.65 26.4364C0.650497 27.4845 1.19267 28.458 2.0838 29.0143L2.45448 28.4205C1.76709 27.9914 1.35038 27.2416 1.35 26.436L0.65 26.4364ZM0.65 18.4766V26.4362H1.35V18.4766H0.65ZM5.49957 13.65C2.82409 13.6533 0.653319 15.8102 0.65 18.4762L1.35 18.4771C1.35283 16.2004 3.20745 14.3528 5.50043 14.35L5.49957 13.65ZM6.24926 13.8986C6.03293 13.7374 5.77019 13.65 5.5 13.65V14.35C5.61916 14.35 5.73523 14.3885 5.83091 14.4599L6.24926 13.8986ZM9.30929 16.1816L6.24938 13.8987L5.83079 14.4598L8.8907 16.7427L9.30929 16.1816ZM11.9506 13.8987L8.8907 16.1816L9.30929 16.7427L12.3692 14.4598L11.9506 13.8987ZM12.7 13.65C12.4298 13.65 12.1671 13.7374 11.9507 13.8986L12.3691 14.4599C12.4648 14.3885 12.5808 14.35 12.7 14.35V13.65ZM16.6857 15.7535C15.7905 14.4361 14.2966 13.6481 12.6996 13.65L12.7004 14.35C14.0662 14.3484 15.3426 15.0223 16.1067 16.1469L16.6857 15.7535ZM20.7987 14.5453C19.2139 14.5512 17.6526 14.9251 16.2387 15.6377L16.5538 16.2628C17.8706 15.5991 19.3249 15.2508 20.8013 15.2453L20.7987 14.5453ZM21.6832 14.9095C21.4487 14.6763 21.1309 14.5453 20.8 14.5453V15.2453C20.9463 15.2453 21.0864 15.3033 21.1895 15.4058L21.6832 14.9095ZM28.2468 21.4391L21.6832 14.9095L21.1895 15.4058L27.7531 21.9353L28.2468 21.4391ZM34.3168 14.9095L27.7531 21.4391L28.2468 21.9353L34.8105 15.4058L34.3168 14.9095ZM35.2 14.5453C34.869 14.5453 34.5513 14.6763 34.3168 14.9095L34.8105 15.4058C34.9135 15.3033 35.0537 15.2453 35.2 15.2453V14.5453ZM39.7613 15.6377C38.3474 14.9251 36.7861 14.5512 35.2013 14.5453L35.1987 15.2453C36.6751 15.2508 38.1294 15.5991 39.4462 16.2628L39.7613 15.6377ZM43.3004 13.65C41.7034 13.6481 40.2094 14.4361 39.3143 15.7535L39.8932 16.1469C40.6574 15.0223 41.9338 14.3484 43.2996 14.35L43.3004 13.65ZM44.0492 13.8986C43.8329 13.7374 43.5702 13.65 43.3 13.65V14.35C43.4192 14.35 43.5352 14.3885 43.6309 14.4599L44.0492 13.8986ZM47.1093 16.1816L44.0494 13.8987L43.6308 14.4598L46.6907 16.7427L47.1093 16.1816ZM49.7506 13.8987L46.6907 16.1816L47.1093 16.7427L50.1692 14.4598L49.7506 13.8987ZM9.44479 30.3384C9.27162 30.4227 9.06702 30.4136 8.90232 30.3147L8.54181 30.9147C8.90973 31.1357 9.36519 31.1556 9.751 30.9679L9.44479 30.3384ZM10.745 29.6963L9.44291 30.3393L9.75288 30.967L11.055 30.3239L10.745 29.6963ZM10.55 24.7439V30.0101H11.25V24.7439H10.55ZM10.6301 23.4863C10.5778 23.9031 10.5509 24.3231 10.55 24.7432L11.25 24.7447C11.2508 24.3534 11.2759 23.962 11.3246 23.5735L10.6301 23.4863ZM10.6745 23.227C10.6595 23.303 10.6416 23.3932 10.63 23.487L11.3247 23.5728C11.3327 23.5081 11.3455 23.4424 11.3613 23.3624L10.6745 23.227ZM10.7014 23.0826C10.6939 23.1283 10.6848 23.1746 10.6745 23.227L11.3613 23.3624C11.3713 23.3117 11.3825 23.2547 11.3921 23.1964L10.7014 23.0826ZM10.8601 22.2636C10.7916 22.5385 10.7444 22.8176 10.7013 23.0835L11.3923 23.1955C11.4353 22.9298 11.4786 22.6764 11.5393 22.4328L10.8601 22.2636ZM10.9542 21.9423C10.9233 22.0397 10.8884 22.1493 10.86 22.2641L11.5394 22.4324C11.5616 22.343 11.5894 22.2547 11.6214 22.154L10.9542 21.9423ZM10.9482 21.9633L10.9482 21.9633L11.6273 22.133L11.6273 22.133L10.9482 21.9633ZM10.9482 21.9633L10.9482 21.9633L11.6273 22.133L11.6273 22.133L10.9482 21.9633ZM10.9558 21.9374L10.9557 21.9375L11.6198 22.1588L11.6198 22.1588L10.9558 21.9374ZM10.9558 21.9374L10.9558 21.9374L11.6198 22.1588L11.6198 22.1588L10.9558 21.9374ZM10.9985 21.8C10.9846 21.8464 10.9699 21.8928 10.9542 21.9423L11.6214 22.1539C11.6368 22.1053 11.6532 22.0536 11.669 22.0011L10.9985 21.8ZM11.0229 21.7193L10.9987 21.7994L11.6688 22.0017L11.693 21.9215L11.0229 21.7193ZM11.2356 21.0835C11.1492 21.2991 11.0838 21.5169 11.0228 21.7194L11.6931 21.9214C11.7555 21.714 11.8124 21.526 11.8854 21.344L11.2356 21.0835ZM11.3902 20.7219C11.3392 20.8351 11.2832 20.9591 11.2336 21.0888L11.8874 21.3387C11.9285 21.2313 11.976 21.1258 12.0283 21.0097L11.3902 20.7219ZM11.4371 20.6175C11.4218 20.6519 11.4062 20.6864 11.3902 20.7219L12.0283 21.0097C12.0442 20.9744 12.0606 20.9381 12.0768 20.9016L11.4371 20.6175ZM11.7459 19.9687C11.6318 20.1833 11.5315 20.4009 11.4361 20.6196L12.0778 20.8994C12.1696 20.6888 12.2618 20.4895 12.3639 20.2974L11.7459 19.9687ZM12.0119 19.5087C11.9183 19.6595 11.8301 19.8112 11.7463 19.968L12.3635 20.2982C12.4396 20.1559 12.5201 20.0173 12.6067 19.8779L12.0119 19.5087ZM12.3905 18.9226C12.2534 19.1174 12.1287 19.3157 12.0099 19.5121L12.6088 19.8744C12.7238 19.6844 12.839 19.5015 12.9629 19.3256L12.3905 18.9226ZM12.6981 18.5095C12.597 18.6393 12.4902 18.7762 12.3874 18.927L12.966 19.3211C13.0541 19.1917 13.1473 19.072 13.2503 18.9397L12.6981 18.5095ZM12.7091 18.4954L12.6981 18.5095L13.2503 18.9397L13.2613 18.9256L12.7091 18.4954ZM13.1612 17.9589C13.0044 18.1321 12.8541 18.3106 12.7099 18.4944L13.2605 18.9266C13.3949 18.7554 13.5346 18.5895 13.6802 18.4287L13.1612 17.9589ZM13.5342 17.5658C13.4039 17.6954 13.2817 17.8266 13.1619 17.9582L13.6795 18.4294C13.7961 18.3013 13.9095 18.1798 14.0279 18.062L13.5342 17.5658ZM14.0538 17.0876C13.8776 17.2402 13.7028 17.3981 13.5342 17.5658L14.0279 18.062C14.181 17.9097 14.3428 17.7633 14.512 17.6168L14.0538 17.0876ZM14.1415 17.0125L14.0552 17.0864L14.5106 17.618L14.5968 17.5442L14.1415 17.0125ZM14.4726 16.7372C14.3556 16.8286 14.2455 16.9232 14.1412 17.0128L14.5971 17.5439C14.7034 17.4527 14.8015 17.3686 14.9036 17.2888L14.4726 16.7372ZM14.5368 16.683C14.5095 16.7069 14.4915 16.7225 14.4739 16.7362L14.9023 17.2898C14.9396 17.2609 14.9736 17.231 14.9982 17.2094L14.5368 16.683ZM14.537 16.6828L14.537 16.6828L14.998 17.2096L14.998 17.2096L14.537 16.6828ZM14.6516 16.5883C14.6058 16.6222 14.5651 16.6582 14.5368 16.683L14.9982 17.2094C15.03 17.1815 15.0494 17.1648 15.0682 17.1509L14.6516 16.5883ZM12.9455 16.1533C13.5974 16.2195 14.1902 16.5556 14.5791 17.0785L15.1407 16.6607C14.6341 15.9796 13.8628 15.5428 13.0162 15.4569L12.9455 16.1533ZM9.84937 18.5779L13.1901 16.0856L12.7715 15.5246L9.4308 18.0169L9.84937 18.5779ZM8.35036 18.5777C8.79454 18.9097 9.40545 18.9097 9.84963 18.5777L9.43054 18.0171C9.23488 18.1633 8.96512 18.1633 8.76946 18.0171L8.35036 18.5777ZM5.0099 16.0856L8.35062 18.5779L8.7692 18.0169L5.42848 15.5246L5.0099 16.0856ZM3.15 18.4766C3.15 17.282 4.05726 16.2778 5.25538 16.1532L5.183 15.457C3.63102 15.6183 2.45 16.9206 2.45 18.4766H3.15ZM3.15 26.4362V18.4766H2.45V26.4362H3.15ZM3.41855 26.9029C3.25373 26.7991 3.15346 26.6211 3.14994 26.4298L2.45006 26.4426C2.45796 26.8721 2.68289 27.2668 3.04541 27.4952L3.41855 26.9029ZM8.90696 30.3175L3.41687 26.9019L3.04709 27.4962L8.53718 30.9119L8.90696 30.3175ZM42.8994 37.2558C43.3539 37.0583 43.65 36.6112 43.65 36.1147H42.95C42.95 36.33 42.8215 36.5264 42.6204 36.6139L42.8994 37.2558ZM29.2323 43.2993L42.9014 37.255L42.6184 36.6148L28.9492 42.6591L29.2323 43.2993ZM26.7654 43.299C27.5507 43.6479 28.4476 43.6479 29.2328 43.299L28.9486 42.6593C28.3443 42.9278 27.6539 42.9278 27.0496 42.6593L26.7654 43.299ZM13.0985 37.255L26.766 43.2993L27.0491 42.6591L13.3816 36.6148L13.0985 37.255ZM12.35 36.1147C12.35 36.6112 12.6461 37.0583 13.1005 37.2558L13.3796 36.6139C13.1784 36.5264 13.05 36.33 13.05 36.1147H12.35ZM12.35 24.7439V36.1147H13.05V24.7439H12.35ZM12.6214 22.6148C12.4408 23.3102 12.3495 24.0258 12.35 24.7441L13.05 24.7437C13.0496 24.0849 13.1332 23.4286 13.2989 22.7907L12.6214 22.6148ZM20.4239 16.3442C16.7283 16.5156 13.5693 19.0517 12.6219 22.6128L13.2984 22.7928C14.1668 19.5287 17.0635 17.2008 20.4563 17.0435L20.4239 16.3442ZM27.6167 23.3399L20.6869 16.4457L20.1932 16.942L27.123 23.8362L27.6167 23.3399ZM28.3955 23.3401C28.181 23.5537 27.8318 23.5539 27.6167 23.3399L27.123 23.8362C27.611 24.3216 28.4017 24.3219 28.8895 23.836L28.3955 23.3401ZM35.3258 16.4457L28.3956 23.3399L28.8893 23.8362L35.8195 16.942L35.3258 16.4457ZM43.65 24.7434C43.6431 20.2516 40.0952 16.558 35.5892 16.3442L35.5561 17.0435C39.6924 17.2397 42.9437 20.6292 42.95 24.7444L43.65 24.7434ZM43.65 36.1147V24.7439H42.95V36.1147H43.65ZM52.85 26.3204C52.8505 26.5283 52.7324 26.7188 52.5436 26.8114L52.8518 27.4399C53.28 27.2299 53.5512 26.7953 53.55 26.3186L52.85 26.3204ZM52.85 18.4766V26.3195H53.55V18.4766H52.85ZM50.7446 16.1532C51.9427 16.2778 52.85 17.282 52.85 18.4766H53.55C53.55 16.9206 52.369 15.6183 50.817 15.457L50.7446 16.1532ZM47.6494 18.5779L50.9901 16.0856L50.5715 15.5246L47.2308 18.0169L47.6494 18.5779ZM46.1504 18.5777C46.5945 18.9097 47.2054 18.9097 47.6496 18.5777L47.2305 18.0171C47.0349 18.1633 46.7651 18.1633 46.5694 18.0171L46.1504 18.5777ZM42.8124 16.0855L46.1505 18.5778L46.5693 18.0169L43.2312 15.5246L42.8124 16.0855ZM41.4244 17.0785C41.8134 16.5556 42.4058 16.2195 43.0572 16.1533L42.9864 15.4569C42.1402 15.5428 41.3694 15.9797 40.8628 16.6607L41.4244 17.0785ZM41.4697 16.6857C41.4407 16.6602 41.399 16.6232 41.3519 16.5883L40.9353 17.1508C40.9546 17.1652 40.9745 17.1824 41.0071 17.2111L41.4697 16.6857ZM41.5307 16.7377C41.5135 16.7242 41.4959 16.7088 41.4697 16.6857L41.007 17.2111C41.0308 17.232 41.0631 17.2606 41.0984 17.2882L41.5307 16.7377ZM41.9544 17.0914C41.8203 16.975 41.6784 16.853 41.5299 16.7371L41.0992 17.2889C41.2319 17.3925 41.3616 17.5038 41.4956 17.6201L41.9544 17.0914ZM42.4673 17.5638C42.3006 17.397 42.127 17.2414 41.9545 17.0915L41.4954 17.6199C41.6631 17.7656 41.8226 17.909 41.9723 18.0587L42.4673 17.5638ZM42.8462 17.9638C42.7246 17.8289 42.5984 17.6942 42.4667 17.5631L41.973 18.0594C42.0934 18.1792 42.2107 18.3042 42.3264 18.4325L42.8462 17.9638ZM43.2925 18.4936C43.1474 18.3043 42.9985 18.1326 42.8462 17.9638L42.3264 18.4326C42.4729 18.5951 42.608 18.7512 42.737 18.9196L43.2925 18.4936ZM43.6151 18.9259C43.5098 18.7766 43.4011 18.6324 43.2904 18.4909L42.7391 18.9223C42.8446 19.0571 42.946 19.1918 43.0429 19.3292L43.6151 18.9259ZM43.9889 19.5094C43.8705 19.3126 43.7469 19.1189 43.618 18.9302L43.04 19.325C43.1607 19.5017 43.277 19.684 43.3889 19.8701L43.9889 19.5094ZM44.0417 19.599C44.0245 19.5699 44.0075 19.5412 43.9906 19.5124L43.3872 19.8672C43.4046 19.8969 43.4221 19.9264 43.4393 19.9554L44.0417 19.599ZM44.2554 19.9738C44.1865 19.8435 44.1118 19.7174 44.0417 19.599L43.4393 19.9554C43.5108 20.0763 43.5768 20.188 43.6366 20.301L44.2554 19.9738ZM44.5626 20.6164C44.4696 20.4012 44.3684 20.1854 44.2547 19.9726L43.6373 20.3023C43.7398 20.4943 43.8328 20.6921 43.92 20.894L44.5626 20.6164ZM44.6097 20.721C44.5931 20.6842 44.5769 20.6486 44.5611 20.6129L43.9215 20.8974C43.9383 20.9352 43.9553 20.9727 43.9717 21.0091L44.6097 20.721ZM44.7669 21.0878C44.7171 20.9587 44.661 20.8347 44.6097 20.721L43.9717 21.0091C44.0244 21.1257 44.0723 21.232 44.1138 21.3397L44.7669 21.0878ZM45.0004 21.7954C44.9311 21.566 44.8576 21.326 44.7674 21.0892L44.1133 21.3383C44.1936 21.5492 44.2607 21.7673 44.3303 21.9978L45.0004 21.7954ZM45.0433 21.9318C45.028 21.884 45.0137 21.8393 45.0003 21.795L44.3304 21.9982C44.3457 22.0485 44.3616 22.0983 44.3767 22.1452L45.0433 21.9318ZM45.1401 22.2604C45.1111 22.1429 45.0749 22.0305 45.0433 21.9318L44.3767 22.1452C44.4094 22.2476 44.4381 22.3376 44.4605 22.4282L45.1401 22.2604ZM45.2986 23.0778C45.2544 22.8073 45.2065 22.5341 45.1404 22.2617L44.4602 22.4269C44.5197 22.6721 44.5641 22.9235 44.6078 23.1907L45.2986 23.0778ZM45.3253 23.2209C45.315 23.1687 45.306 23.1228 45.2985 23.0774L44.6079 23.1911C44.6174 23.2491 44.6286 23.3057 44.6385 23.3561L45.3253 23.2209ZM45.37 23.4829C45.3584 23.3882 45.3404 23.2973 45.3253 23.2209L44.6385 23.3561C44.6543 23.4366 44.6672 23.5027 44.6752 23.5682L45.37 23.4829ZM45.45 24.7432C45.4491 24.3214 45.4222 23.9001 45.3699 23.4821L44.6753 23.569C44.7241 23.9588 44.7491 24.3516 44.75 24.7447L45.45 24.7432ZM45.45 29.113V24.7439H44.75V29.113H45.45ZM46.6575 29.4984L45.2561 28.7998L44.9438 29.4262L46.3453 30.1248L46.6575 29.4984ZM47.1423 29.498C46.9897 29.5736 46.8094 29.5736 46.6568 29.498L46.346 30.1252C46.6944 30.2979 47.1047 30.2979 47.4531 30.1252L47.1423 29.498ZM52.5418 26.8122L47.1418 29.4982L47.4536 30.125L52.8536 27.439L52.5418 26.8122Z" fill="#E12768"/>
</svg>
