<svg width="40" height="40" viewBox="0 0 40 40" fill="none" xmlns="http://www.w3.org/2000/svg">
<path fill-rule="evenodd" clip-rule="evenodd" d="M0 20C0 8.95599 8.95599 0 20 0C31.044 0 40 8.95599 40 20C40 31.044 31.044 40 20 40C8.95599 40 0 31.044 0 20ZM9.31732 30.2344H14.1882V15.5801H9.31732V30.2344ZM11.7529 13.5791H11.7212C10.0867 13.5791 9.02954 12.4539 9.02954 11.0477C9.02954 9.60968 10.119 8.51562 11.7853 8.51562C13.4515 8.51562 14.4769 9.60968 14.5087 11.0477C14.5087 12.4539 13.4515 13.5791 11.7529 13.5791ZM26.8814 30.2344H31.7517V21.8317C31.7517 17.3306 29.3488 15.2362 26.1441 15.2362C23.5599 15.2362 22.4017 16.6565 21.7545 17.655V15.5801H16.8839C16.9476 16.955 16.8839 30.2344 16.8839 30.2344H21.7545V22.0508C21.7545 21.6129 21.7859 21.1752 21.9147 20.8621C22.2668 19.9872 23.0682 19.0808 24.4138 19.0808C26.1761 19.0808 26.8814 20.4245 26.8814 22.3947V30.2344Z" fill="#140D26"/>
</svg>
