<?xml version="1.0" encoding="utf-8"?>
<svg width="11px" height="10px" viewBox="0 0 11 10" version="1.1" xmlns:xlink="http://www.w3.org/1999/xlink" xmlns="http://www.w3.org/2000/svg">
  <path d="M3.28058 0L7.71625 0C8.12133 0 8.47466 0.231468 8.65278 0.571344L8.88547 0.98154C7.83116 1.42104 6.98365 1.87811 6.13045 2.73074C6.5556 3.31087 6.87452 3.99062 6.92335 4.74948C6.97218 5.50544 6.75961 6.3522 6.13331 7.21944C6.98365 8.08672 7.80244 8.56724 8.8826 9.01844L8.63554 9.45796C8.44021 9.80664 8.0811 10 7.71625 10L3.28058 10C2.91285 10 2.55662 9.80368 2.36126 9.45796L2.1142 9.01844C3.19439 8.56724 4.01314 8.08672 4.86352 7.21944C4.23723 6.3522 4.02465 5.50544 4.07349 4.74948C4.12232 3.9877 4.4412 3.31087 4.86639 2.73074C4.01601 1.87811 3.16853 1.42104 2.11133 0.98154L2.34403 0.571344C2.52215 0.231468 2.87551 0 3.28058 0ZM6.61029 1.08398C6.26556 1.32424 5.87195 1.63482 5.4985 2.004C5.12501 1.63189 4.73145 1.32424 4.38672 1.08398L6.61029 1.08398ZM9.09172 8.65207C8.84179 8.57299 8.51713 8.44407 8.10345 8.23311L8.82741 6.95855L9.93633 4.99839L8.82741 3.03825L8.10059 1.75785C8.51426 1.5469 8.83888 1.41798 9.08882 1.33887L9.74383 2.4962L9.74673 2.4962L10.8557 4.45635C11.0654 4.82555 11.0395 5.26795 10.8212 5.60199L9.74673 7.49767L9.09172 8.65207ZM2.89239 8.23311L2.17131 6.95855L1.06239 5.00135L2.17131 3.04118L2.89814 1.76078C2.48445 1.54982 2.15982 1.4209 1.90988 1.3418L1.25487 2.49914L1.252 2.49914L0.143084 4.45635C-0.0666336 4.82555 -0.0379052 5.27091 0.177558 5.60199L1.252 7.49767L1.90701 8.65207C2.15407 8.57591 2.4787 8.44407 2.89239 8.23311ZM5.49852 6.42802C5.86337 5.8479 5.98975 5.29998 5.95816 4.81362C5.92658 4.33894 5.75132 3.90238 5.49852 3.50684C5.24572 3.90238 5.0676 4.3419 5.03884 4.81362C5.00725 5.29706 5.13367 5.84494 5.49852 6.42802ZM4.34863 8.91903C4.79967 8.60259 5.1789 8.28323 5.49778 7.96387C5.81666 8.28323 6.19588 8.60259 6.64692 8.91903L4.34863 8.91903Z" id="Shape" fill="#24D9FF" fill-rule="evenodd" stroke="none" />
</svg>