<svg viewBox="0 0 16 24" fill="none" xmlns="http://www.w3.org/2000/svg">
    <path fill-rule="evenodd" clip-rule="evenodd" d="M0 8.4375C0 3.78506 3.5888 0 8 0C12.4112 0 16 3.78506 16 8.4375C16 9.96277 15.6098 11.4576 14.8716 12.7603L8.68302 23.6582C8.5636 23.8686 8.34884 23.9981 8.11636 24H8.11107C7.88058 24 7.66627 23.8744 7.54462 23.6676L1.19418 12.8743C0.412844 11.5434 0 10.0094 0 8.4375ZM8.10098 21.9462L13.7274 12.0383C14.3417 10.9541 14.6711 9.7088 14.6711 8.4375C14.6711 4.56047 11.676 1.39688 8 1.39688C4.324 1.39688 1.32444 4.56047 1.32444 8.4375C1.32444 9.74766 1.67707 11.0257 2.32742 12.1334L8.10098 21.9462Z" fill="#9B9B9B"/>
    <path fill-rule="evenodd" clip-rule="evenodd" d="M4 8C4 5.7944 5.7944 4 8 4C10.2056 4 12 5.7944 12 8C12 10.1674 10.2624 12 8 12C5.7652 12 4 10.1915 4 8ZM5.32444 8C5.32444 9.47409 6.52191 10.6756 8 10.6756C9.50151 10.6756 10.6711 9.45258 10.6711 8C10.6711 6.5296 9.4704 5.32444 8 5.32444C6.5296 5.32444 5.32444 6.5296 5.32444 8Z" fill="#9B9B9B"/>
</svg>
