<?xml version="1.0" encoding="UTF-8"?>
<svg width="11px" height="10px" viewBox="0 0 11 10" version="1.1" xmlns="http://www.w3.org/2000/svg" xmlns:xlink="http://www.w3.org/1999/xlink">
    <!-- Generator: Sketch 61 (89581) - https://sketch.com -->
    <title>Vector Copy 6</title>
    <desc>Created with Sketch.</desc>
    <g id="ready-pages" stroke="none" stroke-width="1" fill="none" fill-rule="evenodd">
        <g id="01_02_Desktop-HD-Copy-6" transform="translate(-310.000000, -2036.000000)" fill="#24D9FF">
            <g id="Text" transform="translate(250.000000, 674.000000)">
                <g id="Vector-Copy-6" transform="translate(60.000000, 1362.000000)">
                    <path d="M5.49807004,0 L7.71590377,0 C8.1209784,0 8.4743138,0.231468 8.65243507,0.571344 L8.88512415,0.98154 C7.83081438,1.421036 6.98330442,1.878112 6.13009804,2.730736 C6.55524766,3.310872 6.87416881,3.990624 6.92300091,4.74948 C6.971833,5.50544 6.75925819,6.3522 6.1329659,7.21944 C6.98330442,8.08672 7.80209655,8.56724 8.88225629,9.01844 L8.63518866,9.45796 C8.43986026,9.80664 8.08074987,10 7.71590377,10 L5.49807004,10 L3.28022846,10 C2.91250272,10 2.55627196,9.80368 2.36091607,9.45796 L2.11385236,9.01844 C3.19404353,8.56724 4.01279637,8.08672 4.86317418,7.21944 C4.23688189,6.3522 4.02430708,5.50544 4.07313917,4.74948 C4.12197127,3.987696 4.44085313,3.310872 4.86604204,2.730736 C4.01566423,1.878112 3.1681857,1.421036 2.11098058,0.98154 L2.34368144,0.571344 C2.52179878,0.231468 2.87515775,0 3.28022846,0 L5.49807004,0 Z M5.49807004,8.91884 L6.64721544,8.91884 C6.19617656,8.6024 5.8169519,8.28304 5.49807004,7.96368 C5.17918818,8.28304 4.79996352,8.6024 4.34892464,8.91884 L5.49807004,8.91884 Z M5.49807004,6.42836 C5.86291614,5.84824 5.98929817,5.30032 5.95771249,4.81396 C5.9261268,4.33928 5.75087338,3.902724 5.49807004,3.50718 C5.2452667,3.902724 5.06714543,4.34224 5.03838831,4.81396 C5.00680262,5.2974 5.13322394,5.84528 5.49807004,6.42836 Z M5.49807004,2.004104 C5.87151971,1.634924 6.26512292,1.324348 6.60985476,1.084092 L5.49807004,1.084092 L4.38628532,1.084092 C4.73101716,1.324348 5.12458109,1.631996 5.49807004,2.004104 Z M2.89239238,8.23324 L2.17131159,6.95868 L1.06239473,5.00148 L2.17131159,3.041312 L2.89813987,1.760916 C2.48444989,1.549956 2.15982053,1.421036 1.90988111,1.341928 L1.25487492,2.499268 L1.2519992,2.499268 L0.143083913,4.45648 C-0.0666336485,4.82568 -0.0379052492,5.27104 0.177557883,5.60212 L1.2519992,7.4978 L1.90700933,8.6522 C2.15407304,8.57604 2.47870239,8.4442 2.89239238,8.23324 Z M8.10373199,8.23324 C8.51741019,8.4442 8.84206704,8.57312 9.09200253,8.6522 L9.74701266,7.4978 L10.8214367,5.60212 C11.0397865,5.26808 11.0656365,4.82568 10.8559295,4.45648 L9.74701266,2.496336 L9.74410552,2.496336 L9.08909539,1.339 C8.8391599,1.418108 8.51454234,1.547028 8.10086413,1.757984 L8.82768848,3.038384 L9.93660535,4.99852 L8.82768848,6.95868 L8.10373199,8.23324 Z" id="Shape"></path>
                </g>
            </g>
        </g>
    </g>
</svg>