<svg width="126" height="39" viewBox="0 0 2557 774" fill="none" xmlns="http://www.w3.org/2000/svg">
<path fill-rule="evenodd" clip-rule="evenodd" d="M433.847 0H608.855C640.819 0 668.702 17.9156 682.757 44.2221L701.119 75.9713C617.923 109.988 551.048 145.366 483.72 211.359C517.271 256.261 542.434 308.874 546.287 367.61C550.141 426.12 533.366 491.659 483.947 558.786C551.048 625.913 615.656 663.105 700.892 698.029L681.397 732.046C665.982 759.033 637.645 774 608.855 774H433.847H258.84C229.823 774 201.713 758.806 186.298 732.046L166.802 698.029C252.039 663.105 316.647 625.913 383.748 558.786C334.329 491.659 317.554 426.12 321.407 367.61C325.261 308.648 350.424 256.261 383.975 211.359C316.874 145.366 249.999 109.988 166.576 75.9713L184.938 44.2221C198.993 17.9156 226.876 0 258.84 0H433.847ZM433.847 690.318H524.525C488.934 665.826 459.01 641.107 433.847 616.388C408.684 641.107 378.761 665.826 343.17 690.318H433.847ZM433.847 497.555C462.637 452.653 472.612 410.245 470.118 372.599C467.625 335.861 453.796 302.071 433.847 271.456C413.898 302.071 399.843 336.088 397.576 372.599C395.083 410.018 405.057 452.426 433.847 497.555ZM433.847 155.117C463.318 126.543 494.375 102.505 521.578 83.9086H433.847H346.117C373.32 102.505 404.377 126.316 433.847 155.117ZM228.236 637.252L171.336 538.602L83.8326 387.113L171.336 235.398L228.69 136.295C196.046 119.967 170.43 109.988 150.707 103.865L99.021 193.443H98.7943L11.2906 344.932C-5.25801 373.507 -2.99107 407.977 14.0109 433.603L98.7943 580.33L150.48 669.681C169.976 663.785 195.592 653.58 228.236 637.252ZM639.458 637.252C672.102 653.58 697.719 663.558 717.441 669.681L769.127 580.33L853.911 433.603C871.139 407.75 873.18 373.507 856.631 344.932L769.127 193.217H768.901L717.214 103.638C697.492 109.762 671.876 119.74 639.232 136.068L696.585 235.171L784.089 386.887L696.585 538.602L639.458 637.252Z" fill="url(#paint0_linear)"/>
<path fill-rule="evenodd" clip-rule="evenodd" d="M1254.77 111.722C1279.53 128.87 1298.62 152.55 1312.01 181.946C1325 211.342 1331.5 244.413 1331.5 280.75C1331.5 317.087 1325 350.158 1312.01 379.554C1299.02 408.95 1279.94 432.63 1254.77 449.778C1230 466.926 1199.96 475.5 1165.45 475.5H1032.7C1022.95 475.5 1015.24 472.233 1008.74 465.701C1002.25 459.577 999 451.819 999 442.021V119.887C999 110.089 1002.25 102.331 1008.74 95.7987C1015.24 89.2662 1023.36 86 1032.7 86H1165.45C1199.96 86 1230 94.574 1254.77 111.722ZM1249.49 384.861C1268.57 357.507 1278.32 322.803 1278.32 281.158C1278.32 239.105 1268.57 204.81 1249.09 177.455C1229.6 150.1 1200.77 136.627 1162.61 136.627H1053V426.506H1162.61C1201.59 425.689 1230.41 412.216 1249.49 384.861Z" fill="white"/>
<path fill-rule="evenodd" clip-rule="evenodd" d="M1641.14 336.658C1635.81 341.082 1629.66 343.495 1622.69 343.495H1425.9C1428.36 370.042 1439.02 391.761 1457.06 407.85C1475.1 423.939 1497.24 431.983 1523.48 431.983C1541.52 431.983 1555.87 429.57 1566.93 424.341C1578 419.112 1587.84 412.677 1596.45 404.632C1602.19 401.415 1607.52 399.806 1612.85 399.806C1619 399.806 1624.33 401.817 1628.84 406.241C1632.94 410.666 1635.4 415.895 1635.4 421.526C1635.4 429.168 1631.71 436.005 1624.33 442.441C1613.67 452.898 1599.32 462.15 1581.28 469.389C1563.24 476.629 1545.21 480.249 1526.35 480.249C1496.01 480.249 1469.36 474.216 1446.4 461.747C1423.44 449.279 1405.82 431.983 1393.11 409.459C1380.4 387.337 1374.25 361.997 1374.25 333.842C1374.25 303.274 1380.81 275.923 1393.52 252.996C1406.23 229.668 1423.44 211.97 1444.35 199.502C1465.26 187.033 1488.22 181 1512.41 181C1536.19 181 1558.74 187.033 1579.64 199.099C1600.55 211.166 1617.36 227.657 1630.07 248.974C1642.78 270.292 1649.34 294.023 1649.75 320.167C1649.34 326.602 1646.47 331.831 1641.14 336.658ZM1458.29 246.159C1443.12 257.823 1432.87 275.521 1427.95 299.654H1593.17V295.229C1591.12 275.923 1582.51 259.834 1566.52 247.365C1550.54 234.897 1532.5 228.863 1512.41 228.863C1491.5 228.863 1473.46 234.494 1458.29 246.159Z" fill="white"/>
<path fill-rule="evenodd" clip-rule="evenodd" d="M1946.48 188.325C1951.33 192.802 1953.75 198.5 1953.75 204.605C1953.75 207.861 1952.54 212.744 1949.71 218.442L1845.17 458.565C1843.15 463.449 1839.92 467.112 1835.89 470.368C1831.85 473.217 1827.41 474.845 1822.57 475.252C1816.51 476.066 1811.26 474.845 1806.42 471.996C1801.58 469.147 1797.54 464.67 1795.12 458.565L1690.58 218.442C1688.56 212.744 1687.75 208.268 1687.75 204.605C1687.75 198.5 1690.17 193.209 1695.02 188.325C1699.86 183.441 1705.91 181 1713.58 181C1719.23 181 1724.08 182.22 1728.52 185.069C1732.96 187.918 1736.59 191.988 1739.01 197.686L1822.16 392.633L1905.31 197.686C1910.56 186.697 1918.23 181 1929.13 181C1935.59 181.406 1941.64 183.848 1946.48 188.325Z" fill="white"/>
<path fill-rule="evenodd" clip-rule="evenodd" d="M2262.18 407.947C2249.3 430.441 2232 448.517 2209.87 460.969C2187.73 473.822 2163.18 480.249 2136.62 480.249C2110.06 480.249 2085.52 473.822 2063.38 460.969C2041.25 448.115 2023.54 430.441 2011.07 407.947C1998.19 385.453 1991.75 359.746 1991.75 331.227C1991.75 302.708 1998.19 277 2011.07 254.105C2023.94 231.209 2041.25 213.134 2063.38 200.28C2085.52 187.426 2110.06 181 2136.62 181C2163.18 181 2187.73 187.426 2209.87 200.28C2232 213.134 2249.3 230.808 2262.18 254.105C2275.06 277 2281.5 303.11 2281.5 331.227C2281.5 359.344 2275.06 385.052 2262.18 407.947ZM2217.11 278.206C2209.06 262.54 2197.79 250.49 2183.71 242.055C2169.62 233.619 2153.93 229.201 2136.62 229.201C2119.32 229.201 2103.62 233.619 2089.54 242.055C2075.45 250.49 2064.19 262.54 2056.14 278.206C2048.09 293.871 2043.66 311.545 2043.66 331.227C2043.66 350.508 2047.69 367.78 2056.14 383.445C2064.19 398.709 2075.45 410.759 2089.54 419.194C2103.62 427.63 2119.32 432.048 2136.62 432.048C2153.93 432.048 2169.62 427.63 2183.71 419.194C2197.79 410.759 2209.06 398.709 2217.11 383.445C2225.16 368.181 2229.59 350.909 2229.59 331.227C2229.18 311.143 2225.16 293.469 2217.11 278.206Z" fill="white"/>
<path fill-rule="evenodd" clip-rule="evenodd" d="M2557 448.246C2557 455.568 2554.17 462.076 2548.93 467.364C2543.27 472.652 2537.22 475.499 2530.76 475.499C2522.28 475.499 2515.01 471.432 2509.36 463.703L2435.47 369.74L2362.8 463.703C2360.37 467.364 2357.14 470.211 2353.51 471.838C2349.88 473.872 2345.84 474.686 2341.8 474.686C2335.75 474.686 2329.69 472.245 2324.44 467.771C2319.19 463.296 2316.37 457.602 2316.37 451.5C2316.37 444.992 2318.38 439.297 2322.42 434.823L2405.19 331.097L2320.4 223.303C2316.77 218.422 2314.75 213.134 2314.75 207.846C2314.75 200.524 2317.58 194.016 2322.83 189.135C2328.07 183.847 2334.13 181.406 2341.4 181.406C2350.28 181.406 2357.55 185.067 2362.8 192.389L2438.3 288.386L2509.36 192.796C2515.01 185.067 2521.87 181 2530.35 181C2537.22 181 2543.27 183.44 2548.12 187.915C2552.96 192.389 2555.39 198.084 2555.39 204.185C2555.39 211.1 2553.37 216.795 2549.33 221.269L2467.77 324.995L2551.35 431.975C2554.98 437.263 2557 442.551 2557 448.246Z" fill="white"/>
<path d="M1787.7 685.301C1779.06 682.423 1772.39 678.31 1767.28 672.964C1764.93 670.907 1763.75 667.617 1763.75 664.327C1763.75 661.86 1764.53 659.804 1765.71 657.747C1766.89 656.102 1768.46 655.28 1770.03 655.28C1771.6 655.28 1773.96 656.102 1776.32 658.158C1787.31 667.617 1799.88 672.141 1814.02 672.141C1823.83 672.141 1831.69 670.085 1836.79 665.972C1842.29 661.86 1844.65 655.691 1844.65 647.877C1844.65 641.708 1842.29 637.184 1837.19 633.894C1832.08 630.604 1824.23 627.726 1813.23 624.847C1802.63 622.379 1794.38 619.501 1787.31 616.211C1780.64 612.92 1775.53 608.397 1771.6 603.05C1767.68 597.293 1766.11 590.301 1766.11 581.665C1766.11 573.029 1768.07 565.215 1772.39 558.635C1776.71 552.055 1782.21 546.708 1789.67 543.007C1797.13 539.306 1805.77 537.25 1815.19 537.25C1823.83 537.25 1832.08 538.483 1839.54 541.362C1847 544.241 1853.29 548.353 1858.39 553.7C1860.75 556.167 1862.32 559.046 1862.32 562.336C1862.32 564.804 1861.54 566.86 1860.36 568.505C1859.18 570.15 1857.61 571.384 1855.64 571.384C1854.07 571.384 1852.11 570.561 1849.36 568.505C1843.47 563.57 1838.37 559.869 1833.26 557.812C1828.15 555.756 1822.26 554.522 1815.19 554.522C1805.77 554.522 1798.31 556.579 1792.81 561.102C1787.31 565.626 1784.96 571.795 1784.96 579.609C1784.96 586.189 1787.31 591.535 1792.02 594.825C1796.74 598.115 1804.2 601.405 1814.8 604.284C1825.8 607.163 1834.44 610.042 1841.51 612.92C1848.18 615.799 1853.68 619.912 1857.61 625.258C1861.54 630.604 1863.5 637.184 1863.5 645.821C1863.5 654.457 1861.54 661.86 1857.22 668.44C1852.9 675.02 1847 679.955 1839.54 683.656C1832.08 687.358 1823.44 689.003 1813.62 689.003C1805.38 689.825 1796.34 688.591 1787.7 685.301Z" fill="white"/>
<path d="M1905 682.868C1897.92 678.48 1892.08 672.497 1888.33 664.52C1884.58 656.543 1882.5 647.37 1882.5 636.999C1882.5 626.629 1884.58 617.456 1888.33 609.479C1892.08 601.501 1897.92 595.519 1905 591.131C1912.08 586.744 1920.42 584.75 1930 584.75C1939.58 584.75 1947.92 586.744 1955 591.131C1962.08 595.519 1967.92 601.501 1971.67 609.479C1975.42 617.456 1977.5 626.629 1977.5 636.999C1977.5 647.37 1975.42 656.543 1971.67 664.52C1967.92 672.497 1962.08 678.48 1955 682.868C1947.92 687.255 1939.58 689.249 1930 689.249C1920.42 689.249 1912.08 686.856 1905 682.868ZM1950.42 663.723C1955 657.74 1957.5 648.965 1957.5 637.398C1957.5 625.832 1955 617.057 1950.42 611.074C1945.83 605.091 1938.75 601.9 1930.42 601.9C1921.67 601.9 1915 605.091 1910.42 611.074C1905.83 617.057 1903.33 625.832 1903.33 637.398C1903.33 648.965 1905.83 657.74 1910.42 663.723C1915 669.706 1921.67 672.896 1930.83 672.896C1938.75 672.896 1945.83 669.706 1950.42 663.723Z" fill="white"/>
<path d="M2026.22 564.742C2022.96 568.381 2021.74 574.04 2021.74 581.316V586.976H2040.88C2043.73 586.976 2045.76 587.784 2046.99 588.997C2048.61 590.614 2049.02 592.231 2049.02 595.061C2049.02 597.486 2048.21 599.507 2046.99 601.124C2045.36 602.741 2043.32 603.145 2040.88 603.145H2021.74V679.143C2021.74 682.377 2020.93 684.803 2018.89 686.824C2016.86 688.441 2014.82 689.249 2011.97 689.249C2009.12 689.249 2006.68 688.441 2005.05 686.824C2003.42 685.207 2002.2 682.377 2002.2 679.143V603.55H1990.39C1987.54 603.55 1985.51 602.741 1984.29 601.528C1982.66 599.912 1982.25 598.295 1982.25 595.465C1982.25 593.039 1983.06 591.018 1984.29 589.401C1985.91 587.784 1987.95 587.38 1990.39 587.38H2002.2V584.55C2002.2 571.614 2005.05 561.913 2011.16 554.636C2017.26 547.36 2025.81 543.317 2036.81 542.509L2041.69 542.105C2045.76 541.7 2048.61 542.509 2050.65 543.722C2052.69 544.934 2053.5 546.956 2053.5 549.785C2053.5 554.636 2050.65 557.466 2045.36 558.274L2040.47 558.679C2034.36 559.083 2029.48 561.104 2026.22 564.742Z" fill="white"/>
<path d="M2108.52 675.051C2109.71 676.291 2110.5 678.357 2110.5 680.836C2110.5 683.729 2109.71 685.795 2107.73 687.448C2105.75 689.1 2102.98 689.514 2099.02 689.1L2093.88 688.687C2083.59 687.861 2076.06 684.142 2071.31 678.357C2066.17 672.158 2063.79 663.068 2063.79 651.085V600.672H2052.31C2046.77 600.672 2044 597.78 2044 592.408C2044 589.929 2044.79 587.862 2045.98 586.21C2047.56 584.557 2049.54 584.144 2051.92 584.144H2063.4V562.243C2063.4 558.937 2064.19 556.458 2065.77 554.392C2067.36 552.739 2069.73 551.5 2072.5 551.5C2075.27 551.5 2077.65 552.326 2079.63 554.392C2081.21 556.045 2082.4 558.937 2082.4 562.243V584.144H2101C2103.77 584.144 2105.75 584.97 2106.94 586.21C2108.52 587.862 2108.92 589.515 2108.92 592.408C2108.92 595.3 2108.13 596.953 2106.94 598.606C2105.36 599.846 2103.38 600.672 2101 600.672H2082.4V651.911C2082.4 658.522 2083.59 663.481 2085.96 666.373C2088.34 669.679 2092.29 671.332 2097.04 671.745L2102.19 672.158C2105.36 672.985 2107.34 673.811 2108.52 675.051Z" fill="white"/>
<path d="M2262.78 585.155C2265.18 585.155 2267.19 585.965 2269.19 587.99C2271.2 589.61 2272 592.04 2272 594.47C2272 595.686 2271.6 597.306 2271.2 598.116L2239.51 682.364C2238.71 684.389 2237.51 686.414 2235.5 687.629C2233.9 688.844 2231.89 689.249 2229.49 689.249C2227.48 689.249 2225.48 688.844 2223.87 687.629C2222.27 686.414 2220.66 684.794 2219.86 682.364L2195 615.532L2170.93 682.364C2170.13 684.389 2168.93 686.414 2167.32 687.629C2165.72 688.844 2163.71 689.249 2161.71 689.249C2159.7 689.249 2157.7 688.844 2156.09 687.629C2154.09 686.414 2152.89 684.794 2152.08 682.364L2120.8 598.116C2120.4 596.901 2120 595.686 2120 594.47C2120 591.635 2121.2 589.205 2123.21 587.585C2125.21 585.965 2127.62 584.75 2130.03 584.75C2134.04 584.75 2136.44 586.775 2137.65 590.825L2162.11 661.707L2187.38 591.23C2188.18 589.205 2189.38 587.18 2190.99 586.37C2192.59 585.155 2194.6 584.75 2196.2 584.75C2197.8 584.75 2199.81 585.155 2201.41 586.37C2203.02 587.585 2204.22 589.205 2205.02 591.23L2230.29 661.302L2254.75 590.825C2256.36 587.18 2258.76 585.155 2262.78 585.155Z" fill="white"/>
<path d="M2357.62 595.12C2363.74 601.9 2367 611.872 2367 625.832V678.879C2367 682.07 2366.18 684.463 2364.55 686.059C2362.92 687.654 2360.47 688.452 2357.62 688.452C2354.77 688.452 2352.32 687.654 2350.69 685.66C2349.06 684.064 2348.24 681.671 2348.24 678.48V671.301C2345.79 676.885 2342.12 681.272 2337.23 684.463C2332.33 687.654 2326.63 689.249 2320.1 689.249C2313.98 689.249 2308.27 688.053 2302.97 685.261C2297.67 682.469 2293.59 678.879 2290.74 674.093C2287.88 669.307 2286.25 664.122 2286.25 658.139C2286.25 650.959 2287.88 645.375 2291.55 640.988C2295.22 636.999 2300.93 633.809 2309.09 632.213C2317.24 630.618 2328.66 629.421 2342.94 629.421H2347.42V623.438C2347.42 615.86 2345.79 610.276 2342.94 606.687C2340.08 603.097 2335.19 601.501 2328.66 601.501C2324.18 601.501 2319.69 602.299 2316.02 603.496C2311.94 604.692 2307.46 606.687 2302.97 608.681C2299.3 610.675 2296.85 611.872 2295.63 611.872C2293.59 611.872 2291.96 611.074 2290.74 609.479C2289.51 607.883 2288.7 605.889 2288.7 603.895C2288.7 601.9 2289.1 599.906 2290.33 598.311C2291.55 596.715 2293.18 595.12 2295.63 593.524C2300.12 590.732 2305.42 588.738 2311.54 587.143C2317.65 585.547 2323.36 584.75 2329.07 584.75C2342.12 585.148 2351.5 588.339 2357.62 595.12ZM2341.31 666.116C2345.79 660.931 2348.24 654.549 2348.24 646.173V640.988H2344.57C2334.37 640.988 2326.62 641.387 2321.32 642.583C2316.02 643.78 2311.94 644.977 2309.5 647.37C2307.05 649.763 2305.83 652.954 2305.83 656.942C2305.83 661.728 2307.46 665.717 2310.72 668.908C2313.98 672.099 2318.47 673.694 2323.36 673.694C2330.7 673.694 2336.41 671.301 2341.31 666.116Z" fill="white"/>
<path d="M2452.5 592.943C2452.5 596.167 2451.7 598.182 2450.5 599.794C2449.31 601.405 2446.52 602.211 2443.33 602.614L2437.75 603.42C2429.78 604.226 2423.8 607.45 2420.21 612.688C2416.23 617.927 2414.63 624.374 2414.63 631.627V679.176C2414.63 682.399 2413.83 684.817 2411.84 686.832C2410.25 688.443 2407.85 689.249 2405.06 689.249C2402.27 689.249 2399.88 688.443 2398.29 686.832C2396.3 685.22 2395.5 682.802 2395.5 679.176V594.555C2395.5 591.332 2396.3 588.914 2398.29 587.302C2400.28 585.69 2402.27 584.884 2405.06 584.884C2407.46 584.884 2409.85 585.69 2411.44 587.302C2413.04 588.914 2413.83 591.332 2413.83 594.555V604.629C2416.23 598.585 2420.21 593.749 2424.99 590.929C2429.78 587.705 2435.36 585.69 2441.34 585.287L2444.13 584.884C2449.31 584.078 2452.5 586.899 2452.5 592.943Z" fill="white"/>
<path d="M2540.33 664.732C2541.54 666.34 2541.94 668.349 2541.94 670.359C2541.94 674.378 2539.52 677.594 2535.09 680.407C2530.65 683.221 2525.81 685.23 2520.57 686.838C2515.32 688.446 2510.08 689.249 2505.24 689.249C2490.32 689.249 2478.62 684.426 2470.15 675.182C2461.68 665.938 2457.25 653.076 2457.25 636.999C2457.25 626.549 2459.26 617.305 2462.89 609.669C2466.52 601.63 2471.77 595.601 2478.62 591.18C2485.48 586.759 2493.14 584.75 2502.01 584.75C2514.52 584.75 2524.6 589.171 2531.86 597.611C2539.12 606.453 2542.75 618.109 2542.75 632.578C2542.75 638.205 2540.33 641.019 2535.89 641.019H2476.61C2477.82 662.321 2487.5 673.173 2505.24 673.173C2510.08 673.173 2514.11 672.369 2517.34 671.163C2520.97 669.957 2524.6 667.948 2528.23 665.938C2528.63 665.536 2529.84 665.134 2531.46 664.33C2533.07 663.526 2534.68 663.124 2535.89 663.124C2537.51 662.321 2539.12 663.124 2540.33 664.732ZM2484.67 607.257C2480.24 612.482 2477.41 619.717 2476.61 628.559H2526.21C2525.81 619.315 2523.79 612.08 2519.76 606.855C2515.73 601.63 2510.08 599.219 2502.82 599.219C2495.16 599.621 2489.11 602.032 2484.67 607.257Z" fill="white"/>
<defs>
<linearGradient id="paint0_linear" x1="712.527" y1="136.068" x2="77.5697" y2="703.911" gradientUnits="userSpaceOnUse">
<stop stop-color="#ED1A6B"/>
<stop offset="0.473958" stop-color="#A536E9"/>
<stop offset="1" stop-color="#00C2FF"/>
</linearGradient>
</defs>
</svg>
