<svg width="21" height="35" viewBox="0 0 21 35" fill="none" xmlns="http://www.w3.org/2000/svg">
<path fill-rule="evenodd" clip-rule="evenodd" d="M18.2761 0H2.7239C1.22193 0 0 1.23307 0 2.74873V32.2513C0 33.7669 1.22193 35 2.7239 35H18.2761C19.7781 35 21 33.7669 21 32.2513V2.74873C21 1.23307 19.7781 0 18.2761 0ZM7.32582 2.05078H13.6808V3.08328H7.32582V2.05078ZM18.2761 32.9492C18.6574 32.9492 18.9677 32.6361 18.9677 32.2513H18.9677V2.74873C18.9677 2.36387 18.6574 2.05078 18.276 2.05078H15.7129V3.36123C15.7129 4.3387 14.9259 5.13399 13.9586 5.13399H7.04794C6.08058 5.13399 5.29356 4.3387 5.29356 3.36123V2.05078H2.7239C2.34252 2.05078 2.03226 2.36387 2.03226 2.74873V32.2513C2.03226 32.6361 2.34252 32.9492 2.7239 32.9492H18.2761Z" fill="url(#paint0_linear)"/>
<path d="M13.9293 29H8.07068C7.47938 29 7 29.4477 7 30C7 30.5523 7.47938 31 8.07068 31H13.9293C14.5206 31 15 30.5523 15 30C15 29.4477 14.5206 29 13.9293 29Z" fill="url(#paint1_linear)"/>
<path fill-rule="evenodd" clip-rule="evenodd" d="M15.132 16.4782H15.9768C16.5418 16.4782 17 16.9349 17 17.4983C17 18.0617 16.542 18.5185 15.9771 18.5185H15.1331C15.0119 19.0701 14.7944 19.586 14.4992 20.0476L15.1018 20.6506C15.5006 21.0496 15.4996 21.6956 15.0995 22.0934C14.8999 22.2918 14.6386 22.391 14.3773 22.391C14.1149 22.391 13.8527 22.291 13.6528 22.0911L13.0556 21.4936C12.5941 21.7898 12.0781 22.0084 11.5262 22.1305V22.9798C11.5262 23.5432 11.0682 24 10.5033 24C9.93837 24 9.48037 23.5432 9.48037 22.9798V22.1319C8.92934 22.0108 8.41399 21.7936 7.95271 21.4988L7.35729 22.0945C7.15741 22.2944 6.89513 22.3945 6.63278 22.3945C6.37152 22.3945 6.11026 22.2953 5.91058 22.0968C5.51047 21.6991 5.50938 21.0531 5.90826 20.6541L6.50613 20.0559C6.2088 19.5931 5.98975 19.0754 5.86768 18.5218H5.02294C4.458 18.5218 4 18.0651 4 17.5016C4 16.9382 4.458 16.4814 5.02294 16.4814H5.86693C5.98873 15.9269 6.20791 15.4084 6.50559 14.9449L5.90471 14.3438C5.50584 13.9447 5.50686 13.2987 5.90703 12.901C6.30707 12.5032 6.9548 12.5042 7.35367 12.9033L7.95169 13.5017C8.41221 13.2072 8.92682 12.9901 9.47689 12.8687V12.0202C9.47689 11.4568 9.93489 11 10.4998 11C11.0648 11 11.5228 11.4568 11.5228 12.0202V12.8689C12.0739 12.9905 12.5894 13.2081 13.0506 13.5034L13.6514 12.9023C14.0503 12.5032 14.6979 12.5022 15.0981 12.9C15.4982 13.2977 15.4993 13.9437 15.1004 14.3427L14.4958 14.9477C14.7919 15.4096 15.0102 15.926 15.132 16.4782ZM7.80254 17.5001C7.80254 18.9899 9.01254 20.202 10.4998 20.202C11.9871 20.202 13.1971 18.9899 13.1971 17.5001C13.1971 16.0102 11.9871 14.7981 10.4998 14.7981C9.01254 14.7981 7.80254 16.0102 7.80254 17.5001Z" fill="url(#paint2_linear)"/>
<defs>
<linearGradient id="paint0_linear" x1="0" y1="0" x2="0" y2="35" gradientUnits="userSpaceOnUse">
<stop stop-color="#9B9B9B"/>
<stop offset="0.0001" stop-color="#D8D8D8"/>
</linearGradient>
<linearGradient id="paint1_linear" x1="7" y1="29" x2="7" y2="31" gradientUnits="userSpaceOnUse">
<stop offset="0.0002" stop-color="#9B9B9B"/>
<stop offset="0.0003" stop-color="#D8D8D8"/>
</linearGradient>
<linearGradient id="paint2_linear" x1="4" y1="11" x2="4" y2="24" gradientUnits="userSpaceOnUse">
<stop offset="0.0002" stop-color="#9B9B9B"/>
<stop offset="0.0003" stop-color="#D8D8D8"/>
</linearGradient>
</defs>
</svg>
