<svg width="18" height="20" viewBox="0 0 18 20" fill="none" xmlns="http://www.w3.org/2000/svg">
<path d="M9.30217 12.553H8.15872C7.74292 12.553 7.40612 12.2162 7.40612 11.8004C7.40612 11.3846 7.74292 11.0478 8.15872 11.0478H10.1712C10.4456 11.0478 10.6702 10.8233 10.6702 10.5489C10.6702 10.2744 10.4456 10.0499 10.1712 10.0499H9.22733V9.35553C9.22733 9.0811 9.0028 8.85657 8.72837 8.85657C8.45394 8.85657 8.22941 9.0811 8.22941 9.35553V10.0499H8.15872C7.19407 10.0499 6.4082 10.8358 6.4082 11.8004C6.4082 12.7651 7.19407 13.551 8.15872 13.551H9.30217C9.71797 13.551 10.0548 13.8878 10.0548 14.3036C10.0548 14.7194 9.71797 15.0562 9.30217 15.0562H7.25228C6.97785 15.0562 6.75332 15.2807 6.75332 15.5551C6.75332 15.8295 6.97785 16.0541 7.25228 16.0541H8.23357V16.7651C8.23357 17.0395 8.4581 17.2641 8.73253 17.2641C9.00696 17.2641 9.23149 17.0395 9.23149 16.7651V16.0541H9.31465C9.31881 16.0541 9.32296 16.0541 9.32712 16.0541C10.2835 16.0416 11.0527 15.2599 11.0527 14.3036C11.0527 13.3389 10.2668 12.553 9.30217 12.553Z" fill="white"/>
<path fill-rule="evenodd" clip-rule="evenodd" d="M16.2284 11.422C15.7045 10.2162 14.981 9.04782 14.0662 7.95426C12.9602 6.6237 11.8583 5.73389 11.297 5.32225L13.4176 1.38877C13.5215 1.19335 13.4883 0.952183 13.3261 0.798337C12.7772 0.261954 12.1951 0 11.5465 0C10.9519 0 10.4072 0.224532 9.93316 0.424116L9.89428 0.440112C9.53449 0.588172 9.19555 0.727651 8.91861 0.727651C8.83129 0.727651 8.75644 0.715177 8.6816 0.686071C7.69199 0.324324 6.93108 0.0997921 6.19511 0.0997921C5.26372 0.0997921 4.46954 0.474012 3.692 1.27235C3.52983 1.43867 3.50488 1.70062 3.63378 1.89605L5.92069 5.35135C5.3552 5.77131 4.27412 6.65281 3.18888 7.95426C2.27827 9.04782 1.55062 10.2162 1.02671 11.422C0.36975 12.9397 0.0371094 14.5239 0.0371094 16.1289C0.0371094 18.262 1.77516 20 3.90821 20H13.3469C15.4799 20 17.218 18.262 17.218 16.1289C17.218 14.5239 16.8853 12.9397 16.2284 11.422ZM4.69823 1.68815C5.18056 1.27235 5.6421 1.0894 6.19511 1.0894C6.78555 1.0894 7.45083 1.28898 8.33649 1.61746C8.51944 1.68399 8.71486 1.71726 8.91445 1.71726C9.40094 1.71726 9.86663 1.52599 10.3115 1.33888L10.3144 1.3377C10.7416 1.15934 11.1482 0.989605 11.5423 0.989605C11.7336 0.989605 12.0038 1.02287 12.3448 1.26403L10.349 4.97297H6.87287L4.69823 1.68815ZM3.90821 19.0021H13.3469C14.9311 19.0021 16.2201 17.7131 16.2117 16.1289C16.2117 13.4595 15.2388 10.9356 13.3136 8.61539C12.0995 7.14761 10.8687 6.23285 10.4903 5.97089H6.75644C6.38222 6.23701 5.1473 7.14761 3.93316 8.61539C2.01216 10.9356 1.03503 13.4636 1.03503 16.1289C1.03503 17.7131 2.32401 19.0021 3.90821 19.0021Z" fill="white"/>
</svg>
