<svg width="30" height="29" viewBox="0 0 30 29" fill="none" xmlns="http://www.w3.org/2000/svg">
<path fill-rule="evenodd" clip-rule="evenodd" d="M29.2877 10.0723C29.6017 10.1206 29.8603 10.3322 29.9588 10.6285C30.0574 10.9247 29.9773 11.2512 29.7372 11.4689L22.9887 17.9681L24.6081 27.067C24.6266 27.1274 24.6327 27.1879 24.6327 27.2544C24.6327 27.7018 24.2571 28.0706 23.8015 28.0706C23.6722 28.0706 23.5429 28.0404 23.4197 27.9799L15.0396 23.6813L6.68405 28.0283C6.5609 28.0948 6.4316 28.125 6.29613 28.125C6.12373 28.125 5.95132 28.0706 5.8097 27.9678C5.5511 27.7864 5.42179 27.4781 5.47721 27.1698L7.04733 18.0164L0.255772 11.5535C0.0279504 11.3419 -0.0582525 11.0154 0.0402651 10.7192C0.138783 10.4229 0.397391 10.2113 0.711416 10.163L10.0706 8.79662L14.2268 0.45948C14.3684 0.175328 14.6578 0 14.9718 0C15.2859 0 15.5753 0.175328 15.7169 0.453434L19.9285 8.76639L29.2877 10.0723ZM21.2893 17.829C21.24 17.563 21.3262 17.2909 21.5233 17.1035L27.3912 11.4628L19.2635 10.3262C18.9926 10.2839 18.7586 10.1206 18.6355 9.87882L14.978 2.66015L11.3698 9.89695C11.2528 10.1388 11.0188 10.302 10.7479 10.3443L2.62635 11.5293L8.51278 17.1398C8.70982 17.3272 8.79602 17.5932 8.75292 17.8593L7.39214 25.8095L14.6455 22.0369C14.8918 21.916 15.1812 21.9099 15.4213 22.0369L22.6993 25.7671L21.2893 17.829Z" fill="url(#paint0_linear)"/>
<defs>
<linearGradient id="paint0_linear" x1="0" y1="0" x2="0" y2="28.125" gradientUnits="userSpaceOnUse">
<stop stop-color="#70FC5C"/>
<stop offset="1" stop-color="#519C43"/>
</linearGradient>
</defs>
</svg>
