<svg width="16" height="22" viewBox="0 0 16 22" fill="none" xmlns="http://www.w3.org/2000/svg">
<path fill-rule="evenodd" clip-rule="evenodd" d="M14.4949 9.27383H14.8079C15.4426 9.27383 15.9583 9.78953 15.9583 10.4242V17.8336C15.9583 19.7333 14.4112 21.2804 12.5114 21.2804H3.48004C1.58031 21.2804 0.0332031 19.7333 0.0332031 17.8336V10.4242C0.0332031 9.78953 0.548906 9.27383 1.18362 9.27383H13.3048V6.50138C13.3048 3.57025 10.9203 1.19008 7.99353 1.19008C5.0624 1.19008 2.68224 3.57466 2.68224 6.50138C2.68224 6.83196 2.41778 7.09642 2.0872 7.09642C1.75662 7.09642 1.49216 6.83196 1.49216 6.50138C1.49216 2.9135 4.41006 0 7.99353 0C11.5814 0 14.4949 2.91791 14.4949 6.50138V9.27383ZM12.5114 20.0904C13.7588 20.0904 14.7682 19.0766 14.7682 17.8336V10.4639H1.22769V17.8336C1.22769 19.081 2.24147 20.0904 3.48444 20.0904H12.5114Z" fill="white"/>
<path fill-rule="evenodd" clip-rule="evenodd" d="M10.2233 15.3651C10.2233 16.5904 9.22713 17.591 7.99738 17.591C6.76763 17.591 5.77148 16.5904 5.77148 15.3651C5.77148 14.1397 6.76763 13.1392 7.99738 13.1392C9.22272 13.1392 10.2233 14.1353 10.2233 15.3651ZM9.03319 15.3606C9.03319 14.7921 8.57038 14.3248 7.99738 14.3248C7.42438 14.3248 6.96157 14.7965 6.96157 15.3651C6.96157 15.9337 7.42438 16.4009 7.99738 16.4009C8.57038 16.4009 9.03319 15.9292 9.03319 15.3606Z" fill="white"/>
</svg>
