<svg width="32" height="32" viewBox="0 0 32 32" fill="none" xmlns="http://www.w3.org/2000/svg">
<path d="M16 0C7.17775 0 0 7.17775 0 16C0 24.8223 7.17775 32 16 32C24.8223 32 32 24.8223 32 16C32 7.17775 24.8223 0 16 0ZM28.6445 21.2795C27.0716 25.0331 23.8739 27.9434 19.9351 29.1263C20.0057 28.9951 20.0741 28.8626 20.1403 28.7286C20.4787 28.0438 20.8342 27.5609 21.431 27.0794C21.8877 26.7105 22.7844 26.1393 22.6378 25.419C22.532 24.8985 21.9377 24.6849 21.4886 24.5576C20.776 24.3557 20.0138 24.3034 19.2784 24.2525C18.6416 24.208 17.9804 24.2307 17.3587 24.0721C16.4283 23.8353 16.2186 23.03 16.1597 22.181C16.1072 21.4263 16.1185 20.6504 15.7473 19.9675C15.2694 19.0885 14.1695 18.8385 13.2575 18.7547C12.4875 18.6842 11.7185 18.7213 10.9528 18.593C10.216 18.4697 9.51829 18.2109 8.76175 18.2402C7.78128 18.278 7.34095 18.9426 6.92272 19.7111C6.71628 20.0906 5.41232 23.0094 4.64618 23.6639C3.3251 21.7136 2.49407 19.406 2.32856 16.9191C2.43684 16.89 2.54415 16.8496 2.6531 16.7953C3.07937 16.5837 3.37801 16.2016 3.84186 16.0503C4.28413 15.9062 4.85552 16.034 5.30739 16.0783C5.75702 16.1223 6.21366 16.1689 6.66366 16.1076C7.56197 15.9849 8.03795 15.3644 8.18143 14.4982C8.26672 13.9807 8.20019 13.4604 8.21559 12.9394C8.23993 12.1276 8.77269 11.8363 9.50683 11.7672C10.8935 11.637 14.1283 12.0045 14.1938 9.87029C14.2217 8.9574 13.1352 8.48625 12.4275 8.24261C11.0496 7.76856 9.54404 7.93407 8.1347 7.60476C7.38508 7.42958 6.75282 6.96201 6.22266 6.40938C8.71152 3.87327 12.1747 2.29686 16 2.29686C16.8182 2.29686 17.619 2.36904 18.3977 2.50731C17.9996 2.58128 17.6065 2.68636 17.2242 2.84078C15.2069 3.6541 15.1462 5.9427 16.0279 7.66199C16.5747 8.72826 17.4603 9.62158 18.3853 10.3644C19.2808 11.0832 20.2593 11.508 21.2522 12.0533C22.5695 12.7776 22.4104 14.6692 22.7437 15.9437C23.0247 17.0185 23.6997 17.9252 24.7636 18.2973C25.4068 18.522 26.1623 18.3466 26.7255 18.7948C27.2092 19.1786 27.3229 19.9642 27.5993 20.4922C27.8747 21.019 28.2412 21.2408 28.6445 21.2795Z" fill="white"/>
</svg>
