<svg width="30" height="30" viewBox="0 0 30 30" fill="none" xmlns="http://www.w3.org/2000/svg">
<path d="M15 22.9688C14.6766 22.9688 14.4141 23.2312 14.4141 23.5547C14.4141 23.8781 14.6766 24.1406 15 24.1406C15.3234 24.1406 15.5859 23.8781 15.5859 23.5547C15.5859 23.2312 15.3234 22.9688 15 22.9688Z" fill="url(#paint0_linear)"/>
<path d="M3.28125 9.37524H0.585938C0.262383 9.37524 0 9.63763 0 9.96118C0 10.2847 0.262324 10.5471 0.585938 10.5471H3.28125C3.6048 10.5471 3.86719 10.2847 3.86719 9.96118C3.86719 9.63763 3.6048 9.37524 3.28125 9.37524Z" fill="url(#paint1_linear)"/>
<path d="M29.4141 9.37524H26.7188C26.3952 9.37524 26.1328 9.63763 26.1328 9.96118C26.1328 10.2847 26.3952 10.5471 26.7188 10.5471H29.4141C29.7376 10.5471 30 10.2847 30 9.96118C29.9999 9.63763 29.7376 9.37524 29.4141 9.37524Z" fill="url(#paint2_linear)"/>
<path d="M5.35752 15.5274C5.19569 15.2473 4.83745 15.1511 4.55713 15.313L2.52745 16.4848C2.24719 16.6466 2.15116 17.005 2.31299 17.2852C2.47536 17.5664 2.83395 17.6611 3.11338 17.4997L5.14307 16.3278C5.42333 16.166 5.51936 15.8077 5.35752 15.5274Z" fill="url(#paint3_linear)"/>
<path d="M27.6856 2.63705C27.5239 2.35686 27.1656 2.26076 26.8853 2.4226L24.8556 3.59447C24.5753 3.75631 24.4793 4.11461 24.6411 4.39487C24.8035 4.676 25.1621 4.77069 25.4415 4.60932L27.4712 3.43744C27.7515 3.27561 27.8475 2.91731 27.6856 2.63705Z" fill="url(#paint4_linear)"/>
<path d="M5.14307 3.59446L3.11338 2.42259C2.83307 2.26081 2.47483 2.35679 2.31299 2.63704C2.15116 2.91729 2.24719 3.27559 2.52745 3.43743L4.55713 4.60931C4.83686 4.77079 5.19534 4.67569 5.35752 4.39485C5.51936 4.11454 5.42333 3.75624 5.14307 3.59446Z" fill="url(#paint5_linear)"/>
<path d="M27.4712 16.4849L25.4415 15.313C25.1612 15.1511 24.803 15.2472 24.6411 15.5274C24.4793 15.8077 24.5753 16.166 24.8556 16.3278L26.8853 17.4997C27.165 17.6612 27.5235 17.5661 27.6856 17.2852C27.8475 17.005 27.7515 16.6467 27.4712 16.4849Z" fill="url(#paint6_linear)"/>
<path fill-rule="evenodd" clip-rule="evenodd" d="M16.9008 9.84405C17.5298 9.30628 17.9296 8.50794 17.9296 7.61743C17.9296 6.002 16.6154 4.68774 14.9999 4.68774C13.3845 4.68774 12.0703 6.002 12.0703 7.61743C12.0703 8.50794 12.4701 9.30628 13.0991 9.84405C11.7923 10.5307 10.8984 11.9009 10.8984 13.4767V14.6486C10.8984 14.9722 11.1608 15.2346 11.4844 15.2346H18.5156C18.8391 15.2346 19.1015 14.9722 19.1015 14.6486V13.4767C19.1015 11.9009 18.2077 10.5307 16.9008 9.84405ZM14.9999 5.85962C15.9692 5.85962 16.7578 6.64817 16.7578 7.61743C16.7578 8.58669 15.9692 9.37524 14.9999 9.37524C14.0307 9.37524 13.2421 8.58669 13.2421 7.61743C13.2421 6.64817 14.0307 5.85962 14.9999 5.85962ZM12.0703 14.0627H17.9296H17.9297V13.4767C17.9297 11.8613 16.6154 10.5471 15 10.5471C13.3846 10.5471 12.0703 11.8613 12.0703 13.4767V14.0627Z" fill="url(#paint7_linear)"/>
<path fill-rule="evenodd" clip-rule="evenodd" d="M5.16277 8.36807C5.83911 4.02006 9.47486 0.549142 13.8651 0.0629313C19.8719 -0.601639 24.9602 4.08528 24.9603 9.96106C24.9603 11.5557 24.5936 13.0793 23.8701 14.4893C23.1813 15.832 22.1759 17.0218 20.9627 17.93C20.5307 18.2532 20.2729 18.7714 20.2729 19.3161V22.3828C20.2729 22.8327 20.1028 23.2434 19.8238 23.5547C20.1028 23.8659 20.2729 24.2767 20.2729 24.7266C20.2729 25.5146 19.7586 26.1664 19.0699 26.3948C18.8239 28.423 17.0929 30 14.9994 30C12.8782 30 11.1693 28.4041 10.9286 26.394C10.2307 26.1609 9.72605 25.5018 9.72605 24.7266C9.72605 24.2896 9.88472 23.877 10.1746 23.5542C9.89597 23.243 9.72611 22.8325 9.72611 22.3829V19.3161C9.72611 18.7718 9.46636 18.252 9.03118 17.9256C6.16384 15.7764 4.5674 12.1945 5.16277 8.36807ZM12.1283 26.4785C12.3999 27.8232 13.5789 28.8281 14.9994 28.8281C16.4142 28.8281 17.5979 27.8141 17.8701 26.4785H12.1283ZM19.101 22.3829C19.101 22.706 18.8381 22.9688 18.5151 22.9688H17.3432C17.0196 22.9688 16.7572 23.2312 16.7572 23.5547C16.7572 23.8783 17.0196 24.1407 17.3432 24.1407H18.5151C18.8381 24.1407 19.101 24.4035 19.101 24.7266C19.101 25.0501 18.8385 25.3126 18.5151 25.3126H11.4839C11.1608 25.3126 10.8979 25.0497 10.8979 24.7266C10.8979 24.4032 11.1604 24.1407 11.4839 24.1407H12.6557C12.9793 24.1407 13.2417 23.8783 13.2417 23.5547C13.2417 23.2312 12.9793 22.9688 12.6557 22.9688H11.4839C11.1608 22.9688 10.8979 22.706 10.8979 22.3829V21.7969H19.101V22.3829ZM19.101 19.3162C19.101 18.4041 19.5345 17.5352 20.2606 16.992C22.5025 15.3135 23.7884 12.7508 23.7884 9.96117C23.7884 4.89246 19.4168 0.627423 13.994 1.22778C10.1413 1.65445 6.91413 4.7332 6.32064 8.54824C5.81521 11.7971 7.12314 15.031 9.73413 16.9881C10.4629 17.5348 10.8979 18.405 10.8979 19.3162V20.6252H19.101V19.3162Z" fill="url(#paint8_linear)"/>
<defs>
<linearGradient id="paint0_linear" x1="14.521" y1="23.0033" x2="14.521" y2="23.9613" gradientUnits="userSpaceOnUse">
<stop stop-color="#FF3E87"/>
<stop offset="1" stop-color="#DD3386"/>
</linearGradient>
<linearGradient id="paint1_linear" x1="0.352867" y1="9.40976" x2="0.352867" y2="10.3678" gradientUnits="userSpaceOnUse">
<stop stop-color="#FF3E87"/>
<stop offset="1" stop-color="#DD3386"/>
</linearGradient>
<linearGradient id="paint2_linear" x1="26.4857" y1="9.40976" x2="26.4857" y2="10.3678" gradientUnits="userSpaceOnUse">
<stop stop-color="#FF3E87"/>
<stop offset="1" stop-color="#DD3386"/>
</linearGradient>
<linearGradient id="paint3_linear" x1="2.52652" y1="15.3034" x2="2.52652" y2="17.2196" gradientUnits="userSpaceOnUse">
<stop stop-color="#FF3E87"/>
<stop offset="1" stop-color="#DD3386"/>
</linearGradient>
<linearGradient id="paint4_linear" x1="24.8546" y1="2.41302" x2="24.8546" y2="4.3292" gradientUnits="userSpaceOnUse">
<stop stop-color="#FF3E87"/>
<stop offset="1" stop-color="#DD3386"/>
</linearGradient>
<linearGradient id="paint5_linear" x1="2.52652" y1="2.41302" x2="2.52652" y2="4.32918" gradientUnits="userSpaceOnUse">
<stop stop-color="#FF3E87"/>
<stop offset="1" stop-color="#DD3386"/>
</linearGradient>
<linearGradient id="paint6_linear" x1="24.8546" y1="15.3034" x2="24.8546" y2="17.2196" gradientUnits="userSpaceOnUse">
<stop stop-color="#FF3E87"/>
<stop offset="1" stop-color="#DD3386"/>
</linearGradient>
<linearGradient id="paint7_linear" x1="11.6469" y1="4.99836" x2="11.6469" y2="13.6205" gradientUnits="userSpaceOnUse">
<stop stop-color="#FF3E87"/>
<stop offset="1" stop-color="#DD3386"/>
</linearGradient>
<linearGradient id="paint8_linear" x1="6.8568" y1="0.883523" x2="6.8568" y2="25.4087" gradientUnits="userSpaceOnUse">
<stop stop-color="#FF3E87"/>
<stop offset="1" stop-color="#DD3386"/>
</linearGradient>
</defs>
</svg>
