<svg width="32" height="32" viewBox="0 0 32 32" fill="none" xmlns="http://www.w3.org/2000/svg">
<path d="M24.125 1H2.875C1.83947 1 1 1.83947 1 2.875V17.875C1 18.9105 1.83947 19.75 2.875 19.75H11V18.5H2.875C2.52982 18.5 2.24998 18.2202 2.24998 17.875V2.875C2.24998 2.52982 2.52982 2.24998 2.875 2.24998H24.125C24.4702 2.24998 24.75 2.52982 24.75 2.875V14.125H26V2.875C26 1.83947 25.1605 1 24.125 1Z" fill="url(#paint0_linear)" stroke="url(#paint1_linear)" stroke-width="0.2"/>
<rect x="8.5" y="19.125" width="1.24998" height="3.75" fill="url(#paint2_linear)" stroke="url(#paint3_linear)" stroke-width="0.2"/>
<path d="M5.375 16C5.02982 16 4.74998 15.7202 4.74998 15.375V14.125H3.5V15.375C3.5 16.4105 4.33947 17.25 5.375 17.25H6.62498V16H5.375Z" fill="url(#paint4_linear)" stroke="url(#paint5_linear)" stroke-width="0.2"/>
<rect x="3.5" y="11.625" width="1.24998" height="1.24998" fill="url(#paint6_linear)" stroke="url(#paint7_linear)" stroke-width="0.2"/>
<path fill-rule="evenodd" clip-rule="evenodd" d="M19.0404 12.2493C20.8417 12.2492 22.5692 12.9648 23.8428 14.2386C26.4944 16.8908 26.494 21.1904 23.8419 23.842C22.5685 25.1152 20.8416 25.8305 19.0409 25.8305C15.2905 25.8307 12.2502 22.7905 12.25 19.0402C12.2499 15.2898 15.29 12.2494 19.0404 12.2493ZM13.4984 19.0386C13.4973 22.0986 15.9771 24.5801 19.0371 24.5811C22.0971 24.5822 24.5786 22.1024 24.5796 19.0424C24.5801 17.5733 23.9972 16.1642 22.959 15.1249C21.9228 14.0811 20.5117 13.4959 19.0409 13.4999C15.9809 13.4988 13.4995 15.9786 13.4984 19.0386Z" fill="url(#paint8_linear)"/>
<path d="M23.8428 14.2386L23.9135 14.1679L23.9135 14.1679L23.8428 14.2386ZM19.0404 12.2493L19.0404 12.1493H19.0404L19.0404 12.2493ZM23.8419 23.842L23.9126 23.9128L23.8419 23.842ZM19.0409 25.8305L19.0409 25.9305L19.0409 25.8305ZM12.25 19.0402L12.15 19.0402V19.0402L12.25 19.0402ZM19.0371 24.5811L19.0372 24.4811L19.0371 24.5811ZM13.4984 19.0386L13.5984 19.0387L13.4984 19.0386ZM24.5796 19.0424L24.6796 19.0424V19.0424L24.5796 19.0424ZM22.959 15.1249L22.888 15.1953L22.8883 15.1955L22.959 15.1249ZM19.0409 13.4999L19.0409 13.5999L19.0412 13.5999L19.0409 13.4999ZM23.9135 14.1679C22.6211 12.8754 20.8682 12.1492 19.0404 12.1493L19.0404 12.3493C20.8151 12.3492 22.5172 13.0543 23.7721 14.3093L23.9135 14.1679ZM23.9126 23.9128C26.6038 21.222 26.6042 16.8592 23.9135 14.1679L23.7721 14.3093C26.3847 16.9225 26.3843 21.1587 23.7712 23.7713L23.9126 23.9128ZM19.0409 25.9305C20.8681 25.9305 22.6204 25.2047 23.9126 23.9128L23.7712 23.7713C22.5165 25.0258 20.8151 25.7305 19.0409 25.7305L19.0409 25.9305ZM12.15 19.0402C12.1502 22.8457 15.2353 25.9307 19.0409 25.9305L19.0409 25.7305C15.3458 25.7307 12.3502 22.7353 12.35 19.0402L12.15 19.0402ZM19.0404 12.1493C15.2348 12.1494 12.1499 15.2346 12.15 19.0402L12.35 19.0402C12.3499 15.345 15.3453 12.3494 19.0404 12.3493L19.0404 12.1493ZM19.0372 24.4811C16.0324 24.4801 13.5974 22.0434 13.5984 19.0387L13.3984 19.0386C13.3973 22.1538 15.9219 24.6801 19.0371 24.6811L19.0372 24.4811ZM24.4796 19.0424C24.4786 22.0471 22.042 24.4822 19.0372 24.4811L19.0371 24.6811C22.1523 24.6822 24.6786 22.1577 24.6796 19.0424L24.4796 19.0424ZM22.8883 15.1955C23.9077 16.2161 24.4801 17.5998 24.4796 19.0424L24.6796 19.0424C24.6801 17.5468 24.0867 16.1123 23.0298 15.0542L22.8883 15.1955ZM19.0412 13.5999C20.4852 13.596 21.8706 14.1706 22.888 15.1953L23.03 15.0544C21.9749 13.9917 20.5381 13.3958 19.0406 13.3999L19.0412 13.5999ZM13.5984 19.0387C13.5994 16.0339 16.0361 13.5989 19.0409 13.5999L19.0409 13.3999C15.9257 13.3988 13.3995 15.9234 13.3984 19.0386L13.5984 19.0387Z" fill="url(#paint9_linear)"/>
<path fill-rule="evenodd" clip-rule="evenodd" d="M26.8944 24.2656L30.8176 28.1875C31.0616 28.4315 31.0616 28.8271 30.8176 29.0712L29.0738 30.815C28.957 30.9329 28.798 30.9995 28.632 31C28.4663 31 28.3073 30.9341 28.1901 30.8169L24.267 26.8931C24.023 26.649 24.023 26.2534 24.267 26.0094L26.0107 24.2656C26.1279 24.1484 26.2868 24.0826 26.4526 24.0825C26.6183 24.0825 26.7772 24.1484 26.8944 24.2656ZM25.5925 26.4512L28.6319 29.4913L29.4919 28.6313L26.4525 25.5912L25.5925 26.4512Z" fill="url(#paint10_linear)"/>
<path d="M30.8176 28.1875L30.8883 28.1168L30.8883 28.1168L30.8176 28.1875ZM26.8944 24.2656L26.8237 24.3363L26.8237 24.3363L26.8944 24.2656ZM30.8176 29.0712L30.8883 29.142L30.8883 29.1419L30.8176 29.0712ZM29.0738 30.815L29.0031 30.7443L29.0028 30.7446L29.0738 30.815ZM28.632 31V31.1L28.6323 31.1L28.632 31ZM28.1901 30.8169L28.2608 30.7462L28.2608 30.7462L28.1901 30.8169ZM24.267 26.8931L24.1962 26.9638L24.1963 26.9639L24.267 26.8931ZM24.267 26.0094L24.1963 25.9387L24.1963 25.9387L24.267 26.0094ZM26.4526 24.0825V23.9825L26.4525 23.9825L26.4526 24.0825ZM28.6319 29.4913L28.5612 29.562L28.6319 29.6327L28.7026 29.562L28.6319 29.4913ZM25.5925 26.4512L25.5218 26.3805L25.4511 26.4512L25.5218 26.5219L25.5925 26.4512ZM29.4919 28.6313L29.5626 28.702L29.6333 28.6313L29.5626 28.5606L29.4919 28.6313ZM26.4525 25.5912L26.5232 25.5205L26.4525 25.4498L26.3818 25.5205L26.4525 25.5912ZM30.8883 28.1168L26.9651 24.1949L26.8237 24.3363L30.7469 28.2582L30.8883 28.1168ZM30.8883 29.1419C31.1713 28.8588 31.1713 28.3999 30.8883 28.1168L30.7469 28.2582C30.9518 28.4632 30.9518 28.7955 30.7469 29.0006L30.8883 29.1419ZM29.1445 30.8857L30.8883 29.142L30.7469 29.0005L29.0031 30.7443L29.1445 30.8857ZM28.6323 31.1C28.8248 31.0994 29.0093 31.0222 29.1449 30.8854L29.0028 30.7446C28.9047 30.8436 28.7711 30.8995 28.6317 30.9L28.6323 31.1ZM28.1194 30.8876C28.2553 31.0236 28.4397 31.1 28.632 31.1V30.9C28.4928 30.9 28.3593 30.8447 28.2608 30.7462L28.1194 30.8876ZM24.1963 26.9639L28.1194 30.8876L28.2608 30.7462L24.3377 26.8224L24.1963 26.9639ZM24.1963 25.9387C23.9132 26.2218 23.9132 26.6807 24.1962 26.9638L24.3377 26.8225C24.1327 26.6174 24.1328 26.2851 24.3377 26.0801L24.1963 25.9387ZM25.94 24.1949L24.1963 25.9387L24.3377 26.0801L26.0814 24.3363L25.94 24.1949ZM26.4525 23.9825C26.2603 23.9826 26.0759 24.059 25.94 24.1949L26.0814 24.3363C26.1799 24.2379 26.3134 24.1826 26.4526 24.1825L26.4525 23.9825ZM26.9651 24.1949C26.8292 24.059 26.6448 23.9825 26.4526 23.9825V24.1825C26.5917 24.1825 26.7253 24.2379 26.8237 24.3363L26.9651 24.1949ZM28.7026 29.4205L25.6633 26.3805L25.5218 26.5219L28.5612 29.562L28.7026 29.4205ZM29.4212 28.5606L28.5612 29.4205L28.7026 29.562L29.5626 28.702L29.4212 28.5606ZM26.3818 25.662L29.4212 28.702L29.5626 28.5606L26.5232 25.5205L26.3818 25.662ZM25.6632 26.5219L26.5232 25.662L26.3818 25.5205L25.5218 26.3805L25.6632 26.5219Z" fill="url(#paint11_linear)"/>
<path d="M22.957 23.8416L23.8409 22.9577L26.0205 25.1373L25.1367 26.0212L22.957 23.8416Z" fill="url(#paint12_linear)" stroke="url(#paint13_linear)" stroke-width="0.2"/>
<path d="M19.125 14.75V16C20.8501 16.002 22.2479 17.4 22.25 19.125H23.5C23.4973 16.7099 21.5401 14.7528 19.125 14.75Z" fill="url(#paint14_linear)" stroke="url(#paint15_linear)" stroke-width="0.2"/>
<rect x="7.25" y="22.25" width="4.99998" height="1.24998" fill="url(#paint16_linear)" stroke="url(#paint17_linear)" stroke-width="0.2"/>
<path fill-rule="evenodd" clip-rule="evenodd" d="M8.5 5.375C8.5 4.33947 9.33947 3.5 10.375 3.5C11.4105 3.5 12.25 4.33947 12.25 5.375C12.25 6.41053 11.4105 7.25 10.375 7.25C9.33947 7.25 8.5 6.41053 8.5 5.375ZM9.74998 5.37494C9.74998 5.72012 10.0298 5.99996 10.375 5.99996C10.7202 5.99996 11 5.72018 11 5.37494C11 5.02977 10.7202 4.74992 10.375 4.74992C10.0298 4.74992 9.74998 5.02977 9.74998 5.37494Z" fill="url(#paint18_linear)"/>
<path d="M10.375 3.4C9.28424 3.4 8.4 4.28424 8.4 5.375H8.6C8.6 4.3947 9.3947 3.6 10.375 3.6V3.4ZM12.35 5.375C12.35 4.28424 11.4658 3.4 10.375 3.4V3.6C11.3553 3.6 12.15 4.3947 12.15 5.375H12.35ZM10.375 7.35C11.4658 7.35 12.35 6.46576 12.35 5.375H12.15C12.15 6.3553 11.3553 7.15 10.375 7.15V7.35ZM8.4 5.375C8.4 6.46576 9.28424 7.35 10.375 7.35V7.15C9.3947 7.15 8.6 6.3553 8.6 5.375H8.4ZM10.375 5.89996C10.0851 5.89996 9.84998 5.66489 9.84998 5.37494H9.64998C9.64998 5.77535 9.9746 6.09996 10.375 6.09996V5.89996ZM10.9 5.37494C10.9 5.66494 10.665 5.89996 10.375 5.89996V6.09996C10.7754 6.09996 11.1 5.77541 11.1 5.37494H10.9ZM10.375 4.84992C10.6649 4.84992 10.9 5.08499 10.9 5.37494H11.1C11.1 4.97454 10.7754 4.64992 10.375 4.64992V4.84992ZM9.84998 5.37494C9.84998 5.08499 10.0851 4.84992 10.375 4.84992V4.64992C9.9746 4.64992 9.64998 4.97454 9.64998 5.37494H9.84998Z" fill="url(#paint19_linear)"/>
<path fill-rule="evenodd" clip-rule="evenodd" d="M12.875 9.75C12.875 8.71447 13.7145 7.875 14.75 7.875C15.7855 7.875 16.625 8.71447 16.625 9.75C16.625 10.7855 15.7855 11.625 14.75 11.625C13.7145 11.625 12.875 10.7855 12.875 9.75ZM14.125 9.75C14.125 10.0952 14.4048 10.375 14.75 10.375C15.0952 10.375 15.375 10.0952 15.375 9.75C15.375 9.40482 15.0952 9.12498 14.75 9.12498C14.4048 9.12498 14.125 9.40482 14.125 9.75Z" fill="url(#paint20_linear)"/>
<path d="M15.375 9.75L15.475 9.75002V9.75H15.375ZM14.75 7.775C13.6592 7.775 12.775 8.65924 12.775 9.75H12.975C12.975 8.7697 13.7697 7.975 14.75 7.975V7.775ZM16.725 9.75C16.725 8.65924 15.8408 7.775 14.75 7.775V7.975C15.7303 7.975 16.525 8.7697 16.525 9.75H16.725ZM14.75 11.725C15.8408 11.725 16.725 10.8408 16.725 9.75H16.525C16.525 10.7303 15.7303 11.525 14.75 11.525V11.725ZM12.775 9.75C12.775 10.8408 13.6592 11.725 14.75 11.725V11.525C13.7697 11.525 12.975 10.7303 12.975 9.75H12.775ZM14.75 10.275C14.4601 10.275 14.225 10.0399 14.225 9.75H14.025C14.025 10.1504 14.3496 10.475 14.75 10.475V10.275ZM15.275 9.74998C15.275 10.04 15.0399 10.275 14.75 10.275V10.475C15.1504 10.475 15.475 10.1504 15.475 9.75002L15.275 9.74998ZM14.75 9.22498C15.0399 9.22498 15.275 9.46005 15.275 9.75H15.475C15.475 9.3496 15.1504 9.02498 14.75 9.02498V9.22498ZM14.225 9.75C14.225 9.46005 14.4601 9.22498 14.75 9.22498V9.02498C14.3496 9.02498 14.025 9.3496 14.025 9.75H14.225Z" fill="url(#paint21_linear)"/>
<path d="M6.18359 8.68311L9.30853 5.55817L10.1924 6.44203L7.06745 9.56697L6.18359 8.68311Z" fill="url(#paint22_linear)" stroke="url(#paint23_linear)" stroke-width="0.2"/>
<path d="M10.5547 6.4436L11.4385 5.55974L14.5635 8.68468L13.6796 9.56854L10.5547 6.4436Z" fill="url(#paint24_linear)" stroke="url(#paint25_linear)" stroke-width="0.2"/>
<path fill-rule="evenodd" clip-rule="evenodd" d="M17.25 5.375C17.25 4.33947 18.0895 3.5 19.125 3.5C20.1606 3.5 21.0001 4.33947 21 5.375C21 6.41053 20.1605 7.25 19.125 7.25C18.0895 7.25 17.25 6.41053 17.25 5.375ZM18.5 5.37494C18.5 5.72012 18.7798 5.99996 19.125 5.99996C19.4702 5.99996 19.75 5.72018 19.75 5.37494C19.75 5.02977 19.4702 4.74992 19.125 4.74992C18.7798 4.74992 18.5 5.02977 18.5 5.37494Z" fill="url(#paint26_linear)"/>
<path d="M21 5.375L20.9 5.37499V5.375H21ZM19.125 3.4C18.0342 3.4 17.15 4.28424 17.15 5.375H17.35C17.35 4.3947 18.1447 3.6 19.125 3.6V3.4ZM21.1 5.37501C21.1001 4.28424 20.2158 3.4 19.125 3.4V3.6C20.1054 3.6 20.9001 4.3947 20.9 5.37499L21.1 5.37501ZM19.125 7.35C20.2158 7.35 21.1 6.46576 21.1 5.375H20.9C20.9 6.3553 20.1053 7.15 19.125 7.15V7.35ZM17.15 5.375C17.15 6.46576 18.0342 7.35 19.125 7.35V7.15C18.1447 7.15 17.35 6.3553 17.35 5.375H17.15ZM19.125 5.89996C18.8351 5.89996 18.6 5.66489 18.6 5.37494H18.4C18.4 5.77535 18.7246 6.09996 19.125 6.09996V5.89996ZM19.65 5.37494C19.65 5.66494 19.415 5.89996 19.125 5.89996V6.09996C19.5254 6.09996 19.85 5.77541 19.85 5.37494H19.65ZM19.125 4.84992C19.4149 4.84992 19.65 5.08499 19.65 5.37494H19.85C19.85 4.97454 19.5254 4.64992 19.125 4.64992V4.84992ZM18.6 5.37494C18.6 5.08499 18.8351 4.84992 19.125 4.84992V4.64992C18.7246 4.64992 18.4 4.97454 18.4 5.37494H18.6Z" fill="url(#paint27_linear)"/>
<path d="M14.9336 8.6853L18.0585 5.56036L18.9424 6.44422L15.8175 9.56916L14.9336 8.6853Z" fill="url(#paint28_linear)" stroke="url(#paint29_linear)" stroke-width="0.2"/>
<defs>
<linearGradient id="paint0_linear" x1="1" y1="1" x2="1" y2="19.75" gradientUnits="userSpaceOnUse">
<stop stop-color="#A74EF4"/>
<stop offset="1" stop-color="#823DF7"/>
</linearGradient>
<linearGradient id="paint1_linear" x1="1" y1="1" x2="1" y2="19.75" gradientUnits="userSpaceOnUse">
<stop stop-color="#A74EF4"/>
<stop offset="1" stop-color="#823DF7"/>
</linearGradient>
<linearGradient id="paint2_linear" x1="8.5" y1="19.125" x2="8.5" y2="22.875" gradientUnits="userSpaceOnUse">
<stop stop-color="#A74EF4"/>
<stop offset="1" stop-color="#823DF7"/>
</linearGradient>
<linearGradient id="paint3_linear" x1="8.5" y1="19.125" x2="8.5" y2="22.875" gradientUnits="userSpaceOnUse">
<stop stop-color="#A74EF4"/>
<stop offset="1" stop-color="#823DF7"/>
</linearGradient>
<linearGradient id="paint4_linear" x1="3.5" y1="14.125" x2="3.5" y2="17.25" gradientUnits="userSpaceOnUse">
<stop stop-color="#A74EF4"/>
<stop offset="1" stop-color="#823DF7"/>
</linearGradient>
<linearGradient id="paint5_linear" x1="3.5" y1="14.125" x2="3.5" y2="17.25" gradientUnits="userSpaceOnUse">
<stop stop-color="#A74EF4"/>
<stop offset="1" stop-color="#823DF7"/>
</linearGradient>
<linearGradient id="paint6_linear" x1="3.5" y1="11.625" x2="3.5" y2="12.875" gradientUnits="userSpaceOnUse">
<stop stop-color="#A74EF4"/>
<stop offset="1" stop-color="#823DF7"/>
</linearGradient>
<linearGradient id="paint7_linear" x1="3.5" y1="11.625" x2="3.5" y2="12.875" gradientUnits="userSpaceOnUse">
<stop stop-color="#A74EF4"/>
<stop offset="1" stop-color="#823DF7"/>
</linearGradient>
<linearGradient id="paint8_linear" x1="12.25" y1="12.2493" x2="12.25" y2="25.8305" gradientUnits="userSpaceOnUse">
<stop stop-color="#A74EF4"/>
<stop offset="1" stop-color="#823DF7"/>
</linearGradient>
<linearGradient id="paint9_linear" x1="12.25" y1="12.2493" x2="12.25" y2="25.8305" gradientUnits="userSpaceOnUse">
<stop stop-color="#A74EF4"/>
<stop offset="1" stop-color="#823DF7"/>
</linearGradient>
<linearGradient id="paint10_linear" x1="24.084" y1="24.0825" x2="24.084" y2="31" gradientUnits="userSpaceOnUse">
<stop stop-color="#A74EF4"/>
<stop offset="1" stop-color="#823DF7"/>
</linearGradient>
<linearGradient id="paint11_linear" x1="24.084" y1="24.0825" x2="24.084" y2="31" gradientUnits="userSpaceOnUse">
<stop stop-color="#A74EF4"/>
<stop offset="1" stop-color="#823DF7"/>
</linearGradient>
<linearGradient id="paint12_linear" x1="22.957" y1="23.8416" x2="25.1367" y2="26.0212" gradientUnits="userSpaceOnUse">
<stop stop-color="#A74EF4"/>
<stop offset="1" stop-color="#823DF7"/>
</linearGradient>
<linearGradient id="paint13_linear" x1="22.957" y1="23.8416" x2="25.1367" y2="26.0212" gradientUnits="userSpaceOnUse">
<stop stop-color="#A74EF4"/>
<stop offset="1" stop-color="#823DF7"/>
</linearGradient>
<linearGradient id="paint14_linear" x1="19.125" y1="14.75" x2="19.125" y2="19.125" gradientUnits="userSpaceOnUse">
<stop stop-color="#A74EF4"/>
<stop offset="1" stop-color="#823DF7"/>
</linearGradient>
<linearGradient id="paint15_linear" x1="19.125" y1="14.75" x2="19.125" y2="19.125" gradientUnits="userSpaceOnUse">
<stop stop-color="#A74EF4"/>
<stop offset="1" stop-color="#823DF7"/>
</linearGradient>
<linearGradient id="paint16_linear" x1="7.25" y1="22.25" x2="7.25" y2="23.5" gradientUnits="userSpaceOnUse">
<stop stop-color="#A74EF4"/>
<stop offset="1" stop-color="#823DF7"/>
</linearGradient>
<linearGradient id="paint17_linear" x1="7.25" y1="22.25" x2="7.25" y2="23.5" gradientUnits="userSpaceOnUse">
<stop stop-color="#A74EF4"/>
<stop offset="1" stop-color="#823DF7"/>
</linearGradient>
<linearGradient id="paint18_linear" x1="8.5" y1="3.5" x2="8.5" y2="7.25" gradientUnits="userSpaceOnUse">
<stop stop-color="#A74EF4"/>
<stop offset="1" stop-color="#823DF7"/>
</linearGradient>
<linearGradient id="paint19_linear" x1="8.5" y1="3.5" x2="8.5" y2="7.25" gradientUnits="userSpaceOnUse">
<stop stop-color="#A74EF4"/>
<stop offset="1" stop-color="#823DF7"/>
</linearGradient>
<linearGradient id="paint20_linear" x1="12.875" y1="7.875" x2="12.875" y2="11.625" gradientUnits="userSpaceOnUse">
<stop stop-color="#A74EF4"/>
<stop offset="1" stop-color="#823DF7"/>
</linearGradient>
<linearGradient id="paint21_linear" x1="12.875" y1="7.875" x2="12.875" y2="11.625" gradientUnits="userSpaceOnUse">
<stop stop-color="#A74EF4"/>
<stop offset="1" stop-color="#823DF7"/>
</linearGradient>
<linearGradient id="paint22_linear" x1="6.18359" y1="8.68311" x2="7.06745" y2="9.56697" gradientUnits="userSpaceOnUse">
<stop stop-color="#A74EF4"/>
<stop offset="1" stop-color="#823DF7"/>
</linearGradient>
<linearGradient id="paint23_linear" x1="6.18359" y1="8.68311" x2="7.06745" y2="9.56697" gradientUnits="userSpaceOnUse">
<stop stop-color="#A74EF4"/>
<stop offset="1" stop-color="#823DF7"/>
</linearGradient>
<linearGradient id="paint24_linear" x1="10.5547" y1="6.4436" x2="13.6796" y2="9.56854" gradientUnits="userSpaceOnUse">
<stop stop-color="#A74EF4"/>
<stop offset="1" stop-color="#823DF7"/>
</linearGradient>
<linearGradient id="paint25_linear" x1="10.5547" y1="6.4436" x2="13.6796" y2="9.56854" gradientUnits="userSpaceOnUse">
<stop stop-color="#A74EF4"/>
<stop offset="1" stop-color="#823DF7"/>
</linearGradient>
<linearGradient id="paint26_linear" x1="17.25" y1="3.5" x2="17.25" y2="7.25" gradientUnits="userSpaceOnUse">
<stop stop-color="#A74EF4"/>
<stop offset="1" stop-color="#823DF7"/>
</linearGradient>
<linearGradient id="paint27_linear" x1="17.25" y1="3.5" x2="17.25" y2="7.25" gradientUnits="userSpaceOnUse">
<stop stop-color="#A74EF4"/>
<stop offset="1" stop-color="#823DF7"/>
</linearGradient>
<linearGradient id="paint28_linear" x1="14.9336" y1="8.6853" x2="15.8175" y2="9.56916" gradientUnits="userSpaceOnUse">
<stop stop-color="#A74EF4"/>
<stop offset="1" stop-color="#823DF7"/>
</linearGradient>
<linearGradient id="paint29_linear" x1="14.9336" y1="8.6853" x2="15.8175" y2="9.56916" gradientUnits="userSpaceOnUse">
<stop stop-color="#A74EF4"/>
<stop offset="1" stop-color="#823DF7"/>
</linearGradient>
</defs>
</svg>
