<svg width="36" height="35" viewBox="0 0 36 35" fill="none" xmlns="http://www.w3.org/2000/svg">
<path d="M27.2084 0.5H3.125C1.9514 0.5 1 1.4514 1 2.625V19.625C1 20.7986 1.9514 21.75 3.125 21.75H12.3334V20.3334H3.125C2.7338 20.3334 2.41664 20.0162 2.41664 19.625V2.625C2.41664 2.2338 2.7338 1.91664 3.125 1.91664H27.2084C27.5996 1.91664 27.9167 2.2338 27.9167 2.625V15.375H29.3334V2.625C29.3334 1.4514 28.382 0.5 27.2084 0.5Z" fill="#3F9BEF" stroke="#3F9BEF" stroke-width="0.2"/>
<rect x="9.5" y="21.0415" width="1.41664" height="4.25" fill="#3F9BEF" stroke="#3F9BEF" stroke-width="0.2"/>
<path d="M5.95703 17.5C5.56583 17.5 5.24868 17.1828 5.24868 16.7916V15.375H3.83203V16.7916C3.83203 17.9652 4.78343 18.9166 5.95703 18.9166H7.37368V17.5H5.95703Z" fill="#3F9BEF" stroke="#3F9BEF" stroke-width="0.2"/>
<rect x="3.83203" y="12.5415" width="1.41664" height="1.41664" fill="#3F9BEF" stroke="#3F9BEF" stroke-width="0.2"/>
<path fill-rule="evenodd" clip-rule="evenodd" d="M21.4458 13.249C23.4872 13.249 25.4451 14.06 26.8885 15.5037C29.8937 18.5095 29.8932 23.3823 26.8875 26.3875C25.4443 27.8304 23.4871 28.6411 21.4464 28.6411C17.196 28.6412 13.7502 25.1958 13.75 20.9454C13.7499 16.6949 17.1954 13.2492 21.4458 13.249ZM15.1649 20.9443C15.1637 24.4123 17.9741 27.2245 21.4421 27.2258C24.9101 27.227 27.7224 24.4165 27.7236 20.9485C27.7241 19.2836 27.0635 17.6866 25.8869 16.5087C24.7125 15.3257 23.1132 14.6625 21.4464 14.667C17.9784 14.6658 15.1661 17.4763 15.1649 20.9443Z" fill="#3F9BEF"/>
<path d="M26.8885 15.5037L26.9592 15.433L26.9592 15.433L26.8885 15.5037ZM21.4458 13.249L21.4458 13.149H21.4457L21.4458 13.249ZM26.8875 26.3875L26.9582 26.4582L26.9582 26.4582L26.8875 26.3875ZM21.4464 28.6411L21.4464 28.7411L21.4464 28.6411ZM13.75 20.9454L13.65 20.9454V20.9454L13.75 20.9454ZM21.4421 27.2258L21.4421 27.3258L21.4421 27.2258ZM27.7236 20.9485L27.8236 20.9485V20.9485L27.7236 20.9485ZM25.8869 16.5087L25.8159 16.5791L25.8161 16.5793L25.8869 16.5087ZM21.4464 14.667L21.4463 14.767L21.4466 14.767L21.4464 14.667ZM26.9592 15.433C25.497 13.9705 23.5137 13.149 21.4458 13.149L21.4458 13.349C23.4607 13.349 25.3931 14.1495 26.8178 15.5744L26.9592 15.433ZM26.9582 26.4582C30.003 23.4139 30.0035 18.4778 26.9592 15.433L26.8178 15.5744C29.7839 18.5411 29.7835 23.3506 26.8168 26.3168L26.9582 26.4582ZM21.4464 28.7411C23.5137 28.7411 25.4962 27.9199 26.9582 26.4582L26.8168 26.3168C25.3923 27.741 23.4606 28.5411 21.4463 28.5411L21.4464 28.7411ZM13.65 20.9454C13.6502 25.251 17.1407 28.7412 21.4464 28.7411L21.4463 28.5411C17.2512 28.5412 13.8502 25.1406 13.85 20.9454L13.65 20.9454ZM21.4457 13.149C17.1401 13.1492 13.6499 16.6397 13.65 20.9454L13.85 20.9454C13.8499 16.7502 17.2506 13.3492 21.4458 13.349L21.4457 13.149ZM21.4421 27.1258C18.0294 27.1246 15.2637 24.3571 15.2649 20.9443L15.0649 20.9442C15.0636 24.4675 17.9188 27.3245 21.4421 27.3258L21.4421 27.1258ZM27.6236 20.9485C27.6224 24.3612 24.8549 27.127 21.4421 27.1258L21.4421 27.3258C24.9653 27.327 27.8224 24.4718 27.8236 20.9485L27.6236 20.9485ZM25.8161 16.5793C26.974 17.7385 27.6241 19.3101 27.6236 20.9485L27.8236 20.9485C27.8241 19.2571 27.153 17.6347 25.9576 16.438L25.8161 16.5793ZM21.4466 14.767C23.0868 14.7625 24.6604 15.4152 25.8159 16.5791L25.9578 16.4382C24.7646 15.2363 23.1397 14.5624 21.4461 14.567L21.4466 14.767ZM15.2649 20.9443C15.266 17.5315 18.0336 14.7659 21.4463 14.767L21.4464 14.567C17.9232 14.5658 15.0661 17.421 15.0649 20.9442L15.2649 20.9443Z" fill="#3F9BEF"/>
<path fill-rule="evenodd" clip-rule="evenodd" d="M30.3453 26.8677L34.7916 31.3124C35.0681 31.589 35.0681 32.0374 34.7916 32.3141L32.8153 34.2903C32.6829 34.4239 32.5027 34.4993 32.3145 34.4999C32.1267 34.4999 31.9466 34.4253 31.8138 34.2924L27.3675 29.8455C27.091 29.5689 27.091 29.1205 27.3675 28.8439L29.3438 26.8677C29.4766 26.7349 29.6567 26.6602 29.8446 26.6602C30.0324 26.6602 30.2125 26.7349 30.3453 26.8677ZM28.8699 29.3448L32.3145 32.7901L33.2891 31.8155L29.8445 28.3701L28.8699 29.3448Z" fill="#3F9BEF"/>
<path d="M34.7916 31.3124L34.8623 31.2417L34.8623 31.2417L34.7916 31.3124ZM30.3453 26.8677L30.2746 26.9384L30.2746 26.9384L30.3453 26.8677ZM34.7916 32.3141L34.8623 32.3848L34.8623 32.3847L34.7916 32.3141ZM32.8153 34.2903L32.7446 34.2196L32.7443 34.2199L32.8153 34.2903ZM32.3145 34.4999V34.5999L32.3149 34.5999L32.3145 34.4999ZM31.8138 34.2924L31.8845 34.2217L31.8845 34.2217L31.8138 34.2924ZM27.3675 29.8455L27.2968 29.9162L27.2968 29.9162L27.3675 29.8455ZM27.3675 28.8439L27.2968 28.7732L27.2968 28.7732L27.3675 28.8439ZM29.3438 26.8677L29.4145 26.9384L29.3438 26.8677ZM29.8446 26.6602V26.5602L29.8445 26.5602L29.8446 26.6602ZM32.3145 32.7901L32.2438 32.8608L32.3145 32.9315L32.3852 32.8608L32.3145 32.7901ZM28.8699 29.3448L28.7992 29.2741L28.7285 29.3448L28.7992 29.4155L28.8699 29.3448ZM33.2891 31.8155L33.3599 31.8862L33.4306 31.8155L33.3599 31.7448L33.2891 31.8155ZM29.8445 28.3701L29.9152 28.2994L29.8445 28.2287L29.7738 28.2994L29.8445 28.3701ZM34.8623 31.2417L30.416 26.797L30.2746 26.9384L34.7209 31.3832L34.8623 31.2417ZM34.8623 32.3847C35.1778 32.0691 35.1778 31.5574 34.8623 31.2417L34.7208 31.3831C34.9583 31.6207 34.9583 32.0058 34.7208 32.2434L34.8623 32.3847ZM32.886 34.361L34.8623 32.3848L34.7209 32.2433L32.7446 34.2196L32.886 34.361ZM32.3149 34.5999C32.5295 34.5993 32.7352 34.5132 32.8863 34.3607L32.7443 34.2199C32.6306 34.3346 32.4758 34.3994 32.3142 34.3999L32.3149 34.5999ZM31.743 34.3631C31.8946 34.5148 32.1002 34.5999 32.3145 34.5999V34.3999C32.1533 34.3999 31.9986 34.3358 31.8845 34.2217L31.743 34.3631ZM27.2968 29.9162L31.7431 34.3631L31.8845 34.2217L27.4383 29.7748L27.2968 29.9162ZM27.2968 28.7732C26.9813 29.0889 26.9813 29.6005 27.2968 29.9162L27.4383 29.7748C27.2008 29.5372 27.2008 29.1522 27.4383 28.9146L27.2968 28.7732ZM29.2731 26.797L27.2968 28.7732L27.4383 28.9146L29.4145 26.9384L29.2731 26.797ZM29.8445 26.5602C29.6302 26.5602 29.4246 26.6454 29.2731 26.797L29.4145 26.9384C29.5286 26.8243 29.6832 26.7602 29.8446 26.7602L29.8445 26.5602ZM30.416 26.797C30.2645 26.6454 30.0589 26.5602 29.8446 26.5602V26.7602C30.0058 26.7602 30.1605 26.8243 30.2746 26.9384L30.416 26.797ZM32.3852 32.7194L28.9406 29.2741L28.7992 29.4155L32.2438 32.8608L32.3852 32.7194ZM33.2184 31.7448L32.2438 32.7194L32.3852 32.8608L33.3599 31.8862L33.2184 31.7448ZM29.7738 28.4408L33.2184 31.8862L33.3599 31.7448L29.9152 28.2994L29.7738 28.4408ZM28.9406 29.4155L29.9152 28.4408L29.7738 28.2994L28.7992 29.2741L28.9406 29.4155Z" fill="#3F9BEF"/>
<path d="M25.8867 26.3872L26.8884 25.3855L29.3587 27.8558L28.357 28.8575L25.8867 26.3872Z" fill="#3F9BEF" stroke="#3F9BEF" stroke-width="0.2"/>
<path d="M21.543 16.0835V17.5001C23.498 17.5025 25.0823 19.0868 25.0846 21.0418H26.5013C26.4982 18.3047 24.2801 16.0866 21.543 16.0835Z" fill="#3F9BEF" stroke="#3F9BEF" stroke-width="0.2"/>
<rect x="8.08203" y="24.5835" width="5.66664" height="1.41664" fill="#3F9BEF" stroke="#3F9BEF" stroke-width="0.2"/>
<path fill-rule="evenodd" clip-rule="evenodd" d="M9.5 5.45801C9.5 4.28441 10.4514 3.33301 11.625 3.33301C12.7986 3.33301 13.75 4.28441 13.75 5.45801C13.75 6.63161 12.7986 7.58301 11.625 7.58301C10.4514 7.58301 9.5 6.63161 9.5 5.45801ZM10.9166 5.45836C10.9166 5.84955 11.2338 6.16671 11.625 6.16671C12.0162 6.16671 12.3333 5.84962 12.3333 5.45836C12.3333 5.06716 12.0162 4.75 11.625 4.75C11.2338 4.75 10.9166 5.06716 10.9166 5.45836Z" fill="#3F9BEF"/>
<path d="M11.625 3.23301C10.3962 3.23301 9.4 4.22918 9.4 5.45801H9.6C9.6 4.33964 10.5066 3.43301 11.625 3.43301V3.23301ZM13.85 5.45801C13.85 4.22918 12.8538 3.23301 11.625 3.23301V3.43301C12.7434 3.43301 13.65 4.33964 13.65 5.45801H13.85ZM11.625 7.68301C12.8538 7.68301 13.85 6.68683 13.85 5.45801H13.65C13.65 6.57638 12.7434 7.48301 11.625 7.48301V7.68301ZM9.4 5.45801C9.4 6.68683 10.3962 7.68301 11.625 7.68301V7.48301C10.5066 7.48301 9.6 6.57638 9.6 5.45801H9.4ZM11.625 6.06671C11.289 6.06671 11.0166 5.79433 11.0166 5.45836H10.8166C10.8166 5.90478 11.1786 6.26671 11.625 6.26671V6.06671ZM12.2333 5.45836C12.2333 5.79439 11.961 6.06671 11.625 6.06671V6.26671C12.0714 6.26671 12.4333 5.90486 12.4333 5.45836H12.2333ZM11.625 4.85C11.961 4.85 12.2333 5.12238 12.2333 5.45836H12.4333C12.4333 5.01193 12.0714 4.65 11.625 4.65V4.85ZM11.0166 5.45836C11.0166 5.12238 11.289 4.85 11.625 4.85V4.65C11.1786 4.65 10.8166 5.01193 10.8166 5.45836H11.0166Z" fill="#3F9BEF"/>
<path fill-rule="evenodd" clip-rule="evenodd" d="M14.457 10.417C14.457 9.24339 15.4084 8.29199 16.582 8.29199C17.7556 8.29199 18.707 9.24339 18.707 10.417C18.707 11.5906 17.7556 12.542 16.582 12.542C15.4084 12.542 14.457 11.5906 14.457 10.417ZM15.8737 10.4164C15.8737 10.8076 16.1908 11.1247 16.582 11.1247C16.9732 11.1247 17.2903 10.8076 17.2904 10.4164C17.2904 10.0252 16.9732 9.70801 16.582 9.70801C16.1908 9.70801 15.8737 10.0252 15.8737 10.4164Z" fill="#3F9BEF"/>
<path d="M17.2904 10.4164L17.3904 10.4164V10.4164H17.2904ZM16.582 8.19199C15.3532 8.19199 14.357 9.18817 14.357 10.417H14.557C14.557 9.29862 15.4637 8.39199 16.582 8.39199V8.19199ZM18.807 10.417C18.807 9.18817 17.8109 8.19199 16.582 8.19199V8.39199C17.7004 8.39199 18.607 9.29862 18.607 10.417H18.807ZM16.582 12.642C17.8109 12.642 18.807 11.6458 18.807 10.417H18.607C18.607 11.5354 17.7004 12.442 16.582 12.442V12.642ZM14.357 10.417C14.357 11.6458 15.3532 12.642 16.582 12.642V12.442C15.4637 12.442 14.557 11.5354 14.557 10.417H14.357ZM16.582 11.0247C16.246 11.0247 15.9737 10.7523 15.9737 10.4164H15.7737C15.7737 10.8628 16.1356 11.2247 16.582 11.2247V11.0247ZM17.1904 10.4163C17.1903 10.7523 16.918 11.0247 16.582 11.0247V11.2247C17.0285 11.2247 17.3903 10.8628 17.3904 10.4164L17.1904 10.4163ZM16.582 9.80801C16.918 9.80801 17.1904 10.0804 17.1904 10.4164H17.3904C17.3904 9.96994 17.0284 9.60801 16.582 9.60801V9.80801ZM15.9737 10.4164C15.9737 10.0804 16.246 9.80801 16.582 9.80801V9.60801C16.1356 9.60801 15.7737 9.96994 15.7737 10.4164H15.9737Z" fill="#3F9BEF"/>
<path d="M6.875 9.20752L10.4166 5.66592L11.4183 6.66763L7.87671 10.2092L6.875 9.20752Z" fill="#3F9BEF" stroke="#3F9BEF" stroke-width="0.2"/>
<path d="M11.8281 6.66943L12.8298 5.66772L16.3714 9.20932L15.3697 10.211L11.8281 6.66943Z" fill="#3F9BEF" stroke="#3F9BEF" stroke-width="0.2"/>
<path fill-rule="evenodd" clip-rule="evenodd" d="M19.418 5.45801C19.418 4.28441 20.3694 3.33301 21.543 3.33301C22.7166 3.33301 23.668 4.28441 23.668 5.45801C23.668 6.63161 22.7166 7.58301 21.543 7.58301C20.3694 7.58301 19.418 6.63161 19.418 5.45801ZM20.8347 5.45836C20.8347 5.84955 21.1518 6.16671 21.543 6.16671C21.9342 6.16671 22.2514 5.84962 22.2514 5.45836C22.2514 5.06716 21.9342 4.75 21.543 4.75C21.1518 4.75 20.8347 5.06716 20.8347 5.45836Z" fill="#3F9BEF"/>
<path d="M23.668 5.45801L23.568 5.458V5.45801H23.668ZM21.543 3.23301C20.3141 3.23301 19.318 4.22918 19.318 5.45801H19.518C19.518 4.33964 20.4246 3.43301 21.543 3.43301V3.23301ZM23.768 5.45801C23.768 4.22918 22.7719 3.23301 21.543 3.23301V3.43301C22.6614 3.43301 23.568 4.33964 23.568 5.458L23.768 5.45801ZM21.543 7.68301C22.7718 7.68301 23.768 6.68683 23.768 5.45801H23.568C23.568 6.57638 22.6613 7.48301 21.543 7.48301V7.68301ZM19.318 5.45801C19.318 6.68683 20.3141 7.68301 21.543 7.68301V7.48301C20.4246 7.48301 19.518 6.57638 19.518 5.45801H19.318ZM21.543 6.06671C21.207 6.06671 20.9347 5.79433 20.9347 5.45836H20.7347C20.7347 5.90478 21.0966 6.26671 21.543 6.26671V6.06671ZM22.1514 5.45836C22.1514 5.79439 21.879 6.06671 21.543 6.06671V6.26671C21.9894 6.26671 22.3514 5.90486 22.3514 5.45836H22.1514ZM21.543 4.85C21.879 4.85 22.1514 5.12238 22.1514 5.45836H22.3514C22.3514 5.01193 21.9894 4.65 21.543 4.65V4.85ZM20.9347 5.45836C20.9347 5.12238 21.207 4.85 21.543 4.85V4.65C21.0966 4.65 20.7347 5.01193 20.7347 5.45836H20.9347Z" fill="#3F9BEF"/>
<path d="M16.7891 9.20996L20.3307 5.66836L21.3324 6.67007L17.7908 10.2117L16.7891 9.20996Z" fill="#3F9BEF" stroke="#3F9BEF" stroke-width="0.2"/>
</svg>
