<svg width="36" height="36" viewBox="0 0 36 36" fill="none" xmlns="http://www.w3.org/2000/svg">
<g opacity="0.198126">
<path d="M27.2084 1H3.125C1.9514 1 1 1.9514 1 3.125V20.125C1 21.2986 1.9514 22.25 3.125 22.25H12.3334V20.8334H3.125C2.7338 20.8334 2.41664 20.5162 2.41664 20.125V3.125C2.41664 2.7338 2.7338 2.41664 3.125 2.41664H27.2084C27.5996 2.41664 27.9167 2.7338 27.9167 3.125V15.875H29.3334V3.125C29.3334 1.9514 28.382 1 27.2084 1Z" fill="black" stroke="black" stroke-width="0.2"/>
<rect x="9.5" y="21.5415" width="1.41664" height="4.25" fill="black" stroke="black" stroke-width="0.2"/>
<path d="M5.9585 18C5.5673 18 5.25014 17.6828 5.25014 17.2916V15.875H3.8335V17.2916C3.8335 18.4652 4.7849 19.4166 5.9585 19.4166H7.37514V18H5.9585Z" fill="black" stroke="black" stroke-width="0.2"/>
<rect x="3.8335" y="13.0415" width="1.41664" height="1.41664" fill="black" stroke="black" stroke-width="0.2"/>
<path fill-rule="evenodd" clip-rule="evenodd" d="M21.4448 13.7495C23.4862 13.7494 25.4441 14.5605 26.8875 16.0041C29.8927 19.0099 29.8923 23.8828 26.8865 26.888C25.4433 28.3309 23.4862 29.1416 21.4454 29.1416C17.195 29.1417 13.7492 25.6963 13.749 21.4459C13.7489 17.1955 17.1944 13.7497 21.4448 13.7495ZM15.1639 21.4441C15.1627 24.9121 17.9731 27.7244 21.4411 27.7256C24.9091 27.7268 27.7214 24.9164 27.7226 21.4484C27.7232 19.7834 27.0625 18.1864 25.8859 17.0085C24.7115 15.8256 23.1122 15.1624 21.4454 15.1669C17.9774 15.1657 15.1651 17.9761 15.1639 21.4441Z" fill="black"/>
<path d="M26.8875 16.0041L26.9582 15.9334L26.9582 15.9334L26.8875 16.0041ZM21.4448 13.7495L21.4448 13.6495H21.4448L21.4448 13.7495ZM26.8865 26.888L26.9572 26.9587L26.8865 26.888ZM21.4454 29.1416L21.4454 29.2416L21.4454 29.1416ZM13.749 21.4459L13.649 21.4459V21.4459L13.749 21.4459ZM21.4411 27.7256L21.4412 27.6256L21.4411 27.7256ZM15.1639 21.4441L15.2639 21.4442L15.1639 21.4441ZM27.7226 21.4484L27.8226 21.4484V21.4484L27.7226 21.4484ZM25.8859 17.0085L25.8149 17.079L25.8151 17.0792L25.8859 17.0085ZM21.4454 15.1669L21.4453 15.2669L21.4456 15.2669L21.4454 15.1669ZM26.9582 15.9334C25.4961 14.471 23.5128 13.6494 21.4448 13.6495L21.4448 13.8495C23.4597 13.8494 25.3921 14.6499 26.8168 16.0748L26.9582 15.9334ZM26.9572 26.9587C30.002 23.9144 30.0025 18.9783 26.9582 15.9334L26.8168 16.0748C29.7829 19.0416 29.7825 23.8511 26.8158 26.8173L26.9572 26.9587ZM21.4454 29.2416C23.5127 29.2415 25.4952 28.4204 26.9572 26.9587L26.8158 26.8173C25.3913 28.2415 23.4597 29.0416 21.4454 29.0416L21.4454 29.2416ZM13.649 21.4459C13.6492 25.7515 17.1398 29.2418 21.4454 29.2416L21.4454 29.0416C17.2502 29.0417 13.8492 25.641 13.849 21.4459L13.649 21.4459ZM21.4448 13.6495C17.1391 13.6497 13.6489 17.1402 13.649 21.4459L13.849 21.4459C13.8489 17.2507 17.2496 13.8497 21.4448 13.8495L21.4448 13.6495ZM21.4412 27.6256C18.0284 27.6245 15.2627 24.8569 15.2639 21.4442L15.0639 21.4441C15.0627 24.9673 17.9179 27.8244 21.4411 27.8256L21.4412 27.6256ZM27.6226 21.4484C27.6214 24.8611 24.8539 27.6268 21.4412 27.6256L21.4411 27.8256C24.9643 27.8269 27.8214 24.9716 27.8226 21.4484L27.6226 21.4484ZM25.8151 17.0792C26.973 18.2384 27.6231 19.8099 27.6226 21.4484L27.8226 21.4484C27.8232 19.757 27.152 18.1345 25.9566 16.9379L25.8151 17.0792ZM21.4456 15.2669C23.0858 15.2624 24.6594 15.9151 25.8149 17.079L25.9569 16.9381C24.7636 15.7362 23.1387 15.0623 21.4451 15.0669L21.4456 15.2669ZM15.2639 21.4442C15.2651 18.0314 18.0326 15.2657 21.4453 15.2669L21.4454 15.0669C17.9222 15.0657 15.0651 17.9209 15.0639 21.4441L15.2639 21.4442Z" fill="black"/>
<path fill-rule="evenodd" clip-rule="evenodd" d="M30.3463 27.3677L34.7925 31.8124C35.0691 32.089 35.0691 32.5374 34.7925 32.8141L32.8163 34.7903C32.6839 34.9239 32.5036 34.9993 32.3155 34.9999C32.1277 34.9999 31.9476 34.9253 31.8148 34.7924L27.3685 30.3455C27.092 30.0689 27.092 29.6205 27.3685 29.3439L29.3448 27.3677C29.4776 27.2349 29.6577 27.1602 29.8455 27.1602C30.0333 27.1602 30.2135 27.2349 30.3463 27.3677ZM28.8708 29.8447L32.3155 33.2901L33.2901 32.3154L29.8455 28.8701L28.8708 29.8447Z" fill="black"/>
<path d="M34.7925 31.8124L34.8633 31.7417L34.8632 31.7417L34.7925 31.8124ZM30.3463 27.3677L30.2756 27.4384L30.2756 27.4384L30.3463 27.3677ZM34.7925 32.8141L34.8632 32.8848L34.8633 32.8847L34.7925 32.8141ZM32.8163 34.7903L32.7456 34.7196L32.7453 34.7199L32.8163 34.7903ZM32.3155 34.9999V35.0999L32.3158 35.0999L32.3155 34.9999ZM31.8148 34.7924L31.8855 34.7217L31.8855 34.7217L31.8148 34.7924ZM27.3685 30.3455L27.2978 30.4162L27.2978 30.4162L27.3685 30.3455ZM27.3685 29.3439L27.2978 29.2732L27.2978 29.2732L27.3685 29.3439ZM29.3448 27.3677L29.4155 27.4384L29.3448 27.3677ZM29.8455 27.1602V27.0602L29.8455 27.0602L29.8455 27.1602ZM32.3155 33.2901L32.2447 33.3608L32.3154 33.4315L32.3862 33.3608L32.3155 33.2901ZM28.8708 29.8447L28.8001 29.774L28.7294 29.8447L28.8001 29.9154L28.8708 29.8447ZM33.2901 32.3154L33.3608 32.3861L33.4315 32.3154L33.3608 32.2447L33.2901 32.3154ZM29.8455 28.8701L29.9162 28.7993L29.8455 28.7286L29.7748 28.7993L29.8455 28.8701ZM34.8632 31.7417L30.417 27.297L30.2756 27.4384L34.7218 31.8832L34.8632 31.7417ZM34.8633 32.8847C35.1788 32.5691 35.1788 32.0574 34.8633 31.7417L34.7218 31.8831C34.9593 32.1207 34.9593 32.5058 34.7218 32.7434L34.8633 32.8847ZM32.887 34.861L34.8632 32.8848L34.7218 32.7433L32.7456 34.7196L32.887 34.861ZM32.3158 35.0999C32.5305 35.0993 32.7362 35.0132 32.8873 34.8607L32.7453 34.7199C32.6316 34.8346 32.4768 34.8994 32.3152 34.8999L32.3158 35.0999ZM31.744 34.8631C31.8956 35.0148 32.1012 35.0999 32.3155 35.0999V34.8999C32.1543 34.8999 31.9995 34.8358 31.8855 34.7217L31.744 34.8631ZM27.2978 30.4162L31.744 34.8631L31.8855 34.7217L27.4392 30.2748L27.2978 30.4162ZM27.2978 29.2732C26.9822 29.5889 26.9823 30.1005 27.2978 30.4162L27.4392 30.2748C27.2018 30.0372 27.2018 29.6522 27.4392 29.4146L27.2978 29.2732ZM29.2741 27.297L27.2978 29.2732L27.4392 29.4146L29.4155 27.4384L29.2741 27.297ZM29.8455 27.0602C29.6311 27.0602 29.4256 27.1454 29.2741 27.297L29.4155 27.4384C29.5295 27.3243 29.6842 27.2602 29.8456 27.2602L29.8455 27.0602ZM30.417 27.297C30.2655 27.1454 30.0599 27.0602 29.8455 27.0602V27.2602C30.0068 27.2602 30.1615 27.3243 30.2756 27.4384L30.417 27.297ZM32.3862 33.2193L28.9415 29.774L28.8001 29.9154L32.2447 33.3608L32.3862 33.2193ZM33.2194 32.2447L32.2447 33.2193L32.3862 33.3608L33.3608 32.3861L33.2194 32.2447ZM29.7748 28.9408L33.2194 32.3861L33.3608 32.2447L29.9162 28.7993L29.7748 28.9408ZM28.9415 29.9154L29.9162 28.9408L29.7748 28.7993L28.8001 29.774L28.9415 29.9154Z" fill="black"/>
<path d="M25.8857 26.8872L26.8875 25.8855L29.3577 28.3558L28.356 29.3575L25.8857 26.8872Z" fill="black" stroke="black" stroke-width="0.2"/>
<path d="M21.5417 16.5835V18.0001C23.4968 18.0025 25.0811 19.5868 25.0834 21.5418H26.5C26.497 18.8047 24.2789 16.5866 21.5417 16.5835Z" fill="black" stroke="black" stroke-width="0.2"/>
<rect x="8.0835" y="25.0835" width="5.66664" height="1.41664" fill="black" stroke="black" stroke-width="0.2"/>
<path fill-rule="evenodd" clip-rule="evenodd" d="M9.5 5.9585C9.5 4.7849 10.4514 3.8335 11.625 3.8335C12.7986 3.8335 13.75 4.7849 13.75 5.9585C13.75 7.13209 12.7986 8.0835 11.625 8.0835C10.4514 8.0835 9.5 7.13209 9.5 5.9585ZM10.9166 5.95843C10.9166 6.34963 11.2338 6.66679 11.625 6.66679C12.0162 6.66679 12.3334 6.3497 12.3334 5.95843C12.3334 5.56723 12.0162 5.25007 11.625 5.25007C11.2338 5.25007 10.9166 5.56723 10.9166 5.95843Z" fill="black"/>
<path d="M11.625 3.7335C10.3962 3.7335 9.4 4.72967 9.4 5.9585H9.6C9.6 4.84013 10.5066 3.9335 11.625 3.9335V3.7335ZM13.85 5.9585C13.85 4.72967 12.8538 3.7335 11.625 3.7335V3.9335C12.7434 3.9335 13.65 4.84013 13.65 5.9585H13.85ZM11.625 8.1835C12.8538 8.1835 13.85 7.18732 13.85 5.9585H13.65C13.65 7.07687 12.7434 7.9835 11.625 7.9835V8.1835ZM9.4 5.9585C9.4 7.18732 10.3962 8.1835 11.625 8.1835V7.9835C10.5066 7.9835 9.6 7.07687 9.6 5.9585H9.4ZM11.625 6.56679C11.289 6.56679 11.0166 6.2944 11.0166 5.95843H10.8166C10.8166 6.40486 11.1786 6.76679 11.625 6.76679V6.56679ZM12.2334 5.95843C12.2334 6.29446 11.961 6.56679 11.625 6.56679V6.76679C12.0714 6.76679 12.4334 6.40493 12.4334 5.95843H12.2334ZM11.625 5.35007C11.961 5.35007 12.2334 5.62246 12.2334 5.95843H12.4334C12.4334 5.512 12.0714 5.15007 11.625 5.15007V5.35007ZM11.0166 5.95843C11.0166 5.62246 11.289 5.35007 11.625 5.35007V5.15007C11.1786 5.15007 10.8166 5.512 10.8166 5.95843H11.0166Z" fill="black"/>
<path fill-rule="evenodd" clip-rule="evenodd" d="M14.4585 10.9165C14.4585 9.74291 15.4099 8.7915 16.5835 8.7915C17.7571 8.7915 18.7085 9.74291 18.7085 10.9165C18.7085 12.0901 17.7571 13.0415 16.5835 13.0415C15.4099 13.0415 14.4585 12.0901 14.4585 10.9165ZM15.8751 10.9165C15.8751 11.3077 16.1923 11.6249 16.5835 11.6249C16.9747 11.6249 17.2918 11.3077 17.2919 10.9165C17.2919 10.5253 16.9747 10.2081 16.5835 10.2081C16.1923 10.2081 15.8751 10.5253 15.8751 10.9165Z" fill="black"/>
<path d="M17.2919 10.9165L17.3919 10.9165V10.9165H17.2919ZM16.5835 8.6915C15.3547 8.6915 14.3585 9.68768 14.3585 10.9165H14.5585C14.5585 9.79813 15.4651 8.8915 16.5835 8.8915V8.6915ZM18.8085 10.9165C18.8085 9.68768 17.8123 8.6915 16.5835 8.6915V8.8915C17.7019 8.8915 18.6085 9.79813 18.6085 10.9165H18.8085ZM16.5835 13.1415C17.8123 13.1415 18.8085 12.1453 18.8085 10.9165H18.6085C18.6085 12.0349 17.7019 12.9415 16.5835 12.9415V13.1415ZM14.3585 10.9165C14.3585 12.1453 15.3547 13.1415 16.5835 13.1415V12.9415C15.4651 12.9415 14.5585 12.0349 14.5585 10.9165H14.3585ZM16.5835 11.5249C16.2475 11.5249 15.9751 11.2525 15.9751 10.9165H15.7751C15.7751 11.3629 16.1371 11.7249 16.5835 11.7249V11.5249ZM17.1919 10.9165C17.1918 11.2525 16.9195 11.5249 16.5835 11.5249V11.7249C17.0299 11.7249 17.3918 11.3629 17.3919 10.9165L17.1919 10.9165ZM16.5835 10.3081C16.9195 10.3081 17.1919 10.5805 17.1919 10.9165H17.3919C17.3919 10.4701 17.0299 10.1081 16.5835 10.1081V10.3081ZM15.9751 10.9165C15.9751 10.5805 16.2475 10.3081 16.5835 10.3081V10.1081C16.1371 10.1081 15.7751 10.4701 15.7751 10.9165H15.9751Z" fill="black"/>
<path d="M6.87427 9.70752L10.4159 6.16592L11.4176 7.16763L7.87598 10.7092L6.87427 9.70752Z" fill="black" stroke="black" stroke-width="0.2"/>
<path d="M11.8293 7.16943L12.8311 6.16772L16.3727 9.70932L15.3709 10.711L11.8293 7.16943Z" fill="black" stroke="black" stroke-width="0.2"/>
<path fill-rule="evenodd" clip-rule="evenodd" d="M19.4167 5.9585C19.4167 4.7849 20.3682 3.8335 21.5417 3.8335C22.7154 3.8335 23.6668 4.7849 23.6667 5.9585C23.6667 7.13209 22.7153 8.0835 21.5417 8.0835C20.3682 8.0835 19.4167 7.13209 19.4167 5.9585ZM20.8334 5.95843C20.8334 6.34963 21.1505 6.66679 21.5417 6.66679C21.9329 6.66679 22.2501 6.3497 22.2501 5.95843C22.2501 5.56723 21.9329 5.25007 21.5417 5.25007C21.1505 5.25007 20.8334 5.56723 20.8334 5.95843Z" fill="black"/>
<path d="M23.6667 5.9585L23.5667 5.95849V5.9585H23.6667ZM21.5417 3.7335C20.3129 3.7335 19.3167 4.72967 19.3167 5.9585H19.5167C19.5167 4.84013 20.4234 3.9335 21.5417 3.9335V3.7335ZM23.7667 5.9585C23.7668 4.72967 22.7706 3.7335 21.5417 3.7335V3.9335C22.6602 3.9335 23.5668 4.84013 23.5667 5.95849L23.7667 5.9585ZM21.5417 8.1835C22.7706 8.1835 23.7667 7.18732 23.7667 5.9585H23.5667C23.5667 7.07687 22.6601 7.9835 21.5417 7.9835V8.1835ZM19.3167 5.9585C19.3167 7.18732 20.3129 8.1835 21.5417 8.1835V7.9835C20.4234 7.9835 19.5167 7.07687 19.5167 5.9585H19.3167ZM21.5417 6.56679C21.2058 6.56679 20.9334 6.2944 20.9334 5.95843H20.7334C20.7334 6.40486 21.0953 6.76679 21.5417 6.76679V6.56679ZM22.1501 5.95843C22.1501 6.29446 21.8777 6.56679 21.5417 6.56679V6.76679C21.9882 6.76679 22.3501 6.40493 22.3501 5.95843H22.1501ZM21.5417 5.35007C21.8777 5.35007 22.1501 5.62246 22.1501 5.95843H22.3501C22.3501 5.512 21.9882 5.15007 21.5417 5.15007V5.35007ZM20.9334 5.95843C20.9334 5.62246 21.2058 5.35007 21.5417 5.35007V5.15007C21.0953 5.15007 20.7334 5.512 20.7334 5.95843H20.9334Z" fill="black"/>
<path d="M16.7905 9.70996L20.3321 6.16836L21.3338 7.17007L17.7922 10.7117L16.7905 9.70996Z" fill="black" stroke="black" stroke-width="0.2"/>
</g>
</svg>
