<?xml version="1.0" encoding="utf-8"?>
<!-- Generator: Adobe Illustrator 23.1.0, SVG Export Plug-In . SVG Version: 6.00 Build 0)  -->
<svg version="1.1" id="Слой_1" xmlns="http://www.w3.org/2000/svg" xmlns:xlink="http://www.w3.org/1999/xlink" x="0px" y="0px"
	 viewBox="0 0 36 36" style="enable-background:new 0 0 36 36;" xml:space="preserve">
<style type="text/css">
	.st0{fill:url(#SVGID_1_);stroke:#FCD200;stroke-width:0.2;}
	.st1{fill:url(#SVGID_2_);stroke:#FCD200;stroke-width:0.2;}
	.st2{fill:url(#SVGID_3_);stroke:#FCD200;stroke-width:0.2;}
	.st3{fill:url(#SVGID_4_);stroke:#FCD200;stroke-width:0.2;}
	.st4{fill:url(#SVGID_5_);stroke:#FCD200;stroke-width:0.2;}
	.st5{fill:url(#SVGID_6_);stroke:#FCD200;stroke-width:0.2;}
</style>
<g>
	<linearGradient id="SVGID_1_" gradientUnits="userSpaceOnUse" x1="15.1667" y1="26.5001" x2="15.1667" y2="1">
		<stop  offset="0" style="stop-color:#33F0EC"/>
		<stop  offset="1" style="stop-color:#33F0C8"/>
	</linearGradient>
	<path class="st0" d="M10.9,22.3h1.4v-1.4H3.1c-0.4,0-0.7-0.3-0.7-0.7v-17c0-0.4,0.3-0.7,0.7-0.7h24.1c0.4,0,0.7,0.3,0.7,0.7v12.8
		h1.4V3.1c0-1.2-1-2.1-2.1-2.1H3.1C2,1,1,2,1,3.1v17c0,1.2,1,2.1,2.1,2.1h6.4v2.8H8.1v1.4h5.7v-1.4h-2.8V22.3z"/>
	<linearGradient id="SVGID_2_" gradientUnits="userSpaceOnUse" x1="5.6043" y1="19.4166" x2="5.6043" y2="15.875">
		<stop  offset="0" style="stop-color:#33F0EC"/>
		<stop  offset="1" style="stop-color:#33F0C8"/>
	</linearGradient>
	<path class="st1" d="M3.8,17.3c0,1.2,1,2.1,2.1,2.1h1.4V18H6c-0.4,0-0.7-0.3-0.7-0.7v-1.4H3.8V17.3z"/>
	<linearGradient id="SVGID_3_" gradientUnits="userSpaceOnUse" x1="4.5418" y1="14.4581" x2="4.5418" y2="13.0415">
		<stop  offset="0" style="stop-color:#33F0EC"/>
		<stop  offset="1" style="stop-color:#33F0C8"/>
	</linearGradient>
	<rect x="3.8" y="13" class="st2" width="1.4" height="1.4"/>
	<linearGradient id="SVGID_4_" gradientUnits="userSpaceOnUse" x1="24.3744" y1="35.0999" x2="24.3744" y2="13.6495">
		<stop  offset="0" style="stop-color:#33F0EC"/>
		<stop  offset="1" style="stop-color:#33F0C8"/>
	</linearGradient>
	<path class="st3" d="M34.9,31.7L34.9,31.7L34.9,31.7L34.9,31.7L34.9,31.7l-4.4-4.4c-0.2-0.2-0.4-0.2-0.6-0.2
		c-0.2,0-0.4,0.1-0.6,0.2l-0.5,0.5l-1.4-1.4c2.6-3.1,2.4-7.6-0.5-10.5c-1.5-1.5-3.4-2.3-5.5-2.3c-4.3,0-7.8,3.5-7.8,7.8
		c0,4.3,3.5,7.8,7.8,7.8c1.8,0,3.6-0.6,5-1.8l1.4,1.4l-0.5,0.5c-0.3,0.3-0.3,0.8,0,1.1l4.4,4.4c0.2,0.2,0.4,0.2,0.6,0.2h0
		c0.2,0,0.4-0.1,0.6-0.2l0,0l2-2l0,0l-0.1-0.1l0,0h0l0.1,0.1C35.2,32.6,35.2,32.1,34.9,31.7z M21.4,15.2L21.4,15.2l0,0.1h0
		c1.6,0,3.2,0.6,4.4,1.8l0,0l0.1-0.1l0,0l-0.1,0.1c1.2,1.2,1.8,2.7,1.8,4.4c0,3.4-2.8,6.2-6.2,6.2c-3.4,0-6.2-2.8-6.2-6.2
		c0-3.4,2.8-6.2,6.2-6.2L21.4,15.2L21.4,15.2z M32.3,33.1L29,29.8l0.8-0.8l3.3,3.3L32.3,33.1z M32.3,33.3L32.3,33.3L32.3,33.3
		L32.3,33.3L32.3,33.3z M32.8,34.8L32.8,34.8L32.8,34.8L32.8,34.8z"/>
	<linearGradient id="SVGID_5_" gradientUnits="userSpaceOnUse" x1="24.0208" y1="21.5418" x2="24.0208" y2="16.5835">
		<stop  offset="0" style="stop-color:#33F0EC"/>
		<stop  offset="1" style="stop-color:#33F0C8"/>
	</linearGradient>
	<path class="st4" d="M25.1,21.5h1.4c0-2.7-2.2-5-5-5V18C23.5,18,25.1,19.6,25.1,21.5z"/>
	<linearGradient id="SVGID_6_" gradientUnits="userSpaceOnUse" x1="15.3205" y1="13.1415" x2="15.3205" y2="3.7335">
		<stop  offset="0" style="stop-color:#33F0EC"/>
		<stop  offset="1" style="stop-color:#33F0C8"/>
	</linearGradient>
	<path class="st5" d="M21.5,8.2c1.2,0,2.2-1,2.2-2.2c0-1.2-1-2.2-2.2-2.2c-1.2,0-2.2,1-2.2,2.2c0,0.4,0.1,0.7,0.2,1l-2,2
		c-0.3-0.1-0.6-0.2-1-0.2c-0.4,0-0.7,0.1-1,0.2l-2-2c0.1-0.3,0.2-0.6,0.2-1c0-1.2-1-2.2-2.2-2.2S9.4,4.7,9.4,6c0,0.4,0.1,0.7,0.2,1
		L6.9,9.7l1,1l2.8-2.8c0.3,0.1,0.6,0.2,1,0.2c0.4,0,0.7-0.1,1-0.2l2,2c-0.1,0.3-0.2,0.6-0.2,1c0,1.2,1,2.2,2.2,2.2s2.2-1,2.2-2.2
		c0-0.4-0.1-0.7-0.2-1l2-2C20.9,8.1,21.2,8.2,21.5,8.2z M21.5,6.6c-0.3,0-0.6-0.3-0.6-0.6c0-0.3,0.3-0.6,0.6-0.6
		c0.3,0,0.6,0.3,0.6,0.6S21.9,6.6,21.5,6.6z M16.6,11.5c-0.3,0-0.6-0.3-0.6-0.6s0.3-0.6,0.6-0.6s0.6,0.3,0.6,0.6
		C17.2,11.3,16.9,11.5,16.6,11.5z M11.6,5.4c0.3,0,0.6,0.3,0.6,0.6S12,6.6,11.6,6.6S11,6.3,11,6C11,5.6,11.3,5.4,11.6,5.4z"/>
</g>
</svg>
