<svg width="15" height="8" viewBox="0 0 15 8" fill="none" xmlns="http://www.w3.org/2000/svg">
<path d="M7.00125 7.00028C6.7676 7.00073 6.54116 6.91936 6.36125 6.77028L0.361252 1.77028C0.157036 1.60054 0.0286112 1.35663 0.0042315 1.0922C-0.0201482 0.827773 0.0615137 0.564492 0.231252 0.360275C0.400991 0.156059 0.644902 0.0276347 0.909329 0.00325496C1.17375 -0.0211248 1.43704 0.0605367 1.64125 0.230275L7.00125 4.71028L12.3613 0.390276C12.4635 0.30721 12.5812 0.245178 12.7076 0.207747C12.8339 0.170315 12.9664 0.158221 13.0974 0.17216C13.2285 0.186099 13.3554 0.225796 13.4711 0.28897C13.5867 0.352144 13.6887 0.437549 13.7713 0.540276C13.8628 0.643097 13.9322 0.763723 13.975 0.894597C14.0178 1.02547 14.0331 1.16377 14.0199 1.30083C14.0068 1.4379 13.9655 1.57077 13.8986 1.69113C13.8317 1.81148 13.7407 1.91673 13.6313 2.00028L7.63125 6.83028C7.44617 6.95579 7.22435 7.01565 7.00125 7.00028Z" fill="#515C6A"/>
</svg>
