<svg width="22" height="22" viewBox="0 0 22 22" fill="none" xmlns="http://www.w3.org/2000/svg">
<path fill-rule="evenodd" clip-rule="evenodd" d="M19.3177 8.42338L20.861 8.68518C21.5177 8.79541 21.9954 9.36033 21.9862 10.0263V11.9599C21.9862 12.6259 21.5086 13.1908 20.8518 13.301L19.3086 13.5582C19.1524 14.0727 18.9411 14.5733 18.6885 15.0555L19.5979 16.3324C19.9837 16.8743 19.9194 17.6138 19.4509 18.0823L18.0823 19.4509C17.8251 19.7081 17.4852 19.8505 17.1223 19.8505C16.8376 19.8505 16.562 19.7633 16.3324 19.5979L15.0601 18.6885C14.5825 18.9411 14.0818 19.1478 13.5628 19.3086L13.301 20.8518C13.1908 21.5086 12.6259 21.9862 11.9599 21.9862H10.0217C9.35574 21.9862 8.79081 21.5086 8.68058 20.8518L8.42338 19.3086C7.92276 19.1524 7.43591 18.9549 6.97202 18.7115L5.68142 19.6301C5.45177 19.7954 5.18079 19.8827 4.89603 19.8827C4.53319 19.8827 4.19332 19.7403 3.93612 19.4831L2.56743 18.1144C2.09436 17.6459 2.03466 16.9065 2.42046 16.3645L3.32526 15.1061C3.06806 14.6284 2.85679 14.1278 2.69603 13.6134L1.13445 13.347C0.477662 13.2367 0 12.6718 0 12.0058V10.0722C0 9.40626 0.477662 8.84134 1.13445 8.73111L2.65929 8.4739C2.81545 7.95491 3.01754 7.45428 3.27015 6.97202L2.35157 5.68142C1.96576 5.13946 2.03006 4.4 2.49854 3.93152L3.87182 2.56284C4.12443 2.30564 4.46889 2.16326 4.83173 2.16326C5.11649 2.16326 5.39207 2.25052 5.62171 2.41587L6.88476 3.32526C7.36242 3.06806 7.86305 2.85679 8.37745 2.69603L8.64384 1.13445C8.75407 0.477662 9.319 0 9.98497 0H11.9186C12.5846 0 13.1495 0.477662 13.2597 1.13445L13.5169 2.65929C14.0543 2.82004 14.5733 3.03591 15.0693 3.2977L16.3461 2.38831C16.5758 2.22296 16.8468 2.1357 17.1315 2.1357C17.4944 2.1357 17.8342 2.27808 18.0914 2.53528L19.4601 3.90397C19.9332 4.37244 19.9929 5.1119 19.6071 5.65386L18.6977 6.9261C18.9503 7.40376 19.157 7.90438 19.3177 8.42338ZM20.6543 12.0793C20.714 12.0701 20.7553 12.0196 20.7553 11.9599H20.7599V10.0263C20.7599 9.9666 20.7186 9.91608 20.6589 9.90689L18.7299 9.58079C18.491 9.54405 18.2935 9.36493 18.2338 9.1261C18.0593 8.45094 17.7929 7.80334 17.4347 7.20167C17.3106 6.9904 17.3198 6.72401 17.4622 6.52651L18.5967 4.93278C18.6288 4.88225 18.6242 4.81795 18.5829 4.77662L17.2142 3.40793C17.182 3.37578 17.1453 3.37119 17.1269 3.37119C17.104 3.37119 17.081 3.38038 17.058 3.39415L15.4735 4.53319C15.2714 4.67557 15.0096 4.68476 14.7983 4.56075C14.1829 4.19791 13.5215 3.92693 12.828 3.7524C12.5891 3.69269 12.41 3.4952 12.3687 3.25177L12.0472 1.33653C12.038 1.27683 11.9875 1.23549 11.9278 1.23549H9.99415C9.93445 1.23549 9.88393 1.27683 9.87474 1.33653L9.54405 3.27933C9.50271 3.51816 9.32359 3.71106 9.08935 3.77537C8.4142 3.9499 7.7666 4.22547 7.16952 4.58372C6.95825 4.70772 6.69186 4.69854 6.48977 4.55616L4.90522 3.4263C4.88685 3.41253 4.86388 3.40334 4.83633 3.40334C4.81336 3.40334 4.78121 3.40793 4.74906 3.44008L3.38038 4.80877C3.33904 4.8501 3.33445 4.919 3.3666 4.96493L4.51023 6.57244C4.65261 6.76994 4.66639 7.03173 4.54238 7.24301C4.18873 7.84468 3.92693 8.49687 3.75699 9.17202C3.69729 9.41086 3.49979 9.58998 3.25637 9.63132L1.34113 9.95282C1.28142 9.962 1.24008 10.0125 1.24008 10.0722V12.0058C1.24008 12.0656 1.28142 12.1161 1.34113 12.1253L3.28392 12.4559C3.52276 12.4973 3.71566 12.6764 3.77996 12.9106C3.95449 13.5858 4.23006 14.2334 4.58831 14.8305C4.71232 15.0418 4.70313 15.3081 4.56075 15.5102L3.4309 17.0948C3.39875 17.1453 3.40334 17.2096 3.44468 17.2509L4.81336 18.6196C4.84551 18.6518 4.88225 18.6564 4.90063 18.6564C4.92359 18.6564 4.94656 18.6472 4.96952 18.6334L6.57704 17.4898C6.68267 17.4117 6.81127 17.3749 6.93528 17.3749C7.04092 17.3749 7.15115 17.4025 7.2476 17.4576C7.84008 17.7975 8.4739 18.0593 9.13069 18.2292C9.36493 18.2889 9.54405 18.4818 9.58539 18.7253L9.90689 20.6543C9.91608 20.714 9.9666 20.7553 10.0263 20.7553H11.9599C12.0196 20.7553 12.0701 20.714 12.0793 20.6543L12.4054 18.7253C12.4422 18.4864 12.6213 18.2889 12.8601 18.2292C13.5353 18.0547 14.1829 17.7883 14.7846 17.4301C14.9958 17.3061 15.2622 17.3152 15.4597 17.4576L17.0534 18.5921C17.0718 18.6058 17.0948 18.615 17.1223 18.615C17.1453 18.615 17.1775 18.6104 17.2096 18.5783L18.5783 17.2096C18.6196 17.1683 18.6242 17.0994 18.5921 17.0534L17.4576 15.4551C17.3152 15.253 17.3061 14.9912 17.4301 14.78C17.7883 14.1783 18.0547 13.5307 18.2292 12.8555C18.2889 12.6213 18.4818 12.4422 18.7253 12.4008L20.6543 12.0793Z" fill="white"/>
<path fill-rule="evenodd" clip-rule="evenodd" d="M6.25098 10.991C6.25098 8.3731 8.37749 6.24658 10.9954 6.24658C13.6134 6.24658 15.7399 8.3731 15.7399 10.991C15.7399 13.609 13.6134 15.7355 10.9954 15.7355C8.37749 15.7355 6.25098 13.609 6.25098 10.991ZM7.49106 10.991C7.49106 12.9247 9.06183 14.4954 10.9954 14.4954C12.9291 14.4954 14.4998 12.9247 14.4998 10.991C14.4998 9.05744 12.9291 7.48667 10.9954 7.48667C9.06183 7.48667 7.49106 9.05744 7.49106 10.991Z" fill="white"/>
</svg>
