<svg width="20" height="23" viewBox="0 0 20 23" fill="none" xmlns="http://www.w3.org/2000/svg">
<path d="M13.304 2.83344C13.0686 1.2182 11.6328 0 9.96432 0C8.89129 0 7.87222 0.507025 7.23862 1.35677C7.1092 1.53007 7.14792 1.77316 7.3249 1.89989C7.50129 2.02616 7.75013 1.9887 7.87932 1.81518C8.36432 1.16537 9.14362 0.777332 9.9642 0.777332C11.2402 0.777332 12.338 1.70849 12.518 2.94309C12.5464 3.13699 12.7163 3.27693 12.9106 3.27693C12.9291 3.27693 12.9482 3.27556 12.9671 3.27306C13.1841 3.24266 13.3349 3.04579 13.304 2.83344Z" fill="white"/>
<path d="M19.0368 7.18419L17.8461 5.24091C17.7744 5.12375 17.6452 5.05225 17.5057 5.05225H16.3647C16.1456 5.05225 15.9678 5.22634 15.9678 5.44085C15.9678 5.65537 16.1456 5.82946 16.3647 5.82946H17.2811L17.9955 6.9954H1.93373L2.64815 5.82946H3.0685C3.28757 5.82946 3.46536 5.65537 3.46536 5.44085C3.46536 5.22634 3.28757 5.05225 3.0685 5.05225H2.4235C2.28396 5.05225 2.15478 5.12375 2.08315 5.24091L0.89245 7.18419C0.818845 7.30442 0.817101 7.45392 0.88745 7.57576C0.957799 7.69759 1.08966 7.77296 1.2328 7.77296H18.6964C18.8395 7.77296 18.9713 7.69759 19.0418 7.57576C19.1122 7.45392 19.1104 7.3042 19.0368 7.18419Z" fill="white"/>
<path d="M17.0587 3.60066C17.0032 3.51287 16.9144 3.45059 16.8119 3.42713L11.4013 2.18798C11.2988 2.16441 11.1909 2.18194 11.1014 2.23614C11.0121 2.29057 10.9484 2.37744 10.9244 2.47787L10.5164 4.18579C10.4664 4.39473 10.599 4.60377 10.8125 4.65251C11.0258 4.70147 11.2395 4.57167 11.2893 4.36262L11.607 3.03328L16.2445 4.0955L15.5158 7.14641C15.4658 7.35535 15.5984 7.5644 15.8119 7.61313C15.8425 7.62008 15.8728 7.62338 15.9028 7.62338C16.083 7.62338 16.2462 7.50246 16.2886 7.32335L17.1078 3.89408C17.132 3.79376 17.1143 3.6881 17.0587 3.60066Z" fill="white"/>
<path d="M10.1738 4.51939L9.81222 1.52427C9.79989 1.42191 9.74652 1.32843 9.66373 1.26467C9.58094 1.2009 9.4764 1.17175 9.3714 1.18382L2.73303 1.95216C2.51547 1.97744 2.35989 2.17055 2.38559 2.38381L2.9885 7.37925C3.01245 7.57703 3.18373 7.72243 3.38222 7.72243C3.39768 7.72243 3.41361 7.7214 3.42943 7.7197C3.64687 7.69442 3.80245 7.50131 3.77687 7.28805L3.22047 2.67825L9.07059 2.00123L9.38547 4.61037C9.41129 4.82352 9.60757 4.97495 9.82629 4.95081C10.0438 4.92576 10.1994 4.73254 10.1738 4.51939Z" fill="white"/>
<path d="M13.3122 7.2366L12.5244 4.02867C12.4998 3.92859 12.4355 3.84194 12.3458 3.78808C12.2562 3.73468 12.1486 3.71794 12.0457 3.74185L5.65186 5.24756C5.43872 5.29766 5.30756 5.50762 5.35872 5.71632L5.75244 7.31972C5.8036 7.52866 6.01802 7.65721 6.23104 7.60676C6.44418 7.55667 6.57535 7.34671 6.52418 7.138L6.22314 5.91239L11.8452 4.58864L12.5402 7.41855C12.5838 7.59674 12.7466 7.7163 12.9258 7.7163C12.9566 7.7163 12.9878 7.71277 13.0191 7.70537C13.2322 7.65516 13.3634 7.44531 13.3122 7.2366Z" fill="white"/>
<path fill-rule="evenodd" clip-rule="evenodd" d="M18.6955 6.99573C18.9069 6.99573 19.0811 7.15787 19.092 7.36441L19.8858 22.5216C19.8913 22.6281 19.852 22.7321 19.7772 22.8093C19.7019 22.8865 19.5978 22.9302 19.4891 22.9302H0.437934C0.329097 22.9302 0.225143 22.8863 0.150143 22.8093C0.0752594 22.7321 0.035957 22.628 0.0415384 22.5216L0.835376 7.36441C0.846306 7.15775 1.02049 6.99573 1.23189 6.99573H18.6955ZM1.60875 7.77295L0.855608 22.1528H19.0713L18.3182 7.77295H1.60875Z" fill="white"/>
<path fill-rule="evenodd" clip-rule="evenodd" d="M11.75 9.71611C11.75 9.07314 12.2841 8.55017 12.9407 8.55017C13.5973 8.55017 14.1314 9.07314 14.1314 9.71611C14.1314 10.3591 13.5973 10.8821 12.9407 10.8821C12.2841 10.8821 11.75 10.3591 11.75 9.71611ZM12.5438 9.71623C12.5438 9.93051 12.7217 10.1048 12.9407 10.1048C13.1595 10.1048 13.3376 9.93051 13.3376 9.71623C13.3376 9.50194 13.1595 9.32762 12.9407 9.32762C12.7219 9.32762 12.5438 9.50194 12.5438 9.71623Z" fill="white"/>
<path fill-rule="evenodd" clip-rule="evenodd" d="M5.79688 9.71611C5.79688 9.07314 6.33094 8.55017 6.98757 8.55017C7.6442 8.55017 8.17827 9.07314 8.17827 9.71611C8.17827 10.3591 7.6442 10.8821 6.98757 10.8821C6.33094 10.8821 5.79688 10.3591 5.79688 9.71611ZM6.59071 9.71623C6.59071 9.93051 6.76874 10.1048 6.98757 10.1048C7.20641 10.1048 7.38443 9.93051 7.38443 9.71623C7.38443 9.50194 7.20641 9.32762 6.98757 9.32762C6.76874 9.32762 6.59071 9.50194 6.59071 9.71623Z" fill="white"/>
<path d="M12.9402 9.71619H12.9096C12.6905 9.71619 12.5128 9.89028 12.5128 10.1048C12.5128 10.1579 12.5234 10.2085 12.5433 10.2546V12.2423C12.5433 13.6352 11.386 14.7686 9.96345 14.7686C8.54089 14.7686 7.38356 13.6353 7.38356 12.2423V10.1049C7.38356 9.89039 7.20577 9.7163 6.9867 9.7163C6.76763 9.7163 6.58984 9.89039 6.58984 10.1049V12.2424C6.58984 14.064 8.10322 15.5459 9.96345 15.5459C11.8237 15.5459 13.3371 14.064 13.3371 12.2424V10.1049C13.3371 9.89039 13.1593 9.71619 12.9402 9.71619Z" fill="white"/>
</svg>
