<svg width="24" height="22" viewBox="0 0 24 22" fill="none" xmlns="http://www.w3.org/2000/svg">
<path d="M12 4.6875C11.7413 4.6875 11.5312 4.89752 11.5312 5.15625C11.5312 5.41498 11.7413 5.625 12 5.625C12.2587 5.625 12.4688 5.41498 12.4688 5.15625C12.4688 4.89752 12.2587 4.6875 12 4.6875Z" fill="white"/>
<path d="M4.21875 13.125C4.47748 13.125 4.6875 12.915 4.6875 12.6562C4.6875 12.3975 4.47748 12.1875 4.21875 12.1875C3.96002 12.1875 3.75 12.3975 3.75 12.6562C3.75 12.915 3.96002 13.125 4.21875 13.125Z" fill="white"/>
<path fill-rule="evenodd" clip-rule="evenodd" d="M15.75 0C11.53 0 8.06635 2.90955 7.79846 6.5744C3.77948 6.776 0 9.67401 0 13.5938C0 15.2318 0.648193 16.819 1.82812 18.0765C2.06158 19.0389 1.77814 20.059 1.07483 20.7623C0.940796 20.8964 0.900696 21.098 0.973206 21.2732C1.04572 21.4482 1.21655 21.5625 1.40625 21.5625C2.7431 21.5625 4.03143 21.0383 4.98871 20.1145C5.92126 20.4324 7.138 20.625 8.25 20.625C12.4695 20.625 15.9327 17.7162 16.2014 14.0521C17.1828 14.0085 18.2036 13.8272 19.0113 13.552C19.9686 14.4758 21.2569 15 22.5938 15C22.7834 15 22.9543 14.8857 23.0268 14.7107C23.0993 14.5355 23.0592 14.3339 22.9252 14.1998C22.2219 13.4965 21.9384 12.4764 22.1719 11.514C23.3518 10.2565 24 8.66931 24 7.03125C24 2.95844 19.9294 0 15.75 0ZM8.25 19.6875C7.14368 19.6875 5.883 19.4703 5.03851 19.1343C4.8576 19.0622 4.65088 19.1096 4.51923 19.2534C3.95325 19.8721 3.21735 20.3035 2.41553 20.5018C2.85736 19.6553 2.97015 18.6573 2.70135 17.7118C2.68011 17.6373 2.64075 17.5692 2.58673 17.5137C1.52325 16.4183 0.9375 15.0262 0.9375 13.5938C0.9375 10.2905 4.28613 7.5 8.25 7.5C11.993 7.5 15.2812 10.1028 15.2812 13.5938C15.2812 16.9539 12.1271 19.6875 8.25 19.6875ZM21.2986 11.1493C21.3199 11.075 21.3593 11.0068 21.4133 10.9512C22.4767 9.85583 23.0625 8.46368 23.0625 7.03125C23.0625 3.72803 19.7139 0.9375 15.75 0.9375C12.0496 0.9375 9.00769 3.42792 8.73834 6.57623C9.96808 6.64252 11.1628 6.95837 12.2269 7.5H19.7812C20.0402 7.5 20.25 7.70984 20.25 7.96875C20.25 8.22766 20.0402 8.4375 19.7812 8.4375H13.667C15.1787 9.67456 16.0629 11.3406 16.1999 13.1133C17.1855 13.0646 18.2296 12.863 18.9615 12.5718C19.1424 12.4997 19.3491 12.5473 19.4808 12.6909C20.0468 13.3096 20.7827 13.7411 21.5845 13.9393C21.1426 13.0928 21.0298 12.0948 21.2986 11.1493Z" fill="white"/>
<path d="M12 12.1875H6.09375C5.83484 12.1875 5.625 12.3973 5.625 12.6562C5.625 12.9152 5.83484 13.125 6.09375 13.125H12C12.2589 13.125 12.4688 12.9152 12.4688 12.6562C12.4688 12.3973 12.2589 12.1875 12 12.1875Z" fill="white"/>
<path d="M12 15H4.21875C3.95984 15 3.75 15.2098 3.75 15.4688C3.75 15.7277 3.95984 15.9375 4.21875 15.9375H12C12.2589 15.9375 12.4688 15.7277 12.4688 15.4688C12.4688 15.2098 12.2589 15 12 15Z" fill="white"/>
<path d="M19.7812 4.6875H13.875C13.6161 4.6875 13.4062 4.89734 13.4062 5.15625C13.4062 5.41516 13.6161 5.625 13.875 5.625H19.7812C20.0402 5.625 20.25 5.41516 20.25 5.15625C20.25 4.89734 20.0402 4.6875 19.7812 4.6875Z" fill="white"/>
</svg>
