<svg width="20" height="20" viewBox="0 0 20 20" fill="none" xmlns="http://www.w3.org/2000/svg">
<path fill-rule="evenodd" clip-rule="evenodd" d="M0 10C0 4.48193 4.48193 0 10 0C15.5181 0 20 4.48193 20 10C20 15.5181 15.5181 20 10 20C4.48193 20 0 15.5181 0 10ZM0.86747 10C0.86747 15.0361 4.96386 19.1325 10 19.1325C15.0361 19.1325 19.1325 15.0361 19.1325 10C19.1325 4.96386 15.0361 0.86747 10 0.86747C4.96386 0.86747 0.86747 4.96386 0.86747 10Z" fill="white"/>
<path fill-rule="evenodd" clip-rule="evenodd" d="M12.1686 7.83133H15.2047C15.4216 7.83133 15.6143 8.0241 15.6384 8.26506V11.7349C15.6384 11.9759 15.4457 12.1687 15.2047 12.1687H12.1686V15.2048C12.1686 15.4458 11.9758 15.6386 11.7348 15.6386H8.26494C8.02398 15.6386 7.83121 15.4458 7.83121 15.2048V12.1687H4.79506C4.5541 12.1687 4.36133 11.9759 4.36133 11.7349V8.26506C4.36133 8.0241 4.5541 7.83133 4.79506 7.83133H7.83121V4.79519C7.83121 4.55422 8.02398 4.36145 8.26494 4.36145H11.7348C11.9758 4.36145 12.1686 4.55422 12.1686 4.79519V7.83133ZM14.771 11.3012H14.7951V8.6988H11.7589C11.518 8.6988 11.3252 8.50603 11.3252 8.26506V5.22892H8.69868V8.26506C8.69868 8.50603 8.50591 8.6988 8.26494 8.6988H5.2288V11.3012H8.26494C8.50591 11.3012 8.69868 11.494 8.69868 11.7349V14.7711H11.3011V11.7349C11.3011 11.494 11.4939 11.3012 11.7348 11.3012H14.771Z" fill="white"/>
</svg>
