<svg width="30" height="20" viewBox="0 0 30 20" fill="none" xmlns="http://www.w3.org/2000/svg">
<path fill-rule="evenodd" clip-rule="evenodd" d="M25.915 8.38631C26.7925 7.76971 27.3735 6.74402 27.3735 5.58789C27.3735 3.69659 25.8439 2.16694 23.9526 2.16694C22.0613 2.16694 20.5316 3.69659 20.5316 5.58789C20.5316 6.74402 21.1067 7.76971 21.9901 8.38631C21.2372 8.64718 20.5494 9.05034 19.9684 9.57208C19.168 8.89026 18.2253 8.36853 17.1937 8.06023C18.4447 7.30133 19.2866 5.91991 19.2866 4.34876C19.2866 1.95351 17.3478 0.0147705 14.9526 0.0147705C12.5573 0.0147705 10.6186 1.95943 10.6186 4.34876C10.6186 5.91991 11.4545 7.30133 12.7115 8.06023C11.6917 8.36853 10.7609 8.88434 9.9664 9.5543C9.38538 9.04442 8.70949 8.64718 7.96838 8.39224C8.84585 7.77564 9.42688 6.74995 9.42688 5.59382C9.42688 3.70252 7.89723 2.17287 6.00593 2.17287C4.11462 2.17287 2.58498 3.70252 2.58498 5.59382C2.58498 6.74995 3.16008 7.77564 4.04348 8.39224C1.68972 9.20449 0 11.4397 0 14.0662V14.4575C0 14.4693 0.0118577 14.4812 0.0237154 14.4812H7.2747C7.2332 14.8073 7.20949 15.1452 7.20949 15.4831V15.8863C7.20949 17.6294 8.62055 19.0405 10.3636 19.0405H19.5534C21.2964 19.0405 22.7075 17.6294 22.7075 15.8863V15.4831C22.7075 15.1452 22.6838 14.8073 22.6423 14.4812H29.9407C29.9526 14.4812 29.9644 14.4693 29.9644 14.4575V14.0662C29.9526 11.4337 28.2688 9.19857 25.915 8.38631ZM21.4802 5.58196C21.4802 4.21833 22.5889 3.10963 23.9526 3.10963C25.3162 3.10963 26.4249 4.21833 26.4249 5.58196C26.4249 6.92781 25.3399 8.02465 24 8.0543H23.9526H23.9051C22.5593 8.03058 21.4802 6.93374 21.4802 5.58196ZM14.9407 0.963387C13.0731 0.963387 11.5553 2.48117 11.5553 4.34876C11.5553 6.15113 12.9723 7.62742 14.7451 7.72821H14.9407H15.1364C16.9091 7.62742 18.3261 6.15113 18.3261 4.34876C18.3261 2.48117 16.8083 0.963387 14.9407 0.963387ZM3.51581 5.58196C3.51581 4.21833 4.62451 3.10963 5.98814 3.10963C7.35178 3.10963 8.46047 4.21833 8.46047 5.58196C8.46047 6.92781 7.37549 8.02465 6.03557 8.0543H5.98814H5.94071C4.60079 8.03058 3.51581 6.93374 3.51581 5.58196ZM0.960474 13.5266H7.44071C7.7668 12.2697 8.40119 11.1314 9.25494 10.2065C8.3834 9.46536 7.25692 9.00884 6.02372 9.00291H5.98814H5.95257C3.36166 9.0207 1.22727 11.0009 0.960474 13.5266ZM21.747 15.8863C21.747 17.1017 20.7569 18.0918 19.5415 18.0918H10.3518C9.13636 18.0918 8.14625 17.1017 8.14625 15.8863V15.4832C8.14625 11.8013 11.087 8.78947 14.7451 8.68275C14.8103 8.68868 14.8814 8.68868 14.9466 8.68868C15.0119 8.68868 15.083 8.68868 15.1482 8.68275C18.8063 8.78947 21.747 11.8013 21.747 15.4832V15.8863ZM20.6561 10.2302C21.504 11.1551 22.1265 12.2756 22.4526 13.5266H28.9802C28.7134 11.0009 26.5791 9.0207 23.9881 9.00291H23.9526H23.917C22.6719 9.01477 21.5336 9.47129 20.6561 10.2302Z" fill="white"/>
</svg>
