<svg width="26" height="26" viewBox="0 0 26 26" fill="none" xmlns="http://www.w3.org/2000/svg">
<path d="M2.80005 9.00024C2.80005 8.44795 2.35233 8.00024 1.80005 8.00024C1.24776 8.00024 0.800049 8.44795 0.800049 9.00024H2.80005ZM0.800049 25.0002C0.800049 25.5525 1.24776 26.0002 1.80005 26.0002C2.35233 26.0002 2.80005 25.5525 2.80005 25.0002H0.800049ZM6.60005 9.80024L5.75639 9.26336L5.60005 9.50903V9.80024H6.60005ZM10.9162 3.01769L11.7599 3.55456V3.55456L10.9162 3.01769ZM15.1833 5.43368L14.2889 4.98646V4.98647L15.1833 5.43368ZM13 9.80024L12.1056 9.35302C11.9506 9.66301 11.9672 10.0311 12.1494 10.326C12.3316 10.6208 12.6535 10.8002 13 10.8002V9.80024ZM24.2 17.8002L25 18.4002L25.2 18.1336V17.8002H24.2ZM20.3601 22.9202L21.16 23.5202L20.3601 22.9202ZM14.2506 2.23055L14.7651 1.37306V1.37306L14.2506 2.23055ZM0.800049 9.00024V25.0002H2.80005V9.00024H0.800049ZM7.44371 10.3371L11.7599 3.55456L10.0726 2.48081L5.75639 9.26336L7.44371 10.3371ZM14.2889 4.98647L12.1056 9.35302L13.8945 10.2474L16.0778 5.88089L14.2889 4.98647ZM13 10.8002H21V8.80024H13V10.8002ZM23.2 13.0002V17.8002H25.2V13.0002H23.2ZM23.4 17.2002L19.56 22.3202L21.16 23.5202L25 18.4002L23.4 17.2002ZM17.8 23.2002H9.80005V25.2002H17.8V23.2002ZM7.60005 21.0002V9.80024H5.60005V21.0002H7.60005ZM21 10.8002C22.2151 10.8002 23.2 11.7852 23.2 13.0002H25.2C25.2 10.6806 23.3196 8.80024 21 8.80024V10.8002ZM9.80005 23.2002C8.58502 23.2002 7.60005 22.2153 7.60005 21.0002H5.60005C5.60005 23.3198 7.48045 25.2002 9.80005 25.2002V23.2002ZM13.7361 3.08804C14.388 3.47922 14.6289 4.30641 14.2889 4.98646L16.0778 5.88089C16.8852 4.2661 16.3132 2.30192 14.7651 1.37306L13.7361 3.08804ZM19.5601 22.3202C19.1446 22.8742 18.4925 23.2002 17.8 23.2002V25.2002C19.122 25.2002 20.3669 24.5778 21.16 23.5202L19.5601 22.3202ZM11.7599 3.55456C12.1833 2.88917 13.0598 2.68226 13.7361 3.08804L14.7651 1.37306C13.1592 0.409522 11.078 0.900825 10.0726 2.48081L11.7599 3.55456Z" fill="#FBFBFB"/>
</svg>
