<svg width="30" height="26" viewBox="0 0 30 26" fill="none" xmlns="http://www.w3.org/2000/svg">
<path fill-rule="evenodd" clip-rule="evenodd" d="M20.2002 4.22035L17.3486 0.259945C17.2387 0.107314 17.0621 0.0168457 16.874 0.0168457C16.6859 0.0168457 16.5093 0.107314 16.3994 0.259945L13.5477 4.22035C13.476 4.31989 13.4375 4.43942 13.4375 4.56205V4.65544V23.6329C13.4375 24.8395 14.4192 25.8212 15.6259 25.8212H18.1221C19.3288 25.8212 20.3105 24.8395 20.3105 23.6329V4.65544V4.56205C20.3105 4.43942 20.2719 4.31983 20.2002 4.22035ZM16.874 1.60246L18.6512 4.07065H15.0968L16.874 1.60246ZM17.3837 5.24024H14.6071V20.3873H15.1946V9.21714C15.1946 8.89416 15.4564 8.63234 15.7794 8.63234C16.1024 8.63234 16.3642 8.89416 16.3641 9.2172V20.3874H17.3837V5.24024ZM19.1409 23.6328C19.1409 24.1946 18.6839 24.6516 18.1221 24.6516H15.6259C15.0642 24.6516 14.6071 24.1946 14.6071 23.6328V21.5569H19.1409V23.6328ZM18.5533 20.3874H19.1409V5.24024H18.5533V20.3874Z" fill="url(#paint0_linear)"/>
<path d="M16.3513 6.75445C16.3437 6.71761 16.3325 6.68077 16.3179 6.6451C16.3033 6.61001 16.2852 6.57609 16.2641 6.54451C16.2431 6.51235 16.2185 6.48252 16.1916 6.45562C16.1647 6.42872 16.1349 6.40416 16.1027 6.38252C16.0711 6.36147 16.0372 6.34393 16.0015 6.32931C15.9665 6.31469 15.9297 6.30299 15.8922 6.29539C15.8168 6.28077 15.739 6.28077 15.6635 6.29539C15.6267 6.30299 15.5899 6.31469 15.5542 6.32931C15.5191 6.34393 15.4852 6.36147 15.4536 6.38252C15.4214 6.40416 15.3916 6.42872 15.3647 6.45562C15.3378 6.48252 15.3132 6.51235 15.2916 6.54451C15.2706 6.57609 15.2524 6.61001 15.2378 6.6451C15.2232 6.68077 15.2121 6.71761 15.2045 6.75445C15.1969 6.79246 15.1934 6.83106 15.1934 6.86907C15.1934 7.02287 15.2559 7.17375 15.3648 7.28252C15.4735 7.3913 15.6244 7.45387 15.7782 7.45387C15.8162 7.45387 15.8548 7.44977 15.8922 7.44217C15.9297 7.43457 15.9665 7.42346 16.0015 7.40884C16.0372 7.39422 16.0711 7.37609 16.1027 7.35504C16.1349 7.33399 16.1647 7.30942 16.1916 7.28252C16.2185 7.25562 16.2431 7.2258 16.2641 7.19363C16.2852 7.16206 16.3033 7.12814 16.3179 7.09246C16.3325 7.05738 16.3437 7.02053 16.3513 6.98311C16.3589 6.94568 16.3629 6.90708 16.3629 6.86907C16.3629 6.83106 16.3589 6.79246 16.3513 6.75445Z" fill="url(#paint1_linear)"/>
<path fill-rule="evenodd" clip-rule="evenodd" d="M5.68784 10.8801L5.68801 10.9692C8.22871 11.2598 10.2088 13.4229 10.2088 16.0401V20.7268C10.2088 23.5414 7.91895 25.8312 5.10439 25.8312C2.28982 25.8312 0 23.5414 0 20.7268V16.0401C0 13.4236 1.97889 11.2611 4.51848 10.9696L4.5183 10.8813C4.5183 9.77883 5.41064 8.88199 6.51035 8.8748L8.29146 8.79942C8.29971 8.79907 8.30795 8.79889 8.3162 8.79889C8.71766 8.79889 9.04433 8.47223 9.04433 8.07071C9.04433 7.66919 8.71766 7.34258 8.3162 7.34258H4.33632C3.28994 7.34258 2.4386 6.49123 2.4386 5.4448C2.4386 4.93457 2.63918 4.4562 3.00339 4.09761C3.36339 3.74316 3.83953 3.55152 4.34047 3.55842L7.8186 3.55831C8.47246 3.55825 9.00444 3.02626 9.00444 2.37234C9.00444 1.71842 8.47246 1.18644 7.81854 1.18644H3.85725C3.53433 1.18644 3.27246 0.924623 3.27246 0.601641C3.27246 0.278659 3.53433 0.0168457 3.85725 0.0168457H7.81854C9.11737 0.0168457 10.174 1.07351 10.174 2.37234C10.174 3.67117 9.11743 4.7279 7.8186 4.7279L4.33632 4.72802L4.31585 4.72784C4.13164 4.72784 3.95725 4.79977 3.82386 4.93117C3.6848 5.06807 3.60819 5.25047 3.60819 5.44474C3.60819 5.84626 3.93485 6.17293 4.33632 6.17293H8.31626C9.36263 6.17293 10.214 7.02421 10.214 8.07065C10.214 9.11258 9.36994 9.96106 8.32977 9.96837L6.54848 10.0437L6.53751 10.0441L6.52374 10.0443C6.06287 10.0443 5.68789 10.4192 5.68784 10.8801ZM4.51959 12.1486C2.6262 12.4319 1.16959 14.069 1.16959 16.0401V16.9183H4.51959V12.1486ZM9.03918 20.7268C9.03918 22.8965 7.27403 24.6616 5.10439 24.6616C2.93474 24.6616 1.16959 22.8965 1.16959 20.7268V18.088H9.03918V20.7268ZM5.68918 16.9183H9.03918V16.0401C9.03918 14.069 7.58257 12.4319 5.68918 12.1486V16.9183Z" fill="url(#paint2_linear)"/>
<path d="M2.17926 0.487021C2.17166 0.450179 2.16055 0.413337 2.14593 0.377664C2.13131 0.342577 2.11318 0.308659 2.09213 0.27708C2.07113 0.244916 2.04657 0.215091 2.01967 0.188191C1.9109 0.0794188 1.76002 0.0168457 1.60622 0.0168457C1.45242 0.0168457 1.30154 0.0794188 1.19277 0.188191C1.16587 0.215091 1.14131 0.244916 1.12026 0.27708C1.09868 0.308659 1.08108 0.342577 1.06646 0.377664C1.05125 0.413337 1.0402 0.450179 1.03254 0.487021C1.02493 0.525033 1.02148 0.563629 1.02148 0.601641C1.02148 0.639653 1.02499 0.678249 1.03254 0.715676C1.04014 0.753103 1.05125 0.789945 1.0664 0.825033C1.08102 0.860705 1.09862 0.894623 1.1202 0.926202C1.14125 0.958366 1.16581 0.988191 1.19271 1.01509C1.21961 1.04199 1.24944 1.06655 1.28166 1.08761C1.31324 1.10866 1.34716 1.12679 1.38224 1.14141C1.41792 1.15603 1.45476 1.16714 1.49219 1.17474C1.52961 1.18234 1.56821 1.18644 1.60622 1.18644C1.76002 1.18644 1.9109 1.12386 2.01967 1.01509C2.04657 0.988191 2.07113 0.958366 2.09213 0.926202C2.11318 0.894623 2.13131 0.860705 2.14593 0.825033C2.16055 0.789945 2.17166 0.753103 2.17926 0.715676C2.18686 0.678249 2.19096 0.639653 2.19096 0.601641C2.19096 0.563629 2.18686 0.525033 2.17926 0.487021Z" fill="url(#paint3_linear)"/>
<path fill-rule="evenodd" clip-rule="evenodd" d="M28.6179 3.24019C29.1765 3.78896 29.8716 4.47195 29.9362 5.85189C29.9902 7.00528 29.5479 8.09119 28.7549 8.82727C29.0986 9.29832 29.3021 9.87785 29.302 10.5043C29.302 11.0584 29.1463 11.5767 28.8737 12.0158V23.0664C28.8737 24.4573 27.742 25.5889 26.3512 25.5889C24.9603 25.5889 23.8286 24.4573 23.8286 23.0664V11.6381C23.6795 11.2901 23.5975 10.9066 23.5975 10.5043C23.5975 9.87025 23.8058 9.28399 24.1571 8.80984C23.4462 8.14738 23.0107 7.20557 22.9626 6.17844C22.8982 4.80487 23.7156 3.39142 24.4126 2.4475C25.1718 1.41949 26.154 0.477678 26.801 0.157327C27.3004 -0.0898661 27.6157 0.0349292 27.7924 0.183116C27.9344 0.302239 28.1492 0.581479 27.9932 1.11329C27.6488 2.28796 28.0135 2.64638 28.6179 3.24017L28.6179 3.24019ZM26.3512 24.4193C27.0972 24.4193 27.7041 23.8124 27.7041 23.0663V13.0688C27.5165 13.1597 27.3166 13.231 27.1066 13.28L27.0861 13.2846L27.0754 13.287L27.0613 13.2901C27.0419 13.2944 27.0224 13.2987 27.0028 13.3025C26.9646 13.3101 26.9262 13.317 26.8877 13.3229C26.8582 13.3275 26.8284 13.3298 26.7985 13.3298H26.1011C26.0713 13.3298 26.0414 13.3275 26.0119 13.3229C25.6434 13.266 25.302 13.1414 24.9983 12.9635V23.0663C24.9983 23.8124 25.6052 24.4193 26.3512 24.4193ZM27.2403 11.9888L27.233 11.9926C27.2161 12.0015 27.1991 12.0101 27.1819 12.0185L27.1574 12.0302C27.1443 12.0363 27.1311 12.0423 27.1179 12.0481C27.1054 12.0535 27.0928 12.0587 27.0803 12.0639L27.0734 12.0667C27.0654 12.0699 27.0575 12.0731 27.0496 12.0762C27.034 12.0822 27.0182 12.0879 27.0024 12.0934L26.9942 12.0963L26.9778 12.102C26.96 12.1079 26.942 12.1134 26.924 12.1187L26.9035 12.1249C26.8838 12.1305 26.864 12.1355 26.8441 12.1403L26.8366 12.1422L26.8274 12.1445C26.8019 12.1504 26.7762 12.1557 26.7503 12.1604H26.1496L26.1478 12.16C26.1196 12.1549 26.0917 12.1488 26.0639 12.1423C26.0528 12.1397 26.0418 12.1368 26.0307 12.1339C26.0142 12.1297 25.9977 12.1252 25.9813 12.1204L25.9755 12.1187C25.9636 12.1152 25.9517 12.1117 25.94 12.108C25.9328 12.1057 25.9256 12.1032 25.9185 12.1007L25.9091 12.0975C25.2419 11.8692 24.7673 11.2288 24.7673 10.5044C24.7673 9.96206 25.0255 9.47914 25.4251 9.17119C25.4404 9.15932 25.4561 9.14779 25.4718 9.13651C25.4987 9.11721 25.5262 9.09867 25.5543 9.08095C25.5665 9.07317 25.5789 9.06546 25.5913 9.05803C25.6301 9.03493 25.6698 9.01329 25.7105 8.99329L25.7224 8.98727C25.746 8.97592 25.7699 8.9651 25.7941 8.95481L25.8061 8.95002C25.8481 8.93253 25.8909 8.91686 25.9345 8.90277C25.9481 8.89844 25.9616 8.89434 25.9752 8.89037C26.0047 8.88165 26.0346 8.87382 26.0648 8.86668C26.0879 8.8613 26.111 8.85622 26.1344 8.85183C26.1502 8.84879 26.1661 8.84586 26.182 8.84329C26.2186 8.8375 26.2555 8.83271 26.2928 8.82932C26.3 8.82865 26.3072 8.82813 26.3144 8.82761C26.3173 8.8274 26.3202 8.82719 26.3231 8.82698C26.3652 8.82388 26.4074 8.82171 26.45 8.82171C26.4933 8.82171 26.5361 8.82399 26.5786 8.82715L26.5887 8.82787C26.5954 8.82834 26.6021 8.82881 26.6088 8.82943C26.6461 8.83288 26.6831 8.83779 26.7197 8.84364C26.7363 8.84633 26.7527 8.84931 26.7692 8.85247C26.7927 8.85692 26.816 8.86218 26.8392 8.86768C26.8697 8.87493 26.9 8.88294 26.9298 8.89183C26.9422 8.89551 26.9546 8.89937 26.9669 8.90335C27.0089 8.91692 27.0501 8.93206 27.0905 8.94873L27.1084 8.95604C27.1793 8.98627 27.2476 9.02136 27.3131 9.06066C27.3276 9.06937 27.3419 9.0785 27.3561 9.08768C27.3826 9.10464 27.4085 9.12224 27.4338 9.1406C27.4516 9.15347 27.4691 9.16668 27.4864 9.18031C27.8794 9.48861 28.1326 9.96733 28.1326 10.5044C28.1326 11.1348 27.7733 11.7018 27.2403 11.9888ZM27.8622 8.0271C27.8692 8.03075 27.8762 8.0344 27.883 8.03838C28.4744 7.53534 28.8074 6.74926 28.7679 5.90657C28.7248 4.98477 28.2954 4.56296 27.7983 4.07449L27.7982 4.07446C27.2571 3.54282 26.6066 2.9037 26.7037 1.6544C26.3612 1.95329 25.9284 2.39312 25.4792 2.97569C24.5831 4.13797 24.0916 5.2854 24.1309 6.12376C24.1664 6.88195 24.4983 7.56967 25.0361 8.02727C25.0415 8.0242 25.047 8.02139 25.0525 8.01857C25.0573 8.01613 25.0621 8.01368 25.0668 8.01107C25.1014 7.99177 25.1366 7.97335 25.1721 7.95551C25.1771 7.95302 25.182 7.95043 25.187 7.94784C25.1931 7.94461 25.1993 7.94137 25.2056 7.93832C25.2575 7.91306 25.3104 7.88961 25.364 7.86744L25.3768 7.86236C25.4282 7.84142 25.4803 7.82212 25.5331 7.80417L25.5472 7.79937C25.7137 7.74364 25.8869 7.70288 26.0654 7.67873C26.0762 7.67721 26.087 7.67592 26.0978 7.67458C26.1439 7.66885 26.1903 7.66429 26.2371 7.66084C26.2423 7.66045 26.2476 7.66002 26.2528 7.6596C26.2612 7.65892 26.2695 7.65824 26.2779 7.65774C26.3348 7.65434 26.3921 7.65206 26.4499 7.65206C26.5082 7.65206 26.5661 7.6544 26.6236 7.65785C26.6325 7.65841 26.6415 7.65913 26.6504 7.65985C26.6555 7.66027 26.6607 7.66069 26.6658 7.66107C26.713 7.66458 26.7599 7.66926 26.8064 7.67511C26.8101 7.67558 26.8139 7.67604 26.8176 7.67651C26.8249 7.67741 26.8322 7.67831 26.8395 7.67932C26.96 7.69587 27.0781 7.71978 27.1933 7.75095L27.1941 7.75119C27.251 7.76657 27.3071 7.78394 27.3626 7.80271L27.3809 7.80896C27.4917 7.84733 27.5995 7.89201 27.7036 7.94318C27.7145 7.94851 27.7253 7.95412 27.7361 7.95972C27.7412 7.9624 27.7464 7.96508 27.7516 7.96774C27.7828 7.98382 27.8138 8.00037 27.8443 8.01756C27.8502 8.02087 27.8562 8.02399 27.8622 8.0271Z" fill="url(#paint4_linear)"/>
<defs>
<linearGradient id="paint0_linear" x1="13.4375" y1="0.0168457" x2="13.4375" y2="25.8212" gradientUnits="userSpaceOnUse">
<stop stop-color="#FD8439"/>
<stop offset="1" stop-color="#F87244"/>
</linearGradient>
<linearGradient id="paint1_linear" x1="15.1934" y1="6.28442" x2="15.1934" y2="7.45387" gradientUnits="userSpaceOnUse">
<stop stop-color="#FD8439"/>
<stop offset="1" stop-color="#F87244"/>
</linearGradient>
<linearGradient id="paint2_linear" x1="0" y1="0.0168457" x2="0" y2="25.8312" gradientUnits="userSpaceOnUse">
<stop stop-color="#FD8439"/>
<stop offset="1" stop-color="#F87244"/>
</linearGradient>
<linearGradient id="paint3_linear" x1="1.02148" y1="0.0168457" x2="1.02148" y2="1.18644" gradientUnits="userSpaceOnUse">
<stop stop-color="#FD8439"/>
<stop offset="1" stop-color="#F87244"/>
</linearGradient>
<linearGradient id="paint4_linear" x1="22.959" y1="0.0168457" x2="22.959" y2="25.5889" gradientUnits="userSpaceOnUse">
<stop stop-color="#FD8439"/>
<stop offset="1" stop-color="#F87244"/>
</linearGradient>
</defs>
</svg>
