<svg width="36" height="31" viewBox="0 0 36 31" fill="none" xmlns="http://www.w3.org/2000/svg">
<path d="M14.4156 22.3219C14.2872 22.3219 14.1579 22.2777 14.0523 22.1878L10.42 19.0949C10.2947 18.9881 10.2227 18.8321 10.2227 18.6674C10.2227 18.5029 10.295 18.3469 10.42 18.2401L14.0523 15.1472C14.2882 14.9461 14.6424 14.9746 14.8435 15.2105C15.0443 15.4467 15.0161 15.8009 14.7799 16.0017L11.6498 18.6674L14.7799 21.333C15.0161 21.5341 15.0443 21.8884 14.8435 22.1243C14.7323 22.2549 14.5745 22.3219 14.4156 22.3219Z" fill="#EE3A84" stroke="#EE3984" stroke-width="0.4"/>
<path d="M21.585 22.3219C21.4262 22.3219 21.2684 22.2549 21.1575 22.1243C20.9564 21.8884 20.9849 21.5341 21.2207 21.333L24.3509 18.6674L21.2207 16.0017C20.9849 15.8009 20.9564 15.4467 21.1575 15.2105C21.3583 14.9746 21.7128 14.9461 21.9484 15.1472L25.5807 18.2401C25.706 18.3469 25.778 18.5029 25.778 18.6674C25.778 18.8321 25.706 18.9881 25.5807 19.0949L21.9484 22.1878C21.8428 22.2777 21.7135 22.3219 21.585 22.3219Z" fill="#EE3A84" stroke="#EE3984" stroke-width="0.4"/>
<path d="M16.7146 24.642C16.676 24.642 16.6372 24.6379 16.598 24.6298C16.2948 24.5659 16.1006 24.268 16.1645 23.9648L18.4283 13.2167C18.4922 12.9135 18.7897 12.7193 19.0933 12.7832C19.3965 12.8471 19.5907 13.1446 19.5268 13.4482L17.263 24.1963C17.2073 24.4606 16.9742 24.642 16.7146 24.642Z" fill="#EE3A84" stroke="#EE3984" stroke-width="0.4"/>
<path fill-rule="evenodd" clip-rule="evenodd" d="M4.76887 30.4975H31.2311C33.3091 30.4975 35 28.8069 35 26.7286V4.26887C35 2.19085 33.3091 0.5 31.2311 0.5H4.76887C2.69085 0.5 1 2.19085 1 4.26887V26.7286C1 28.8069 2.69085 30.4975 4.76887 30.4975ZM2.12265 4.26927C2.12265 2.81022 3.30982 1.62305 4.76888 1.62305H31.2311C32.6902 1.62305 33.8774 2.81022 33.8774 4.26927V26.729C33.8774 28.1881 32.6902 29.3752 31.2311 29.3752H4.76888C3.30982 29.3752 2.12265 28.1881 2.12265 26.729V4.26927Z" fill="#EE3A84"/>
<path d="M31.2311 30.2975H4.76887V30.6975H31.2311V30.2975ZM34.8 26.7286C34.8 28.6964 33.1987 30.2975 31.2311 30.2975V30.6975C33.4196 30.6975 35.2 28.9174 35.2 26.7286H34.8ZM34.8 4.26887V26.7286H35.2V4.26887H34.8ZM31.2311 0.7C33.1987 0.7 34.8 2.30131 34.8 4.26887H35.2C35.2 2.0804 33.4196 0.3 31.2311 0.3V0.7ZM4.76887 0.7H31.2311V0.3H4.76887V0.7ZM1.2 4.26887C1.2 2.30131 2.80131 0.7 4.76887 0.7V0.3C2.5804 0.3 0.8 2.0804 0.8 4.26887H1.2ZM1.2 26.7286V4.26887H0.8V26.7286H1.2ZM4.76887 30.2975C2.8013 30.2975 1.2 28.6964 1.2 26.7286H0.8C0.8 28.9174 2.58041 30.6975 4.76887 30.6975V30.2975ZM4.76888 1.42305C3.19936 1.42305 1.92265 2.69976 1.92265 4.26927H2.32265C2.32265 2.92067 3.42028 1.82305 4.76888 1.82305V1.42305ZM31.2311 1.42305H4.76888V1.82305H31.2311V1.42305ZM34.0774 4.26927C34.0774 2.69976 32.8007 1.42305 31.2311 1.42305V1.82305C32.5797 1.82305 33.6774 2.92067 33.6774 4.26927H34.0774ZM34.0774 26.729V4.26927H33.6774V26.729H34.0774ZM31.2311 29.5752C32.8007 29.5752 34.0774 28.2985 34.0774 26.729H33.6774C33.6774 28.0776 32.5797 29.1752 31.2311 29.1752V29.5752ZM4.76888 29.5752H31.2311V29.1752H4.76888V29.5752ZM1.92265 26.729C1.92265 28.2985 3.19936 29.5752 4.76888 29.5752V29.1752C3.42028 29.1752 2.32265 28.0776 2.32265 26.729H1.92265ZM1.92265 4.26927V26.729H2.32265V4.26927H1.92265Z" fill="#EE3984"/>
<path d="M34.4387 9.48836H1.56132C1.25122 9.48836 1 9.23715 1 8.92704C1 8.61725 1.25122 8.36572 1.56132 8.36572H34.4387C34.7488 8.36572 35 8.61725 35 8.92704C35 9.23715 34.7488 9.48836 34.4387 9.48836Z" fill="#EE3A84" stroke="#EE3984" stroke-width="0.4"/>
<path fill-rule="evenodd" clip-rule="evenodd" d="M8.8125 5.02637C8.8125 6.00555 9.60969 6.80273 10.5889 6.80273C11.5684 6.80273 12.3652 6.00555 12.3652 5.02637C12.3652 4.04688 11.5684 3.25 10.5889 3.25C9.60969 3.25 8.8125 4.04688 8.8125 5.02637ZM9.93512 5.0258C9.93512 4.66526 10.2286 4.37207 10.5888 4.37207C10.9494 4.37207 11.2426 4.66526 11.2426 5.0258C11.2426 5.38633 10.9494 5.67952 10.5888 5.67952C10.2286 5.67952 9.93512 5.38633 9.93512 5.0258Z" fill="#EE3A84"/>
<path d="M10.5889 6.60273C9.72015 6.60273 9.0125 5.89509 9.0125 5.02637H8.6125C8.6125 6.116 9.49923 7.00273 10.5889 7.00273V6.60273ZM12.1652 5.02637C12.1652 5.89511 11.4579 6.60273 10.5889 6.60273V7.00273C11.6788 7.00273 12.5652 6.11598 12.5652 5.02637H12.1652ZM10.5889 3.45C11.4579 3.45 12.1652 4.15733 12.1652 5.02637H12.5652C12.5652 3.93642 11.6788 3.05 10.5889 3.05V3.45ZM9.0125 5.02637C9.0125 4.15735 9.72012 3.45 10.5889 3.45V3.05C9.49925 3.05 8.6125 3.9364 8.6125 5.02637H9.0125ZM10.5888 4.17207C10.1182 4.17207 9.73512 4.55474 9.73512 5.0258H10.1351C10.1351 4.77578 10.339 4.57207 10.5888 4.57207V4.17207ZM11.4426 5.0258C11.4426 4.5548 11.0598 4.17207 10.5888 4.17207V4.57207C10.8389 4.57207 11.0426 4.77572 11.0426 5.0258H11.4426ZM10.5888 5.87952C11.0598 5.87952 11.4426 5.49679 11.4426 5.0258H11.0426C11.0426 5.27587 10.8389 5.47952 10.5888 5.47952V5.87952ZM9.73512 5.0258C9.73512 5.49685 10.1182 5.87952 10.5888 5.87952V5.47952C10.339 5.47952 10.1351 5.27581 10.1351 5.0258H9.73512Z" fill="#EE3984"/>
<path fill-rule="evenodd" clip-rule="evenodd" d="M3.35547 5.00879C3.35547 5.98828 4.15234 6.78516 5.13184 6.78516C6.11133 6.78516 6.9082 5.98828 6.9082 5.00879C6.9082 4.0293 6.11133 3.23242 5.13184 3.23242C4.15234 3.23242 3.35547 4.0293 3.35547 5.00879ZM4.47812 5.00919C4.47812 4.64897 4.77162 4.35547 5.13184 4.35547C5.49238 4.35547 5.78557 4.64897 5.78557 5.00919C5.78557 5.36973 5.49238 5.66292 5.13184 5.66292C4.77162 5.66292 4.47812 5.36973 4.47812 5.00919Z" fill="#EE3A84"/>
<path d="M5.13184 6.58516C4.2628 6.58516 3.55547 5.87782 3.55547 5.00879H3.15547C3.15547 6.09874 4.04189 6.98516 5.13184 6.98516V6.58516ZM6.7082 5.00879C6.7082 5.87782 6.00087 6.58516 5.13184 6.58516V6.98516C6.22179 6.98516 7.1082 6.09874 7.1082 5.00879H6.7082ZM5.13184 3.43242C6.00087 3.43242 6.7082 4.13975 6.7082 5.00879H7.1082C7.1082 3.91884 6.22179 3.03242 5.13184 3.03242V3.43242ZM3.55547 5.00879C3.55547 4.13975 4.2628 3.43242 5.13184 3.43242V3.03242C4.04189 3.03242 3.15547 3.91884 3.15547 5.00879H3.55547ZM5.13184 4.15547C4.66116 4.15547 4.27812 4.53851 4.27812 5.00919H4.67812C4.67812 4.75943 4.88208 4.55547 5.13184 4.55547V4.15547ZM5.98557 5.00919C5.98557 4.53858 5.6029 4.15547 5.13184 4.15547V4.55547C5.38186 4.55547 5.58557 4.75937 5.58557 5.00919H5.98557ZM5.13184 5.86292C5.60284 5.86292 5.98557 5.48019 5.98557 5.00919H5.58557C5.58557 5.25927 5.38192 5.46292 5.13184 5.46292V5.86292ZM4.27812 5.00919C4.27812 5.48025 4.66123 5.86292 5.13184 5.86292V5.46292C4.88202 5.46292 4.67812 5.25921 4.67812 5.00919H4.27812Z" fill="#EE3984"/>
<path fill-rule="evenodd" clip-rule="evenodd" d="M14.2734 5.04266C14.2734 6.02215 15.0703 6.81902 16.0495 6.81902C17.029 6.81902 17.8259 6.02215 17.8259 5.04266C17.8259 4.06348 17.029 3.2666 16.0495 3.2666C15.0703 3.2666 14.2734 4.06348 14.2734 5.04266ZM15.3961 5.0424C15.3961 4.68186 15.6892 4.38867 16.0495 4.38867C16.41 4.38867 16.7032 4.68186 16.7032 5.0424C16.7032 5.40293 16.41 5.69612 16.0495 5.69612C15.6892 5.69612 15.3961 5.40293 15.3961 5.0424Z" fill="#EE3A84"/>
<path d="M16.0495 6.61902C15.1808 6.61902 14.4734 5.91171 14.4734 5.04266H14.0734C14.0734 6.13258 14.9598 7.01902 16.0495 7.01902V6.61902ZM17.6259 5.04266C17.6259 5.91169 16.9185 6.61902 16.0495 6.61902V7.01902C17.1394 7.01902 18.0259 6.1326 18.0259 5.04266H17.6259ZM16.0495 3.4666C16.9185 3.4666 17.6259 4.17396 17.6259 5.04266H18.0259C18.0259 3.953 17.1394 3.0666 16.0495 3.0666V3.4666ZM14.4734 5.04266C14.4734 4.17393 15.1808 3.4666 16.0495 3.4666V3.0666C14.9599 3.0666 14.0734 3.95302 14.0734 5.04266H14.4734ZM16.0495 4.18867C15.5787 4.18867 15.1961 4.57147 15.1961 5.0424H15.5961C15.5961 4.79226 15.7998 4.58867 16.0495 4.58867V4.18867ZM16.9032 5.0424C16.9032 4.5714 16.5205 4.18867 16.0495 4.18867V4.58867C16.2995 4.58867 16.5032 4.79232 16.5032 5.0424H16.9032ZM16.0495 5.89612C16.5205 5.89612 16.9032 5.51339 16.9032 5.0424H16.5032C16.5032 5.29248 16.2995 5.49612 16.0495 5.49612V5.89612ZM15.1961 5.0424C15.1961 5.51333 15.5787 5.89612 16.0495 5.89612V5.49612C15.7998 5.49612 15.5961 5.29254 15.5961 5.0424H15.1961Z" fill="#EE3984"/>
</svg>
