<svg width="34" height="32" viewBox="0 0 34 32" fill="none" xmlns="http://www.w3.org/2000/svg">
<path d="M7.59889 30.3955C7.29489 30.3954 7.00227 30.28 6.78014 30.0724C6.55801 29.8649 6.42294 29.5808 6.40222 29.2775C6.3815 28.9742 6.47667 28.6744 6.66851 28.4385C6.86035 28.2027 7.13455 28.0485 7.43571 28.0071L7.59889 27.9959H10.3969V23.9997H3.59947C2.6874 23.9998 1.8093 23.6537 1.14263 23.0312C0.475953 22.4088 0.0704251 21.5565 0.00799904 20.6466L2.71939e-08 20.4002V3.59947C-0.000112019 2.6874 0.346022 1.8093 0.968449 1.14263C1.59088 0.475953 2.44318 0.0704251 3.35311 0.00799905L3.59947 4.24232e-08H28.3942C29.306 -0.000139864 30.1839 0.345772 30.8506 0.967864C31.5172 1.58996 31.9229 2.44186 31.9857 3.35151L31.9937 3.59947V20.4002C31.9937 20.9953 31.8497 21.5552 31.5938 22.0496L24.0829 13.7228C23.7039 13.3023 23.2065 13.0066 22.6561 12.8746C22.1056 12.7426 21.5281 12.7805 20.9997 12.9834C20.4713 13.1863 20.0168 13.5445 19.6962 14.011C19.3755 14.4774 19.2038 15.0301 19.2036 15.5961L19.2004 23.9981H12.7949L12.7965 27.9959H19.1988V30.3955H7.59889ZM21.5744 14.4779C21.8009 14.3909 22.0484 14.3746 22.2843 14.4312C22.5202 14.4877 22.7334 14.6144 22.8958 14.7946L33.0783 26.0842C33.2504 26.275 33.3566 26.5161 33.3814 26.7718C33.4061 27.0275 33.3482 27.2845 33.216 27.5048C33.0838 27.7251 32.8844 27.8972 32.647 27.9957C32.4097 28.0942 32.1471 28.1139 31.8977 28.0519L26.2394 26.6473L22.9918 31.4706C22.8481 31.6838 22.6398 31.8453 22.3974 31.9311C22.155 32.017 21.8914 32.0227 21.6456 31.9474C21.3997 31.8722 21.1845 31.7199 21.0317 31.5131C20.8789 31.3063 20.7966 31.0558 20.7969 30.7987L20.8049 15.5977C20.8049 15.3553 20.8782 15.1186 21.0152 14.9187C21.1523 14.7188 21.3467 14.5651 21.5728 14.4779H21.5744Z" fill="#B7BCC1"/>
</svg>
