<?xml version="1.0" encoding="utf-8"?>
<!-- Generator: Adobe Illustrator 23.1.0, SVG Export Plug-In . SVG Version: 6.00 Build 0)  -->
<svg version="1.1" id="Слой_1" xmlns="http://www.w3.org/2000/svg" xmlns:xlink="http://www.w3.org/1999/xlink" x="0px" y="0px"
	 viewBox="0 0 36 32" style="enable-background:new 0 0 36 32;" xml:space="preserve">
<style type="text/css">
	.st0{fill:url(#SVGID_1_);}
	.st1{fill:url(#SVGID_2_);}
	.st2{fill:url(#SVGID_3_);}
	.st3{fill:url(#SVGID_4_);}
	.st4{fill:url(#SVGID_5_);}
	.st5{fill:url(#SVGID_6_);}
	.st6{fill:url(#SVGID_7_);}
</style>
<g>
	<linearGradient id="SVGID_1_" gradientUnits="userSpaceOnUse" x1="12.599" y1="22.8219" x2="12.599" y2="15.5132">
		<stop  offset="0" style="stop-color:#F87244"/>
		<stop  offset="1" style="stop-color:#F87244"/>
	</linearGradient>
	<path class="st0" d="M14.8,15.7c-0.2-0.2-0.6-0.3-0.8-0.1l-3.6,3.1c-0.1,0.1-0.2,0.3-0.2,0.4c0,0.2,0.1,0.3,0.2,0.4l3.6,3.1
		c0.1,0.1,0.2,0.1,0.4,0.1c0.2,0,0.3-0.1,0.4-0.2c0.2-0.2,0.2-0.6-0.1-0.8l-3.1-2.7l3.1-2.7C15,16.3,15,15.9,14.8,15.7z"/>
	<linearGradient id="SVGID_2_" gradientUnits="userSpaceOnUse" x1="23.401" y1="22.8219" x2="23.401" y2="15.5132">
		<stop  offset="0" style="stop-color:#F87244"/>
		<stop  offset="1" style="stop-color:#F87244"/>
	</linearGradient>
	<path class="st1" d="M21.9,15.6c-0.2-0.2-0.6-0.2-0.8,0.1c-0.2,0.2-0.2,0.6,0.1,0.8l3.1,2.7l-3.1,2.7C21,22,21,22.4,21.2,22.6
		c0.1,0.1,0.3,0.2,0.4,0.2c0.1,0,0.3,0,0.4-0.1l3.6-3.1c0.1-0.1,0.2-0.3,0.2-0.4c0-0.2-0.1-0.3-0.2-0.4L21.9,15.6z"/>
	<linearGradient id="SVGID_3_" gradientUnits="userSpaceOnUse" x1="17.8452" y1="25.142" x2="17.8452" y2="13.271">
		<stop  offset="0" style="stop-color:#F87244"/>
		<stop  offset="1" style="stop-color:#F87244"/>
	</linearGradient>
	<path class="st2" d="M19.1,13.3c-0.3-0.1-0.6,0.1-0.7,0.4l-2.3,10.7c-0.1,0.3,0.1,0.6,0.4,0.7c0,0,0.1,0,0.1,0
		c0.3,0,0.5-0.2,0.5-0.4l2.3-10.7C19.6,13.6,19.4,13.3,19.1,13.3z"/>
	<linearGradient id="SVGID_4_" gradientUnits="userSpaceOnUse" x1="18" y1="31.1975" x2="18" y2="0.8">
		<stop  offset="0" style="stop-color:#F87244"/>
		<stop  offset="1" style="stop-color:#F87244"/>
	</linearGradient>
	<path class="st3" d="M31.2,0.8H4.8c-2.2,0-4,1.8-4,4v22.5c0,2.2,1.8,4,4,4h26.5c2.2,0,4-1.8,4-4V4.8C35.2,2.6,33.4,0.8,31.2,0.8z
		 M33.7,8.9H2.3V4.8c0-1.3,1.1-2.4,2.4-2.4h26.5c1.3,0,2.4,1.1,2.4,2.4V8.9z M31.2,29.7H4.8c-1.3,0-2.4-1.1-2.4-2.4V10h31.4v17.2
		C33.7,28.6,32.6,29.7,31.2,29.7z"/>
	<linearGradient id="SVGID_5_" gradientUnits="userSpaceOnUse" x1="10.5905" y1="7.5023" x2="10.5905" y2="3.5495">
		<stop  offset="0" style="stop-color:#F87244"/>
		<stop  offset="1" style="stop-color:#F87244"/>
	</linearGradient>
	<path class="st4" d="M10.6,3.5c-1.1,0-2,0.9-2,2c0,1.1,0.9,2,2,2c1.1,0,2-0.9,2-2C12.6,4.4,11.7,3.5,10.6,3.5z M10.6,6
		c-0.2,0-0.5-0.2-0.5-0.5s0.2-0.5,0.5-0.5c0.3,0,0.5,0.2,0.5,0.5S10.8,6,10.6,6z"/>
	<linearGradient id="SVGID_6_" gradientUnits="userSpaceOnUse" x1="5.1328" y1="7.4852" x2="5.1328" y2="3.5324">
		<stop  offset="0" style="stop-color:#F87244"/>
		<stop  offset="1" style="stop-color:#F87244"/>
	</linearGradient>
	<path class="st5" d="M5.1,3.5c-1.1,0-2,0.9-2,2s0.9,2,2,2s2-0.9,2-2S6.2,3.5,5.1,3.5z M5.1,6C4.9,6,4.7,5.8,4.7,5.5
		c0-0.2,0.2-0.5,0.5-0.5c0.3,0,0.5,0.2,0.5,0.5C5.6,5.8,5.4,6,5.1,6z"/>
	<linearGradient id="SVGID_7_" gradientUnits="userSpaceOnUse" x1="16.0487" y1="7.519" x2="16.0487" y2="3.5666">
		<stop  offset="0" style="stop-color:#F87244"/>
		<stop  offset="1" style="stop-color:#F87244"/>
	</linearGradient>
	<path class="st6" d="M16,3.6c-1.1,0-2,0.9-2,2c0,1.1,0.9,2,2,2c1.1,0,2-0.9,2-2C18,4.5,17.1,3.6,16,3.6z M16,6
		c-0.2,0-0.5-0.2-0.5-0.5c0-0.3,0.2-0.5,0.5-0.5c0.3,0,0.5,0.2,0.5,0.5S16.3,6,16,6z"/>
</g>
</svg>
