<svg width="36" height="32" viewBox="0 0 36 32" fill="none" xmlns="http://www.w3.org/2000/svg">
<g opacity="0.201428">
<path d="M14.4147 22.8219C14.2862 22.8219 14.1569 22.7777 14.0513 22.6878L10.419 19.5949C10.2937 19.4881 10.2217 19.3321 10.2217 19.1674C10.2217 19.0029 10.294 18.8469 10.419 18.7401L14.0513 15.6472C14.2872 15.4461 14.6415 15.4746 14.8426 15.7105C15.0433 15.9467 15.0151 16.3009 14.779 16.5017L11.6488 19.1674L14.779 21.833C15.0151 22.0341 15.0433 22.3884 14.8426 22.6243C14.7314 22.7549 14.5735 22.8219 14.4147 22.8219Z" fill="black" stroke="black" stroke-width="0.4"/>
<path d="M21.5853 22.8219C21.4265 22.8219 21.2686 22.7549 21.1577 22.6243C20.9566 22.3884 20.9851 22.0341 21.221 21.833L24.3512 19.1674L21.221 16.5017C20.9851 16.3009 20.9566 15.9467 21.1577 15.7105C21.3585 15.4746 21.7131 15.4461 21.9486 15.6472L25.5809 18.7401C25.7062 18.8469 25.7783 19.0029 25.7783 19.1674C25.7783 19.3321 25.7062 19.4881 25.5809 19.5949L21.9486 22.6878C21.8431 22.7777 21.7137 22.8219 21.5853 22.8219Z" fill="black" stroke="black" stroke-width="0.4"/>
<path d="M16.7141 25.142C16.6755 25.142 16.6367 25.1379 16.5975 25.1298C16.2943 25.0659 16.1001 24.768 16.164 24.4648L18.4278 13.7167C18.4917 13.4135 18.7893 13.2193 19.0928 13.2832C19.396 13.3471 19.5902 13.6446 19.5263 13.9482L17.2625 24.6963C17.2068 24.9606 16.9737 25.142 16.7141 25.142Z" fill="black" stroke="black" stroke-width="0.4"/>
<path fill-rule="evenodd" clip-rule="evenodd" d="M4.76887 30.9975H31.2311C33.3091 30.9975 35 29.3069 35 27.2286V4.76887C35 2.69085 33.3091 1 31.2311 1H4.76887C2.69085 1 1 2.69085 1 4.76887V27.2286C1 29.3069 2.69085 30.9975 4.76887 30.9975ZM2.12264 4.76887C2.12264 3.30981 3.30981 2.12264 4.76887 2.12264H31.2311C32.6902 2.12264 33.8774 3.30981 33.8774 4.76887V27.2286C33.8774 28.6876 32.6902 29.8748 31.2311 29.8748H4.76887C3.30981 29.8748 2.12264 28.6876 2.12264 27.2286V4.76887Z" fill="black"/>
<path d="M31.2311 30.7975H4.76887V31.1975H31.2311V30.7975ZM34.8 27.2286C34.8 29.1964 33.1987 30.7975 31.2311 30.7975V31.1975C33.4196 31.1975 35.2 29.4174 35.2 27.2286H34.8ZM34.8 4.76887V27.2286H35.2V4.76887H34.8ZM31.2311 1.2C33.1987 1.2 34.8 2.80131 34.8 4.76887H35.2C35.2 2.5804 33.4196 0.8 31.2311 0.8V1.2ZM4.76887 1.2H31.2311V0.8H4.76887V1.2ZM1.2 4.76887C1.2 2.80131 2.80131 1.2 4.76887 1.2V0.8C2.5804 0.8 0.8 2.5804 0.8 4.76887H1.2ZM1.2 27.2286V4.76887H0.8V27.2286H1.2ZM4.76887 30.7975C2.8013 30.7975 1.2 29.1964 1.2 27.2286H0.8C0.8 29.4174 2.58041 31.1975 4.76887 31.1975V30.7975ZM4.76887 1.92264C3.19935 1.92264 1.92264 3.19935 1.92264 4.76887H2.32264C2.32264 3.42027 3.42027 2.32264 4.76887 2.32264V1.92264ZM31.2311 1.92264H4.76887V2.32264H31.2311V1.92264ZM34.0774 4.76887C34.0774 3.19935 32.8006 1.92264 31.2311 1.92264V2.32264C32.5797 2.32264 33.6774 3.42027 33.6774 4.76887H34.0774ZM34.0774 27.2286V4.76887H33.6774V27.2286H34.0774ZM31.2311 30.0748C32.8006 30.0748 34.0774 28.7981 34.0774 27.2286H33.6774C33.6774 28.5772 32.5797 29.6748 31.2311 29.6748V30.0748ZM4.76887 30.0748H31.2311V29.6748H4.76887V30.0748ZM1.92264 27.2286C1.92264 28.7981 3.19935 30.0748 4.76887 30.0748V29.6748C3.42027 29.6748 2.32264 28.5772 2.32264 27.2286H1.92264ZM1.92264 4.76887V27.2286H2.32264V4.76887H1.92264Z" fill="black"/>
<path d="M34.4387 9.98836H1.56132C1.25122 9.98836 1 9.73715 1 9.42704C1 9.11725 1.25122 8.86572 1.56132 8.86572H34.4387C34.7488 8.86572 35 9.11725 35 9.42704C35 9.73715 34.7488 9.98836 34.4387 9.98836Z" fill="black" stroke="black" stroke-width="0.4"/>
<path fill-rule="evenodd" clip-rule="evenodd" d="M8.81421 5.52588C8.81421 6.50506 9.6114 7.30225 10.5906 7.30225C11.5701 7.30225 12.3669 6.50506 12.3669 5.52588C12.3669 4.54639 11.5701 3.74951 10.5906 3.74951C9.6114 3.74951 8.81421 4.54639 8.81421 5.52588ZM9.93685 5.52588C9.93685 5.16534 10.2304 4.87215 10.5906 4.87215C10.9511 4.87215 11.2443 5.16534 11.2443 5.52588C11.2443 5.88641 10.9511 6.1796 10.5906 6.1796C10.2304 6.1796 9.93685 5.88641 9.93685 5.52588Z" fill="black"/>
<path d="M10.5906 7.10225C9.72185 7.10225 9.01421 6.3946 9.01421 5.52588H8.61421C8.61421 6.61551 9.50094 7.50225 10.5906 7.50225V7.10225ZM12.1669 5.52588C12.1669 6.39462 11.4596 7.10225 10.5906 7.10225V7.50225C11.6805 7.50225 12.5669 6.61549 12.5669 5.52588H12.1669ZM10.5906 3.94951C11.4596 3.94951 12.1669 4.65684 12.1669 5.52588H12.5669C12.5669 4.43593 11.6805 3.54951 10.5906 3.54951V3.94951ZM9.01421 5.52588C9.01421 4.65687 9.72183 3.94951 10.5906 3.94951V3.54951C9.50096 3.54951 8.61421 4.43591 8.61421 5.52588H9.01421ZM10.5906 4.67215C10.12 4.67215 9.73685 5.05482 9.73685 5.52588H10.1369C10.1369 5.27586 10.3407 5.07215 10.5906 5.07215V4.67215ZM11.4443 5.52588C11.4443 5.05489 11.0616 4.67215 10.5906 4.67215V5.07215C10.8407 5.07215 11.0443 5.2758 11.0443 5.52588H11.4443ZM10.5906 6.3796C11.0616 6.3796 11.4443 5.99687 11.4443 5.52588H11.0443C11.0443 5.77596 10.8407 5.9796 10.5906 5.9796V6.3796ZM9.73685 5.52588C9.73685 5.99693 10.12 6.3796 10.5906 6.3796V5.9796C10.3407 5.9796 10.1369 5.7759 10.1369 5.52588H9.73685Z" fill="black"/>
<path fill-rule="evenodd" clip-rule="evenodd" d="M3.35645 5.50879C3.35645 6.48828 4.15332 7.28516 5.13281 7.28516C6.1123 7.28516 6.90918 6.48828 6.90918 5.50879C6.90918 4.5293 6.1123 3.73242 5.13281 3.73242C4.15332 3.73242 3.35645 4.5293 3.35645 5.50879ZM4.47909 5.50879C4.47909 5.14857 4.77259 4.85506 5.13281 4.85506C5.49335 4.85506 5.78654 5.14857 5.78654 5.50879C5.78654 5.86932 5.49335 6.16251 5.13281 6.16251C4.77259 6.16251 4.47909 5.86932 4.47909 5.50879Z" fill="black"/>
<path d="M5.13281 7.08516C4.26378 7.08516 3.55645 6.37782 3.55645 5.50879H3.15645C3.15645 6.59874 4.04286 7.48516 5.13281 7.48516V7.08516ZM6.70918 5.50879C6.70918 6.37782 6.00185 7.08516 5.13281 7.08516V7.48516C6.22276 7.48516 7.10918 6.59874 7.10918 5.50879H6.70918ZM5.13281 3.93242C6.00185 3.93242 6.70918 4.63975 6.70918 5.50879H7.10918C7.10918 4.41884 6.22276 3.53242 5.13281 3.53242V3.93242ZM3.55645 5.50879C3.55645 4.63975 4.26378 3.93242 5.13281 3.93242V3.53242C4.04286 3.53242 3.15645 4.41884 3.15645 5.50879H3.55645ZM5.13281 4.65506C4.66213 4.65506 4.27909 5.03811 4.27909 5.50879H4.67909C4.67909 5.25902 4.88305 5.05506 5.13281 5.05506V4.65506ZM5.98654 5.50879C5.98654 5.03817 5.60387 4.65506 5.13281 4.65506V5.05506C5.38283 5.05506 5.58654 5.25896 5.58654 5.50879H5.98654ZM5.13281 6.36251C5.60381 6.36251 5.98654 5.97978 5.98654 5.50879H5.58654C5.58654 5.75887 5.38289 5.96251 5.13281 5.96251V6.36251ZM4.27909 5.50879C4.27909 5.97984 4.6622 6.36251 5.13281 6.36251V5.96251C4.88298 5.96251 4.67909 5.75881 4.67909 5.50879H4.27909Z" fill="black"/>
<path fill-rule="evenodd" clip-rule="evenodd" d="M14.2725 5.54266C14.2725 6.52215 15.0693 7.31902 16.0485 7.31902C17.028 7.31902 17.8249 6.52215 17.8249 5.54266C17.8249 4.56348 17.028 3.7666 16.0485 3.7666C15.0693 3.7666 14.2725 4.56348 14.2725 5.54266ZM15.3951 5.54266C15.3951 5.18212 15.6883 4.88893 16.0485 4.88893C16.4091 4.88893 16.7022 5.18212 16.7022 5.54266C16.7022 5.90319 16.4091 6.19638 16.0485 6.19638C15.6883 6.19638 15.3951 5.90319 15.3951 5.54266Z" fill="black"/>
<path d="M16.0485 7.11902C15.1798 7.11902 14.4725 6.41171 14.4725 5.54266H14.0725C14.0725 6.63258 14.9589 7.51902 16.0485 7.51902V7.11902ZM17.6249 5.54266C17.6249 6.41169 16.9176 7.11902 16.0485 7.11902V7.51902C17.1385 7.51902 18.0249 6.6326 18.0249 5.54266H17.6249ZM16.0485 3.9666C16.9176 3.9666 17.6249 4.67396 17.6249 5.54266H18.0249C18.0249 4.453 17.1384 3.5666 16.0485 3.5666V3.9666ZM14.4725 5.54266C14.4725 4.67393 15.1798 3.9666 16.0485 3.9666V3.5666C14.9589 3.5666 14.0725 4.45302 14.0725 5.54266H14.4725ZM16.0485 4.68893C15.5778 4.68893 15.1951 5.07173 15.1951 5.54266H15.5951C15.5951 5.29251 15.7988 5.08893 16.0485 5.08893V4.68893ZM16.9022 5.54266C16.9022 5.07166 16.5195 4.68893 16.0485 4.68893V5.08893C16.2986 5.08893 16.5022 5.29258 16.5022 5.54266H16.9022ZM16.0485 6.39638C16.5195 6.39638 16.9022 6.01365 16.9022 5.54266H16.5022C16.5022 5.79273 16.2986 5.99638 16.0485 5.99638V6.39638ZM15.1951 5.54266C15.1951 6.01359 15.5778 6.39638 16.0485 6.39638V5.99638C15.7988 5.99638 15.5951 5.7928 15.5951 5.54266H15.1951Z" fill="black"/>
</g>
</svg>
