<svg width="32" height="29" viewBox="0 0 32 29" fill="none" xmlns="http://www.w3.org/2000/svg">
<path fill-rule="evenodd" clip-rule="evenodd" d="M23.4667 4.83333H30.4C31.2836 4.83333 32 5.55471 32 6.44444V18.3988C31.9969 19.08 31.5703 19.6863 30.9333 19.9155V27.3889C30.9333 28.2786 30.2169 29 29.3333 29H2.66667C1.78307 29 1.06667 28.2786 1.06667 27.3889V19.9149C0.429688 19.686 0.00338541 19.08 0 18.3988V6.44444C0 5.55471 0.716406 4.83333 1.6 4.83333H8.53333V2.68519C8.53516 1.20283 9.72786 0.00183558 11.2 0H20.8C22.2721 0.00183558 23.4648 1.20283 23.4667 2.68519V4.83333ZM11.2 1.07407C10.3164 1.07407 9.6 1.79546 9.6 2.68519V4.83333H10.6667V2.68519C10.6667 2.38861 10.9055 2.14815 11.2 2.14815H20.8C21.0945 2.14815 21.3333 2.38861 21.3333 2.68519V4.83333H22.4V2.68519C22.4 1.79546 21.6836 1.07407 20.8 1.07407H11.2ZM20.2667 4.83333H11.7333V3.22222H20.2667V4.83333ZM29.3333 27.9259C29.6279 27.9259 29.8667 27.6855 29.8667 27.3889V20.0996L18.1333 21.729V23.0926C18.1333 23.9823 17.4169 24.7037 16.5333 24.7037H15.4667C14.5831 24.7037 13.8667 23.9823 13.8667 23.0926V21.729L2.13333 20.0996V27.3889C2.13333 27.6855 2.37214 27.9259 2.66667 27.9259H29.3333ZM17.0667 23.0926C17.0667 23.3892 16.8279 23.6296 16.5333 23.6296H15.4667C15.1721 23.6296 14.9333 23.3892 14.9333 23.0926V19.8704C14.9333 19.5738 15.1721 19.3333 15.4667 19.3333H16.5333C16.8279 19.3333 17.0667 19.5738 17.0667 19.8704V23.0926ZM30.4747 18.9311C30.738 18.8936 30.9336 18.6665 30.9333 18.3988V6.44444C30.9333 6.14787 30.6945 5.90741 30.4 5.90741H1.6C1.30547 5.90741 1.06667 6.14787 1.06667 6.44444V18.3988C1.06641 18.6668 1.2625 18.8938 1.52578 18.9311L13.8667 20.6447V19.8704C13.8667 18.9806 14.5831 18.2593 15.4667 18.2593H16.5333C17.4169 18.2593 18.1333 18.9806 18.1333 19.8704V20.6447L30.3268 18.9515L30.4747 18.9311Z" fill="url(#paint0_linear)"/>
<defs>
<linearGradient id="paint0_linear" x1="0" y1="0" x2="0" y2="29" gradientUnits="userSpaceOnUse">
<stop stop-color="#FD8439"/>
<stop offset="1" stop-color="#F87244"/>
</linearGradient>
</defs>
</svg>
