<svg width="40" height="40" viewBox="0 0 40 40" fill="none" xmlns="http://www.w3.org/2000/svg">
<path d="M20 40C31.0457 40 40 31.0457 40 20C40 8.9543 31.0457 0 20 0C8.9543 0 0 8.9543 0 20C0 31.0457 8.9543 40 20 40Z" fill="#140D26"/>
<path d="M31.4581 14.5454C31.1962 13.5708 30.4253 12.7999 29.4362 12.5381C27.6472 12.0726 20.4908 12.0726 20.4908 12.0726C20.4908 12.0726 13.4653 12.0436 11.6762 12.509C10.6871 12.7708 9.7417 13.5708 9.47988 14.5454C8.99988 16.3199 9.04351 19.9999 9.04351 19.9999C9.04351 19.9999 8.99988 23.6799 9.47988 25.4545C9.7417 26.429 10.7017 27.229 11.6762 27.4908C13.4653 27.9708 20.4908 27.9272 20.4908 27.9272C20.4908 27.9272 27.5162 27.9563 29.3053 27.4908C30.2944 27.229 31.2108 26.429 31.4726 25.4545C31.9526 23.6945 31.9526 19.9999 31.9526 19.9999C31.9526 19.9999 31.9381 16.3199 31.4581 14.5454Z" fill="white"/>
<path d="M18.2944 23.52L24.0108 20L18.2944 16.48V23.52Z" fill="#140D26"/>
</svg>
